<svg id="database" xmlns="http://www.w3.org/2000/svg" width="386.6" height="246.4" viewBox="0 0 1933 1232">
  <defs>
    <style>
      .cls-1 {
        fill: #fff;
        fill-rule: evenodd;
      }
    </style>
  </defs>
  <path class="cls-1" d="M48.845,635V569h1052.8v66H48.845Z"/>
  <path class="cls-1" d="M48,1070V999s116.084,10.57,271.2-39.449c149.751-48.288,335.88-199.806,489.055-249.2C974.481,656.752,1101.64,659,1101.64,659v64s-122.8-3.281-284.284,49.941C666.691,822.6,482.121,974.926,331.529,1024.56,170.287,1077.7,48,1070,48,1070Z"/>
  <path id="Shape_3_copy" data-name="Shape 3 copy" class="cls-1" d="M48,129v71s116.084-10.568,271.2,39.449c149.751,48.288,335.88,199.806,489.055,249.2C974.481,542.248,1101.64,540,1101.64,540V476s-122.8,3.281-284.284-49.941C666.691,376.4,482.121,224.074,331.529,174.444,170.287,121.3,48,129,48,129Z"/>
  <path class="cls-1" d="M1532.43,255.342c181.8,0,329.18,53.711,329.18,119.966s-147.38,119.965-329.18,119.965-329.17-53.71-329.17-119.965S1350.64,255.342,1532.43,255.342Zm-3.75,44.238c131.69,0,245.94,29.171,245.94,73.481s-114.25,68.983-245.94,68.983-247.44-24.673-247.44-68.983S1396.99,299.58,1528.68,299.58Z"/>
  <path class="cls-1" d="M1203.26,372.311h75.98V855.19h-75.98V372.311Z"/>
  <path class="cls-1" d="M1778.62,372.311h81.98V853.69h-81.98V372.311Z"/>
  <path id="Shape_6_copy" data-name="Shape 6 copy" class="cls-1" d="M1203.26,612.251s5.68,126.718,326.92,126.718S1860.1,612.251,1860.1,612.251h-83.98s-6.62,63.734-247.44,63.734-245.94-63.734-245.94-63.734h-79.48Z"/>
  <path id="Shape_6_copy_2" data-name="Shape 6 copy 2" class="cls-1" d="M1203.26,852.191s5.68,124.468,326.92,124.468S1861.6,852.191,1861.6,852.191h-85.48s-24.76,63.734-247.44,63.734c-221.46,0-245.94-63.734-245.94-63.734h-79.48Z"/>
</svg>
