<svg xmlns="http://www.w3.org/2000/svg" width="878" height="1073" viewBox="0 0 1756 2146">
  <defs>
    <style>
      .cls-1 {
        fill: #fff;
        fill-rule: evenodd;
      }
    </style>
  </defs>
  <path class="cls-1" d="M550,280V214h671v66H550Z"/>
  <path class="cls-1" d="M423,1982H342c-120.645,0-212.723-126.23-149.5-234C266.842,1621.28,383,1435,383,1435h986s111.72,195.42,167,282c77.34,121.13-14.26,267.68-142,265-17.56-.37-29,0-29,0H423Z"/>
  <path class="cls-1" d="M475,214h82L678,358V817.625S133.006,1729.46,126,1741c-69.648,114.68,40.1,299.81,218,300,194.867,0.21,845.46,2.02,1080.96.02,150.21-1.27,266.12-182.52,200.04-306.02-8.81-16.47-544-918-544-918V358l132-144h87L1153,377.53V802s540.18,909.27,547,922c73.47,137.16-40.45,383.66-267.05,382.63-229.56-1.05-875.384-3.56-1087.95-1.63C99.6,2107.23-7.36,1875.78,63.279,1723.41,65.014,1719.67,612,801.875,612,801.875V376.651Z"/>
</svg>
