<svg id="light" enable-background="new 0 0 24 24" height="512" viewBox="0 0 24 24" width="512" xmlns="http://www.w3.org/2000/svg">
<defs>
    <style>
      .cls-1 {
        fill: #fff;
        fill-rule: evenodd;
      }
    </style>
  </defs>
  <g><path class='cls-1' d="m13.5 24h-3c-.7 0-1.5-.6-1.5-1.8v-2.1c0-1-.5-1.9-1.3-2.6-1.8-1.4-2.7-3.4-2.7-5.6.1-3.8 3.2-6.8 6.9-6.9 1.9 0 3.7.7 5 2s2.1 3.1 2.1 5c0 2.1-.9 4.1-2.6 5.4-.9.7-1.4 1.8-1.4 2.8v2.3c0 .8-.7 1.5-1.5 1.5zm-1.5-18c-3.2 0-5.9 2.7-6 5.9 0 1.9.8 3.7 2.3 4.8 1.1.9 1.7 2.1 1.7 3.4v2.1c0 .2 0 .8.5.8h3c.3 0 .5-.2.5-.5v-2.3c0-1.3.7-2.7 1.8-3.6 1.4-1.1 2.2-2.8 2.2-4.6 0-1.6-.6-3.1-1.8-4.3-1.1-1.1-2.6-1.7-4.2-1.7z"/></g><g><path class='cls-1'  d="m14.5 21h-5c-.3 0-.5-.2-.5-.5s.2-.5.5-.5h5c.3 0 .5.2.5.5s-.2.5-.5.5z"/></g><g><path class='cls-1'  d="m12 3c-.3 0-.5-.2-.5-.5v-2c0-.3.2-.5.5-.5s.5.2.5.5v2c0 .3-.2.5-.5.5z"/></g><g><path class='cls-1' d="m18.7 5.8c-.1 0-.3 0-.4-.1-.2-.2-.2-.5 0-.7l1.4-1.4c.2-.2.5-.2.7 0s.2.5 0 .7l-1.4 1.4s-.2.1-.3.1z"/></g><g><path class='cls-1' d="m23.5 12.5h-2c-.3 0-.5-.2-.5-.5s.2-.5.5-.5h2c.3 0 .5.2.5.5s-.2.5-.5.5z"/></g><g><path class='cls-1' d="m20.1 20.6c-.1 0-.3 0-.4-.1l-1.4-1.4c-.2-.2-.2-.5 0-.7s.5-.2.7 0l1.4 1.4c.2.2.2.5 0 .7 0 .1-.1.1-.3.1z"/></g><g><path class='cls-1'  d="m3.9 20.6c-.1 0-.3 0-.4-.1-.2-.2-.2-.5 0-.7l1.4-1.4c.2-.2.5-.2.7 0s.2.5 0 .7l-1.4 1.4c-.1.1-.2.1-.3.1z"/></g><g><path class='cls-1' d="m2.5 12.5h-2c-.3 0-.5-.2-.5-.5s.2-.5.5-.5h2c.3 0 .5.2.5.5s-.2.5-.5.5z"/></g><g><path class='cls-1' d="m5.3 5.8c-.1 0-.3 0-.4-.1l-1.4-1.5c-.2-.2-.2-.5 0-.7s.5-.2.7 0l1.4 1.4c.2.2.2.5 0 .7-.1.1-.2.2-.3.2z"/></g><g><path class='cls-1' d="m16 12.5c-.3 0-.5-.2-.5-.5 0-1.9-1.6-3.5-3.5-3.5-.3 0-.5-.2-.5-.5s.2-.5.5-.5c2.5 0 4.5 2 4.5 4.5 0 .3-.2.5-.5.5z"/></g></svg>