<?xml version="1.0"?>
<svg xmlns="http://www.w3.org/2000/svg" viewBox="0 0 64 64" width="512" height="512">
<defs>
    <style>
      .cls-1 {
        fill: #fff;
        fill-rule: evenodd;
      }
    </style>
  </defs>
<g id="Brain"><path class='cls-1' d="M56.569,27.425a7.011,7.011,0,0,0-7.825-9.314,7,7,0,0,0-10.091-4.257,6.992,6.992,0,0,0-12.78-1.237A6.941,6.941,0,0,0,23,12a7.012,7.012,0,0,0-6.966,6.3,7.005,7.005,0,0,0-8.6,9.124A7.989,7.989,0,0,0,5.787,41.788,7,7,0,0,0,9,55H24a5.006,5.006,0,0,0,5-5V49h9a5.006,5.006,0,0,0,5-5V43H54a8,8,0,0,0,2.569-15.575ZM54,41H34a3,3,0,0,1,0-6h4a1,1,0,0,0,0-2H34a5,5,0,0,0,0,10h7v1a3,3,0,0,1-3,3H23a1,1,0,0,0,0,2h4v1a3,3,0,0,1-3,3H11.946l.011-1.033a3.01,3.01,0,0,1,3-2.967H16a1,1,0,0,0,0-2H14.956a5.016,5.016,0,0,0-5,4.945L9.945,53H9A5,5,0,0,1,9,43h.563a.806.806,0,0,0,.088-.018c.117.005.231.018.349.018h8a1,1,0,0,0,0-2H10a6,6,0,0,1-.973-11.912c.017,0,.664-.088.973-.088a6.006,6.006,0,0,1,6,6,1,1,0,0,0,2,0,8.009,8.009,0,0,0-8-8c-.186,0-.372.032-.558.045A4.908,4.908,0,0,1,9,25a5.006,5.006,0,0,1,5-5,4.925,4.925,0,0,1,2.167.507A7.03,7.03,0,0,0,23,26a1,1,0,0,0,0-2,5.017,5.017,0,0,1-4.943-4.262c0-.022-.057-.488-.057-.738a5.006,5.006,0,0,1,5-5,4.948,4.948,0,0,1,2.181.505A7,7,0,0,0,25,16a1,1,0,0,0,2,0,5,5,0,0,1,.275-1.638.078.078,0,0,0,.01-.015,4.982,4.982,0,0,1,9.627.861A6.963,6.963,0,0,0,35,20a5.006,5.006,0,0,1-5,5,1,1,0,0,0,0,2,7.008,7.008,0,0,0,7-7,5,5,0,0,1,9.973-.545s0,.008,0,.012A5.21,5.21,0,0,1,47,20a5.006,5.006,0,0,1-5,5,1,1,0,0,0,0,2,7.005,7.005,0,0,0,6.994-6.889A4.921,4.921,0,0,1,50,20a5.006,5.006,0,0,1,5,5,4.908,4.908,0,0,1-.442,2.045C54.372,27.032,54.186,27,54,27a8.009,8.009,0,0,0-8,8,1,1,0,0,0,2,0,6.006,6.006,0,0,1,6-6c.309,0,.956.085.973.088A6,6,0,0,1,54,41Z"/><path d="M23,41H22a1,1,0,0,0,0,2h1a1,1,0,0,0,0-2Z"/></g></svg>
