<?xml version="1.0" encoding="iso-8859-1"?>
<!-- Generator: Adobe Illustrator 19.0.0, SVG Export Plug-In . SVG Version: 6.00 Build 0)  -->
<svg version="1.1" id="Capa_1" xmlns="http://www.w3.org/2000/svg" xmlns:xlink="http://www.w3.org/1999/xlink" x="0px" y="0px"
	 viewBox="0 0 420 480" style="enable-background:new 0 0 420 480;" xml:space="preserve">
	 <defs>
    <style>
      .cls-1 {
        fill: #fff;
        fill-rule: evenodd;
      }
    </style>
  </defs>
<g>
	<g>
		<g class='cls-1'>
		
			<path d="M32,448h80c4.418,0,8-3.582,8-8V296c0-4.418-3.582-8-8-8H32c-4.418,0-8,3.582-8,8v144C24,444.418,27.582,448,32,448z
				 M40,304h64v128H40V304z"/>
			<path d="M256,448h80c4.418,0,8-3.582,8-8V200c0-4.418-3.582-8-8-8h-80c-4.418,0-8,3.582-8,8v240C248,444.418,251.582,448,256,448
				z M264,208h64v224h-64V208z"/>
			<path d="M144,448h80c4.418,0,8-3.582,8-8V104c0-4.418-3.582-8-8-8h-80c-4.418,0-8,3.582-8,8v336C136,444.418,139.582,448,144,448
				z M152,112h64v320h-64V112z"/>
			
		</g>
	</g>
</g>
</svg>
