<svg width="150" height="30" viewBox="0 0 150 30" fill="none" xmlns="http://www.w3.org/2000/svg">
<g clip-path="url(#clip0_1_30)">
<path fill-rule="evenodd" clip-rule="evenodd" d="M26.3541 16.6851C26.3541 21.5383 29.9992 24.7195 34.4802 24.7195C37.1734 24.7195 39.3326 23.6051 40.8649 21.9099V16.1047H33.5282V18.4965H38.1485V20.9114C37.452 21.5615 36.059 22.3044 34.4802 22.3044C31.4156 22.3044 29.1403 19.9358 29.1403 16.6849C29.1403 13.434 31.4155 11.0888 34.4802 11.0888C35.2659 11.0884 36.0404 11.2757 36.7391 11.6351C37.4377 11.9946 38.0404 12.5159 38.4968 13.1555L40.7256 11.9017C39.4719 10.1137 37.4984 8.67413 34.4802 8.67413C29.9992 8.67421 26.3541 11.8322 26.3541 16.6851ZM42.9287 24.4176H45.3665V16.7781C45.8541 15.9886 47.2239 15.292 48.2455 15.292C48.5026 15.2877 48.7595 15.3111 49.0116 15.3616V12.9468C47.5489 12.9468 46.2023 13.7826 45.3665 14.8509V13.2021H42.9287V24.4176ZM55.3485 24.6962C58.9473 24.6962 61.1296 22.0259 61.1296 18.7982C61.1296 15.5938 58.9472 12.9235 55.3485 12.9235C51.7963 12.9235 49.5906 15.5938 49.5906 18.7982C49.5906 22.0259 51.7962 24.6962 55.3485 24.6962ZM55.3485 22.537C53.2822 22.537 52.1213 20.7958 52.1213 18.7985C52.1213 16.8248 53.2822 15.0833 55.3485 15.0833C57.4381 15.0833 58.5989 16.8246 58.5989 18.7985C58.5989 20.7952 57.4381 22.537 55.3485 22.537ZM72.6666 24.4176H75.2206L78.7031 13.2021H76.1726L74.9886 17.2773L73.8045 21.3525L71.1343 13.2021H68.9986L66.3286 21.3525L63.9605 13.2021H61.4295L64.912 24.4176H67.4663L70.0666 16.1976L72.6666 24.4176ZM83.0654 24.6962C84.2031 24.6962 84.9227 24.3943 85.3639 23.9764L84.7832 22.1416C84.5976 22.3507 84.1564 22.5364 83.6921 22.5364C82.9955 22.5364 82.6241 21.9792 82.6241 21.213V15.3384H84.8994V13.2021H82.6241V10.1375H80.1863V13.2025H78.329V15.3388H80.1863V21.8169C80.1863 23.6745 81.1848 24.6962 83.0654 24.6962ZM93.9994 24.4176H96.4371V16.4762C96.4371 14.1777 95.2299 12.9235 92.8153 12.9235C91.0507 12.9235 89.5881 13.8523 88.8452 14.7344V8.92957H86.4074V24.4176H88.8452V16.5923C89.4257 15.8262 90.4937 15.083 91.7242 15.083C93.094 15.083 93.9995 15.617 93.9995 17.3586L93.9994 24.4176ZM98.9658 24.4176H106.79C109.692 24.4176 111.294 22.6293 111.294 20.2379C111.294 18.3339 109.947 16.6851 108.299 16.4298C109.738 16.1279 110.992 14.8278 110.992 12.8771C110.992 10.6944 109.414 8.92957 106.582 8.92957H98.9659L98.9658 24.4176ZM101.682 15.3384V11.3213H106.024C107.417 11.3213 108.207 12.1804 108.207 13.3411C108.207 14.5019 107.417 15.338 106.024 15.338L101.682 15.3384ZM101.682 22.0259V17.7301H106.139C107.695 17.7301 108.508 18.7053 108.508 19.8664C108.508 21.2131 107.626 22.0255 106.139 22.0255L101.682 22.0259ZM118.303 24.6962C121.902 24.6962 124.085 22.0259 124.085 18.7982C124.085 15.5938 121.902 12.9235 118.303 12.9235C114.751 12.9235 112.545 15.5938 112.545 18.7982C112.545 22.0259 114.751 24.6962 118.303 24.6962ZM118.303 22.537C116.237 22.537 115.076 20.7958 115.076 18.7985C115.076 16.8248 116.237 15.0833 118.303 15.0833C120.393 15.0833 121.554 16.8246 121.554 18.7985C121.554 20.7952 120.393 22.537 118.303 22.537ZM130.908 24.6962C134.507 24.6962 136.69 22.0259 136.69 18.7982C136.69 15.5938 134.507 12.9235 130.908 12.9235C127.356 12.9235 125.151 15.5938 125.151 18.7982C125.151 22.0259 127.356 24.6962 130.908 24.6962ZM130.908 22.537C128.842 22.537 127.681 20.7958 127.681 18.7985C127.681 16.8248 128.842 15.0833 130.908 15.0833C132.998 15.0833 134.159 16.8246 134.159 18.7985C134.159 20.7952 132.998 22.537 130.908 22.537ZM145.882 24.4176H148.946L144.187 18.2873L148.854 13.2021H145.836L140.89 18.6125V8.92957H138.452V24.4176H140.89V21.399L142.445 19.797L145.882 24.4176Z" fill="#024CB5"/>
<path fill-rule="evenodd" clip-rule="evenodd" d="M7.80483 11.3905L22.3804 3.18909C22.3804 3.18909 21.0063 4.39788 21.0667 7.01448C21.1311 9.80304 22.3804 10.84 22.3804 10.84L20.6677 10.0596L7.2599 15.3084C7.2599 15.3084 6.93437 14.3964 6.92905 13.7089C6.91522 12.0129 7.80483 11.3905 7.80483 11.3905Z" fill="#349DCD"/>
<path fill-rule="evenodd" clip-rule="evenodd" d="M4.70448 16.752L20.6292 10.9268C20.6292 10.9268 19.2551 12.1356 19.3156 14.7523C19.38 17.5408 20.6292 18.5777 20.6292 18.5777L18.4045 17.7212L4.11097 20.5349C4.11097 20.5349 3.83377 19.6942 3.82871 19.0704C3.81496 17.3743 4.70448 16.752 4.70448 16.752Z" fill="#024CB5"/>
<path fill-rule="evenodd" clip-rule="evenodd" d="M1.60592 21.476L18.4082 18.4618C18.4082 18.4618 17.034 19.6706 17.0944 22.2872C17.1589 25.0758 18.4082 26.1127 18.4082 26.1127H1.73137C1.73137 26.1127 0.744766 25.5134 0.730138 23.7074C0.716383 22.0113 1.60592 21.476 1.60592 21.476Z" fill="#43269A"/>
</g>
<defs>
<clipPath id="clip0_1_30">
<rect width="150" height="23.8411" fill="white" transform="translate(0 3.07947)"/>
</clipPath>
</defs>
</svg>
