<svg width="245" height="245" viewBox="0 0 200 190" fill="none" xmlns="http://www.w3.org/2000/svg">
<path d="M116.658 0C136.059 34.9242 124.42 69.8484 101.134 89.2508C73.9714 69.8484 66.2132 31.0436 85.6141 0C97.2568 3.88055 100.111 11.6416 101.134 11.6416C102.161 11.6416 105.015 3.88055 116.658 0Z" fill="#7964D3"/>
<path d="M201.677 81.1172C175.493 111.294 138.693 112.3 112.498 97.0572C121.442 64.8959 155.251 44.3312 191.057 51.9458C191.395 64.2124 185.078 69.5512 185.427 70.5131C185.779 71.475 194.049 71.505 201.677 81.1172Z" fill="#7964D3"/>
<path d="M153.528 189.719C116.216 175.437 102.687 141.201 108.05 111.372C141.329 108.774 172.217 133.512 177.31 169.764C165.897 174.274 158.721 170.166 157.935 170.823C157.153 171.482 159.952 179.263 153.528 189.719Z" fill="black"/>
<path d="M24.9692 169.133C32.5532 129.908 63.9193 110.638 94.229 110.74C102.565 143.064 83.5648 177.778 48.7478 189.088C42.3241 178.632 45.1263 170.851 44.3405 170.193C43.5584 169.534 36.3785 173.643 24.9692 169.133Z" fill="black"/>
<path d="M10.6197 52.1088C50.0738 45.8214 78.9082 68.7052 89.1758 97.2197C61.6535 116.109 22.5368 110.13 0 81.2801C7.6284 71.6679 15.8981 71.6379 16.2502 70.676C16.5986 69.7141 10.2824 64.3754 10.6197 52.1088Z" fill="black"/>
</svg>
