<?xml version="1.0" encoding="utf-8"?>
<!-- Generator: Adobe Illustrator 22.1.0, SVG Export Plug-In . SVG Version: 6.00 Build 0)  -->
<svg version="1.1" id="Layer_1" xmlns="http://www.w3.org/2000/svg" xmlns:xlink="http://www.w3.org/1999/xlink" x="0px" y="0px"
	 viewBox="0 0 2398.7 2467.8" style="enable-background:new 0 0 2398.7 2467.8;" xml:space="preserve">
<style type="text/css">
	.st0{fill:#B366F6;}
	.st1{fill:#8430CE;}
	.st2{fill:#C58AF8;}
</style>
<g>
	<path class="st0" d="M1576,1228.5c-4.3-186.9-158.2-335.6-345.2-333.4H340.7v666.7h576.5v560.7c-10,180.4,128.1,334.8,308.5,344.8
		c3.9,0.2,7.9,0.4,11.8,0.4c188.8-1.9,340.3-156.4,338.4-345.2c0,0,0,0,0,0L1576,1228.5L1576,1228.5z"/>
	<circle class="st1" cx="336.8" cy="1232.5" r="336.8"/>
	<path class="st2" d="M2397.8,335.1C2396,149.5,2245,0,2059.4,0H1149c-173,17.4-304.6,162.9-304.6,336.8S976,656.1,1149,673.5h583.2
		v560.1c-7.5,184,135.6,339.2,319.5,346.7c184,7.5,339.2-135.6,346.7-319.5c0.4-9,0.4-18.1,0-27.1L2397.8,335.1z"/>
</g>
</svg>
