<svg viewBox="0 0 149.81 148.48" xmlns="http://www.w3.org/2000/svg"><path d="m50.29 81.41v17.69a49.41 49.41 0 0 0 49.35-49.35h-17.64a31.71 31.71 0 0 1 -31.71 31.66z" fill="#3be081"/><path d="m50.29 130.16a31.43 31.43 0 0 1 0-62.85v-17.55a49 49 0 0 0 -.14 98h.14z" fill="#0037ff"/><path d="m50.29 130.16v17.55a49 49 0 0 0 49-49h-17.57a31.46 31.46 0 0 1 -31.43 31.45z" fill="#0cf"/><path d="m50.29 32.19v17.56a49 49 0 0 0 49-49h-17.57a31.46 31.46 0 0 1 -31.43 31.44z" fill="#861dff"/><path d="m99.59 32.19v17.56a49 49 0 0 0 49-49h-17.59a31.46 31.46 0 0 1 -31.41 31.44z" fill="#fc7f10"/></svg>