<svg width="20" height="20" viewBox="0 0 23 20" fill="#ffffff" xmlns="http://www.w3.org/2000/svg">
  <g id="StatsigLogo_QuarterBold">
    <path id="Vector" d="M99.7879 17.6256H96.1719V2.34692H99.7879V17.6256Z"/>
    <path id="Vector_2" d="M64.9813 15.2351L57.64 15.2231L56.6413 17.6284H52.7227L59.572 2.32844L63.028 2.32178L69.9027 17.6218L65.956 17.6284L64.9813 15.2351ZM61.632 7.20311C61.54 6.98178 61.2987 6.30578 61.2987 6.30578C61.2987 6.30578 61.0627 6.96978 60.976 7.18711C60.832 7.54578 58.8987 12.2138 58.8987 12.2138H63.7027C63.7027 12.2138 61.852 7.73378 61.632 7.20311Z"/>
    <path id="Vector_3" d="M54.0087 5.44692H50.0967V17.6243H46.5034V5.44692H42.582V2.34692H54.0074V5.44692H54.0087Z"/>
    <path id="Vector_4" d="M80.0478 5.44692H76.1358V17.6243H72.5424V5.44692H68.6211V2.34692H80.0464V5.44692H80.0478Z"/>
    <path id="Vector_5" d="M19.3088 4.49339L12.9688 13.9721L9.91947 9.42672L2.85547 19.9574L2.88614 20.0041H15.5968C16.0341 20.0041 16.4435 19.7867 16.6861 19.4241L22.5208 10.7214C22.8128 10.2854 22.8128 9.71872 22.5208 9.28272L19.3075 4.49072H19.3088V4.49339Z"/>
    <path id="Vector_6" d="M9.92424 5.67733L12.9709 10.22L19.8069 0H7.14691C6.70957 0 6.30024 0.217333 6.05757 0.578667L0.222906 9.28C-0.0690938 9.716 -0.0690938 10.2827 0.222906 10.7187L3.38157 15.4293L9.92424 5.67733Z"/>
    <path id="Vector_7" d="M110.157 11.8438H113.847V13.8745C113.297 14.2465 112.381 14.7905 110.579 14.7905C107.259 14.7905 105.488 12.8905 105.488 9.98783C105.488 7.08517 107.331 5.17183 110.628 5.17183C112.144 5.17183 113.219 5.53983 114.635 6.64117L116.363 4.06517C114.813 2.6625 112.697 2.0625 110.653 2.0625C105.727 2.0625 101.949 5.3385 101.949 10.0092C101.949 14.6798 105.651 17.9105 110.445 17.9105C113.963 17.9105 116.273 16.4052 117.175 15.7052V8.76383H110.16V11.8438H110.157Z"/>
    <path id="Vector_8" d="M33.2562 6.57221C33.2562 5.77754 34.3176 5.23754 35.8002 5.23754C37.1789 5.23754 38.1256 5.48954 39.1309 6.00021L40.9082 3.35087L40.9242 3.32554L40.9282 3.32021C39.5002 2.53488 38.0082 2.04688 35.8976 2.04688C32.2029 2.04688 29.4682 3.89887 29.5109 6.82287C29.5109 12.4242 38.1482 10.6415 38.1482 13.3229C38.1482 14.3335 36.9069 14.7389 35.4202 14.7389C33.7109 14.7389 32.0896 14.0842 30.6922 13.3202L28.8789 16.0242C30.2429 16.9629 32.6362 17.9575 35.3816 17.9575C39.2456 17.9575 41.8336 16.3162 41.8336 13.0429C41.8336 7.21354 33.2562 9.37221 33.2562 6.57221Z"/>
    <path id="Vector_9" d="M85.4281 6.57221C85.4281 5.77754 86.4894 5.23754 87.9721 5.23754C89.3508 5.23754 90.2974 5.48954 91.3028 6.00021L93.0801 3.35087L93.0961 3.32554L93.1001 3.32021C91.6721 2.53488 90.1801 2.04688 88.0694 2.04688C84.3748 2.04688 81.6401 3.89887 81.6828 6.82287C81.6828 12.4242 90.3201 10.6415 90.3201 13.3229C90.3201 14.3335 89.0788 14.7389 87.5921 14.7389C85.8828 14.7389 84.2614 14.0842 82.8641 13.3202L81.0508 16.0242C82.4148 16.9629 84.8081 17.9575 87.5534 17.9575C91.4174 17.9575 94.0054 16.3162 94.0054 13.0429C94.0054 7.21354 85.4281 9.37221 85.4281 6.57221Z"/>
  </g>
</svg>
