<svg width="203" height="203" viewBox="0 0 250 203" xmlns="http://www.w3.org/2000/svg">
<path fill-rule="evenodd" clip-rule="evenodd" d="M 227.56 109.013 C 230.24 104.372 230.24 98.654 227.56 94.013 L 177.721 7.688 C 175.041 3.047 170.089 0.188 164.73 0.188 L 65.051 0.188 C 59.692 0.188 54.74 3.047 52.06 7.688 L 2.221 94.013 C -0.459 98.654 -0.459 104.372 2.221 109.013 L 52.06 195.338 C 54.74 199.979 59.692 202.838 65.051 202.838 L 164.73 202.838 C 170.089 202.838 175.041 199.979 177.721 195.338 L 227.56 109.013 Z" fill="#194B7D"/>
<g id="animation">
  <path fill-rule="evenodd" clip-rule="evenodd" d="M 186.333 68.01 C 187.152 66.12 185.462 64.106 183.458 64.584 L 149.825 72.619 C 148.017 73.05 147.296 75.234 148.491 76.657 L 153.618 82.768 L 127.144 105.918 L 106.037 82.014 C 103.309 78.924 98.599 78.615 95.491 81.321 L 65.452 107.471 C 63.72 106.828 61.846000000000004 106.478 59.89 106.478 C 51.054 106.478 43.89 113.641 43.89 122.478 C 43.89 131.314 51.054 138.478 59.89 138.478 C 68.727 138.478 75.89 131.314 75.89 122.478 C 75.89 121.165 75.732 119.889 75.434 118.668 L 99.722 97.525 L 120.84 121.442 C 123.572 124.536 128.291 124.841 131.399 122.123 L 163.262 94.261 L 168.371 100.35 C 169.566 101.774 171.841 101.443 172.58 99.737 L 186.333 68.01 Z" fill="#fff"/>
</g>
</svg>
