<svg width="382" height="80" viewBox="0 0 382 80" fill="none" xmlns="http://www.w3.org/2000/svg">
<g clip-path="url(#clip0_695_7416)">
<path d="M0 6C0 2.68629 2.68629 0 6 0H151C154.314 0 157 2.68629 157 6V74C157 77.3137 154.314 80 151 80H6C2.6863 80 0 77.3137 0 74V6Z" fill="url(#paint0_linear_695_7416)" fill-opacity="0.2"/>
<path d="M6 0.5H151C154.038 0.5 156.5 2.96243 156.5 6V74C156.5 77.0376 154.038 79.5 151 79.5H6C2.96244 79.5 0.5 77.0376 0.5 74V6C0.5 2.96243 2.96243 0.5 6 0.5Z" stroke="#845FFD" stroke-opacity="0.37"/>
<path d="M35.9099 51.922C35.9149 52.865 35.5149 53.7649 34.8114 54.393C34.108 55.0211 33.1688 55.3171 32.2323 55.2059C30.5472 54.9565 29.3122 53.4901 29.3533 51.787V32.2072C29.3126 30.5023 30.5505 29.0351 32.238 28.7883C33.1735 28.6788 34.1112 28.9756 34.8133 29.6036C35.5154 30.2315 35.9147 31.1303 35.9099 32.0722V51.922Z" fill="#F9AB00"/>
<path d="M15.2783 48.6774C17.0889 48.6774 18.5566 50.1452 18.5566 51.9557C18.5566 53.7663 17.0889 55.234 15.2783 55.234C13.4677 55.234 12 53.7663 12 51.9557C12 50.1452 13.4677 48.6774 15.2783 48.6774ZM23.9042 38.7413C22.0851 38.841 20.6737 40.3669 20.7159 42.1883V50.9942C20.7159 53.384 21.7674 54.8348 23.3082 55.144C24.2754 55.3401 25.2796 55.0907 26.0427 54.4649C26.8059 53.8391 27.2471 52.9033 27.2444 51.9164V42.0365C27.246 41.1542 26.8931 40.3083 26.2651 39.6887C25.637 39.0691 24.7864 38.7277 23.9042 38.7413Z" fill="#E37400"/>
<path d="M50.6174 32.0597C50.5464 31.8295 50.4484 31.6236 50.3234 31.4418C50.2012 31.2571 50.0535 31.0994 49.8802 30.9688C49.7098 30.8381 49.5137 30.7401 49.2921 30.6747C49.0705 30.6065 48.8291 30.5724 48.5677 30.5724C48.099 30.5724 47.6813 30.6903 47.3149 30.9261C46.9484 31.1619 46.66 31.5085 46.4498 31.9659C46.2424 32.4205 46.1387 32.9744 46.1387 33.6278C46.1387 34.2869 46.2424 34.8452 46.4498 35.3026C46.6572 35.7599 46.9455 36.108 47.3149 36.3466C47.6842 36.5824 48.1132 36.7003 48.6018 36.7003C49.045 36.7003 49.4285 36.6151 49.7524 36.4446C50.0791 36.2741 50.3305 36.0327 50.5066 35.7202C50.6828 35.4048 50.7708 35.0355 50.7708 34.6122L51.1288 34.6676H48.7595V33.4318H52.3007V34.4801C52.3007 35.2273 52.1416 35.8736 51.8234 36.419C51.5052 36.9645 51.0677 37.3849 50.5109 37.6804C49.9541 37.973 49.3149 38.1193 48.5933 38.1193C47.7893 38.1193 47.0833 37.9389 46.4754 37.5781C45.8703 37.2145 45.3973 36.6989 45.0563 36.0312C44.7183 35.3608 44.5492 34.5653 44.5492 33.6449C44.5492 32.9403 44.6487 32.3111 44.8475 31.7571C45.0492 31.2031 45.3305 30.733 45.6913 30.3466C46.0521 29.9574 46.4754 29.6619 46.9612 29.4602C47.447 29.2557 47.9754 29.1534 48.5464 29.1534C49.0294 29.1534 49.4796 29.2244 49.8973 29.3665C50.3149 29.5057 50.6856 29.7045 51.0095 29.9631C51.3362 30.2216 51.6046 30.5284 51.8149 30.8835C52.0251 31.2386 52.1629 31.6307 52.2282 32.0597H50.6174ZM56.6164 38.1278C55.9772 38.1278 55.4232 37.9872 54.9544 37.706C54.4857 37.4247 54.122 37.0312 53.8635 36.5256C53.6078 36.0199 53.48 35.429 53.48 34.7528C53.48 34.0767 53.6078 33.4844 53.8635 32.9759C54.122 32.4673 54.4857 32.0724 54.9544 31.7912C55.4232 31.5099 55.9772 31.3693 56.6164 31.3693C57.2556 31.3693 57.8095 31.5099 58.2783 31.7912C58.747 32.0724 59.1093 32.4673 59.3649 32.9759C59.6235 33.4844 59.7527 34.0767 59.7527 34.7528C59.7527 35.429 59.6235 36.0199 59.3649 36.5256C59.1093 37.0312 58.747 37.4247 58.2783 37.706C57.8095 37.9872 57.2556 38.1278 56.6164 38.1278ZM56.6249 36.892C56.9715 36.892 57.2612 36.7969 57.4942 36.6065C57.7272 36.4134 57.9004 36.1548 58.0141 35.831C58.1306 35.5071 58.1888 35.1463 58.1888 34.7486C58.1888 34.348 58.1306 33.9858 58.0141 33.6619C57.9004 33.3352 57.7272 33.0753 57.4942 32.8821C57.2612 32.6889 56.9715 32.5923 56.6249 32.5923C56.2698 32.5923 55.9743 32.6889 55.7385 32.8821C55.5056 33.0753 55.3308 33.3352 55.2144 33.6619C55.1007 33.9858 55.0439 34.348 55.0439 34.7486C55.0439 35.1463 55.1007 35.5071 55.2144 35.831C55.3308 36.1548 55.5056 36.4134 55.7385 36.6065C55.9743 36.7969 56.2698 36.892 56.6249 36.892ZM63.9171 38.1278C63.2779 38.1278 62.724 37.9872 62.2552 37.706C61.7865 37.4247 61.4228 37.0312 61.1643 36.5256C60.9086 36.0199 60.7808 35.429 60.7808 34.7528C60.7808 34.0767 60.9086 33.4844 61.1643 32.9759C61.4228 32.4673 61.7865 32.0724 62.2552 31.7912C62.724 31.5099 63.2779 31.3693 63.9171 31.3693C64.5563 31.3693 65.1103 31.5099 65.5791 31.7912C66.0478 32.0724 66.41 32.4673 66.6657 32.9759C66.9242 33.4844 67.0535 34.0767 67.0535 34.7528C67.0535 35.429 66.9242 36.0199 66.6657 36.5256C66.41 37.0312 66.0478 37.4247 65.5791 37.706C65.1103 37.9872 64.5563 38.1278 63.9171 38.1278ZM63.9257 36.892C64.2723 36.892 64.562 36.7969 64.795 36.6065C65.0279 36.4134 65.2012 36.1548 65.3149 35.831C65.4313 35.5071 65.4896 35.1463 65.4896 34.7486C65.4896 34.348 65.4313 33.9858 65.3149 33.6619C65.2012 33.3352 65.0279 33.0753 64.795 32.8821C64.562 32.6889 64.2723 32.5923 63.9257 32.5923C63.5705 32.5923 63.2751 32.6889 63.0393 32.8821C62.8063 33.0753 62.6316 33.3352 62.5151 33.6619C62.4015 33.9858 62.3447 34.348 62.3447 34.7486C62.3447 35.1463 62.4015 35.5071 62.5151 35.831C62.6316 36.1548 62.8063 36.4134 63.0393 36.6065C63.2751 36.7969 63.5705 36.892 63.9257 36.892ZM71.2094 40.5909C70.6554 40.5909 70.1796 40.5156 69.7818 40.3651C69.3841 40.2173 69.0645 40.0185 68.823 39.7685C68.5816 39.5185 68.4139 39.2415 68.3202 38.9375L69.7094 38.6009C69.7719 38.7287 69.8628 38.8551 69.9821 38.9801C70.1014 39.108 70.262 39.2131 70.4637 39.2955C70.6682 39.3807 70.9253 39.4233 71.235 39.4233C71.6725 39.4233 72.0347 39.3168 72.3216 39.1037C72.6085 38.8935 72.752 38.5469 72.752 38.0639V36.8239H72.6753C72.5958 36.983 72.4793 37.1463 72.3259 37.3139C72.1753 37.4815 71.975 37.6222 71.725 37.7358C71.4779 37.8494 71.1668 37.9062 70.7918 37.9062C70.2889 37.9062 69.833 37.7884 69.4239 37.5526C69.0176 37.3139 68.6938 36.9588 68.4523 36.4872C68.2137 36.0128 68.0943 35.419 68.0943 34.706C68.0943 33.9872 68.2137 33.3807 68.4523 32.8864C68.6938 32.3892 69.0191 32.0128 69.4281 31.7571C69.8372 31.4986 70.2932 31.3693 70.796 31.3693C71.1796 31.3693 71.4949 31.4347 71.7421 31.5653C71.9921 31.6932 72.1909 31.848 72.3387 32.0298C72.4864 32.2088 72.5986 32.3778 72.6753 32.5369H72.7605V31.4545H74.2818V38.1065C74.2818 38.6662 74.1483 39.1293 73.8813 39.4957C73.6142 39.8622 73.2492 40.1364 72.7861 40.3182C72.323 40.5 71.7975 40.5909 71.2094 40.5909ZM71.2222 36.696C71.5489 36.696 71.8273 36.6165 72.0574 36.4574C72.2875 36.2983 72.4622 36.0696 72.5816 35.7713C72.7009 35.473 72.7605 35.1151 72.7605 34.6974C72.7605 34.2855 72.7009 33.9247 72.5816 33.6151C72.4651 33.3054 72.2918 33.0653 72.0617 32.8949C71.8344 32.7216 71.5546 32.6349 71.2222 32.6349C70.8784 32.6349 70.5915 32.7244 70.3614 32.9034C70.1313 33.0824 69.958 33.3281 69.8415 33.6406C69.725 33.9503 69.6668 34.3026 69.6668 34.6974C69.6668 35.098 69.725 35.4489 69.8415 35.75C69.9608 36.0483 70.1355 36.2812 70.3656 36.4489C70.5986 36.6136 70.8841 36.696 71.2222 36.696ZM77.4054 29.2727V38H75.8628V29.2727H77.4054ZM81.8894 38.1278C81.2332 38.1278 80.6664 37.9915 80.1892 37.7188C79.7147 37.4432 79.3497 37.054 79.094 36.5511C78.8383 36.0455 78.7105 35.4503 78.7105 34.7656C78.7105 34.0923 78.8383 33.5014 79.094 32.9929C79.3525 32.4815 79.7133 32.0838 80.1764 31.7997C80.6394 31.5128 81.1835 31.3693 81.8085 31.3693C82.2119 31.3693 82.5926 31.4347 82.9505 31.5653C83.3113 31.6932 83.6295 31.892 83.9051 32.1619C84.1835 32.4318 84.4022 32.7756 84.5613 33.1932C84.7204 33.608 84.7999 34.1023 84.7999 34.6761V35.1491H79.4349V34.1094H83.3213C83.3184 33.8139 83.2545 33.5511 83.1295 33.321C83.0045 33.0881 82.8298 32.9048 82.6053 32.7713C82.3838 32.6378 82.1252 32.571 81.8298 32.571C81.5144 32.571 81.2374 32.6477 80.9988 32.8011C80.7602 32.9517 80.5741 33.1506 80.4406 33.3977C80.3099 33.642 80.2431 33.9105 80.2403 34.2031V35.1108C80.2403 35.4915 80.3099 35.8182 80.4491 36.0909C80.5883 36.3608 80.7829 36.5682 81.0329 36.7131C81.2829 36.8551 81.5755 36.9261 81.9107 36.9261C82.1352 36.9261 82.3383 36.8949 82.5201 36.8324C82.7019 36.767 82.8596 36.6719 82.9931 36.5469C83.1267 36.4219 83.2275 36.267 83.2957 36.0824L84.736 36.2443C84.6451 36.625 84.4718 36.9574 84.2161 37.2415C83.9633 37.5227 83.6394 37.7415 83.2446 37.8977C82.8497 38.0511 82.398 38.1278 81.8894 38.1278ZM90.2705 38H88.583L91.6554 29.2727H93.6071L96.6838 38H94.9963L92.6654 31.0625H92.5972L90.2705 38ZM90.3259 34.5781H94.9281V35.848H90.3259V34.5781ZM99.3078 34.1648V38H97.7651V31.4545H99.2396V32.5668H99.3163C99.4669 32.2003 99.7069 31.9091 100.036 31.6932C100.369 31.4773 100.779 31.3693 101.268 31.3693C101.72 31.3693 102.113 31.4659 102.448 31.6591C102.786 31.8523 103.048 32.1321 103.232 32.4986C103.42 32.8651 103.512 33.3097 103.509 33.8324V38H101.967V34.071C101.967 33.6335 101.853 33.2912 101.626 33.044C101.402 32.7969 101.09 32.6733 100.693 32.6733C100.423 32.6733 100.183 32.733 99.9725 32.8523C99.7651 32.9687 99.6018 33.1378 99.4825 33.3594C99.366 33.581 99.3078 33.8494 99.3078 34.1648ZM106.961 38.1321C106.546 38.1321 106.173 38.0582 105.84 37.9105C105.511 37.7599 105.25 37.5384 105.056 37.2457C104.866 36.9531 104.771 36.5923 104.771 36.1634C104.771 35.794 104.839 35.4886 104.975 35.2472C105.112 35.0057 105.298 34.8125 105.534 34.6676C105.769 34.5227 106.035 34.4134 106.33 34.3395C106.629 34.2628 106.937 34.2074 107.255 34.1733C107.639 34.1335 107.95 34.098 108.188 34.0668C108.427 34.0327 108.6 33.9815 108.708 33.9134C108.819 33.8423 108.875 33.733 108.875 33.5852V33.5597C108.875 33.2386 108.779 32.9901 108.589 32.8139C108.399 32.6378 108.125 32.5497 107.767 32.5497C107.389 32.5497 107.089 32.6321 106.867 32.7969C106.649 32.9616 106.501 33.1562 106.424 33.3807L104.984 33.1761C105.098 32.7784 105.285 32.446 105.546 32.179C105.808 31.9091 106.127 31.7074 106.505 31.5739C106.883 31.4375 107.301 31.3693 107.758 31.3693C108.073 31.3693 108.387 31.4062 108.7 31.4801C109.012 31.554 109.298 31.6761 109.556 31.8466C109.815 32.0142 110.022 32.2429 110.179 32.5327C110.338 32.8224 110.417 33.1847 110.417 33.6193V38H108.934V37.1009H108.883C108.789 37.2827 108.657 37.4531 108.487 37.6122C108.319 37.7685 108.107 37.8949 107.852 37.9915C107.599 38.0852 107.302 38.1321 106.961 38.1321ZM107.362 36.9986C107.671 36.9986 107.94 36.9375 108.167 36.8153C108.394 36.6903 108.569 36.5256 108.691 36.321C108.816 36.1165 108.879 35.8935 108.879 35.652V34.8807C108.83 34.9205 108.748 34.9574 108.632 34.9915C108.518 35.0256 108.39 35.0554 108.248 35.081C108.106 35.1065 107.965 35.1293 107.826 35.1491C107.687 35.169 107.566 35.1861 107.464 35.2003C107.234 35.2315 107.028 35.2827 106.846 35.3537C106.664 35.4247 106.521 35.5241 106.416 35.652C106.311 35.777 106.258 35.9389 106.258 36.1378C106.258 36.4219 106.362 36.6364 106.569 36.7812C106.777 36.9261 107.041 36.9986 107.362 36.9986ZM113.511 29.2727V38H111.968V29.2727H113.511ZM116.056 40.4545C115.846 40.4545 115.651 40.4375 115.472 40.4034C115.296 40.3722 115.155 40.3352 115.05 40.2926L115.408 39.0909C115.633 39.1563 115.833 39.1875 116.009 39.1847C116.185 39.1818 116.34 39.1264 116.474 39.0185C116.61 38.9134 116.725 38.7372 116.819 38.4901L116.951 38.1364L114.577 31.4545H116.214L117.722 36.3977H117.79L119.303 31.4545H120.944L118.323 38.7926C118.201 39.1392 118.039 39.4361 117.837 39.6832C117.636 39.9332 117.388 40.1236 117.096 40.2543C116.806 40.3878 116.459 40.4545 116.056 40.4545ZM125.28 31.4545V32.6477H121.517V31.4545H125.28ZM122.446 29.8864H123.989V36.0312C123.989 36.2386 124.02 36.3977 124.082 36.5085C124.148 36.6165 124.233 36.6903 124.338 36.7301C124.443 36.7699 124.56 36.7898 124.687 36.7898C124.784 36.7898 124.872 36.7827 124.952 36.7685C125.034 36.7543 125.096 36.7415 125.139 36.7301L125.399 37.9361C125.317 37.9645 125.199 37.9957 125.045 38.0298C124.895 38.0639 124.71 38.0838 124.491 38.0895C124.105 38.1009 123.757 38.0426 123.447 37.9148C123.138 37.7841 122.892 37.5824 122.71 37.3097C122.531 37.0369 122.443 36.696 122.446 36.2869V29.8864ZM126.57 38V31.4545H128.112V38H126.57ZM127.345 30.5256C127.101 30.5256 126.891 30.4446 126.715 30.2827C126.539 30.1179 126.451 29.9205 126.451 29.6903C126.451 29.4574 126.539 29.2599 126.715 29.098C126.891 28.9332 127.101 28.8509 127.345 28.8509C127.593 28.8509 127.803 28.9332 127.976 29.098C128.152 29.2599 128.24 29.4574 128.24 29.6903C128.24 29.9205 128.152 30.1179 127.976 30.2827C127.803 30.4446 127.593 30.5256 127.345 30.5256ZM132.554 38.1278C131.9 38.1278 131.339 37.9844 130.871 37.6974C130.405 37.4105 130.045 37.0142 129.792 36.5085C129.542 36 129.417 35.4148 129.417 34.7528C129.417 34.0881 129.545 33.5014 129.801 32.9929C130.057 32.4815 130.417 32.0838 130.883 31.7997C131.352 31.5128 131.906 31.3693 132.545 31.3693C133.077 31.3693 133.547 31.4673 133.956 31.6634C134.368 31.8565 134.696 32.1307 134.94 32.4858C135.185 32.8381 135.324 33.25 135.358 33.7216H133.883C133.824 33.4062 133.682 33.1435 133.457 32.9332C133.236 32.7202 132.939 32.6136 132.567 32.6136C132.251 32.6136 131.974 32.6989 131.736 32.8693C131.497 33.0369 131.311 33.2784 131.177 33.5938C131.047 33.9091 130.981 34.2869 130.981 34.7273C130.981 35.1733 131.047 35.5568 131.177 35.8778C131.308 36.196 131.491 36.4418 131.727 36.6151C131.966 36.7855 132.246 36.8707 132.567 36.8707C132.794 36.8707 132.997 36.8281 133.176 36.7429C133.358 36.6548 133.51 36.5284 133.632 36.3636C133.754 36.1989 133.838 35.9986 133.883 35.7628H135.358C135.321 36.2259 135.185 36.6364 134.949 36.9943C134.713 37.3494 134.392 37.6278 133.986 37.8295C133.579 38.0284 133.102 38.1278 132.554 38.1278ZM141.798 33.1847L140.392 33.3381C140.352 33.196 140.282 33.0625 140.183 32.9375C140.086 32.8125 139.955 32.7116 139.791 32.6349C139.626 32.5582 139.424 32.5199 139.186 32.5199C138.865 32.5199 138.595 32.5895 138.376 32.7287C138.16 32.8679 138.054 33.0483 138.056 33.2699C138.054 33.4602 138.123 33.6151 138.265 33.7344C138.41 33.8537 138.649 33.9517 138.981 34.0284L140.098 34.267C140.717 34.4006 141.177 34.6122 141.478 34.902C141.782 35.1918 141.936 35.571 141.938 36.0398C141.936 36.4517 141.815 36.8153 141.576 37.1307C141.34 37.4432 141.012 37.6875 140.592 37.8636C140.171 38.0398 139.688 38.1278 139.143 38.1278C138.342 38.1278 137.697 37.9602 137.208 37.625C136.72 37.2869 136.429 36.8168 136.335 36.2145L137.839 36.0696C137.907 36.3651 138.052 36.5881 138.274 36.7386C138.495 36.8892 138.784 36.9645 139.139 36.9645C139.505 36.9645 139.799 36.8892 140.021 36.7386C140.245 36.5881 140.357 36.402 140.357 36.1804C140.357 35.9929 140.285 35.8381 140.14 35.7159C139.998 35.5937 139.777 35.5 139.475 35.4347L138.359 35.2003C137.731 35.0696 137.267 34.8494 136.965 34.5398C136.664 34.2273 136.515 33.8324 136.518 33.3551C136.515 32.9517 136.625 32.6023 136.846 32.3068C137.071 32.0085 137.382 31.7784 137.779 31.6165C138.18 31.4517 138.642 31.3693 139.164 31.3693C139.931 31.3693 140.535 31.5327 140.975 31.8594C141.419 32.1861 141.693 32.6278 141.798 33.1847Z" fill="white"/>
<path d="M44.8688 54V45.2727H50.3404V46.4062H46.1856V49.0653H50.0549V50.1946H46.1856V52.8665H50.3916V54H44.8688ZM57.5965 47.4545L55.2229 54H53.8593L51.4814 47.4545H52.8493L54.507 52.4915H54.5752L56.2286 47.4545H57.5965ZM61.3923 54.1321C60.7474 54.1321 60.192 53.9943 59.7261 53.7188C59.263 53.4403 58.9051 53.0497 58.6522 52.5469C58.4022 52.0412 58.2772 51.4489 58.2772 50.7699C58.2772 50.0994 58.4022 49.5085 58.6522 48.9972C58.9051 48.4858 59.2573 48.0866 59.709 47.7997C60.1636 47.5128 60.6948 47.3693 61.3028 47.3693C61.6721 47.3693 62.0301 47.4304 62.3767 47.5526C62.7232 47.6747 63.0343 47.8665 63.3099 48.1278C63.5855 48.3892 63.8028 48.7287 63.9619 49.1463C64.121 49.5611 64.2005 50.0653 64.2005 50.6591V51.1108H58.9974V50.1562H62.9519C62.9519 49.821 62.8838 49.5241 62.7474 49.2656C62.611 49.0043 62.4193 48.7983 62.1721 48.6477C61.9278 48.4972 61.6409 48.4219 61.3113 48.4219C60.9534 48.4219 60.6409 48.5099 60.3738 48.6861C60.1096 48.8594 59.9051 49.0866 59.7602 49.3679C59.6181 49.6463 59.5471 49.9489 59.5471 50.2756V51.0213C59.5471 51.4588 59.6238 51.831 59.7772 52.1378C59.9335 52.4446 60.1508 52.679 60.4292 52.8409C60.7076 53 61.0329 53.0795 61.4051 53.0795C61.6465 53.0795 61.8667 53.0455 62.0656 52.9773C62.2644 52.9062 62.4363 52.8011 62.5812 52.6619C62.7261 52.5227 62.8369 52.3509 62.9136 52.1463L64.1196 52.3636C64.023 52.7187 63.8497 53.0298 63.5997 53.2969C63.3525 53.5611 63.0414 53.767 62.6664 53.9148C62.2943 54.0597 61.8696 54.1321 61.3923 54.1321ZM66.8884 50.1136V54H65.6142V47.4545H66.8372V48.5199H66.9182C67.0688 48.1733 67.3046 47.8949 67.6256 47.6847C67.9495 47.4744 68.3571 47.3693 68.8486 47.3693C69.2946 47.3693 69.6852 47.4631 70.0205 47.6506C70.3557 47.8352 70.6156 48.1108 70.8003 48.4773C70.985 48.8437 71.0773 49.2969 71.0773 49.8366V54H69.8031V49.9901C69.8031 49.5156 69.6796 49.1449 69.4324 48.8778C69.1852 48.608 68.8458 48.473 68.4139 48.473C68.1185 48.473 67.8557 48.5369 67.6256 48.6648C67.3983 48.7926 67.2179 48.9801 67.0844 49.2273C66.9537 49.4716 66.8884 49.767 66.8884 50.1136ZM75.8415 47.4545V48.4773H72.2662V47.4545H75.8415ZM73.225 45.8864H74.4992V52.0781C74.4992 52.3253 74.5361 52.5114 74.61 52.6364C74.6838 52.7585 74.779 52.8423 74.8955 52.8878C75.0148 52.9304 75.1441 52.9517 75.2833 52.9517C75.3855 52.9517 75.475 52.9446 75.5517 52.9304C75.6284 52.9162 75.6881 52.9048 75.7307 52.8963L75.9608 53.9489C75.887 53.9773 75.7818 54.0057 75.6455 54.0341C75.5091 54.0653 75.3387 54.0824 75.1341 54.0852C74.7989 54.0909 74.4864 54.0312 74.1966 53.9062C73.9068 53.7812 73.6725 53.5881 73.4935 53.3267C73.3145 53.0653 73.225 52.7372 73.225 52.3423V45.8864ZM83.4821 47.4545V48.4773H79.9068V47.4545H83.4821ZM80.8656 45.8864H82.1398V52.0781C82.1398 52.3253 82.1767 52.5114 82.2506 52.6364C82.3245 52.7585 82.4196 52.8423 82.5361 52.8878C82.6554 52.9304 82.7847 52.9517 82.9239 52.9517C83.0262 52.9517 83.1156 52.9446 83.1923 52.9304C83.2691 52.9162 83.3287 52.9048 83.3713 52.8963L83.6014 53.9489C83.5276 53.9773 83.4225 54.0057 83.2861 54.0341C83.1497 54.0653 82.9793 54.0824 82.7747 54.0852C82.4395 54.0909 82.127 54.0312 81.8372 53.9062C81.5475 53.7812 81.3131 53.5881 81.1341 53.3267C80.9551 53.0653 80.8656 52.7372 80.8656 52.3423V45.8864ZM84.8916 54V47.4545H86.1231V48.4943H86.1913C86.3106 48.142 86.5208 47.8651 86.822 47.6634C87.1259 47.4588 87.4697 47.3565 87.8532 47.3565C87.9328 47.3565 88.0265 47.3594 88.1345 47.3651C88.2453 47.3707 88.3319 47.3778 88.3944 47.3864V48.6051C88.3433 48.5909 88.2524 48.5753 88.1217 48.5582C87.991 48.5384 87.8603 48.5284 87.7296 48.5284C87.4285 48.5284 87.16 48.5923 86.9242 48.7202C86.6913 48.8452 86.5066 49.0199 86.3703 49.2443C86.2339 49.4659 86.1657 49.7187 86.1657 50.0028V54H84.8916ZM91.3433 54.1449C90.9285 54.1449 90.5535 54.0682 90.2183 53.9148C89.883 53.7585 89.6174 53.5327 89.4214 53.2372C89.2282 52.9418 89.1316 52.5795 89.1316 52.1506C89.1316 51.7812 89.2026 51.4773 89.3447 51.2386C89.4867 51 89.6785 50.8111 89.92 50.6719C90.1615 50.5327 90.4313 50.4276 90.7296 50.3565C91.0279 50.2855 91.3319 50.2315 91.6416 50.1946C92.0336 50.1491 92.3518 50.1122 92.5961 50.0838C92.8404 50.0526 93.018 50.0028 93.1288 49.9347C93.2396 49.8665 93.295 49.7557 93.295 49.6023V49.5724C93.295 49.2003 93.1899 48.9119 92.9796 48.7074C92.7723 48.5028 92.4626 48.4006 92.0507 48.4006C91.6217 48.4006 91.2836 48.4957 91.0365 48.6861C90.7921 48.8736 90.6231 49.0824 90.5294 49.3125L89.3319 49.0398C89.474 48.642 89.6813 48.321 89.9541 48.0767C90.2296 47.8295 90.5464 47.6506 90.9044 47.5398C91.2623 47.4261 91.6387 47.3693 92.0336 47.3693C92.295 47.3693 92.572 47.4006 92.8646 47.4631C93.16 47.5227 93.4356 47.6335 93.6913 47.7955C93.9498 47.9574 94.1615 48.1889 94.3262 48.4901C94.491 48.7884 94.5734 49.1761 94.5734 49.6534V54H93.3291V53.1051H93.2779C93.1955 53.2699 93.072 53.4318 92.9072 53.5909C92.7424 53.75 92.5308 53.8821 92.2723 53.9872C92.0137 54.0923 91.7041 54.1449 91.3433 54.1449ZM91.6203 53.1222C91.9725 53.1222 92.2737 53.0526 92.5237 52.9134C92.7765 52.7741 92.9683 52.5923 93.099 52.3679C93.2325 52.1406 93.2992 51.8977 93.2992 51.6392V50.7955C93.2538 50.8409 93.1657 50.8835 93.035 50.9233C92.9072 50.9602 92.7609 50.9929 92.5961 51.0213C92.4313 51.0469 92.2708 51.071 92.1146 51.0938C91.9583 51.1136 91.8276 51.1307 91.7225 51.1449C91.4754 51.1761 91.2495 51.2287 91.045 51.3026C90.8433 51.3764 90.6813 51.483 90.5592 51.6222C90.4399 51.7585 90.3802 51.9403 90.3802 52.1676C90.3802 52.483 90.4967 52.7216 90.7296 52.8835C90.9626 53.0426 91.2595 53.1222 91.6203 53.1222ZM99.0276 54.1321C98.3941 54.1321 97.8486 53.9886 97.3912 53.7017C96.9367 53.4119 96.5872 53.0128 96.3429 52.5043C96.0986 51.9957 95.9764 51.4134 95.9764 50.7571C95.9764 50.0923 96.1014 49.5057 96.3514 48.9972C96.6014 48.4858 96.9537 48.0866 97.4083 47.7997C97.8628 47.5128 98.3983 47.3693 99.0148 47.3693C99.512 47.3693 99.9551 47.4616 100.344 47.6463C100.734 47.8281 101.047 48.0838 101.286 48.4134C101.528 48.7429 101.671 49.1278 101.716 49.5682H100.476C100.408 49.2614 100.252 48.9972 100.008 48.7756C99.7662 48.554 99.4423 48.4432 99.0361 48.4432C98.681 48.4432 98.3699 48.5369 98.1029 48.7244C97.8387 48.9091 97.6327 49.1733 97.485 49.517C97.3372 49.858 97.2634 50.2614 97.2634 50.7273C97.2634 51.2045 97.3358 51.6165 97.4807 51.9631C97.6256 52.3097 97.8301 52.5781 98.0943 52.7685C98.3614 52.9588 98.6753 53.054 99.0361 53.054C99.2776 53.054 99.4963 53.0099 99.6923 52.9219C99.8912 52.831 100.057 52.7017 100.191 52.5341C100.327 52.3665 100.422 52.1648 100.476 51.929H101.716C101.671 52.3523 101.533 52.7301 101.303 53.0625C101.073 53.3949 100.765 53.6562 100.378 53.8466C99.9949 54.0369 99.5446 54.1321 99.0276 54.1321ZM104.251 51.7798L104.242 50.2244H104.464L107.072 47.4545H108.598L105.623 50.608H105.423L104.251 51.7798ZM103.079 54V45.2727H104.353V54H103.079ZM107.213 54L104.869 50.8892L105.747 49.9986L108.777 54H107.213ZM112.31 54.1321C111.665 54.1321 111.11 53.9943 110.644 53.7188C110.181 53.4403 109.823 53.0497 109.57 52.5469C109.32 52.0412 109.195 51.4489 109.195 50.7699C109.195 50.0994 109.32 49.5085 109.57 48.9972C109.823 48.4858 110.175 48.0866 110.627 47.7997C111.082 47.5128 111.613 47.3693 112.221 47.3693C112.59 47.3693 112.948 47.4304 113.295 47.5526C113.641 47.6747 113.952 47.8665 114.228 48.1278C114.503 48.3892 114.721 48.7287 114.88 49.1463C115.039 49.5611 115.118 50.0653 115.118 50.6591V51.1108H109.915V50.1562H113.87C113.87 49.821 113.802 49.5241 113.665 49.2656C113.529 49.0043 113.337 48.7983 113.09 48.6477C112.846 48.4972 112.559 48.4219 112.229 48.4219C111.871 48.4219 111.559 48.5099 111.292 48.6861C111.028 48.8594 110.823 49.0866 110.678 49.3679C110.536 49.6463 110.465 49.9489 110.465 50.2756V51.0213C110.465 51.4588 110.542 51.831 110.695 52.1378C110.851 52.4446 111.069 52.679 111.347 52.8409C111.626 53 111.951 53.0795 112.323 53.0795C112.565 53.0795 112.785 53.0455 112.984 52.9773C113.182 52.9062 113.354 52.8011 113.499 52.6619C113.644 52.5227 113.755 52.3509 113.832 52.1463L115.038 52.3636C114.941 52.7187 114.768 53.0298 114.518 53.2969C114.27 53.5611 113.959 53.767 113.584 53.9148C113.212 54.0597 112.788 54.1321 112.31 54.1321ZM116.532 54V47.4545H117.764V48.4943H117.832C117.951 48.142 118.161 47.8651 118.463 47.6634C118.767 47.4588 119.11 47.3565 119.494 47.3565C119.573 47.3565 119.667 47.3594 119.775 47.3651C119.886 47.3707 119.973 47.3778 120.035 47.3864V48.6051C119.984 48.5909 119.893 48.5753 119.762 48.5582C119.632 48.5384 119.501 48.5284 119.37 48.5284C119.069 48.5284 118.801 48.5923 118.565 48.7202C118.332 48.8452 118.147 49.0199 118.011 49.2443C117.875 49.4659 117.806 49.7187 117.806 50.0028V54H116.532Z" fill="white" fill-opacity="0.85"/>
<path d="M165 6C165 2.68629 167.686 0 171 0H305C308.314 0 311 2.68629 311 6V74C311 77.3137 308.314 80 305 80H171C167.686 80 165 77.3137 165 74V6Z" fill="url(#paint1_linear_695_7416)" fill-opacity="0.2"/>
<path d="M171 0.5H305C308.038 0.500002 310.5 2.96244 310.5 6V74C310.5 77.0376 308.038 79.5 305 79.5H171C167.962 79.5 165.5 77.0376 165.5 74V6C165.5 2.96243 167.962 0.5 171 0.5Z" stroke="#845FFD" stroke-opacity="0.37"/>
<path d="M188.172 51.8769L181.773 41.2607C181.527 40.8525 181.398 40.3895 181.398 39.9182C181.398 39.4469 181.527 38.9839 181.773 38.5758L188.172 27.9597C188.418 27.5515 188.772 27.2126 189.199 26.9769C189.625 26.7412 190.108 26.6172 190.6 26.6172H203.399C203.891 26.6172 204.374 26.7413 204.801 26.9769C205.227 27.2126 205.581 27.5516 205.827 27.9597L212.226 38.5758C212.472 38.984 212.602 39.447 212.602 39.9183C212.602 40.3897 212.472 40.8527 212.226 41.2609L205.827 51.8769C205.581 52.2851 205.227 52.624 204.801 52.8596C204.374 53.0952 203.891 53.2193 203.399 53.2193H190.6C190.108 53.2193 189.625 53.0953 189.199 52.8596C188.772 52.6239 188.418 52.2852 188.172 51.8769Z" fill="url(#paint2_linear_695_7416)"/>
<path opacity="0.07" d="M210.464 45.1672L201.053 36.1531L197 35.1143L193.36 36.4102L191.954 39.9184L193.084 43.8244L203.064 53.3829L205.182 53.2928L210.464 45.1672Z" fill="black"/>
<path d="M197 34.5023C193.877 34.5023 191.345 36.9271 191.345 39.9184C191.345 42.9093 193.877 45.3341 197 45.3341C200.123 45.3341 202.654 42.9093 202.654 39.9184C202.654 36.9271 200.122 34.5023 197 34.5023ZM197 44.0275C194.63 44.0275 192.709 42.1876 192.709 39.9181C192.709 37.6486 194.63 35.809 197 35.809C199.369 35.809 201.29 37.6488 201.29 39.9184C201.29 42.1879 199.369 44.0275 197 44.0275Z" fill="white"/>
<path d="M194.316 39.7092V41.3926C194.576 41.8202 194.943 42.1793 195.384 42.4375V39.7092H194.316ZM196.433 38.29V42.8223C196.615 42.8542 196.8 42.8736 196.991 42.8736C197.165 42.8736 197.335 42.8561 197.502 42.8295V38.29H196.433ZM198.649 40.4087V42.4078C199.097 42.1351 199.465 41.7574 199.717 41.3104V40.4089L198.649 40.4087ZM201.069 43.2542L200.483 43.8158C200.433 43.8634 200.405 43.9279 200.405 43.9952C200.405 44.0625 200.433 44.127 200.483 44.1746L202.705 46.3022C202.755 46.3497 202.822 46.3764 202.892 46.3764C202.963 46.3764 203.03 46.3497 203.08 46.3022L203.666 45.7413C203.715 45.6936 203.742 45.6292 203.742 45.562C203.742 45.4949 203.715 45.4304 203.666 45.3827L201.443 43.2542C201.393 43.2069 201.326 43.1803 201.256 43.1803C201.186 43.1803 201.119 43.2069 201.069 43.2542Z" fill="white"/>
<path d="M221.861 36V27.2727H225.202C225.832 27.2727 226.357 27.3722 226.774 27.571C227.195 27.767 227.509 28.0355 227.716 28.3764C227.926 28.7173 228.031 29.1037 228.031 29.5355C228.031 29.8906 227.963 30.1946 227.827 30.4474C227.69 30.6974 227.507 30.9006 227.277 31.0568C227.047 31.2131 226.79 31.3253 226.506 31.3935V31.4787C226.815 31.4957 227.112 31.5909 227.396 31.7642C227.683 31.9347 227.918 32.1761 228.099 32.4886C228.281 32.8011 228.372 33.179 228.372 33.6222C228.372 34.0739 228.263 34.4801 228.044 34.8409C227.825 35.1989 227.496 35.4815 227.055 35.6889C226.615 35.8963 226.061 36 225.393 36H221.861ZM223.442 34.679H225.142C225.716 34.679 226.129 34.5696 226.382 34.3509C226.638 34.1293 226.766 33.8452 226.766 33.4986C226.766 33.2401 226.702 33.0071 226.574 32.7997C226.446 32.5895 226.264 32.4247 226.028 32.3054C225.793 32.1832 225.511 32.1222 225.185 32.1222H223.442V34.679ZM223.442 30.9844H225.006C225.278 30.9844 225.524 30.9347 225.743 30.8352C225.962 30.733 226.134 30.5895 226.259 30.4048C226.386 30.2173 226.45 29.9957 226.45 29.7401C226.45 29.402 226.331 29.1236 226.092 28.9048C225.857 28.6861 225.506 28.5767 225.04 28.5767H223.442V30.9844ZM229.679 36V29.4545H231.222V36H229.679ZM230.455 28.5256C230.211 28.5256 230 28.4446 229.824 28.2827C229.648 28.1179 229.56 27.9205 229.56 27.6903C229.56 27.4574 229.648 27.2599 229.824 27.098C230 26.9332 230.211 26.8509 230.455 26.8509C230.702 26.8509 230.912 26.9332 231.086 27.098C231.262 27.2599 231.35 27.4574 231.35 27.6903C231.35 27.9205 231.262 28.1179 231.086 28.2827C230.912 28.4446 230.702 28.5256 230.455 28.5256ZM235.655 38.5909C235.101 38.5909 234.625 38.5156 234.227 38.3651C233.83 38.2173 233.51 38.0185 233.268 37.7685C233.027 37.5185 232.859 37.2415 232.766 36.9375L234.155 36.6009C234.217 36.7287 234.308 36.8551 234.428 36.9801C234.547 37.108 234.707 37.2131 234.909 37.2955C235.114 37.3807 235.371 37.4233 235.68 37.4233C236.118 37.4233 236.48 37.3168 236.767 37.1037C237.054 36.8935 237.197 36.5469 237.197 36.0639V34.8239H237.121C237.041 34.983 236.925 35.1463 236.771 35.3139C236.621 35.4815 236.42 35.6222 236.17 35.7358C235.923 35.8494 235.612 35.9062 235.237 35.9062C234.734 35.9062 234.278 35.7884 233.869 35.5526C233.463 35.3139 233.139 34.9588 232.898 34.4872C232.659 34.0128 232.54 33.419 232.54 32.706C232.54 31.9872 232.659 31.3807 232.898 30.8864C233.139 30.3892 233.464 30.0128 233.874 29.7571C234.283 29.4986 234.739 29.3693 235.241 29.3693C235.625 29.3693 235.94 29.4347 236.188 29.5653C236.438 29.6932 236.636 29.848 236.784 30.0298C236.932 30.2088 237.044 30.3778 237.121 30.5369H237.206V29.4545H238.727V36.1065C238.727 36.6662 238.594 37.1293 238.327 37.4957C238.06 37.8622 237.695 38.1364 237.232 38.3182C236.768 38.5 236.243 38.5909 235.655 38.5909ZM235.668 34.696C235.994 34.696 236.273 34.6165 236.503 34.4574C236.733 34.2983 236.908 34.0696 237.027 33.7713C237.146 33.473 237.206 33.1151 237.206 32.6974C237.206 32.2855 237.146 31.9247 237.027 31.6151C236.911 31.3054 236.737 31.0653 236.507 30.8949C236.28 30.7216 236 30.6349 235.668 30.6349C235.324 30.6349 235.037 30.7244 234.807 30.9034C234.577 31.0824 234.403 31.3281 234.287 31.6406C234.17 31.9503 234.112 32.3026 234.112 32.6974C234.112 33.098 234.17 33.4489 234.287 33.75C234.406 34.0483 234.581 34.2812 234.811 34.4489C235.044 34.6136 235.33 34.696 235.668 34.696ZM243.628 33.0682H245.06L245.908 34.1676L246.513 34.8835L247.966 36.75H246.432L245.443 35.4972L245.021 34.9006L243.628 33.0682ZM248.175 31.6364C248.175 32.5767 247.999 33.3821 247.646 34.0526C247.297 34.7202 246.82 35.2315 246.214 35.5866C245.612 35.9418 244.929 36.1193 244.165 36.1193C243.401 36.1193 242.716 35.9418 242.111 35.5866C241.509 35.2287 241.031 34.7159 240.679 34.0483C240.33 33.3778 240.155 32.5739 240.155 31.6364C240.155 30.696 240.33 29.892 240.679 29.2244C241.031 28.554 241.509 28.0412 242.111 27.6861C242.716 27.331 243.401 27.1534 244.165 27.1534C244.929 27.1534 245.612 27.331 246.214 27.6861C246.82 28.0412 247.297 28.554 247.646 29.2244C247.999 29.892 248.175 30.696 248.175 31.6364ZM246.585 31.6364C246.585 30.9744 246.482 30.4162 246.274 29.9616C246.07 29.5043 245.786 29.1591 245.422 28.9261C245.058 28.6903 244.639 28.5724 244.165 28.5724C243.69 28.5724 243.271 28.6903 242.908 28.9261C242.544 29.1591 242.259 29.5043 242.051 29.9616C241.847 30.4162 241.744 30.9744 241.744 31.6364C241.744 32.2983 241.847 32.858 242.051 33.3153C242.259 33.7699 242.544 34.1151 242.908 34.3509C243.271 34.5838 243.69 34.7003 244.165 34.7003C244.639 34.7003 245.058 34.5838 245.422 34.3509C245.786 34.1151 246.07 33.7699 246.274 33.3153C246.482 32.858 246.585 32.2983 246.585 31.6364ZM253.785 33.2472V29.4545H255.327V36H253.832V34.8366H253.763C253.616 35.2031 253.373 35.5028 253.035 35.7358C252.7 35.9687 252.286 36.0852 251.795 36.0852C251.366 36.0852 250.987 35.9901 250.657 35.7997C250.33 35.6065 250.075 35.3267 249.89 34.9602C249.705 34.5909 249.613 34.1449 249.613 33.6222V29.4545H251.156V33.3835C251.156 33.7983 251.269 34.1278 251.496 34.3722C251.724 34.6165 252.022 34.7386 252.391 34.7386C252.619 34.7386 252.839 34.6832 253.052 34.5724C253.265 34.4616 253.44 34.2969 253.576 34.0781C253.715 33.8565 253.785 33.5795 253.785 33.2472ZM259.811 36.1278C259.155 36.1278 258.588 35.9915 258.111 35.7188C257.637 35.4432 257.272 35.054 257.016 34.5511C256.76 34.0455 256.632 33.4503 256.632 32.7656C256.632 32.0923 256.76 31.5014 257.016 30.9929C257.275 30.4815 257.635 30.0838 258.098 29.7997C258.561 29.5128 259.105 29.3693 259.73 29.3693C260.134 29.3693 260.515 29.4347 260.873 29.5653C261.233 29.6932 261.551 29.892 261.827 30.1619C262.105 30.4318 262.324 30.7756 262.483 31.1932C262.642 31.608 262.722 32.1023 262.722 32.6761V33.1491H257.357V32.1094H261.243C261.24 31.8139 261.176 31.5511 261.051 31.321C260.926 31.0881 260.752 30.9048 260.527 30.7713C260.306 30.6378 260.047 30.571 259.752 30.571C259.436 30.571 259.159 30.6477 258.921 30.8011C258.682 30.9517 258.496 31.1506 258.363 31.3977C258.232 31.642 258.165 31.9105 258.162 32.2031V33.1108C258.162 33.4915 258.232 33.8182 258.371 34.0909C258.51 34.3608 258.705 34.5682 258.955 34.7131C259.205 34.8551 259.498 34.9261 259.833 34.9261C260.057 34.9261 260.26 34.8949 260.442 34.8324C260.624 34.767 260.782 34.6719 260.915 34.5469C261.049 34.4219 261.15 34.267 261.218 34.0824L262.658 34.2443C262.567 34.625 262.394 34.9574 262.138 35.2415C261.885 35.5227 261.561 35.7415 261.167 35.8977C260.772 36.0511 260.32 36.1278 259.811 36.1278ZM264.027 36V29.4545H265.523V30.5455H265.591C265.71 30.1676 265.915 29.8764 266.205 29.6719C266.497 29.4645 266.831 29.3608 267.206 29.3608C267.291 29.3608 267.386 29.3651 267.491 29.3736C267.599 29.3793 267.689 29.3892 267.76 29.4034V30.8224C267.695 30.7997 267.591 30.7798 267.449 30.7628C267.31 30.7429 267.175 30.733 267.044 30.733C266.763 30.733 266.51 30.794 266.286 30.9162C266.064 31.0355 265.889 31.2017 265.761 31.4148C265.634 31.6278 265.57 31.8736 265.57 32.152V36H264.027ZM269.943 38.4545C269.733 38.4545 269.538 38.4375 269.359 38.4034C269.183 38.3722 269.042 38.3352 268.937 38.2926L269.295 37.0909C269.52 37.1563 269.72 37.1875 269.896 37.1847C270.072 37.1818 270.227 37.1264 270.36 37.0185C270.497 36.9134 270.612 36.7372 270.706 36.4901L270.838 36.1364L268.464 29.4545H270.1L271.609 34.3977H271.677L273.19 29.4545H274.831L272.21 36.7926C272.088 37.1392 271.926 37.4361 271.724 37.6832C271.522 37.9332 271.275 38.1236 270.983 38.2543C270.693 38.3878 270.346 38.4545 269.943 38.4545Z" fill="white"/>
<path d="M223.668 52L221.247 43.2727H222.632L224.332 50.0312H224.413L226.182 43.2727H227.554L229.322 50.0355H229.403L231.099 43.2727H232.489L230.064 52H228.739L226.902 45.4631H226.834L224.997 52H223.668ZM234.847 52.1449C234.433 52.1449 234.058 52.0682 233.722 51.9148C233.387 51.7585 233.121 51.5327 232.925 51.2372C232.732 50.9418 232.636 50.5795 232.636 50.1506C232.636 49.7812 232.707 49.4773 232.849 49.2386C232.991 49 233.183 48.8111 233.424 48.6719C233.665 48.5327 233.935 48.4276 234.234 48.3565C234.532 48.2855 234.836 48.2315 235.146 48.1946C235.538 48.1491 235.856 48.1122 236.1 48.0838C236.344 48.0526 236.522 48.0028 236.633 47.9347C236.744 47.8665 236.799 47.7557 236.799 47.6023V47.5724C236.799 47.2003 236.694 46.9119 236.484 46.7074C236.276 46.5028 235.967 46.4006 235.555 46.4006C235.126 46.4006 234.788 46.4957 234.54 46.6861C234.296 46.8736 234.127 47.0824 234.033 47.3125L232.836 47.0398C232.978 46.642 233.185 46.321 233.458 46.0767C233.734 45.8295 234.05 45.6506 234.408 45.5398C234.766 45.4261 235.143 45.3693 235.538 45.3693C235.799 45.3693 236.076 45.4006 236.369 45.4631C236.664 45.5227 236.94 45.6335 237.195 45.7955C237.454 45.9574 237.665 46.1889 237.83 46.4901C237.995 46.7884 238.077 47.1761 238.077 47.6534V52H236.833V51.1051H236.782C236.7 51.2699 236.576 51.4318 236.411 51.5909C236.246 51.75 236.035 51.8821 235.776 51.9872C235.518 52.0923 235.208 52.1449 234.847 52.1449ZM235.124 51.1222C235.477 51.1222 235.778 51.0526 236.028 50.9134C236.281 50.7741 236.472 50.5923 236.603 50.3679C236.737 50.1406 236.803 49.8977 236.803 49.6392V48.7955C236.758 48.8409 236.67 48.8835 236.539 48.9233C236.411 48.9602 236.265 48.9929 236.1 49.0213C235.935 49.0469 235.775 49.071 235.619 49.0938C235.462 49.1136 235.332 49.1307 235.227 49.1449C234.979 49.1761 234.754 49.2287 234.549 49.3026C234.347 49.3764 234.185 49.483 234.063 49.6222C233.944 49.7585 233.884 49.9403 233.884 50.1676C233.884 50.483 234.001 50.7216 234.234 50.8835C234.467 51.0426 234.763 51.1222 235.124 51.1222ZM239.775 52V45.4545H241.006V46.4943H241.074C241.194 46.142 241.404 45.8651 241.705 45.6634C242.009 45.4588 242.353 45.3565 242.736 45.3565C242.816 45.3565 242.909 45.3594 243.017 45.3651C243.128 45.3707 243.215 45.3778 243.277 45.3864V46.6051C243.226 46.5909 243.135 46.5753 243.005 46.5582C242.874 46.5384 242.743 46.5284 242.613 46.5284C242.311 46.5284 242.043 46.5923 241.807 46.7202C241.574 46.8452 241.39 47.0199 241.253 47.2443C241.117 47.4659 241.049 47.7187 241.049 48.0028V52H239.775ZM246.967 52.1321C246.322 52.1321 245.766 51.9943 245.3 51.7188C244.837 51.4403 244.479 51.0497 244.227 50.5469C243.977 50.0412 243.852 49.4489 243.852 48.7699C243.852 48.0994 243.977 47.5085 244.227 46.9972C244.479 46.4858 244.832 46.0866 245.283 45.7997C245.738 45.5128 246.269 45.3693 246.877 45.3693C247.246 45.3693 247.604 45.4304 247.951 45.5526C248.298 45.6747 248.609 45.8665 248.884 46.1278C249.16 46.3892 249.377 46.7287 249.536 47.1463C249.695 47.5611 249.775 48.0653 249.775 48.6591V49.1108H244.572V48.1562H248.526C248.526 47.821 248.458 47.5241 248.322 47.2656C248.185 47.0043 247.994 46.7983 247.746 46.6477C247.502 46.4972 247.215 46.4219 246.886 46.4219C246.528 46.4219 246.215 46.5099 245.948 46.6861C245.684 46.8594 245.479 47.0866 245.335 47.3679C245.192 47.6463 245.121 47.9489 245.121 48.2756V49.0213C245.121 49.4588 245.198 49.831 245.352 50.1378C245.508 50.4446 245.725 50.679 246.004 50.8409C246.282 51 246.607 51.0795 246.979 51.0795C247.221 51.0795 247.441 51.0455 247.64 50.9773C247.839 50.9062 248.011 50.8011 248.156 50.6619C248.3 50.5227 248.411 50.3509 248.488 50.1463L249.694 50.3636C249.597 50.7187 249.424 51.0298 249.174 51.2969C248.927 51.5611 248.616 51.767 248.241 51.9148C247.869 52.0597 247.444 52.1321 246.967 52.1321ZM252.463 48.1136V52H251.189V43.2727H252.446V46.5199H252.527C252.68 46.1676 252.914 45.8878 253.23 45.6804C253.545 45.473 253.957 45.3693 254.466 45.3693C254.914 45.3693 255.306 45.4616 255.642 45.6463C255.98 45.831 256.241 46.1065 256.426 46.473C256.613 46.8366 256.707 47.2912 256.707 47.8366V52H255.433V47.9901C255.433 47.5099 255.309 47.1378 255.062 46.8736C254.815 46.6065 254.471 46.473 254.031 46.473C253.73 46.473 253.46 46.5369 253.221 46.6648C252.985 46.7926 252.799 46.9801 252.663 47.2273C252.529 47.4716 252.463 47.767 252.463 48.1136ZM261.164 52.1321C260.551 52.1321 260.015 51.9915 259.558 51.7102C259.1 51.429 258.745 51.0355 258.493 50.5298C258.24 50.0241 258.113 49.4332 258.113 48.7571C258.113 48.0781 258.24 47.4844 258.493 46.9759C258.745 46.4673 259.1 46.0724 259.558 45.7912C260.015 45.5099 260.551 45.3693 261.164 45.3693C261.778 45.3693 262.314 45.5099 262.771 45.7912C263.228 46.0724 263.583 46.4673 263.836 46.9759C264.089 47.4844 264.216 48.0781 264.216 48.7571C264.216 49.4332 264.089 50.0241 263.836 50.5298C263.583 51.0355 263.228 51.429 262.771 51.7102C262.314 51.9915 261.778 52.1321 261.164 52.1321ZM261.169 51.0625C261.566 51.0625 261.896 50.9574 262.157 50.7472C262.419 50.5369 262.612 50.2571 262.737 49.9077C262.865 49.5582 262.929 49.1733 262.929 48.7528C262.929 48.3352 262.865 47.9517 262.737 47.6023C262.612 47.25 262.419 46.9673 262.157 46.7543C261.896 46.5412 261.566 46.4347 261.169 46.4347C260.768 46.4347 260.436 46.5412 260.172 46.7543C259.91 46.9673 259.716 47.25 259.588 47.6023C259.463 47.9517 259.4 48.3352 259.4 48.7528C259.4 49.1733 259.463 49.5582 259.588 49.9077C259.716 50.2571 259.91 50.5369 260.172 50.7472C260.436 50.9574 260.768 51.0625 261.169 51.0625ZM269.784 49.2855V45.4545H271.062V52H269.81V50.8665H269.741C269.591 51.2159 269.349 51.5071 269.017 51.7401C268.688 51.9702 268.277 52.0852 267.786 52.0852C267.365 52.0852 266.993 51.9929 266.669 51.8082C266.348 51.6207 266.095 51.3438 265.911 50.9773C265.729 50.6108 265.638 50.1577 265.638 49.6179V45.4545H266.912V49.4645C266.912 49.9105 267.036 50.2656 267.283 50.5298C267.53 50.794 267.851 50.9261 268.246 50.9261C268.484 50.9261 268.722 50.8665 268.957 50.7472C269.196 50.6278 269.393 50.4474 269.55 50.206C269.709 49.9645 269.787 49.6577 269.784 49.2855ZM277.679 47.0526L276.525 47.2571C276.476 47.1094 276.4 46.9687 276.294 46.8352C276.192 46.7017 276.053 46.5923 275.877 46.5071C275.701 46.4219 275.48 46.3793 275.216 46.3793C274.855 46.3793 274.554 46.4602 274.313 46.6222C274.071 46.7812 273.951 46.9872 273.951 47.2401C273.951 47.4588 274.032 47.6349 274.194 47.7685C274.355 47.902 274.617 48.0114 274.978 48.0966L276.017 48.3352C276.62 48.4744 277.069 48.6889 277.364 48.9787C277.659 49.2685 277.807 49.6449 277.807 50.108C277.807 50.5 277.694 50.8494 277.466 51.1562C277.242 51.4602 276.928 51.6989 276.525 51.8722C276.124 52.0455 275.659 52.1321 275.131 52.1321C274.398 52.1321 273.8 51.9759 273.337 51.6634C272.874 51.348 272.59 50.9006 272.485 50.321L273.716 50.1335C273.793 50.4545 273.951 50.6974 274.189 50.8622C274.428 51.0241 274.739 51.1051 275.123 51.1051C275.54 51.1051 275.874 51.0185 276.124 50.8452C276.374 50.669 276.499 50.4545 276.499 50.2017C276.499 49.9972 276.422 49.8253 276.269 49.6861C276.118 49.5469 275.887 49.4418 275.574 49.3707L274.466 49.1278C273.855 48.9886 273.404 48.767 273.111 48.4631C272.821 48.1591 272.676 47.7741 272.676 47.3082C272.676 46.9219 272.784 46.5838 273 46.294C273.216 46.0043 273.515 45.7784 273.895 45.6165C274.276 45.4517 274.712 45.3693 275.203 45.3693C275.911 45.3693 276.468 45.5227 276.874 45.8295C277.28 46.1335 277.549 46.5412 277.679 47.0526ZM282.029 52.1321C281.384 52.1321 280.829 51.9943 280.363 51.7188C279.9 51.4403 279.542 51.0497 279.289 50.5469C279.039 50.0412 278.914 49.4489 278.914 48.7699C278.914 48.0994 279.039 47.5085 279.289 46.9972C279.542 46.4858 279.894 46.0866 280.346 45.7997C280.8 45.5128 281.332 45.3693 281.94 45.3693C282.309 45.3693 282.667 45.4304 283.013 45.5526C283.36 45.6747 283.671 45.8665 283.947 46.1278C284.222 46.3892 284.44 46.7287 284.599 47.1463C284.758 47.5611 284.837 48.0653 284.837 48.6591V49.1108H279.634V48.1562H283.589C283.589 47.821 283.521 47.5241 283.384 47.2656C283.248 47.0043 283.056 46.7983 282.809 46.6477C282.565 46.4972 282.278 46.4219 281.948 46.4219C281.59 46.4219 281.278 46.5099 281.011 46.6861C280.746 46.8594 280.542 47.0866 280.397 47.3679C280.255 47.6463 280.184 47.9489 280.184 48.2756V49.0213C280.184 49.4588 280.261 49.831 280.414 50.1378C280.57 50.4446 280.788 50.679 281.066 50.8409C281.344 51 281.67 51.0795 282.042 51.0795C282.283 51.0795 282.504 51.0455 282.702 50.9773C282.901 50.9062 283.073 50.8011 283.218 50.6619C283.363 50.5227 283.474 50.3509 283.55 50.1463L284.756 50.3636C284.66 50.7187 284.487 51.0298 284.237 51.2969C283.989 51.5611 283.678 51.767 283.303 51.9148C282.931 52.0597 282.506 52.1321 282.029 52.1321Z" fill="white" fill-opacity="0.85"/>
<rect width="68" height="80" transform="translate(319)" fill="url(#paint3_linear_695_7416)" fill-opacity="0.08"/>
<path d="M319 6C319 2.68629 321.686 0 325 0H381C384.314 0 387 2.68629 387 6V74C387 77.3137 384.314 80 381 80H325C321.686 80 319 77.3137 319 74V6Z" fill="url(#paint4_linear_695_7416)" fill-opacity="0.2"/>
<path d="M325 0.5H381C384.038 0.500001 386.5 2.96243 386.5 6V74C386.5 77.0376 384.038 79.5 381 79.5H325C321.962 79.5 319.5 77.0376 319.5 74V6C319.5 2.96243 321.962 0.5 325 0.5Z" stroke="#845FFD" stroke-opacity="0.37"/>
<g clip-path="url(#clip1_695_7416)">
<path d="M345.842 35.4088L366.118 24C366.118 24 364.206 25.6815 364.29 29.3215C364.38 33.2006 366.118 34.6431 366.118 34.6431L363.735 33.5575L345.084 40.8591C345.084 40.8591 344.631 39.5903 344.624 38.634C344.604 36.2747 345.842 35.4088 345.842 35.4088Z" fill="#029DD1"/>
<path d="M341.528 42.8672L363.681 34.7638C363.681 34.7638 361.77 36.4453 361.854 40.0854C361.943 43.9645 363.681 45.4068 363.681 45.4068L360.586 44.2155L340.703 48.1295C340.703 48.1295 340.317 46.96 340.31 46.0923C340.291 43.7329 341.528 42.8672 341.528 42.8672Z" fill="#0047BD"/>
<path d="M337.218 49.4387L360.592 45.2457C360.592 45.2457 358.68 46.9272 358.764 50.5671C358.854 54.4463 360.592 55.8887 360.592 55.8887H337.393C337.393 55.8887 336.021 55.0551 336 52.5427C335.981 50.1833 337.218 49.4387 337.218 49.4387Z" fill="#4817A1"/>
</g>
<line x1="157" y1="39.5" x2="165" y2="39.5" stroke="#845FFD" stroke-opacity="0.37"/>
<line x1="311" y1="39.5" x2="319" y2="39.5" stroke="#845FFD" stroke-opacity="0.37"/>
</g>
<defs>
<linearGradient id="paint0_linear_695_7416" x1="75.5" y1="-1.38823e-06" x2="135.824" y2="124.844" gradientUnits="userSpaceOnUse">
<stop stop-color="#8354FE" stop-opacity="0.21"/>
<stop offset="1" stop-color="#9879FF" stop-opacity="0.51"/>
</linearGradient>
<linearGradient id="paint1_linear_695_7416" x1="203.592" y1="1.07847e-06" x2="287.858" y2="67.0604" gradientUnits="userSpaceOnUse">
<stop stop-color="#8354FE" stop-opacity="0.21"/>
<stop offset="1" stop-color="#9879FF" stop-opacity="0.51"/>
</linearGradient>
<linearGradient id="paint2_linear_695_7416" x1="197" y1="26.6174" x2="197" y2="53.1779" gradientUnits="userSpaceOnUse">
<stop stop-color="#4387FD"/>
<stop offset="1" stop-color="#4683EA"/>
</linearGradient>
<linearGradient id="paint3_linear_695_7416" x1="17.9745" y1="1.07847e-06" x2="74.3348" y2="20.8903" gradientUnits="userSpaceOnUse">
<stop stop-color="#8354FE" stop-opacity="0.21"/>
<stop offset="0.965162" stop-color="#9879FF" stop-opacity="0.51"/>
</linearGradient>
<linearGradient id="paint4_linear_695_7416" x1="336.975" y1="1.07847e-06" x2="393.335" y2="20.8903" gradientUnits="userSpaceOnUse">
<stop stop-color="#8354FE" stop-opacity="0.21"/>
<stop offset="1" stop-color="#9879FF" stop-opacity="0.51"/>
</linearGradient>
<clipPath id="clip0_695_7416">
<rect width="382" height="80" fill="white"/>
</clipPath>
<clipPath id="clip1_695_7416">
<rect width="30.1176" height="32" fill="white" transform="translate(336 24)"/>
</clipPath>
</defs>
</svg>
