<svg width="382" height="80" viewBox="0 0 382 80" fill="none" xmlns="http://www.w3.org/2000/svg">
<g clip-path="url(#clip0_677_379)">
<path d="M6 0.5H151C154.038 0.5 156.5 2.96243 156.5 6V74C156.5 77.0376 154.038 79.5 151 79.5H6C2.96244 79.5 0.5 77.0376 0.5 74V6C0.5 2.96243 2.96243 0.5 6 0.5Z" stroke="#3600FF" stroke-opacity="0.15"/>
<rect x="12.5" y="24.5" width="31" height="31" rx="3.5" stroke="#D4CAFE" stroke-dasharray="1.78 1.78"/>
<path d="M35.5 40C35.5 40.1658 35.4342 40.3247 35.3169 40.4419C35.1997 40.5592 35.0408 40.625 34.875 40.625H28.625V46.875C28.625 47.0408 28.5592 47.1997 28.4419 47.3169C28.3247 47.4342 28.1658 47.5 28 47.5C27.8342 47.5 27.6753 47.4342 27.5581 47.3169C27.4408 47.1997 27.375 47.0408 27.375 46.875V40.625H21.125C20.9592 40.625 20.8003 40.5592 20.6831 40.4419C20.5658 40.3247 20.5 40.1658 20.5 40C20.5 39.8342 20.5658 39.6753 20.6831 39.5581C20.8003 39.4408 20.9592 39.375 21.125 39.375H27.375V33.125C27.375 32.9592 27.4408 32.8003 27.5581 32.6831C27.6753 32.5658 27.8342 32.5 28 32.5C28.1658 32.5 28.3247 32.5658 28.4419 32.6831C28.5592 32.8003 28.625 32.9592 28.625 33.125V39.375H34.875C35.0408 39.375 35.1997 39.4408 35.3169 39.5581C35.4342 39.6753 35.5 39.8342 35.5 40Z" fill="#D4CAFE"/>
<path d="M53.0043 45V34.8182H59.6264V36.3643H54.8487V39.1286H59.2834V40.6747H54.8487V43.4538H59.6662V45H53.0043ZM68.2496 37.3636L65.5302 45H63.5415L60.8221 37.3636H62.7411L64.4961 43.0362H64.5756L66.3356 37.3636H68.2496ZM72.6159 45.1491C71.8503 45.1491 71.1891 44.9901 70.6323 44.6719C70.0788 44.3504 69.6529 43.8963 69.3546 43.3097C69.0563 42.7197 68.9071 42.0253 68.9071 41.2266C68.9071 40.4411 69.0563 39.7517 69.3546 39.1584C69.6562 38.5618 70.0771 38.0978 70.6174 37.7663C71.1576 37.4316 71.7923 37.2642 72.5215 37.2642C72.9921 37.2642 73.4363 37.3404 73.8539 37.4929C74.2748 37.642 74.646 37.8741 74.9675 38.1889C75.2923 38.5038 75.5475 38.9048 75.7331 39.392C75.9187 39.8759 76.0115 40.4527 76.0115 41.1222V41.674H69.7523V40.4609H74.2864C74.2831 40.1162 74.2085 39.8097 74.0627 39.5412C73.9168 39.2694 73.713 39.0556 73.4512 38.8999C73.1926 38.7441 72.891 38.6662 72.5463 38.6662C72.1784 38.6662 71.8553 38.7557 71.5769 38.9347C71.2985 39.1103 71.0814 39.3423 70.9256 39.6307C70.7731 39.9157 70.6953 40.2289 70.6919 40.5703V41.6293C70.6919 42.0734 70.7731 42.4545 70.9355 42.7727C71.098 43.0876 71.325 43.3295 71.6167 43.4986C71.9083 43.6643 72.2497 43.7472 72.6408 43.7472C72.9026 43.7472 73.1396 43.7107 73.3517 43.6378C73.5639 43.5616 73.7478 43.4505 73.9036 43.3047C74.0594 43.1589 74.177 42.9782 74.2566 42.7628L75.937 42.9517C75.8309 43.3958 75.6287 43.7836 75.3304 44.1151C75.0355 44.4432 74.6576 44.6984 74.1969 44.8807C73.7362 45.0597 73.2092 45.1491 72.6159 45.1491ZM79.3338 40.5256V45H77.5341V37.3636H79.2543V38.6612H79.3438C79.5194 38.2337 79.7995 37.8939 80.1839 37.642C80.5717 37.3902 81.0507 37.2642 81.6207 37.2642C82.1477 37.2642 82.6068 37.3769 82.9979 37.6023C83.3923 37.8277 83.6972 38.1541 83.9126 38.5817C84.1314 39.0092 84.2391 39.5279 84.2358 40.1378V45H82.4361V40.4162C82.4361 39.9058 82.3035 39.5064 82.0384 39.218C81.7765 38.9297 81.4136 38.7855 80.9496 38.7855C80.6347 38.7855 80.3546 38.8551 80.1094 38.9943C79.8674 39.1302 79.6768 39.3274 79.5376 39.5859C79.4018 39.8445 79.3338 40.1577 79.3338 40.5256ZM89.8786 37.3636V38.7557H85.4886V37.3636H89.8786ZM86.5724 35.5341H88.3722V42.7031C88.3722 42.9451 88.4086 43.1307 88.4815 43.2599C88.5578 43.3859 88.6572 43.4721 88.7798 43.5185C88.9025 43.5649 89.0384 43.5881 89.1875 43.5881C89.3002 43.5881 89.4029 43.5798 89.4957 43.5632C89.5919 43.5466 89.6648 43.5317 89.7145 43.5185L90.0178 44.9254C89.9216 44.9586 89.7841 44.995 89.6051 45.0348C89.4295 45.0746 89.214 45.0978 88.9588 45.1044C88.508 45.1177 88.102 45.0497 87.7408 44.9006C87.3795 44.7481 87.0928 44.5128 86.8807 44.1946C86.6719 43.8764 86.5691 43.4787 86.5724 43.0014V35.5341ZM98.6696 37.3636V38.7557H94.2797V37.3636H98.6696ZM95.3635 35.5341H97.1632V42.7031C97.1632 42.9451 97.1996 43.1307 97.2725 43.2599C97.3488 43.3859 97.4482 43.4721 97.5708 43.5185C97.6935 43.5649 97.8294 43.5881 97.9785 43.5881C98.0912 43.5881 98.194 43.5798 98.2868 43.5632C98.3829 43.5466 98.4558 43.5317 98.5055 43.5185L98.8088 44.9254C98.7127 44.9586 98.5751 44.995 98.3961 45.0348C98.2205 45.0746 98.005 45.0978 97.7498 45.1044C97.2991 45.1177 96.8931 45.0497 96.5318 44.9006C96.1705 44.7481 95.8838 44.5128 95.6717 44.1946C95.4629 43.8764 95.3601 43.4787 95.3635 43.0014V35.5341ZM100.175 45V37.3636H101.92V38.6364H101.999C102.138 38.1955 102.377 37.8558 102.715 37.6172C103.057 37.3752 103.446 37.2543 103.884 37.2543C103.983 37.2543 104.094 37.2592 104.217 37.2692C104.343 37.2758 104.447 37.2874 104.53 37.304V38.9595C104.454 38.933 104.333 38.9098 104.167 38.8899C104.004 38.8667 103.847 38.8551 103.695 38.8551C103.366 38.8551 103.071 38.9264 102.81 39.0689C102.551 39.2081 102.347 39.402 102.198 39.6506C102.049 39.8991 101.974 40.1858 101.974 40.5107V45H100.175ZM107.786 45.1541C107.302 45.1541 106.866 45.0679 106.479 44.8956C106.094 44.7199 105.789 44.4614 105.564 44.12C105.342 43.7786 105.231 43.3577 105.231 42.8572C105.231 42.4264 105.31 42.0701 105.469 41.7884C105.629 41.5066 105.846 41.2812 106.121 41.1122C106.396 40.9432 106.706 40.8156 107.05 40.7294C107.398 40.6399 107.758 40.5753 108.129 40.5355C108.577 40.4891 108.94 40.4477 109.218 40.4112C109.496 40.3714 109.699 40.3118 109.825 40.2322C109.954 40.1494 110.018 40.0218 110.018 39.8494V39.8196C110.018 39.4451 109.907 39.1551 109.685 38.9496C109.463 38.7441 109.143 38.6413 108.726 38.6413C108.285 38.6413 107.935 38.7375 107.677 38.9297C107.422 39.1219 107.249 39.349 107.16 39.6108L105.479 39.3722C105.612 38.9081 105.831 38.5204 106.136 38.2088C106.441 37.8939 106.813 37.6586 107.254 37.5028C107.695 37.3438 108.182 37.2642 108.716 37.2642C109.084 37.2642 109.45 37.3073 109.815 37.3935C110.179 37.4796 110.512 37.6222 110.814 37.821C111.116 38.0166 111.357 38.2834 111.54 38.6214C111.725 38.9595 111.818 39.3821 111.818 39.8892V45H110.088V43.951H110.028C109.919 44.1631 109.765 44.362 109.566 44.5476C109.371 44.7299 109.124 44.8774 108.825 44.9901C108.53 45.0994 108.184 45.1541 107.786 45.1541ZM108.254 43.8317C108.615 43.8317 108.928 43.7604 109.193 43.6179C109.458 43.4721 109.662 43.2798 109.805 43.0412C109.951 42.8026 110.023 42.5424 110.023 42.2607V41.3608C109.967 41.4072 109.871 41.4503 109.735 41.4901C109.603 41.5298 109.453 41.5646 109.288 41.5945C109.122 41.6243 108.958 41.6508 108.795 41.674C108.633 41.6972 108.492 41.7171 108.373 41.7337C108.104 41.7701 107.864 41.8298 107.652 41.9126C107.44 41.9955 107.272 42.1115 107.15 42.2607C107.027 42.4065 106.966 42.5954 106.966 42.8274C106.966 43.1589 107.087 43.4091 107.329 43.5781C107.571 43.7472 107.879 43.8317 108.254 43.8317ZM116.959 45.1491C116.196 45.1491 115.542 44.9818 114.995 44.647C114.451 44.3123 114.032 43.8499 113.737 43.2599C113.446 42.6667 113.3 41.9839 113.3 41.2116C113.3 40.4361 113.449 39.7517 113.747 39.1584C114.045 38.5618 114.466 38.0978 115.01 37.7663C115.557 37.4316 116.203 37.2642 116.949 37.2642C117.569 37.2642 118.117 37.3786 118.594 37.6072C119.075 37.8326 119.458 38.1525 119.743 38.5668C120.028 38.9777 120.19 39.4583 120.23 40.0085H118.51C118.44 39.6406 118.275 39.334 118.013 39.0888C117.754 38.8402 117.408 38.7159 116.974 38.7159C116.606 38.7159 116.283 38.8153 116.004 39.0142C115.726 39.2098 115.509 39.4915 115.353 39.8594C115.201 40.2273 115.124 40.6681 115.124 41.1818C115.124 41.7022 115.201 42.1496 115.353 42.5241C115.505 42.8954 115.719 43.1821 115.994 43.3842C116.273 43.5831 116.599 43.6825 116.974 43.6825C117.239 43.6825 117.476 43.6328 117.685 43.5334C117.897 43.4306 118.074 43.2831 118.217 43.0909C118.359 42.8987 118.457 42.665 118.51 42.3899H120.23C120.187 42.9302 120.028 43.4091 119.753 43.8267C119.478 44.241 119.103 44.5658 118.629 44.8011C118.155 45.0331 117.598 45.1491 116.959 45.1491ZM123.349 42.6037L123.344 40.4311H123.632L126.376 37.3636H128.479L125.104 41.1222H124.731L123.349 42.6037ZM121.708 45V34.8182H123.508V45H121.708ZM126.501 45L124.015 41.5249L125.228 40.2571L128.653 45H126.501ZM132.745 45.1491C131.979 45.1491 131.318 44.9901 130.761 44.6719C130.208 44.3504 129.782 43.8963 129.483 43.3097C129.185 42.7197 129.036 42.0253 129.036 41.2266C129.036 40.4411 129.185 39.7517 129.483 39.1584C129.785 38.5618 130.206 38.0978 130.746 37.7663C131.287 37.4316 131.921 37.2642 132.65 37.2642C133.121 37.2642 133.565 37.3404 133.983 37.4929C134.404 37.642 134.775 37.8741 135.096 38.1889C135.421 38.5038 135.676 38.9048 135.862 39.392C136.048 39.8759 136.14 40.4527 136.14 41.1222V41.674H129.881V40.4609H134.415C134.412 40.1162 134.337 39.8097 134.192 39.5412C134.046 39.2694 133.842 39.0556 133.58 38.8999C133.322 38.7441 133.02 38.6662 132.675 38.6662C132.307 38.6662 131.984 38.7557 131.706 38.9347C131.427 39.1103 131.21 39.3423 131.055 39.6307C130.902 39.9157 130.824 40.2289 130.821 40.5703V41.6293C130.821 42.0734 130.902 42.4545 131.064 42.7727C131.227 43.0876 131.454 43.3295 131.746 43.4986C132.037 43.6643 132.379 43.7472 132.77 43.7472C133.032 43.7472 133.269 43.7107 133.481 43.6378C133.693 43.5616 133.877 43.4505 134.032 43.3047C134.188 43.1589 134.306 42.9782 134.385 42.7628L136.066 42.9517C135.96 43.3958 135.758 43.7836 135.459 44.1151C135.164 44.4432 134.787 44.6984 134.326 44.8807C133.865 45.0597 133.338 45.1491 132.745 45.1491ZM137.663 45V37.3636H139.408V38.6364H139.488C139.627 38.1955 139.865 37.8558 140.203 37.6172C140.545 37.3752 140.934 37.2543 141.372 37.2543C141.471 37.2543 141.582 37.2592 141.705 37.2692C141.831 37.2758 141.935 37.2874 142.018 37.304V38.9595C141.942 38.933 141.821 38.9098 141.655 38.8899C141.493 38.8667 141.335 38.8551 141.183 38.8551C140.855 38.8551 140.56 38.9264 140.298 39.0689C140.039 39.2081 139.836 39.402 139.686 39.6506C139.537 39.8991 139.463 40.1858 139.463 40.5107V45H137.663Z" fill="#3100FB" fill-opacity="0.21"/>
<path d="M171 0.5H305C308.038 0.5 310.5 2.96243 310.5 6V74C310.5 77.0376 308.038 79.5 305 79.5H171C167.962 79.5 165.5 77.0376 165.5 74V6C165.5 2.96243 167.962 0.5 171 0.5Z" stroke="#3600FF" stroke-opacity="0.15"/>
<rect x="181.5" y="24.5" width="31" height="31" rx="3.5" stroke="#D4CAFE" stroke-dasharray="1.78 1.78"/>
<path d="M204.5 40C204.5 40.1658 204.434 40.3247 204.317 40.4419C204.2 40.5592 204.041 40.625 203.875 40.625H197.625V46.875C197.625 47.0408 197.559 47.1997 197.442 47.3169C197.325 47.4342 197.166 47.5 197 47.5C196.834 47.5 196.675 47.4342 196.558 47.3169C196.441 47.1997 196.375 47.0408 196.375 46.875V40.625H190.125C189.959 40.625 189.8 40.5592 189.683 40.4419C189.566 40.3247 189.5 40.1658 189.5 40C189.5 39.8342 189.566 39.6753 189.683 39.5581C189.8 39.4408 189.959 39.375 190.125 39.375H196.375V33.125C196.375 32.9592 196.441 32.8003 196.558 32.6831C196.675 32.5658 196.834 32.5 197 32.5C197.166 32.5 197.325 32.5658 197.442 32.6831C197.559 32.8003 197.625 32.9592 197.625 33.125V39.375H203.875C204.041 39.375 204.2 39.4408 204.317 39.5581C204.434 39.6753 204.5 39.8342 204.5 40Z" fill="#D4CAFE"/>
<path d="M224.147 45.5L221.273 35.3182H223.257L225.092 42.8004H225.186L227.145 35.3182H228.95L230.913 42.8054H231.003L232.837 35.3182H234.821L231.947 45.5H230.128L228.089 38.3558H228.01L225.967 45.5H224.147ZM237.439 45.6541C236.955 45.6541 236.519 45.5679 236.131 45.3956C235.747 45.2199 235.442 44.9614 235.216 44.62C234.994 44.2786 234.883 43.8577 234.883 43.3572C234.883 42.9264 234.963 42.5701 235.122 42.2884C235.281 42.0066 235.498 41.7812 235.773 41.6122C236.048 41.4432 236.358 41.3156 236.703 41.2294C237.051 41.1399 237.41 41.0753 237.782 41.0355C238.229 40.9891 238.592 40.9477 238.87 40.9112C239.149 40.8714 239.351 40.8118 239.477 40.7322C239.606 40.6494 239.671 40.5218 239.671 40.3494V40.3196C239.671 39.9451 239.56 39.6551 239.338 39.4496C239.116 39.2441 238.796 39.1413 238.378 39.1413C237.937 39.1413 237.588 39.2375 237.329 39.4297C237.074 39.6219 236.902 39.849 236.812 40.1108L235.132 39.8722C235.264 39.4081 235.483 39.0204 235.788 38.7088C236.093 38.3939 236.466 38.1586 236.907 38.0028C237.347 37.8438 237.835 37.7642 238.368 37.7642C238.736 37.7642 239.102 37.8073 239.467 37.8935C239.832 37.9796 240.165 38.1222 240.466 38.321C240.768 38.5166 241.01 38.7834 241.192 39.1214C241.378 39.4595 241.471 39.8821 241.471 40.3892V45.5H239.74V44.451H239.681C239.571 44.6631 239.417 44.862 239.218 45.0476C239.023 45.2299 238.776 45.3774 238.478 45.4901C238.183 45.5994 237.836 45.6541 237.439 45.6541ZM237.906 44.3317C238.267 44.3317 238.58 44.2604 238.846 44.1179C239.111 43.9721 239.315 43.7798 239.457 43.5412C239.603 43.3026 239.676 43.0424 239.676 42.7607V41.8608C239.619 41.9072 239.523 41.9503 239.387 41.9901C239.255 42.0298 239.106 42.0646 238.94 42.0945C238.774 42.1243 238.61 42.1508 238.448 42.174C238.285 42.1972 238.145 42.2171 238.025 42.2337C237.757 42.2701 237.516 42.3298 237.304 42.4126C237.092 42.4955 236.925 42.6115 236.802 42.7607C236.68 42.9065 236.618 43.0954 236.618 43.3274C236.618 43.6589 236.739 43.9091 236.981 44.0781C237.223 44.2472 237.531 44.3317 237.906 44.3317ZM243.28 45.5V37.8636H245.025V39.1364H245.105C245.244 38.6955 245.483 38.3558 245.821 38.1172C246.162 37.8752 246.551 37.7543 246.989 37.7543C247.088 37.7543 247.199 37.7592 247.322 37.7692C247.448 37.7758 247.552 37.7874 247.635 37.804V39.4595C247.559 39.433 247.438 39.4098 247.272 39.3899C247.11 39.3667 246.953 39.3551 246.8 39.3551C246.472 39.3551 246.177 39.4264 245.915 39.5689C245.657 39.7081 245.453 39.902 245.304 40.1506C245.154 40.3991 245.08 40.6858 245.08 41.0107V45.5H243.28ZM251.897 45.6491C251.132 45.6491 250.47 45.4901 249.914 45.1719C249.36 44.8504 248.934 44.3963 248.636 43.8097C248.338 43.2197 248.188 42.5253 248.188 41.7266C248.188 40.9411 248.338 40.2517 248.636 39.6584C248.937 39.0618 249.358 38.5978 249.899 38.2663C250.439 37.9316 251.074 37.7642 251.803 37.7642C252.273 37.7642 252.718 37.8404 253.135 37.9929C253.556 38.142 253.927 38.3741 254.249 38.6889C254.574 39.0038 254.829 39.4048 255.014 39.892C255.2 40.3759 255.293 40.9527 255.293 41.6222V42.174H249.034V40.9609H253.568C253.564 40.6162 253.49 40.3097 253.344 40.0412C253.198 39.7694 252.994 39.5556 252.732 39.3999C252.474 39.2441 252.172 39.1662 251.828 39.1662C251.46 39.1662 251.137 39.2557 250.858 39.4347C250.58 39.6103 250.363 39.8423 250.207 40.1307C250.054 40.4157 249.977 40.7289 249.973 41.0703V42.1293C249.973 42.5734 250.054 42.9545 250.217 43.2727C250.379 43.5876 250.606 43.8295 250.898 43.9986C251.19 44.1643 251.531 44.2472 251.922 44.2472C252.184 44.2472 252.421 44.2107 252.633 44.1378C252.845 44.0616 253.029 43.9505 253.185 43.8047C253.341 43.6589 253.458 43.4782 253.538 43.2628L255.218 43.4517C255.112 43.8958 254.91 44.2836 254.612 44.6151C254.317 44.9432 253.939 45.1984 253.478 45.3807C253.017 45.5597 252.49 45.6491 251.897 45.6491ZM258.615 41.0256V45.5H256.815V35.3182H258.575V39.1612H258.665C258.844 38.7304 259.121 38.3906 259.495 38.142C259.873 37.8902 260.353 37.7642 260.937 37.7642C261.467 37.7642 261.929 37.8752 262.324 38.0973C262.718 38.3194 263.023 38.6442 263.239 39.0717C263.457 39.4993 263.567 40.0213 263.567 40.6378V45.5H261.767V40.9162C261.767 40.4025 261.634 40.0031 261.369 39.718C261.107 39.4297 260.74 39.2855 260.266 39.2855C259.947 39.2855 259.662 39.3551 259.411 39.4943C259.162 39.6302 258.966 39.8274 258.824 40.0859C258.685 40.3445 258.615 40.6577 258.615 41.0256ZM268.732 45.6491C267.987 45.6491 267.34 45.4851 266.793 45.157C266.246 44.8288 265.822 44.3698 265.521 43.7798C265.222 43.1899 265.073 42.5005 265.073 41.7116C265.073 40.9228 265.222 40.2318 265.521 39.6385C265.822 39.0452 266.246 38.5845 266.793 38.2564C267.34 37.9283 267.987 37.7642 268.732 37.7642C269.478 37.7642 270.124 37.9283 270.671 38.2564C271.218 38.5845 271.641 39.0452 271.939 39.6385C272.241 40.2318 272.391 40.9228 272.391 41.7116C272.391 42.5005 272.241 43.1899 271.939 43.7798C271.641 44.3698 271.218 44.8288 270.671 45.157C270.124 45.4851 269.478 45.6491 268.732 45.6491ZM268.742 44.2074C269.147 44.2074 269.485 44.0964 269.756 43.8743C270.028 43.6489 270.23 43.3473 270.363 42.9695C270.499 42.5916 270.567 42.1707 270.567 41.7067C270.567 41.2393 270.499 40.8168 270.363 40.4389C270.23 40.0578 270.028 39.7545 269.756 39.5291C269.485 39.3037 269.147 39.1911 268.742 39.1911C268.328 39.1911 267.983 39.3037 267.708 39.5291C267.436 39.7545 267.232 40.0578 267.097 40.4389C266.964 40.8168 266.898 41.2393 266.898 41.7067C266.898 42.1707 266.964 42.5916 267.097 42.9695C267.232 43.3473 267.436 43.6489 267.708 43.8743C267.983 44.0964 268.328 44.2074 268.742 44.2074ZM278.786 42.2884V37.8636H280.586V45.5H278.841V44.1428H278.761C278.589 44.5703 278.305 44.92 277.911 45.1918C277.52 45.4635 277.038 45.5994 276.464 45.5994C275.964 45.5994 275.521 45.4884 275.137 45.2663C274.756 45.041 274.457 44.7145 274.242 44.2869C274.027 43.8561 273.919 43.3357 273.919 42.7259V37.8636H275.719V42.4474C275.719 42.9313 275.851 43.3158 276.116 43.6009C276.381 43.8859 276.729 44.0284 277.16 44.0284C277.425 44.0284 277.682 43.9638 277.931 43.8345C278.18 43.7053 278.383 43.513 278.542 43.2578C278.705 42.9993 278.786 42.6761 278.786 42.2884ZM288.472 39.8821L286.831 40.0611C286.785 39.8954 286.704 39.7396 286.588 39.5938C286.475 39.4479 286.323 39.3303 286.13 39.2408C285.938 39.1513 285.703 39.1065 285.424 39.1065C285.05 39.1065 284.735 39.1877 284.48 39.3501C284.228 39.5125 284.104 39.723 284.107 39.9815C284.104 40.2036 284.185 40.3842 284.35 40.5234C284.52 40.6626 284.798 40.777 285.186 40.8665L286.488 41.1449C287.211 41.3007 287.748 41.5476 288.099 41.8857C288.454 42.2237 288.633 42.6662 288.636 43.2131C288.633 43.6937 288.492 44.1179 288.213 44.4858C287.938 44.8504 287.556 45.1354 287.065 45.3409C286.574 45.5464 286.011 45.6491 285.375 45.6491C284.44 45.6491 283.688 45.4536 283.118 45.0625C282.547 44.6681 282.208 44.1196 282.098 43.4169L283.853 43.2479C283.933 43.5926 284.102 43.8527 284.36 44.0284C284.619 44.2041 284.955 44.2919 285.37 44.2919C285.797 44.2919 286.14 44.2041 286.399 44.0284C286.661 43.8527 286.792 43.6357 286.792 43.3771C286.792 43.1584 286.707 42.9777 286.538 42.8352C286.372 42.6927 286.114 42.5833 285.762 42.5071L284.46 42.2337C283.727 42.0812 283.185 41.8243 282.834 41.4631C282.483 41.0985 282.309 40.6378 282.312 40.081C282.309 39.6103 282.436 39.2027 282.695 38.858C282.957 38.5099 283.32 38.2415 283.784 38.0526C284.251 37.8603 284.79 37.7642 285.4 37.7642C286.294 37.7642 286.999 37.9548 287.512 38.3359C288.029 38.7171 288.349 39.2325 288.472 39.8821ZM293.501 45.6491C292.735 45.6491 292.074 45.4901 291.517 45.1719C290.964 44.8504 290.538 44.3963 290.239 43.8097C289.941 43.2197 289.792 42.5253 289.792 41.7266C289.792 40.9411 289.941 40.2517 290.239 39.6584C290.541 39.0618 290.962 38.5978 291.502 38.2663C292.042 37.9316 292.677 37.7642 293.406 37.7642C293.877 37.7642 294.321 37.8404 294.739 37.9929C295.16 38.142 295.531 38.3741 295.852 38.6889C296.177 39.0038 296.432 39.4048 296.618 39.892C296.804 40.3759 296.896 40.9527 296.896 41.6222V42.174H290.637V40.9609H295.171C295.168 40.6162 295.093 40.3097 294.947 40.0412C294.802 39.7694 294.598 39.5556 294.336 39.3999C294.077 39.2441 293.776 39.1662 293.431 39.1662C293.063 39.1662 292.74 39.2557 292.462 39.4347C292.183 39.6103 291.966 39.8423 291.81 40.1307C291.658 40.4157 291.58 40.7289 291.577 41.0703V42.1293C291.577 42.5734 291.658 42.9545 291.82 43.2727C291.983 43.5876 292.21 43.8295 292.501 43.9986C292.793 44.1643 293.134 44.2472 293.526 44.2472C293.787 44.2472 294.024 44.2107 294.237 44.1378C294.449 44.0616 294.633 43.9505 294.788 43.8047C294.944 43.6589 295.062 43.4782 295.141 43.2628L296.822 43.4517C296.716 43.8958 296.513 44.2836 296.215 44.6151C295.92 44.9432 295.542 45.1984 295.082 45.3807C294.621 45.5597 294.094 45.6491 293.501 45.6491Z" fill="#3100FB" fill-opacity="0.21"/>
<path d="M325 0.5H381C384.038 0.5 386.5 2.96243 386.5 6V74C386.5 77.0376 384.038 79.5 381 79.5H325C321.962 79.5 319.5 77.0376 319.5 74V6C319.5 2.96243 321.962 0.5 325 0.5Z" stroke="#3600FF" stroke-opacity="0.15"/>
<g clip-path="url(#clip1_677_379)">
<path d="M345.842 35.4088L366.118 24C366.118 24 364.206 25.6815 364.29 29.3215C364.38 33.2006 366.118 34.6431 366.118 34.6431L363.735 33.5575L345.084 40.8591C345.084 40.8591 344.631 39.5903 344.624 38.634C344.604 36.2747 345.842 35.4088 345.842 35.4088Z" fill="#3600FF" fill-opacity="0.15"/>
<path d="M341.528 42.8672L363.681 34.7638C363.681 34.7638 361.77 36.4453 361.854 40.0854C361.943 43.9645 363.681 45.4068 363.681 45.4068L360.586 44.2155L340.703 48.1295C340.703 48.1295 340.317 46.96 340.31 46.0923C340.291 43.7329 341.528 42.8672 341.528 42.8672Z" fill="#3600FF" fill-opacity="0.15"/>
<path d="M337.218 49.4387L360.592 45.2457C360.592 45.2457 358.68 46.9272 358.764 50.5671C358.854 54.4463 360.592 55.8887 360.592 55.8887H337.393C337.393 55.8887 336.021 55.0551 336 52.5427C335.981 50.1833 337.218 49.4387 337.218 49.4387Z" fill="#3600FF" fill-opacity="0.15"/>
</g>
<line x1="157" y1="39.5" x2="165" y2="39.5" stroke="#3600FF" stroke-opacity="0.15"/>
<line x1="311" y1="39.5" x2="319" y2="39.5" stroke="#3600FF" stroke-opacity="0.15"/>
</g>
<defs>
<clipPath id="clip0_677_379">
<rect width="382" height="80" fill="white"/>
</clipPath>
<clipPath id="clip1_677_379">
<rect width="30.1176" height="32" fill="white" transform="translate(336 24)"/>
</clipPath>
</defs>
</svg>
