<svg xmlns="http://www.w3.org/2000/svg" width="542" height="80" fill="none">
  <g clip-path="url(#a)">
    <rect width="541.261" height="79.261" x=".37" y=".37" fill="url(#b)" stroke="url(#c)" stroke-width=".739" rx="3.63"/>
    <g clip-path="url(#d)">
      <path fill="#8354FE" fill-opacity=".21" d="M76 34h110v20H76z"/>
      <path stroke="#8354FE" stroke-opacity=".21" stroke-width="4" d="m63.414 28.586 34 34m-10-34 34 34m-46-34 34 34m-10-34 34 34m-82-34 34 34m38-34 34 34m-10-34 34 34m-46-34 34 34m-10-34 34 34m-22-34 34 34m-94-34 34 34m38-34 34 34"/>
    </g>
    <g clip-path="url(#e)">
      <path fill="#8354FE" fill-opacity=".21" d="M246 34h110v20H246z"/>
      <path stroke="#8354FE" stroke-opacity=".21" stroke-width="4" d="m235.414 28.586 34 34m-10-34 34 34m-46-34 34 34m-10-34 34 34m-82-34 34 34m38-34 34 34m-10-34 34 34m-46-34 34 34m-10-34 34 34m-22-34 34 34m-94-34 34 34m38-34 34 34"/>
    </g>
    <path fill="#9879FF" fill-opacity=".51" d="M19.429 63.39v7.272h-.88v-6.35h-.043l-1.776 1.18v-.895l1.818-1.208h.88Zm4.648 0v7.272h-.88v-6.35h-.043l-1.776 1.18v-.895l1.819-1.208h.88Zm2.287 7.329a.615.615 0 0 1-.45-.188.615.615 0 0 1-.189-.451c0-.176.063-.326.188-.451a.615.615 0 0 1 .451-.189c.175 0 .326.063.451.189a.616.616 0 0 1 .188.45.663.663 0 0 1-.32.554.61.61 0 0 1-.319.086Zm4.313.042c-.469 0-.887-.08-1.253-.241a2.148 2.148 0 0 1-.87-.671 1.805 1.805 0 0 1-.349-1.005h.895c.02.234.1.437.242.607.142.168.328.298.557.39.23.093.485.14.764.14.312 0 .59-.055.83-.164.242-.11.432-.26.569-.455a1.14 1.14 0 0 0 .206-.674c0-.268-.066-.504-.199-.707a1.317 1.317 0 0 0-.582-.483c-.256-.116-.568-.174-.938-.174h-.582v-.781h.582c.289 0 .542-.052.76-.157a1.18 1.18 0 0 0 .703-1.108c0-.246-.054-.46-.163-.642a1.117 1.117 0 0 0-.462-.426 1.495 1.495 0 0 0-.696-.153c-.25 0-.488.046-.71.138-.22.09-.4.222-.54.395-.14.17-.215.376-.227.617h-.852c.014-.38.129-.714.344-1.001a2.17 2.17 0 0 1 .845-.675 2.73 2.73 0 0 1 1.154-.241c.45 0 .836.091 1.158.273.322.18.57.418.742.714.173.296.26.616.26.959 0 .41-.108.759-.324 1.047a1.638 1.638 0 0 1-.87.6v.057c.46.076.818.272 1.076.586.258.313.387.7.387 1.162 0 .395-.107.75-.323 1.065a2.195 2.195 0 0 1-.873.739c-.37.18-.79.27-1.261.27Zm3.74-1.59v-.725l3.195-5.057h.526v1.122h-.355l-2.415 3.821v.057h4.304v.782h-5.256Zm3.423 1.491v-7.273h.838v7.273h-.838Zm6.87-1.364v-.383c0-.265.055-.508.164-.728.11-.223.272-.4.482-.533.214-.135.472-.202.775-.202.307 0 .566.067.774.202.208.133.366.31.472.533.107.22.16.463.16.728v.383c0 .266-.054.51-.163.732a1.29 1.29 0 0 1-.476.533c-.209.132-.464.198-.767.198-.308 0-.567-.066-.778-.198a1.315 1.315 0 0 1-.48-.533 1.642 1.642 0 0 1-.163-.732Zm.725-.383v.383c0 .22.052.418.156.593.104.173.284.26.54.26.248 0 .423-.087.525-.26a1.14 1.14 0 0 0 .157-.593v-.383c0-.22-.05-.417-.15-.59-.1-.175-.277-.262-.532-.262-.249 0-.428.087-.537.262a1.1 1.1 0 0 0-.16.59Zm-4.347-3.779v-.383c0-.265.054-.508.163-.728.112-.223.273-.4.483-.533.213-.135.471-.202.774-.202.308 0 .566.067.775.202.208.133.365.31.472.533.106.22.16.463.16.728v.383c0 .266-.055.51-.164.732a1.29 1.29 0 0 1-.475.533 1.408 1.408 0 0 1-.768.199c-.307 0-.567-.067-.777-.2a1.315 1.315 0 0 1-.48-.532 1.642 1.642 0 0 1-.163-.732Zm.724-.383v.383c0 .22.053.418.157.594.104.172.284.259.54.259.248 0 .423-.087.525-.26.104-.175.156-.372.156-.593v-.383c0-.22-.05-.417-.149-.59-.1-.175-.277-.262-.532-.262-.25 0-.428.087-.537.262a1.1 1.1 0 0 0-.16.59Zm-.454 5.909 5-7.273h.81l-5 7.273h-.81Zm148.997-7.272v7.272h-.881v-6.35h-.042l-1.776 1.18v-.895l1.818-1.208h.881Zm4.648 0v7.272h-.88v-6.35h-.043l-1.776 1.18v-.895l1.819-1.208h.88Zm2.287 7.329a.616.616 0 0 1-.451-.188.617.617 0 0 1-.188-.451c0-.176.063-.326.188-.451a.616.616 0 0 1 .451-.189c.175 0 .326.063.451.189a.613.613 0 0 1 .188.45.603.603 0 0 1-.088.32.666.666 0 0 1-.231.235.61.61 0 0 1-.32.085Zm4.313.042c-.469 0-.887-.08-1.254-.241a2.155 2.155 0 0 1-.87-.671 1.805 1.805 0 0 1-.348-1.005h.895c.019.234.1.437.242.607.142.168.328.298.557.39.23.093.484.14.764.14.312 0 .589-.055.831-.164.241-.11.431-.26.568-.455a1.14 1.14 0 0 0 .206-.674c0-.268-.066-.504-.199-.707a1.316 1.316 0 0 0-.582-.483c-.256-.116-.568-.174-.938-.174h-.582v-.781h.582c.289 0 .542-.052.76-.157a1.177 1.177 0 0 0 .703-1.108c0-.246-.054-.46-.163-.642a1.118 1.118 0 0 0-.462-.426 1.491 1.491 0 0 0-.696-.153 1.84 1.84 0 0 0-.71.138c-.22.09-.4.222-.54.395-.139.17-.215.376-.227.617h-.852c.014-.38.129-.714.344-1.001.216-.289.497-.514.845-.675a2.732 2.732 0 0 1 1.154-.241c.45 0 .836.091 1.158.273.322.18.569.418.742.714.173.296.26.616.26.959 0 .41-.108.759-.324 1.047a1.637 1.637 0 0 1-.87.6v.057c.46.076.818.272 1.076.586.258.313.387.7.387 1.162 0 .395-.107.75-.323 1.065a2.195 2.195 0 0 1-.873.739c-.37.18-.79.27-1.261.27Zm6.367 0c-.469 0-.886-.08-1.253-.241a2.141 2.141 0 0 1-.87-.671 1.805 1.805 0 0 1-.348-1.005h.895c.018.234.099.437.241.607.142.168.328.298.558.39.229.093.484.14.763.14.313 0 .59-.055.831-.164.241-.11.431-.26.568-.455a1.14 1.14 0 0 0 .206-.674c0-.268-.066-.504-.199-.707a1.31 1.31 0 0 0-.582-.483c-.256-.116-.568-.174-.938-.174h-.582v-.781h.582c.289 0 .543-.052.76-.157a1.177 1.177 0 0 0 .703-1.108c0-.246-.054-.46-.163-.642a1.118 1.118 0 0 0-.462-.426 1.491 1.491 0 0 0-.696-.153 1.84 1.84 0 0 0-.71.138c-.22.09-.4.222-.54.395-.139.17-.215.376-.227.617h-.852c.014-.38.129-.714.344-1.001.216-.289.498-.514.846-.675a2.73 2.73 0 0 1 1.154-.241c.449 0 .835.091 1.157.273.322.18.57.418.743.714.172.296.259.616.259.959 0 .41-.108.759-.323 1.047a1.637 1.637 0 0 1-.87.6v.057c.459.076.818.272 1.076.586.258.313.387.7.387 1.162 0 .395-.108.75-.324 1.065a2.195 2.195 0 0 1-.873.739c-.369.18-.79.27-1.261.27Zm7.617-1.463v-.383c0-.265.055-.508.164-.728.111-.223.272-.4.483-.533.213-.135.471-.202.774-.202.308 0 .566.067.774.202.208.133.366.31.472.533.107.22.16.463.16.728v.383c0 .266-.054.51-.163.732-.107.22-.265.398-.476.533-.208.132-.464.198-.767.198-.308 0-.567-.066-.778-.198a1.313 1.313 0 0 1-.479-.533 1.64 1.64 0 0 1-.164-.732Zm.725-.383v.383c0 .22.052.418.156.593.104.173.284.26.54.26.248 0 .424-.087.525-.26a1.13 1.13 0 0 0 .157-.593v-.383c0-.22-.05-.417-.149-.59-.1-.175-.277-.262-.533-.262-.249 0-.427.087-.536.262-.107.173-.16.37-.16.59Zm-4.347-3.779v-.383c0-.265.055-.508.164-.728.111-.223.272-.4.483-.533.213-.135.471-.202.774-.202.307 0 .566.067.774.202.208.133.366.31.472.533.107.22.16.463.16.728v.383c0 .266-.054.51-.163.732a1.3 1.3 0 0 1-.476.533 1.407 1.407 0 0 1-.767.199c-.308 0-.567-.067-.778-.2a1.313 1.313 0 0 1-.479-.532 1.641 1.641 0 0 1-.164-.732Zm.725-.383v.383c0 .22.052.418.156.594.104.172.284.259.54.259.248 0 .423-.087.525-.26a1.14 1.14 0 0 0 .157-.593v-.383c0-.22-.05-.417-.15-.59-.099-.175-.277-.262-.532-.262-.249 0-.428.087-.537.262-.106.173-.159.37-.159.59Zm-.455 5.909 5-7.273h.81l-5 7.273h-.81Zm149.722-6.935V71h-.881v-6.35h-.043l-1.775 1.18v-.895l1.818-1.208h.881Zm4.648 0V71h-.881v-6.35h-.042l-1.776 1.18v-.895l1.818-1.208h.881Zm2.287 7.33a.615.615 0 0 1-.451-.188.617.617 0 0 1-.188-.451c0-.176.063-.326.188-.451a.615.615 0 0 1 .451-.189c.175 0 .326.063.451.189a.617.617 0 0 1 .188.45.595.595 0 0 1-.089.32.655.655 0 0 1-.23.235.612.612 0 0 1-.32.085Zm4.313.042c-.469 0-.887-.08-1.254-.241a2.156 2.156 0 0 1-.87-.671 1.805 1.805 0 0 1-.348-1.005h.895c.019.234.1.437.242.607.142.168.328.298.557.39.23.093.484.14.764.14.312 0 .589-.055.831-.164.241-.11.43-.26.568-.455a1.14 1.14 0 0 0 .206-.674 1.27 1.27 0 0 0-.199-.707 1.322 1.322 0 0 0-.582-.483c-.256-.116-.569-.174-.938-.174h-.582v-.781h.582c.289 0 .542-.052.76-.157.22-.104.392-.25.515-.44.125-.19.188-.412.188-.668 0-.246-.054-.46-.163-.642a1.118 1.118 0 0 0-.462-.426 1.491 1.491 0 0 0-.696-.153c-.251 0-.488.046-.71.138-.22.09-.4.222-.54.395-.14.17-.215.376-.227.618h-.852c.014-.382.129-.716.344-1.002.215-.289.497-.514.845-.675a2.732 2.732 0 0 1 1.154-.241c.45 0 .836.091 1.158.273.322.18.569.418.742.714.173.296.259.616.259.959 0 .41-.107.759-.323 1.047a1.637 1.637 0 0 1-.87.6v.057c.459.076.818.271 1.076.586.258.313.387.7.387 1.162 0 .395-.107.75-.323 1.065a2.195 2.195 0 0 1-.873.739c-.37.18-.79.27-1.261.27Zm6.367 0c-.469 0-.887-.08-1.254-.241a2.156 2.156 0 0 1-.87-.671 1.805 1.805 0 0 1-.348-1.005h.895c.019.234.1.437.242.607.142.168.328.298.557.39.23.093.484.14.764.14.312 0 .589-.055.831-.164.241-.11.431-.26.568-.455a1.14 1.14 0 0 0 .206-.674c0-.268-.066-.504-.199-.707a1.316 1.316 0 0 0-.582-.483c-.256-.116-.568-.174-.938-.174h-.582v-.781h.582c.289 0 .542-.052.76-.157a1.176 1.176 0 0 0 .703-1.108c0-.246-.054-.46-.163-.642a1.118 1.118 0 0 0-.462-.426 1.491 1.491 0 0 0-.696-.153 1.84 1.84 0 0 0-.71.138c-.22.09-.4.222-.54.395a1.03 1.03 0 0 0-.227.618h-.852c.014-.382.129-.716.344-1.002.216-.289.497-.514.845-.675a2.732 2.732 0 0 1 1.154-.241c.45 0 .836.091 1.158.273.322.18.569.418.742.714.173.296.26.616.26.959 0 .41-.108.759-.324 1.047a1.637 1.637 0 0 1-.87.6v.057c.46.076.818.271 1.076.586.258.313.387.7.387 1.162 0 .395-.107.75-.323 1.065a2.195 2.195 0 0 1-.873.739c-.37.18-.79.27-1.261.27Zm7.617-1.463v-.383c0-.265.055-.508.164-.728.111-.223.272-.4.483-.533.213-.135.471-.202.774-.202.307 0 .566.067.774.202.208.133.366.31.472.533.107.22.16.463.16.728v.383c0 .266-.055.51-.163.732a1.3 1.3 0 0 1-.476.533c-.209.132-.464.198-.767.198-.308 0-.567-.066-.778-.198a1.306 1.306 0 0 1-.479-.533 1.64 1.64 0 0 1-.164-.732Zm.725-.383v.383c0 .22.052.418.156.593.104.173.284.26.54.26.248 0 .423-.087.525-.26a1.14 1.14 0 0 0 .157-.593v-.383c0-.22-.05-.417-.15-.59-.099-.175-.277-.262-.532-.262-.249 0-.428.087-.537.262-.106.173-.159.37-.159.59Zm-4.347-3.779v-.383c0-.265.055-.508.163-.728.112-.223.273-.4.483-.533.213-.135.471-.202.775-.202.307 0 .565.067.774.202.208.133.365.31.472.533.107.22.16.463.16.728v.383c0 .266-.055.51-.164.732-.106.22-.265.398-.475.533-.209.132-.464.198-.767.198-.308 0-.567-.066-.778-.198a1.315 1.315 0 0 1-.48-.533 1.654 1.654 0 0 1-.163-.732Zm.725-.383v.383c0 .22.052.418.156.593.104.173.284.26.54.26.248 0 .423-.087.525-.26a1.14 1.14 0 0 0 .156-.593v-.383c0-.22-.049-.417-.149-.59-.099-.175-.277-.262-.532-.262-.249 0-.428.087-.537.262-.106.173-.159.37-.159.59ZM383.837 71l5-7.273h.81l-5 7.273h-.81Z"/>
    <path fill="#8668FF" fill-opacity=".8" d="M16.557 16.363v-1.215h6.383v1.215h-2.473v6.785h-1.438v-6.785h-2.472Zm6.927 6.785v-6h1.371v1h.063c.11-.346.297-.613.563-.8.268-.19.574-.286.917-.286.079 0 .166.004.262.012.1.005.181.014.246.027v1.301a1.587 1.587 0 0 0-.285-.055 2.628 2.628 0 0 0-.371-.027c-.258 0-.49.056-.695.168a1.23 1.23 0 0 0-.48.457c-.118.195-.177.42-.177.676v3.527h-1.414Zm5.98.121c-.38 0-.722-.067-1.026-.203a1.677 1.677 0 0 1-.72-.61c-.174-.267-.261-.598-.261-.991 0-.339.063-.619.188-.84a1.45 1.45 0 0 1 .511-.532 2.58 2.58 0 0 1 .73-.3c.274-.07.557-.121.848-.153.352-.036.637-.069.856-.097.219-.031.377-.078.476-.14.102-.066.153-.166.153-.302v-.023c0-.294-.088-.522-.262-.684-.174-.161-.426-.242-.754-.242-.346 0-.621.076-.824.227-.2.15-.336.33-.406.535l-1.32-.188c.104-.364.275-.669.515-.914.24-.247.533-.432.879-.554a3.36 3.36 0 0 1 1.148-.188c.29 0 .577.034.864.102.286.067.548.18.785.336.237.153.427.363.57.629.146.265.219.597.219.996v4.015h-1.36v-.824h-.046a1.729 1.729 0 0 1-.364.469 1.728 1.728 0 0 1-.582.347 2.348 2.348 0 0 1-.816.13Zm.368-1.039c.284 0 .53-.056.738-.168a1.221 1.221 0 0 0 .653-1.066v-.707a.665.665 0 0 1-.227.101 3.213 3.213 0 0 1-.351.082 9.42 9.42 0 0 1-.387.063l-.332.047a2.45 2.45 0 0 0-.567.14.942.942 0 0 0-.394.274.669.669 0 0 0-.145.445c0 .26.095.457.285.59.19.133.433.2.727.2Zm7.262-5.082v1.094h-3.547v-1.094h3.547Zm-2.66 6v-6.566c0-.404.083-.74.25-1.008.169-.268.395-.469.68-.602.283-.132.598-.199.945-.199.244 0 .462.02.652.059.19.039.33.074.422.105l-.281 1.094a2.452 2.452 0 0 0-.227-.055 1.372 1.372 0 0 0-.305-.03c-.263 0-.449.063-.558.19-.107.126-.16.305-.16.54v6.472h-1.418Zm6.806-6v1.094h-3.547v-1.094h3.547Zm-2.66 6v-6.566c0-.404.083-.74.25-1.008a1.58 1.58 0 0 1 .68-.602c.284-.132.599-.199.945-.199.245 0 .462.02.652.059.19.039.331.074.422.105l-.281 1.094a2.44 2.44 0 0 0-.226-.055 1.372 1.372 0 0 0-.305-.03c-.263 0-.45.063-.559.19-.107.126-.16.305-.16.54v6.472H38.58Zm3.768 0v-6h1.414v6h-1.414Zm.71-6.851a.825.825 0 0 1-.578-.223.718.718 0 0 1-.242-.543.71.71 0 0 1 .242-.543.817.817 0 0 1 .579-.226c.226 0 .419.075.578.226a.71.71 0 0 1 .242.543c0 .21-.08.392-.242.543a.816.816 0 0 1-.578.223Zm4.775 6.968c-.599 0-1.113-.131-1.543-.394a2.635 2.635 0 0 1-.988-1.09c-.23-.466-.344-1.003-.344-1.61 0-.609.117-1.146.352-1.613.234-.468.565-.833.992-1.093.43-.263.937-.395 1.523-.395.487 0 .918.09 1.293.27.378.177.678.428.902.753.224.323.352.701.383 1.133h-1.351a1.292 1.292 0 0 0-.39-.722c-.204-.196-.476-.293-.817-.293-.29 0-.543.078-.762.234-.219.154-.39.375-.512.664-.12.29-.18.635-.18 1.04 0 .408.06.76.18 1.054.12.291.288.517.504.676.219.156.475.234.77.234.208 0 .394-.039.558-.117.167-.08.306-.197.418-.348.112-.15.19-.334.23-.55h1.352c-.033.424-.158.8-.375 1.128a2.22 2.22 0 0 1-.883.766c-.372.182-.81.273-1.312.273Zm10.87-5.918a1.066 1.066 0 0 0-.46-.797c-.269-.19-.618-.285-1.048-.285a2 2 0 0 0-.777.137 1.15 1.15 0 0 0-.496.371.902.902 0 0 0-.063.969c.078.122.184.226.317.312.133.084.28.154.441.211.162.058.324.106.489.145l.75.187c.302.07.592.166.87.286.282.12.533.27.755.453.223.182.4.402.53.66s.196.56.196.906c0 .469-.12.882-.36 1.238-.239.354-.585.632-1.038.832-.45.198-.996.297-1.637.297-.622 0-1.163-.096-1.621-.289a2.414 2.414 0 0 1-1.07-.843c-.256-.37-.394-.82-.415-1.352h1.426c.021.279.107.51.258.695.151.185.348.323.59.414.245.091.518.137.82.137.315 0 .591-.047.828-.14.24-.097.427-.23.563-.4a.962.962 0 0 0 .207-.6.764.764 0 0 0-.184-.516 1.345 1.345 0 0 0-.504-.344 4.857 4.857 0 0 0-.75-.25l-.91-.234c-.659-.17-1.18-.426-1.562-.77-.38-.346-.57-.806-.57-1.379 0-.471.127-.884.382-1.238a2.529 2.529 0 0 1 1.05-.824 3.648 3.648 0 0 1 1.505-.297c.568 0 1.065.099 1.492.297.43.195.767.467 1.012.816.245.346.37.745.379 1.195h-1.395Zm2.733 8.051v-8.25h1.391v.992h.082c.073-.146.176-.3.309-.465.133-.166.312-.308.539-.425.226-.12.515-.18.867-.18.464 0 .882.119 1.254.355.375.235.672.583.89 1.043.222.459.333 1.021.333 1.688 0 .659-.108 1.219-.325 1.68-.216.46-.51.812-.882 1.054a2.27 2.27 0 0 1-1.266.364c-.344 0-.629-.058-.855-.172a1.74 1.74 0 0 1-.547-.414 2.68 2.68 0 0 1-.317-.465h-.058v3.195h-1.414Zm1.387-5.25c0 .388.055.728.164 1.02.112.291.272.52.48.683.212.162.467.242.766.242.313 0 .575-.083.786-.25.21-.169.37-.4.476-.69.11-.295.164-.63.164-1.005 0-.372-.053-.703-.16-.992a1.49 1.49 0 0 0-.477-.68c-.21-.164-.474-.246-.789-.246-.302 0-.558.08-.77.238a1.465 1.465 0 0 0-.48.669c-.106.286-.16.623-.16 1.011Zm6.903-5v8H68.31v-8h1.415Zm1.454 8v-6h1.414v6H71.18Zm.71-6.851a.825.825 0 0 1-.578-.223.718.718 0 0 1-.242-.543.71.71 0 0 1 .243-.543.817.817 0 0 1 .578-.226c.226 0 .419.075.578.226a.71.71 0 0 1 .242.543c0 .21-.08.392-.242.543a.816.816 0 0 1-.578.223Zm5.154.851v1.094h-3.45v-1.094h3.45Zm-2.598-1.437h1.414v5.632c0 .19.029.336.086.438a.46.46 0 0 0 .235.203.897.897 0 0 0 .32.055 1.85 1.85 0 0 0 .414-.055l.238 1.106a3.155 3.155 0 0 1-.324.085 2.65 2.65 0 0 1-.508.055 2.306 2.306 0 0 1-.957-.16 1.488 1.488 0 0 1-.675-.555c-.165-.25-.245-.562-.243-.937V15.71Zm6.572 7.437v-8h3c.614 0 1.13.115 1.546.344.42.23.736.544.95.945.216.399.324.852.324 1.36 0 .513-.108.968-.324 1.367a2.316 2.316 0 0 1-.957.941c-.422.227-.942.34-1.559.34H82.01v-1.191h1.793c.36 0 .653-.063.883-.188.229-.125.398-.297.507-.515.112-.22.168-.47.168-.754 0-.284-.056-.534-.168-.75a1.142 1.142 0 0 0-.511-.504c-.23-.123-.525-.184-.887-.184h-1.328v6.79h-1.45Zm7.016 0v-6h1.371v1h.063a1.5 1.5 0 0 1 1.48-1.086c.078 0 .166.004.262.012.099.005.181.014.246.027v1.301a1.587 1.587 0 0 0-.285-.055 2.628 2.628 0 0 0-.371-.027c-.258 0-.49.056-.695.168a1.23 1.23 0 0 0-.481.457c-.117.195-.176.42-.176.676v3.527h-1.414Zm6.77.117c-.6 0-1.12-.125-1.558-.375a2.54 2.54 0 0 1-1.004-1.07c-.234-.463-.351-1.009-.351-1.637 0-.617.117-1.159.351-1.625.237-.468.568-.833.992-1.093.425-.263.924-.395 1.497-.395.37 0 .718.06 1.046.18.331.117.623.3.875.547.256.247.456.562.602.945.146.38.219.833.219 1.36v.433h-4.918v-.953h3.562a1.521 1.521 0 0 0-.176-.723 1.278 1.278 0 0 0-.48-.504 1.35 1.35 0 0 0-.711-.183c-.29 0-.543.07-.762.21a1.45 1.45 0 0 0-.511.547c-.12.224-.181.47-.184.739v.832c0 .349.064.648.191.898.128.248.306.438.535.57.23.13.498.196.805.196.206 0 .392-.029.559-.086a1.24 1.24 0 0 0 .433-.262 1.09 1.09 0 0 0 .278-.426l1.32.149a2.059 2.059 0 0 1-.477.914 2.323 2.323 0 0 1-.89.601 3.404 3.404 0 0 1-1.242.211Zm9.052-6.117-2.136 6h-1.563l-2.136-6h1.507l1.379 4.457h.063l1.383-4.457h1.503Zm.979 6v-6h1.414v6h-1.414Zm.711-6.851a.824.824 0 0 1-.578-.223.716.716 0 0 1-.242-.543c0-.213.08-.395.242-.543a.816.816 0 0 1 .578-.226.81.81 0 0 1 .578.226c.161.149.242.33.242.543a.72.72 0 0 1-.242.543.817.817 0 0 1-.578.223Zm4.813 6.968c-.601 0-1.121-.125-1.558-.375a2.537 2.537 0 0 1-1.004-1.07c-.234-.463-.352-1.009-.352-1.637 0-.617.118-1.159.352-1.625.237-.468.568-.833.992-1.093.425-.263.923-.395 1.496-.395.37 0 .719.06 1.047.18.331.117.622.3.875.547.255.247.456.562.602.945.145.38.218.833.218 1.36v.433h-4.918v-.953h3.563a1.521 1.521 0 0 0-.176-.723 1.278 1.278 0 0 0-.48-.504 1.35 1.35 0 0 0-.711-.183c-.289 0-.543.07-.762.21-.219.139-.389.32-.512.547-.12.224-.181.47-.183.739v.832c0 .349.063.648.191.898.128.248.306.438.535.57.229.13.498.196.805.196.206 0 .392-.029.559-.086a1.24 1.24 0 0 0 .433-.262 1.08 1.08 0 0 0 .277-.426l1.321.149a2.06 2.06 0 0 1-.477.914 2.322 2.322 0 0 1-.89.601 3.406 3.406 0 0 1-1.243.211Zm5.071-.117-1.696-6h1.442l1.054 4.219h.055l1.078-4.219h1.426l1.078 4.195h.059l1.039-4.195h1.445l-1.699 6h-1.473l-1.125-4.055h-.082l-1.125 4.055h-1.476Z"/>
    <path fill="url(#f)" d="M186 34h60v20h-60V34Z"/>
    <path fill="url(#g)" d="M16 38a4 4 0 0 1 4-4h56v20H20a4 4 0 0 1-4-4V38Z"/>
    <path fill="url(#h)" d="M356 34h60v20h-60V34Z"/>
    <g clip-path="url(#i)">
      <path fill="#8354FE" fill-opacity=".21" d="M416 34h106a4 4 0 0 1 4 4v12a4 4 0 0 1-4 4H416V34Z"/>
      <path stroke="#8354FE" stroke-opacity=".21" stroke-width="4" d="m405.414 28.586 34 34m-10-34 34 34m-46-34 34 34m-10-34 34 34m-82-34 34 34m38-34 34 34m-10-34 34 34m-46-34 34 34m-10-34 34 34m-22-34 34 34m-94-34 34 34m38-34 34 34"/>
    </g>
  </g>
  <defs>
    <linearGradient id="b" x1="28.208" x2="456.213" y1=".186" y2="92.162" gradientUnits="userSpaceOnUse">
      <stop offset=".202" stop-color="#42F" stop-opacity=".06"/>
      <stop offset=".508" stop-color="#853FF9" stop-opacity=".09"/>
    </linearGradient>
    <linearGradient id="c" x1="0" x2="542" y1="40" y2="40" gradientUnits="userSpaceOnUse">
      <stop stop-color="#8354FE" stop-opacity=".21"/>
      <stop offset="1" stop-color="#9879FF" stop-opacity=".51"/>
    </linearGradient>
    <linearGradient id="f" x1="218.25" x2="218.25" y1="16.25" y2="71.75" gradientUnits="userSpaceOnUse">
      <stop stop-color="#7E451D"/>
      <stop offset="1" stop-color="#A35829"/>
    </linearGradient>
    <linearGradient id="g" x1="46.22" x2="46.22" y1="34.22" y2="53.78" gradientUnits="userSpaceOnUse">
      <stop stop-color="#1C6961"/>
      <stop offset="1" stop-color="#207E73"/>
    </linearGradient>
    <linearGradient id="h" x1="386" x2="386" y1="34" y2="54" gradientUnits="userSpaceOnUse">
      <stop stop-color="#205D9E"/>
      <stop offset="1" stop-color="#2870BD"/>
    </linearGradient>
    <clipPath id="a">
      <path fill="#fff" d="M0 0h542v80H0z"/>
    </clipPath>
    <clipPath id="d">
      <path fill="#fff" d="M76 34h110v20H76z"/>
    </clipPath>
    <clipPath id="e">
      <path fill="#fff" d="M246 34h110v20H246z"/>
    </clipPath>
    <clipPath id="i">
      <path fill="#fff" d="M416 34h106a4 4 0 0 1 4 4v12a4 4 0 0 1-4 4H416V34Z"/>
    </clipPath>
  </defs>
</svg>
