<svg width="542" height="80" viewBox="0 0 542 80" fill="none" xmlns="http://www.w3.org/2000/svg">
<path d="M0.5 4C0.5 2.067 2.067 0.5 4 0.5H538C539.933 0.5 541.5 2.067 541.5 4V76C541.5 77.933 539.933 79.5 538 79.5H4C2.067 79.5 0.5 77.933 0.5 76V4Z" stroke="#845FFD" stroke-opacity="0.37"/>
<rect x="24.5" y="20.5" width="63" height="37" rx="18.5" stroke="#845FFD" stroke-opacity="0.37"/>
<path d="M26.9297 39.0479C26.9297 30.2113 34.0931 23.0479 42.9297 23.0479C51.7662 23.0479 58.9297 30.2113 58.9297 39.0479C58.9297 47.8844 51.7662 55.0479 42.9297 55.0479C34.0931 55.0479 26.9297 47.8844 26.9297 39.0479Z" fill="#473876"/>
<path d="M29.9697 39C29.9697 31.8203 35.79 26 42.9697 26C50.1494 26 55.9697 31.8203 55.9697 39C55.9697 46.1797 50.1494 52 42.9697 52C35.79 52 29.9697 46.1797 29.9697 39Z" fill="#473876"/>
<path d="M110.568 39.75V45H109.227V36.2727H110.523V37.6364H110.636C110.841 37.1932 111.152 36.8371 111.568 36.5682C111.985 36.2955 112.523 36.1591 113.182 36.1591C113.773 36.1591 114.29 36.2803 114.733 36.5227C115.176 36.7614 115.521 37.125 115.767 37.6136C116.013 38.0985 116.136 38.7121 116.136 39.4545V45H114.795V39.5455C114.795 38.8598 114.617 38.3258 114.261 37.9432C113.905 37.5568 113.417 37.3636 112.795 37.3636C112.367 37.3636 111.985 37.4564 111.648 37.642C111.314 37.8277 111.051 38.0985 110.858 38.4545C110.665 38.8106 110.568 39.2424 110.568 39.75ZM122.246 45.1818C121.405 45.1818 120.679 44.9962 120.07 44.625C119.464 44.25 118.996 43.7273 118.666 43.0568C118.34 42.3826 118.178 41.5985 118.178 40.7045C118.178 39.8106 118.34 39.0227 118.666 38.3409C118.996 37.6553 119.454 37.1212 120.041 36.7386C120.632 36.3523 121.321 36.1591 122.109 36.1591C122.564 36.1591 123.013 36.2348 123.456 36.3864C123.899 36.5379 124.303 36.7841 124.666 37.125C125.03 37.4621 125.32 37.9091 125.536 38.4659C125.751 39.0227 125.859 39.7083 125.859 40.5227V41.0909H119.132V39.9318H124.496C124.496 39.4394 124.397 39 124.2 38.6136C124.007 38.2273 123.731 37.9223 123.371 37.6989C123.015 37.4754 122.594 37.3636 122.109 37.3636C121.575 37.3636 121.113 37.4962 120.723 37.7614C120.337 38.0227 120.039 38.3636 119.831 38.7841C119.623 39.2045 119.518 39.6553 119.518 40.1364V40.9091C119.518 41.5682 119.632 42.1269 119.859 42.5852C120.09 43.0398 120.411 43.3864 120.82 43.625C121.229 43.8598 121.704 43.9773 122.246 43.9773C122.598 43.9773 122.916 43.928 123.2 43.8295C123.488 43.7273 123.736 43.5758 123.945 43.375C124.153 43.1705 124.314 42.9167 124.428 42.6136L125.723 42.9773C125.587 43.4167 125.357 43.803 125.036 44.1364C124.714 44.4659 124.316 44.7235 123.842 44.9091C123.369 45.0909 122.837 45.1818 122.246 45.1818ZM129.876 45L127.217 36.2727H128.626L130.513 42.9545H130.604L132.467 36.2727H133.899L135.74 42.9318H135.831L137.717 36.2727H139.126L136.467 45H135.149L133.24 38.2955H133.104L131.195 45H129.876ZM145.899 39.3864V40.6364H140.808V39.3864H145.899ZM154.44 38.2273L153.236 38.5682C153.16 38.3674 153.048 38.1723 152.901 37.983C152.757 37.7898 152.56 37.6307 152.31 37.5057C152.06 37.3807 151.74 37.3182 151.349 37.3182C150.815 37.3182 150.37 37.4413 150.014 37.6875C149.662 37.9299 149.486 38.2386 149.486 38.6136C149.486 38.947 149.607 39.2102 149.849 39.4034C150.092 39.5966 150.471 39.7576 150.986 39.8864L152.281 40.2045C153.062 40.3939 153.643 40.6837 154.026 41.0739C154.408 41.4602 154.599 41.9583 154.599 42.5682C154.599 43.0682 154.455 43.5152 154.168 43.9091C153.884 44.303 153.486 44.6136 152.974 44.8409C152.463 45.0682 151.868 45.1818 151.19 45.1818C150.3 45.1818 149.563 44.9886 148.98 44.6023C148.397 44.2159 148.027 43.6515 147.872 42.9091L149.145 42.5909C149.266 43.0606 149.495 43.4129 149.832 43.6477C150.173 43.8826 150.618 44 151.168 44C151.793 44 152.289 43.8674 152.656 43.6023C153.027 43.3333 153.213 43.0114 153.213 42.6364C153.213 42.3333 153.107 42.0795 152.895 41.875C152.683 41.6667 152.357 41.5114 151.918 41.4091L150.463 41.0682C149.664 40.8788 149.077 40.5852 148.702 40.1875C148.33 39.786 148.145 39.2841 148.145 38.6818C148.145 38.1894 148.283 37.7538 148.56 37.375C148.84 36.9962 149.221 36.6989 149.702 36.483C150.187 36.267 150.736 36.1591 151.349 36.1591C152.213 36.1591 152.891 36.3485 153.384 36.7273C153.88 37.1061 154.232 37.6061 154.44 38.2273ZM156.618 45V36.2727H157.959V45H156.618ZM157.3 34.8182C157.038 34.8182 156.813 34.7292 156.624 34.5511C156.438 34.3731 156.345 34.1591 156.345 33.9091C156.345 33.6591 156.438 33.4451 156.624 33.267C156.813 33.089 157.038 33 157.3 33C157.561 33 157.785 33.089 157.97 33.267C158.16 33.4451 158.254 33.6591 158.254 33.9091C158.254 34.1591 158.16 34.3731 157.97 34.5511C157.785 34.7292 157.561 34.8182 157.3 34.8182ZM163.938 48.4545C163.29 48.4545 162.733 48.3712 162.267 48.2045C161.801 48.0417 161.413 47.8258 161.102 47.5568C160.795 47.2917 160.551 47.0076 160.369 46.7045L161.438 45.9545C161.559 46.1136 161.712 46.2955 161.898 46.5C162.083 46.7083 162.337 46.8883 162.659 47.0398C162.985 47.1951 163.411 47.2727 163.938 47.2727C164.642 47.2727 165.223 47.1023 165.682 46.7614C166.14 46.4205 166.369 45.8864 166.369 45.1591V43.3864H166.256C166.157 43.5455 166.017 43.7424 165.835 43.9773C165.657 44.2083 165.4 44.4148 165.062 44.5966C164.729 44.7746 164.278 44.8636 163.71 44.8636C163.006 44.8636 162.373 44.697 161.812 44.3636C161.256 44.0303 160.814 43.5455 160.489 42.9091C160.167 42.2727 160.006 41.5 160.006 40.5909C160.006 39.697 160.163 38.9186 160.477 38.2557C160.792 37.589 161.229 37.0739 161.79 36.7102C162.35 36.3428 162.998 36.1591 163.733 36.1591C164.301 36.1591 164.752 36.2538 165.085 36.4432C165.422 36.6288 165.68 36.8409 165.858 37.0795C166.04 37.3144 166.18 37.5076 166.278 37.6591H166.415V36.2727H167.71V45.25C167.71 46 167.54 46.6098 167.199 47.0795C166.862 47.553 166.407 47.8996 165.835 48.1193C165.267 48.3428 164.634 48.4545 163.938 48.4545ZM163.892 43.6591C164.43 43.6591 164.884 43.536 165.256 43.2898C165.627 43.0436 165.909 42.6894 166.102 42.2273C166.295 41.7652 166.392 41.2121 166.392 40.5682C166.392 39.9394 166.297 39.3845 166.108 38.9034C165.919 38.4223 165.638 38.0455 165.267 37.7727C164.896 37.5 164.438 37.3636 163.892 37.3636C163.324 37.3636 162.85 37.5076 162.472 37.7955C162.097 38.0833 161.814 38.4697 161.625 38.9545C161.439 39.4394 161.347 39.9773 161.347 40.5682C161.347 41.1742 161.441 41.7102 161.631 42.1761C161.824 42.6383 162.108 43.0019 162.483 43.267C162.862 43.5284 163.331 43.6591 163.892 43.6591ZM171.506 39.75V45H170.165V36.2727H171.46V37.6364H171.574C171.778 37.1932 172.089 36.8371 172.506 36.5682C172.922 36.2955 173.46 36.1591 174.119 36.1591C174.71 36.1591 175.227 36.2803 175.67 36.5227C176.114 36.7614 176.458 37.125 176.705 37.6136C176.951 38.0985 177.074 38.7121 177.074 39.4545V45H175.733V39.5455C175.733 38.8598 175.555 38.3258 175.199 37.9432C174.843 37.5568 174.354 37.3636 173.733 37.3636C173.305 37.3636 172.922 37.4564 172.585 37.642C172.252 37.8277 171.989 38.0985 171.795 38.4545C171.602 38.8106 171.506 39.2424 171.506 39.75ZM185.024 41.4318V36.2727H186.365V45H185.024V43.5227H184.933C184.729 43.9659 184.411 44.3428 183.979 44.6534C183.547 44.9602 183.001 45.1136 182.342 45.1136C181.797 45.1136 181.312 44.9943 180.888 44.7557C180.464 44.5133 180.13 44.1496 179.888 43.6648C179.645 43.1761 179.524 42.5606 179.524 41.8182V36.2727H180.865V41.7273C180.865 42.3636 181.043 42.8712 181.399 43.25C181.759 43.6288 182.217 43.8182 182.774 43.8182C183.107 43.8182 183.446 43.733 183.791 43.5625C184.14 43.392 184.431 43.1307 184.666 42.7784C184.905 42.4261 185.024 41.9773 185.024 41.4318ZM188.821 48.2727V36.2727H190.116V37.6591H190.276C190.374 37.5076 190.51 37.3144 190.685 37.0795C190.863 36.8409 191.116 36.6288 191.446 36.4432C191.779 36.2538 192.23 36.1591 192.798 36.1591C193.533 36.1591 194.181 36.3428 194.741 36.7102C195.302 37.0777 195.74 37.5985 196.054 38.2727C196.368 38.947 196.526 39.7424 196.526 40.6591C196.526 41.5833 196.368 42.3845 196.054 43.0625C195.74 43.7367 195.304 44.2595 194.747 44.6307C194.19 44.9981 193.548 45.1818 192.821 45.1818C192.26 45.1818 191.812 45.089 191.474 44.9034C191.137 44.714 190.878 44.5 190.696 44.2614C190.514 44.0189 190.374 43.8182 190.276 43.6591H190.162V48.2727H188.821ZM190.139 40.6364C190.139 41.2955 190.236 41.8769 190.429 42.3807C190.622 42.8807 190.904 43.2727 191.276 43.5568C191.647 43.8371 192.101 43.9773 192.639 43.9773C193.2 43.9773 193.668 43.8295 194.043 43.5341C194.421 43.2348 194.705 42.8333 194.895 42.3295C195.088 41.822 195.185 41.2576 195.185 40.6364C195.185 40.0227 195.09 39.4697 194.901 38.9773C194.715 38.4811 194.433 38.089 194.054 37.8011C193.679 37.5095 193.207 37.3636 192.639 37.3636C192.094 37.3636 191.635 37.5019 191.264 37.7784C190.893 38.0511 190.613 38.4337 190.423 38.9261C190.234 39.4148 190.139 39.9848 190.139 40.6364ZM203.571 39.3864V40.6364H198.48V39.3864H203.571ZM209.817 36.2727V37.4091H205.112V36.2727H209.817ZM206.521 45V35.0682C206.521 34.5682 206.639 34.1515 206.874 33.8182C207.108 33.4848 207.413 33.2348 207.788 33.0682C208.163 32.9015 208.559 32.8182 208.976 32.8182C209.305 32.8182 209.574 32.8447 209.783 32.8977C209.991 32.9508 210.146 33 210.249 33.0455L209.862 34.2045C209.794 34.1818 209.699 34.1534 209.578 34.1193C209.461 34.0852 209.305 34.0682 209.112 34.0682C208.669 34.0682 208.349 34.1799 208.152 34.4034C207.959 34.6269 207.862 34.9545 207.862 35.3864V45H206.521ZM213.037 33.3636V45H211.696V33.3636H213.037ZM219.038 45.1818C218.25 45.1818 217.559 44.9943 216.964 44.6193C216.374 44.2443 215.911 43.7197 215.578 43.0455C215.249 42.3712 215.084 41.5833 215.084 40.6818C215.084 39.7727 215.249 38.9792 215.578 38.3011C215.911 37.6231 216.374 37.0966 216.964 36.7216C217.559 36.3466 218.25 36.1591 219.038 36.1591C219.826 36.1591 220.516 36.3466 221.107 36.7216C221.701 37.0966 222.163 37.6231 222.493 38.3011C222.826 38.9792 222.993 39.7727 222.993 40.6818C222.993 41.5833 222.826 42.3712 222.493 43.0455C222.163 43.7197 221.701 44.2443 221.107 44.6193C220.516 44.9943 219.826 45.1818 219.038 45.1818ZM219.038 43.9773C219.637 43.9773 220.129 43.8239 220.516 43.517C220.902 43.2102 221.188 42.8068 221.374 42.3068C221.559 41.8068 221.652 41.2652 221.652 40.6818C221.652 40.0985 221.559 39.5549 221.374 39.0511C221.188 38.5473 220.902 38.1402 220.516 37.8295C220.129 37.5189 219.637 37.3636 219.038 37.3636C218.44 37.3636 217.947 37.5189 217.561 37.8295C217.175 38.1402 216.889 38.5473 216.703 39.0511C216.518 39.5549 216.425 40.0985 216.425 40.6818C216.425 41.2652 216.518 41.8068 216.703 42.3068C216.889 42.8068 217.175 43.2102 217.561 43.517C217.947 43.8239 218.44 43.9773 219.038 43.9773ZM226.72 45L224.061 36.2727H225.47L227.357 42.9545H227.447L229.311 36.2727H230.743L232.584 42.9318H232.675L234.561 36.2727H235.97L233.311 45H231.993L230.084 38.2955H229.947L228.038 45H226.72ZM242.743 39.3864V40.6364H237.652V39.3864H242.743ZM248.398 45.1818C247.67 45.1818 247.028 44.9981 246.472 44.6307C245.915 44.2595 245.479 43.7367 245.165 43.0625C244.85 42.3845 244.693 41.5833 244.693 40.6591C244.693 39.7424 244.85 38.947 245.165 38.2727C245.479 37.5985 245.917 37.0777 246.477 36.7102C247.038 36.3428 247.686 36.1591 248.42 36.1591C248.989 36.1591 249.438 36.2538 249.767 36.4432C250.1 36.6288 250.354 36.8409 250.528 37.0795C250.706 37.3144 250.845 37.5076 250.943 37.6591H251.057V33.3636H252.398V45H251.102V43.6591H250.943C250.845 43.8182 250.705 44.0189 250.523 44.2614C250.341 44.5 250.081 44.714 249.744 44.9034C249.407 45.089 248.958 45.1818 248.398 45.1818ZM248.58 43.9773C249.117 43.9773 249.572 43.8371 249.943 43.5568C250.314 43.2727 250.597 42.8807 250.79 42.3807C250.983 41.8769 251.08 41.2955 251.08 40.6364C251.08 39.9848 250.985 39.4148 250.795 38.9261C250.606 38.4337 250.326 38.0511 249.955 37.7784C249.583 37.5019 249.125 37.3636 248.58 37.3636C248.011 37.3636 247.538 37.5095 247.159 37.8011C246.784 38.089 246.502 38.4811 246.312 38.9773C246.127 39.4697 246.034 40.0227 246.034 40.6364C246.034 41.2576 246.129 41.822 246.318 42.3295C246.511 42.8333 246.795 43.2348 247.17 43.5341C247.549 43.8295 248.019 43.9773 248.58 43.9773ZM258.699 45.1818C257.858 45.1818 257.133 44.9962 256.523 44.625C255.917 44.25 255.449 43.7273 255.119 43.0568C254.794 42.3826 254.631 41.5985 254.631 40.7045C254.631 39.8106 254.794 39.0227 255.119 38.3409C255.449 37.6553 255.907 37.1212 256.494 36.7386C257.085 36.3523 257.775 36.1591 258.562 36.1591C259.017 36.1591 259.466 36.2348 259.909 36.3864C260.352 36.5379 260.756 36.7841 261.119 37.125C261.483 37.4621 261.773 37.9091 261.989 38.4659C262.205 39.0227 262.312 39.7083 262.312 40.5227V41.0909H255.585V39.9318H260.949C260.949 39.4394 260.85 39 260.653 38.6136C260.46 38.2273 260.184 37.9223 259.824 37.6989C259.468 37.4754 259.047 37.3636 258.562 37.3636C258.028 37.3636 257.566 37.4962 257.176 37.7614C256.79 38.0227 256.492 38.3636 256.284 38.7841C256.076 39.2045 255.972 39.6553 255.972 40.1364V40.9091C255.972 41.5682 256.085 42.1269 256.312 42.5852C256.544 43.0398 256.864 43.3864 257.273 43.625C257.682 43.8598 258.157 43.9773 258.699 43.9773C259.051 43.9773 259.369 43.928 259.653 43.8295C259.941 43.7273 260.189 43.5758 260.398 43.375C260.606 43.1705 260.767 42.9167 260.881 42.6136L262.176 42.9773C262.04 43.4167 261.811 43.803 261.489 44.1364C261.167 44.4659 260.769 44.7235 260.295 44.9091C259.822 45.0909 259.29 45.1818 258.699 45.1818ZM270.534 38.2273L269.33 38.5682C269.254 38.3674 269.142 38.1723 268.994 37.983C268.85 37.7898 268.653 37.6307 268.403 37.5057C268.153 37.3807 267.833 37.3182 267.443 37.3182C266.909 37.3182 266.464 37.4413 266.108 37.6875C265.756 37.9299 265.58 38.2386 265.58 38.6136C265.58 38.947 265.701 39.2102 265.943 39.4034C266.186 39.5966 266.564 39.7576 267.08 39.8864L268.375 40.2045C269.155 40.3939 269.737 40.6837 270.119 41.0739C270.502 41.4602 270.693 41.9583 270.693 42.5682C270.693 43.0682 270.549 43.5152 270.261 43.9091C269.977 44.303 269.58 44.6136 269.068 44.8409C268.557 45.0682 267.962 45.1818 267.284 45.1818C266.394 45.1818 265.657 44.9886 265.074 44.6023C264.491 44.2159 264.121 43.6515 263.966 42.9091L265.239 42.5909C265.36 43.0606 265.589 43.4129 265.926 43.6477C266.267 43.8826 266.712 44 267.261 44C267.886 44 268.383 43.8674 268.75 43.6023C269.121 43.3333 269.307 43.0114 269.307 42.6364C269.307 42.3333 269.201 42.0795 268.989 41.875C268.777 41.6667 268.451 41.5114 268.011 41.4091L266.557 41.0682C265.758 40.8788 265.17 40.5852 264.795 40.1875C264.424 39.786 264.239 39.2841 264.239 38.6818C264.239 38.1894 264.377 37.7538 264.653 37.375C264.934 36.9962 265.314 36.6989 265.795 36.483C266.28 36.267 266.83 36.1591 267.443 36.1591C268.307 36.1591 268.985 36.3485 269.477 36.7273C269.973 37.1061 270.326 37.6061 270.534 38.2273ZM273.962 41.8182L273.939 40.1591H274.212L278.03 36.2727H279.689L275.621 40.3864H275.507L273.962 41.8182ZM272.712 45V33.3636H274.053V45H272.712ZM278.257 45L274.848 40.6818L275.803 39.75L279.962 45H278.257ZM285.21 36.2727V37.4091H280.688V36.2727H285.21ZM282.006 34.1818H283.347V42.5C283.347 42.8788 283.402 43.1629 283.511 43.3523C283.625 43.5379 283.769 43.6629 283.943 43.7273C284.121 43.7879 284.309 43.8182 284.506 43.8182C284.653 43.8182 284.775 43.8106 284.869 43.7955C284.964 43.7765 285.04 43.7614 285.097 43.75L285.369 44.9545C285.278 44.9886 285.152 45.0227 284.989 45.0568C284.826 45.0947 284.619 45.1136 284.369 45.1136C283.991 45.1136 283.619 45.0322 283.256 44.8693C282.896 44.7064 282.597 44.4583 282.358 44.125C282.123 43.7917 282.006 43.3712 282.006 42.8636V34.1818ZM290.679 45.1818C289.891 45.1818 289.2 44.9943 288.605 44.6193C288.014 44.2443 287.552 43.7197 287.219 43.0455C286.889 42.3712 286.724 41.5833 286.724 40.6818C286.724 39.7727 286.889 38.9792 287.219 38.3011C287.552 37.6231 288.014 37.0966 288.605 36.7216C289.2 36.3466 289.891 36.1591 290.679 36.1591C291.467 36.1591 292.156 36.3466 292.747 36.7216C293.342 37.0966 293.804 37.6231 294.134 38.3011C294.467 38.9792 294.634 39.7727 294.634 40.6818C294.634 41.5833 294.467 42.3712 294.134 43.0455C293.804 43.7197 293.342 44.2443 292.747 44.6193C292.156 44.9943 291.467 45.1818 290.679 45.1818ZM290.679 43.9773C291.277 43.9773 291.77 43.8239 292.156 43.517C292.543 43.2102 292.829 42.8068 293.014 42.3068C293.2 41.8068 293.293 41.2652 293.293 40.6818C293.293 40.0985 293.2 39.5549 293.014 39.0511C292.829 38.5473 292.543 38.1402 292.156 37.8295C291.77 37.5189 291.277 37.3636 290.679 37.3636C290.08 37.3636 289.588 37.5189 289.202 37.8295C288.815 38.1402 288.529 38.5473 288.344 39.0511C288.158 39.5549 288.065 40.0985 288.065 40.6818C288.065 41.2652 288.158 41.8068 288.344 42.3068C288.529 42.8068 288.815 43.2102 289.202 43.517C289.588 43.8239 290.08 43.9773 290.679 43.9773ZM296.68 48.2727V36.2727H297.976V37.6591H298.135C298.233 37.5076 298.37 37.3144 298.544 37.0795C298.722 36.8409 298.976 36.6288 299.305 36.4432C299.639 36.2538 300.089 36.1591 300.658 36.1591C301.393 36.1591 302.04 36.3428 302.601 36.7102C303.161 37.0777 303.599 37.5985 303.913 38.2727C304.228 38.947 304.385 39.7424 304.385 40.6591C304.385 41.5833 304.228 42.3845 303.913 43.0625C303.599 43.7367 303.163 44.2595 302.607 44.6307C302.05 44.9981 301.408 45.1818 300.68 45.1818C300.12 45.1818 299.671 45.089 299.334 44.9034C298.997 44.714 298.737 44.5 298.555 44.2614C298.374 44.0189 298.233 43.8182 298.135 43.6591H298.021V48.2727H296.68ZM297.999 40.6364C297.999 41.2955 298.095 41.8769 298.288 42.3807C298.482 42.8807 298.764 43.2727 299.135 43.5568C299.506 43.8371 299.961 43.9773 300.499 43.9773C301.059 43.9773 301.527 43.8295 301.902 43.5341C302.281 43.2348 302.565 42.8333 302.754 42.3295C302.947 41.822 303.044 41.2576 303.044 40.6364C303.044 40.0227 302.949 39.4697 302.76 38.9773C302.574 38.4811 302.292 38.089 301.913 37.8011C301.538 37.5095 301.067 37.3636 300.499 37.3636C299.953 37.3636 299.495 37.5019 299.124 37.7784C298.752 38.0511 298.472 38.4337 298.283 38.9261C298.093 39.4148 297.999 39.9848 297.999 40.6364Z" fill="#8668FF" fill-opacity="0.8"/>
</svg>
