<svg width="542" height="80" viewBox="0 0 542 80" fill="none" xmlns="http://www.w3.org/2000/svg">
<path d="M0.5 4C0.5 2.067 2.067 0.5 4 0.5H538C539.933 0.5 541.5 2.067 541.5 4V76C541.5 77.933 539.933 79.5 538 79.5H4C2.067 79.5 0.5 77.933 0.5 76V4Z" stroke="#3600FF" stroke-opacity="0.15"/>
<rect x="24.6787" y="20.5" width="63.4758" height="37" rx="18.5" stroke="#3600FF" stroke-opacity="0.15"/>
<path d="M27.1304 39.0479C27.1304 30.2113 34.4128 23.0479 43.2493 23.0479C52.0859 23.0479 59.3683 30.2113 59.3683 39.0479C59.3683 47.8844 52.0859 55.0479 43.2493 55.0479C34.4128 55.0479 27.1304 47.8844 27.1304 39.0479Z" fill="#D4CAFE"/>
<path d="M30.1929 39C30.1929 31.8203 36.1098 26 43.2895 26C50.4692 26 56.3862 31.8203 56.3862 39C56.3862 46.1797 50.4692 52 43.2895 52C36.1098 52 30.1929 46.1797 30.1929 39Z" fill="#D4CAFE"/>
<path d="M109.882 44.5V35.7727H111.223V44.5H109.882ZM110.564 34.3182C110.303 34.3182 110.077 34.2292 109.888 34.0511C109.702 33.8731 109.609 33.6591 109.609 33.4091C109.609 33.1591 109.702 32.9451 109.888 32.767C110.077 32.589 110.303 32.5 110.564 32.5C110.825 32.5 111.049 32.589 111.234 32.767C111.424 32.9451 111.518 33.1591 111.518 33.4091C111.518 33.6591 111.424 33.8731 111.234 34.0511C111.049 34.2292 110.825 34.3182 110.564 34.3182ZM115.02 39.25V44.5H113.679V35.7727H114.974V37.1364H115.088C115.293 36.6932 115.603 36.3371 116.02 36.0682C116.437 35.7955 116.974 35.6591 117.633 35.6591C118.224 35.6591 118.741 35.7803 119.185 36.0227C119.628 36.2614 119.972 36.625 120.219 37.1136C120.465 37.5985 120.588 38.2121 120.588 38.9545V44.5H119.247V39.0455C119.247 38.3598 119.069 37.8258 118.713 37.4432C118.357 37.0568 117.868 36.8636 117.247 36.8636C116.819 36.8636 116.437 36.9564 116.099 37.142C115.766 37.3277 115.503 37.5985 115.31 37.9545C115.116 38.3106 115.02 38.7424 115.02 39.25ZM129.862 35.7727L126.635 44.5H125.271L122.044 35.7727H123.499L125.908 42.7273H125.999L128.408 35.7727H129.862ZM131.632 44.5V35.7727H132.973V44.5H131.632ZM132.314 34.3182C132.053 34.3182 131.827 34.2292 131.638 34.0511C131.452 33.8731 131.359 33.6591 131.359 33.4091C131.359 33.1591 131.452 32.9451 131.638 32.767C131.827 32.589 132.053 32.5 132.314 32.5C132.575 32.5 132.799 32.589 132.984 32.767C133.174 32.9451 133.268 33.1591 133.268 33.4091C133.268 33.6591 133.174 33.8731 132.984 34.0511C132.799 34.2292 132.575 34.3182 132.314 34.3182ZM139.224 35.7727V36.9091H134.702V35.7727H139.224ZM136.02 33.6818H137.361V42C137.361 42.3788 137.416 42.6629 137.526 42.8523C137.639 43.0379 137.783 43.1629 137.957 43.2273C138.135 43.2879 138.323 43.3182 138.52 43.3182C138.668 43.3182 138.789 43.3106 138.883 43.2955C138.978 43.2765 139.054 43.2614 139.111 43.25L139.383 44.4545C139.293 44.4886 139.166 44.5227 139.003 44.5568C138.84 44.5947 138.633 44.6136 138.383 44.6136C138.005 44.6136 137.633 44.5322 137.27 44.3693C136.91 44.2064 136.611 43.9583 136.372 43.625C136.137 43.2917 136.02 42.8712 136.02 42.3636V33.6818ZM144.807 44.6818C143.966 44.6818 143.24 44.4962 142.631 44.125C142.025 43.75 141.557 43.2273 141.227 42.5568C140.901 41.8826 140.739 41.0985 140.739 40.2045C140.739 39.3106 140.901 38.5227 141.227 37.8409C141.557 37.1553 142.015 36.6212 142.602 36.2386C143.193 35.8523 143.883 35.6591 144.67 35.6591C145.125 35.6591 145.574 35.7348 146.017 35.8864C146.46 36.0379 146.864 36.2841 147.227 36.625C147.591 36.9621 147.881 37.4091 148.097 37.9659C148.312 38.5227 148.42 39.2083 148.42 40.0227V40.5909H141.693V39.4318H147.057C147.057 38.9394 146.958 38.5 146.761 38.1136C146.568 37.7273 146.292 37.4223 145.932 37.1989C145.576 36.9754 145.155 36.8636 144.67 36.8636C144.136 36.8636 143.674 36.9962 143.284 37.2614C142.898 37.5227 142.6 37.8636 142.392 38.2841C142.184 38.7045 142.08 39.1553 142.08 39.6364V40.4091C142.08 41.0682 142.193 41.6269 142.42 42.0852C142.651 42.5398 142.972 42.8864 143.381 43.125C143.79 43.3598 144.265 43.4773 144.807 43.4773C145.159 43.4773 145.477 43.428 145.761 43.3295C146.049 43.2273 146.297 43.0758 146.506 42.875C146.714 42.6705 146.875 42.4167 146.989 42.1136L148.284 42.4773C148.148 42.9167 147.919 43.303 147.597 43.6364C147.275 43.9659 146.877 44.2235 146.403 44.4091C145.93 44.5909 145.398 44.6818 144.807 44.6818ZM155.46 38.8864V40.1364H150.369V38.8864H155.46ZM161.615 35.7727V36.9091H157.092V35.7727H161.615ZM158.41 33.6818H159.751V42C159.751 42.3788 159.806 42.6629 159.916 42.8523C160.03 43.0379 160.174 43.1629 160.348 43.2273C160.526 43.2879 160.713 43.3182 160.91 43.3182C161.058 43.3182 161.179 43.3106 161.274 43.2955C161.369 43.2765 161.445 43.2614 161.501 43.25L161.774 44.4545C161.683 44.4886 161.556 44.5227 161.393 44.5568C161.231 44.5947 161.024 44.6136 160.774 44.6136C160.395 44.6136 160.024 44.5322 159.66 44.3693C159.301 44.2064 159.001 43.9583 158.763 43.625C158.528 43.2917 158.41 42.8712 158.41 42.3636V33.6818ZM167.197 44.6818C166.356 44.6818 165.631 44.4962 165.021 44.125C164.415 43.75 163.947 43.2273 163.618 42.5568C163.292 41.8826 163.129 41.0985 163.129 40.2045C163.129 39.3106 163.292 38.5227 163.618 37.8409C163.947 37.1553 164.406 36.6212 164.993 36.2386C165.584 35.8523 166.273 35.6591 167.061 35.6591C167.516 35.6591 167.964 35.7348 168.408 35.8864C168.851 36.0379 169.254 36.2841 169.618 36.625C169.981 36.9621 170.271 37.4091 170.487 37.9659C170.703 38.5227 170.811 39.2083 170.811 40.0227V40.5909H164.084V39.4318H169.447C169.447 38.9394 169.349 38.5 169.152 38.1136C168.959 37.7273 168.682 37.4223 168.322 37.1989C167.966 36.9754 167.546 36.8636 167.061 36.8636C166.527 36.8636 166.065 36.9962 165.675 37.2614C165.288 37.5227 164.991 37.8636 164.783 38.2841C164.574 38.7045 164.47 39.1553 164.47 39.6364V40.4091C164.47 41.0682 164.584 41.6269 164.811 42.0852C165.042 42.5398 165.362 42.8864 165.771 43.125C166.18 43.3598 166.656 43.4773 167.197 43.4773C167.55 43.4773 167.868 43.428 168.152 43.3295C168.44 43.2273 168.688 43.0758 168.896 42.875C169.105 42.6705 169.266 42.4167 169.379 42.1136L170.675 42.4773C170.538 42.9167 170.309 43.303 169.987 43.6364C169.665 43.9659 169.267 44.2235 168.794 44.4091C168.321 44.5909 167.788 44.6818 167.197 44.6818ZM175.419 44.7045C174.866 44.7045 174.364 44.6004 173.913 44.392C173.463 44.1799 173.105 43.875 172.839 43.4773C172.574 43.0758 172.442 42.5909 172.442 42.0227C172.442 41.5227 172.54 41.1174 172.737 40.8068C172.934 40.4924 173.197 40.2462 173.527 40.0682C173.856 39.8902 174.22 39.7576 174.618 39.6705C175.019 39.5795 175.423 39.5076 175.828 39.4545C176.358 39.3864 176.788 39.3352 177.118 39.3011C177.451 39.2633 177.694 39.2008 177.845 39.1136C178 39.0265 178.078 38.875 178.078 38.6591V38.6136C178.078 38.053 177.925 37.6174 177.618 37.3068C177.315 36.9962 176.855 36.8409 176.237 36.8409C175.597 36.8409 175.095 36.9811 174.731 37.2614C174.368 37.5417 174.112 37.8409 173.964 38.1591L172.692 37.7045C172.919 37.1742 173.222 36.7614 173.601 36.4659C173.983 36.1667 174.4 35.9583 174.851 35.8409C175.305 35.7197 175.752 35.6591 176.192 35.6591C176.472 35.6591 176.794 35.6932 177.158 35.7614C177.525 35.8258 177.879 35.9602 178.22 36.1648C178.565 36.3693 178.851 36.678 179.078 37.0909C179.305 37.5038 179.419 38.0568 179.419 38.75V44.5H178.078V43.3182H178.01C177.919 43.5076 177.767 43.7102 177.555 43.9261C177.343 44.142 177.061 44.3258 176.709 44.4773C176.356 44.6288 175.927 44.7045 175.419 44.7045ZM175.624 43.5C176.154 43.5 176.601 43.3958 176.964 43.1875C177.332 42.9792 177.608 42.7102 177.794 42.3807C177.983 42.0511 178.078 41.7045 178.078 41.3409V40.1136C178.021 40.1818 177.896 40.2443 177.703 40.3011C177.514 40.3542 177.294 40.4015 177.044 40.4432C176.798 40.4811 176.557 40.5152 176.322 40.5455C176.091 40.572 175.904 40.5947 175.76 40.6136C175.411 40.6591 175.086 40.733 174.783 40.8352C174.483 40.9337 174.241 41.0833 174.055 41.2841C173.874 41.4811 173.783 41.75 173.783 42.0909C173.783 42.5568 173.955 42.9091 174.3 43.1477C174.648 43.3826 175.089 43.5 175.624 43.5ZM181.866 44.5V35.7727H183.162V37.1364H183.276C183.457 36.6705 183.751 36.3087 184.156 36.0511C184.562 35.7898 185.048 35.6591 185.616 35.6591C186.192 35.6591 186.671 35.7898 187.054 36.0511C187.44 36.3087 187.741 36.6705 187.957 37.1364H188.048C188.272 36.6856 188.607 36.3277 189.054 36.0625C189.501 35.7936 190.037 35.6591 190.662 35.6591C191.442 35.6591 192.08 35.9034 192.577 36.392C193.073 36.8769 193.321 37.6326 193.321 38.6591V44.5H191.98V38.6591C191.98 38.0152 191.804 37.5549 191.452 37.2784C191.099 37.0019 190.685 36.8636 190.207 36.8636C189.594 36.8636 189.118 37.0492 188.781 37.4205C188.444 37.7879 188.276 38.2538 188.276 38.8182V44.5H186.912V38.5227C186.912 38.0265 186.751 37.6269 186.429 37.3239C186.107 37.017 185.692 36.8636 185.185 36.8636C184.836 36.8636 184.51 36.9564 184.207 37.142C183.908 37.3277 183.666 37.5852 183.48 37.9148C183.298 38.2405 183.207 38.6174 183.207 39.0455V44.5H181.866ZM200.773 38.8864V40.1364H195.682V38.8864H200.773ZM203.132 44.5V35.7727H204.428V37.1364H204.541C204.723 36.6705 205.017 36.3087 205.422 36.0511C205.827 35.7898 206.314 35.6591 206.882 35.6591C207.458 35.6591 207.937 35.7898 208.32 36.0511C208.706 36.3087 209.007 36.6705 209.223 37.1364H209.314C209.537 36.6856 209.873 36.3277 210.32 36.0625C210.767 35.7936 211.303 35.6591 211.928 35.6591C212.708 35.6591 213.346 35.9034 213.842 36.392C214.338 36.8769 214.587 37.6326 214.587 38.6591V44.5H213.246V38.6591C213.246 38.0152 213.07 37.5549 212.717 37.2784C212.365 37.0019 211.95 36.8636 211.473 36.8636C210.859 36.8636 210.384 37.0492 210.047 37.4205C209.71 37.7879 209.541 38.2538 209.541 38.8182V44.5H208.178V38.5227C208.178 38.0265 208.017 37.6269 207.695 37.3239C207.373 37.017 206.958 36.8636 206.45 36.8636C206.102 36.8636 205.776 36.9564 205.473 37.142C205.174 37.3277 204.931 37.5852 204.746 37.9148C204.564 38.2405 204.473 38.6174 204.473 39.0455V44.5H203.132ZM220.697 44.6818C219.856 44.6818 219.131 44.4962 218.521 44.125C217.915 43.75 217.447 43.2273 217.118 42.5568C216.792 41.8826 216.629 41.0985 216.629 40.2045C216.629 39.3106 216.792 38.5227 217.118 37.8409C217.447 37.1553 217.906 36.6212 218.493 36.2386C219.084 35.8523 219.773 35.6591 220.561 35.6591C221.016 35.6591 221.464 35.7348 221.908 35.8864C222.351 36.0379 222.754 36.2841 223.118 36.625C223.481 36.9621 223.771 37.4091 223.987 37.9659C224.203 38.5227 224.311 39.2083 224.311 40.0227V40.5909H217.584V39.4318H222.947C222.947 38.9394 222.849 38.5 222.652 38.1136C222.459 37.7273 222.182 37.4223 221.822 37.1989C221.466 36.9754 221.046 36.8636 220.561 36.8636C220.027 36.8636 219.565 36.9962 219.175 37.2614C218.788 37.5227 218.491 37.8636 218.283 38.2841C218.074 38.7045 217.97 39.1553 217.97 39.6364V40.4091C217.97 41.0682 218.084 41.6269 218.311 42.0852C218.542 42.5398 218.862 42.8864 219.271 43.125C219.68 43.3598 220.156 43.4773 220.697 43.4773C221.05 43.4773 221.368 43.428 221.652 43.3295C221.94 43.2273 222.188 43.0758 222.396 42.875C222.605 42.6705 222.766 42.4167 222.879 42.1136L224.175 42.4773C224.038 42.9167 223.809 43.303 223.487 43.6364C223.165 43.9659 222.767 44.2235 222.294 44.4091C221.821 44.5909 221.288 44.6818 220.697 44.6818ZM226.351 44.5V35.7727H227.646V37.1364H227.76C227.942 36.6705 228.235 36.3087 228.641 36.0511C229.046 35.7898 229.533 35.6591 230.101 35.6591C230.677 35.6591 231.156 35.7898 231.538 36.0511C231.925 36.3087 232.226 36.6705 232.442 37.1364H232.533C232.756 36.6856 233.091 36.3277 233.538 36.0625C233.985 35.7936 234.521 35.6591 235.146 35.6591C235.927 35.6591 236.565 35.9034 237.061 36.392C237.557 36.8769 237.805 37.6326 237.805 38.6591V44.5H236.464V38.6591C236.464 38.0152 236.288 37.5549 235.936 37.2784C235.584 37.0019 235.169 36.8636 234.692 36.8636C234.078 36.8636 233.603 37.0492 233.266 37.4205C232.928 37.7879 232.76 38.2538 232.76 38.8182V44.5H231.396V38.5227C231.396 38.0265 231.235 37.6269 230.913 37.3239C230.591 37.017 230.177 36.8636 229.669 36.8636C229.321 36.8636 228.995 36.9564 228.692 37.142C228.392 37.3277 228.15 37.5852 227.964 37.9148C227.783 38.2405 227.692 38.6174 227.692 39.0455V44.5H226.351ZM240.439 44.5V32.8636H241.78V37.1591H241.893C241.992 37.0076 242.128 36.8144 242.303 36.5795C242.481 36.3409 242.734 36.1288 243.064 35.9432C243.397 35.7538 243.848 35.6591 244.416 35.6591C245.151 35.6591 245.799 35.8428 246.359 36.2102C246.92 36.5777 247.357 37.0985 247.672 37.7727C247.986 38.447 248.143 39.2424 248.143 40.1591C248.143 41.0833 247.986 41.8845 247.672 42.5625C247.357 43.2367 246.922 43.7595 246.365 44.1307C245.808 44.4981 245.166 44.6818 244.439 44.6818C243.878 44.6818 243.429 44.589 243.092 44.4034C242.755 44.214 242.496 44 242.314 43.7614C242.132 43.5189 241.992 43.3182 241.893 43.1591H241.734V44.5H240.439ZM241.757 40.1364C241.757 40.7955 241.854 41.3769 242.047 41.8807C242.24 42.3807 242.522 42.7727 242.893 43.0568C243.265 43.3371 243.719 43.4773 244.257 43.4773C244.818 43.4773 245.285 43.3295 245.66 43.0341C246.039 42.7348 246.323 42.3333 246.513 41.8295C246.706 41.322 246.803 40.7576 246.803 40.1364C246.803 39.5227 246.708 38.9697 246.518 38.4773C246.333 37.9811 246.051 37.589 245.672 37.3011C245.297 37.0095 244.825 36.8636 244.257 36.8636C243.712 36.8636 243.253 37.0019 242.882 37.2784C242.511 37.5511 242.231 37.9337 242.041 38.4261C241.852 38.9148 241.757 39.4848 241.757 40.1364ZM253.854 44.6818C253.013 44.6818 252.287 44.4962 251.678 44.125C251.071 43.75 250.604 43.2273 250.274 42.5568C249.948 41.8826 249.785 41.0985 249.785 40.2045C249.785 39.3106 249.948 38.5227 250.274 37.8409C250.604 37.1553 251.062 36.6212 251.649 36.2386C252.24 35.8523 252.929 35.6591 253.717 35.6591C254.172 35.6591 254.621 35.7348 255.064 35.8864C255.507 36.0379 255.91 36.2841 256.274 36.625C256.638 36.9621 256.928 37.4091 257.143 37.9659C257.359 38.5227 257.467 39.2083 257.467 40.0227V40.5909H250.74V39.4318H256.104C256.104 38.9394 256.005 38.5 255.808 38.1136C255.615 37.7273 255.338 37.4223 254.979 37.1989C254.623 36.9754 254.202 36.8636 253.717 36.8636C253.183 36.8636 252.721 36.9962 252.331 37.2614C251.945 37.5227 251.647 37.8636 251.439 38.2841C251.231 38.7045 251.126 39.1553 251.126 39.6364V40.4091C251.126 41.0682 251.24 41.6269 251.467 42.0852C251.698 42.5398 252.018 42.8864 252.428 43.125C252.837 43.3598 253.312 43.4773 253.854 43.4773C254.206 43.4773 254.524 43.428 254.808 43.3295C255.096 43.2273 255.344 43.0758 255.553 42.875C255.761 42.6705 255.922 42.4167 256.035 42.1136L257.331 42.4773C257.195 42.9167 256.965 43.303 256.643 43.6364C256.321 43.9659 255.924 44.2235 255.45 44.4091C254.977 44.5909 254.445 44.6818 253.854 44.6818ZM259.507 44.5V35.7727H260.803V37.0909H260.893C261.053 36.6591 261.34 36.3087 261.757 36.0398C262.174 35.7708 262.643 35.6364 263.166 35.6364C263.265 35.6364 263.388 35.6383 263.535 35.642C263.683 35.6458 263.795 35.6515 263.871 35.6591V37.0227C263.825 37.0114 263.721 36.9943 263.558 36.9716C263.399 36.9451 263.231 36.9318 263.053 36.9318C262.628 36.9318 262.249 37.0208 261.916 37.1989C261.587 37.3731 261.325 37.6155 261.132 37.9261C260.943 38.233 260.848 38.5833 260.848 38.9773V44.5H259.507ZM269.82 38.8864V40.1364H264.729V38.8864H269.82ZM275.474 44.6818C274.747 44.6818 274.105 44.4981 273.548 44.1307C272.991 43.7595 272.556 43.2367 272.241 42.5625C271.927 41.8845 271.77 41.0833 271.77 40.1591C271.77 39.2424 271.927 38.447 272.241 37.7727C272.556 37.0985 272.993 36.5777 273.554 36.2102C274.115 35.8428 274.762 35.6591 275.497 35.6591C276.065 35.6591 276.514 35.7538 276.844 35.9432C277.177 36.1288 277.431 36.3409 277.605 36.5795C277.783 36.8144 277.921 37.0076 278.02 37.1591H278.133V32.8636H279.474V44.5H278.179V43.1591H278.02C277.921 43.3182 277.781 43.5189 277.599 43.7614C277.418 44 277.158 44.214 276.821 44.4034C276.484 44.589 276.035 44.6818 275.474 44.6818ZM275.656 43.4773C276.194 43.4773 276.649 43.3371 277.02 43.0568C277.391 42.7727 277.673 42.3807 277.866 41.8807C278.06 41.3769 278.156 40.7955 278.156 40.1364C278.156 39.4848 278.062 38.9148 277.872 38.4261C277.683 37.9337 277.402 37.5511 277.031 37.2784C276.66 37.0019 276.202 36.8636 275.656 36.8636C275.088 36.8636 274.615 37.0095 274.236 37.3011C273.861 37.589 273.579 37.9811 273.389 38.4773C273.204 38.9697 273.111 39.5227 273.111 40.1364C273.111 40.7576 273.205 41.322 273.395 41.8295C273.588 42.3333 273.872 42.7348 274.247 43.0341C274.626 43.3295 275.096 43.4773 275.656 43.4773ZM285.776 44.6818C284.935 44.6818 284.209 44.4962 283.599 44.125C282.993 43.75 282.526 43.2273 282.196 42.5568C281.87 41.8826 281.707 41.0985 281.707 40.2045C281.707 39.3106 281.87 38.5227 282.196 37.8409C282.526 37.1553 282.984 36.6212 283.571 36.2386C284.162 35.8523 284.851 35.6591 285.639 35.6591C286.094 35.6591 286.543 35.7348 286.986 35.8864C287.429 36.0379 287.832 36.2841 288.196 36.625C288.56 36.9621 288.849 37.4091 289.065 37.9659C289.281 38.5227 289.389 39.2083 289.389 40.0227V40.5909H282.662V39.4318H288.026C288.026 38.9394 287.927 38.5 287.73 38.1136C287.537 37.7273 287.26 37.4223 286.901 37.1989C286.544 36.9754 286.124 36.8636 285.639 36.8636C285.105 36.8636 284.643 36.9962 284.253 37.2614C283.866 37.5227 283.569 37.8636 283.361 38.2841C283.152 38.7045 283.048 39.1553 283.048 39.6364V40.4091C283.048 41.0682 283.162 41.6269 283.389 42.0852C283.62 42.5398 283.94 42.8864 284.349 43.125C284.758 43.3598 285.234 43.4773 285.776 43.4773C286.128 43.4773 286.446 43.428 286.73 43.3295C287.018 43.2273 287.266 43.0758 287.474 42.875C287.683 42.6705 287.844 42.4167 287.957 42.1136L289.253 42.4773C289.116 42.9167 288.887 43.303 288.565 43.6364C288.243 43.9659 287.846 44.2235 287.372 44.4091C286.899 44.5909 286.366 44.6818 285.776 44.6818ZM297.611 37.7273L296.406 38.0682C296.33 37.8674 296.219 37.6723 296.071 37.483C295.927 37.2898 295.73 37.1307 295.48 37.0057C295.23 36.8807 294.91 36.8182 294.52 36.8182C293.986 36.8182 293.541 36.9413 293.185 37.1875C292.832 37.4299 292.656 37.7386 292.656 38.1136C292.656 38.447 292.777 38.7102 293.02 38.9034C293.262 39.0966 293.641 39.2576 294.156 39.3864L295.452 39.7045C296.232 39.8939 296.813 40.1837 297.196 40.5739C297.579 40.9602 297.77 41.4583 297.77 42.0682C297.77 42.5682 297.626 43.0152 297.338 43.4091C297.054 43.803 296.656 44.1136 296.145 44.3409C295.633 44.5682 295.039 44.6818 294.361 44.6818C293.471 44.6818 292.734 44.4886 292.151 44.1023C291.567 43.7159 291.198 43.1515 291.043 42.4091L292.315 42.0909C292.437 42.5606 292.666 42.9129 293.003 43.1477C293.344 43.3826 293.789 43.5 294.338 43.5C294.963 43.5 295.459 43.3674 295.827 43.1023C296.198 42.8333 296.383 42.5114 296.383 42.1364C296.383 41.8333 296.277 41.5795 296.065 41.375C295.853 41.1667 295.527 41.0114 295.088 40.9091L293.633 40.5682C292.834 40.3788 292.247 40.0852 291.872 39.6875C291.501 39.286 291.315 38.7841 291.315 38.1818C291.315 37.6894 291.454 37.2538 291.73 36.875C292.01 36.4962 292.391 36.1989 292.872 35.983C293.357 35.767 293.906 35.6591 294.52 35.6591C295.383 35.6591 296.062 35.8485 296.554 36.2273C297.05 36.6061 297.402 37.1061 297.611 37.7273ZM301.038 41.3182L301.016 39.6591H301.288L305.106 35.7727H306.766L302.697 39.8864H302.584L301.038 41.3182ZM299.788 44.5V32.8636H301.129V44.5H299.788ZM305.334 44.5L301.925 40.1818L302.879 39.25L307.038 44.5H305.334ZM312.287 35.7727V36.9091H307.764V35.7727H312.287ZM309.082 33.6818H310.423V42C310.423 42.3788 310.478 42.6629 310.588 42.8523C310.702 43.0379 310.846 43.1629 311.02 43.2273C311.198 43.2879 311.385 43.3182 311.582 43.3182C311.73 43.3182 311.851 43.3106 311.946 43.2955C312.041 43.2765 312.116 43.2614 312.173 43.25L312.446 44.4545C312.355 44.4886 312.228 44.5227 312.065 44.5568C311.902 44.5947 311.696 44.6136 311.446 44.6136C311.067 44.6136 310.696 44.5322 310.332 44.3693C309.972 44.2064 309.673 43.9583 309.435 43.625C309.2 43.2917 309.082 42.8712 309.082 42.3636V33.6818ZM317.756 44.6818C316.968 44.6818 316.276 44.4943 315.682 44.1193C315.091 43.7443 314.629 43.2197 314.295 42.5455C313.966 41.8712 313.801 41.0833 313.801 40.1818C313.801 39.2727 313.966 38.4792 314.295 37.8011C314.629 37.1231 315.091 36.5966 315.682 36.2216C316.276 35.8466 316.968 35.6591 317.756 35.6591C318.544 35.6591 319.233 35.8466 319.824 36.2216C320.419 36.5966 320.881 37.1231 321.21 37.8011C321.544 38.4792 321.71 39.2727 321.71 40.1818C321.71 41.0833 321.544 41.8712 321.21 42.5455C320.881 43.2197 320.419 43.7443 319.824 44.1193C319.233 44.4943 318.544 44.6818 317.756 44.6818ZM317.756 43.4773C318.354 43.4773 318.847 43.3239 319.233 43.017C319.619 42.7102 319.905 42.3068 320.091 41.8068C320.276 41.3068 320.369 40.7652 320.369 40.1818C320.369 39.5985 320.276 39.0549 320.091 38.5511C319.905 38.0473 319.619 37.6402 319.233 37.3295C318.847 37.0189 318.354 36.8636 317.756 36.8636C317.157 36.8636 316.665 37.0189 316.278 37.3295C315.892 37.6402 315.606 38.0473 315.42 38.5511C315.235 39.0549 315.142 39.5985 315.142 40.1818C315.142 40.7652 315.235 41.3068 315.42 41.8068C315.606 42.3068 315.892 42.7102 316.278 43.017C316.665 43.3239 317.157 43.4773 317.756 43.4773ZM323.757 47.7727V35.7727H325.053V37.1591H325.212C325.31 37.0076 325.446 36.8144 325.621 36.5795C325.799 36.3409 326.053 36.1288 326.382 35.9432C326.715 35.7538 327.166 35.6591 327.734 35.6591C328.469 35.6591 329.117 35.8428 329.678 36.2102C330.238 36.5777 330.676 37.0985 330.99 37.7727C331.304 38.447 331.462 39.2424 331.462 40.1591C331.462 41.0833 331.304 41.8845 330.99 42.5625C330.676 43.2367 330.24 43.7595 329.683 44.1307C329.126 44.4981 328.484 44.6818 327.757 44.6818C327.196 44.6818 326.748 44.589 326.41 44.4034C326.073 44.214 325.814 44 325.632 43.7614C325.45 43.5189 325.31 43.3182 325.212 43.1591H325.098V47.7727H323.757ZM325.075 40.1364C325.075 40.7955 325.172 41.3769 325.365 41.8807C325.558 42.3807 325.84 42.7727 326.212 43.0568C326.583 43.3371 327.037 43.4773 327.575 43.4773C328.136 43.4773 328.604 43.3295 328.979 43.0341C329.357 42.7348 329.642 42.3333 329.831 41.8295C330.024 41.322 330.121 40.7576 330.121 40.1364C330.121 39.5227 330.026 38.9697 329.837 38.4773C329.651 37.9811 329.369 37.589 328.99 37.3011C328.615 37.0095 328.143 36.8636 327.575 36.8636C327.03 36.8636 326.571 37.0019 326.2 37.2784C325.829 37.5511 325.549 37.9337 325.359 38.4261C325.17 38.9148 325.075 39.4848 325.075 40.1364Z" fill="#2D01DD" fill-opacity="0.29"/>
</svg>
