<svg width="542" height="80" viewBox="0 0 542 80" fill="none" xmlns="http://www.w3.org/2000/svg">
<path d="M0.5 4C0.5 2.067 2.067 0.5 4 0.5H538C539.933 0.5 541.5 2.067 541.5 4V76C541.5 77.933 539.933 79.5 538 79.5H4C2.067 79.5 0.5 77.933 0.5 76V4Z" stroke="#3600FF" stroke-opacity="0.15"/>
<rect x="24.6787" y="20.5" width="63.4758" height="37" rx="18.5" stroke="#3600FF" stroke-opacity="0.15"/>
<path d="M27.1304 39.0479C27.1304 30.2113 34.4128 23.0479 43.2493 23.0479C52.0859 23.0479 59.3683 30.2113 59.3683 39.0479C59.3683 47.8844 52.0859 55.0479 43.2493 55.0479C34.4128 55.0479 27.1304 47.8844 27.1304 39.0479Z" fill="#D4CAFE"/>
<path d="M30.1929 39C30.1929 31.8203 36.1098 26 43.2895 26C50.4692 26 56.3862 31.8203 56.3862 39C56.3862 46.1797 50.4692 52 43.2895 52C36.1098 52 30.1929 46.1797 30.1929 39Z" fill="#D4CAFE"/>
<path d="M111.223 39.25V44.5H109.882V35.7727H111.178V37.1364H111.291C111.496 36.6932 111.806 36.3371 112.223 36.0682C112.64 35.7955 113.178 35.6591 113.837 35.6591C114.428 35.6591 114.945 35.7803 115.388 36.0227C115.831 36.2614 116.176 36.625 116.422 37.1136C116.668 37.5985 116.791 38.2121 116.791 38.9545V44.5H115.45V39.0455C115.45 38.3598 115.272 37.8258 114.916 37.4432C114.56 37.0568 114.071 36.8636 113.45 36.8636C113.022 36.8636 112.64 36.9564 112.303 37.142C111.969 37.3277 111.706 37.5985 111.513 37.9545C111.32 38.3106 111.223 38.7424 111.223 39.25ZM122.901 44.6818C122.06 44.6818 121.334 44.4962 120.724 44.125C120.118 43.75 119.651 43.2273 119.321 42.5568C118.995 41.8826 118.832 41.0985 118.832 40.2045C118.832 39.3106 118.995 38.5227 119.321 37.8409C119.651 37.1553 120.109 36.6212 120.696 36.2386C121.287 35.8523 121.976 35.6591 122.764 35.6591C123.219 35.6591 123.668 35.7348 124.111 35.8864C124.554 36.0379 124.957 36.2841 125.321 36.625C125.685 36.9621 125.974 37.4091 126.19 37.9659C126.406 38.5227 126.514 39.2083 126.514 40.0227V40.5909H119.787V39.4318H125.151C125.151 38.9394 125.052 38.5 124.855 38.1136C124.662 37.7273 124.385 37.4223 124.026 37.1989C123.669 36.9754 123.249 36.8636 122.764 36.8636C122.23 36.8636 121.768 36.9962 121.378 37.2614C120.991 37.5227 120.694 37.8636 120.486 38.2841C120.277 38.7045 120.173 39.1553 120.173 39.6364V40.4091C120.173 41.0682 120.287 41.6269 120.514 42.0852C120.745 42.5398 121.065 42.8864 121.474 43.125C121.883 43.3598 122.359 43.4773 122.901 43.4773C123.253 43.4773 123.571 43.428 123.855 43.3295C124.143 43.2273 124.391 43.0758 124.599 42.875C124.808 42.6705 124.969 42.4167 125.082 42.1136L126.378 42.4773C126.241 42.9167 126.012 43.303 125.69 43.6364C125.368 43.9659 124.971 44.2235 124.497 44.4091C124.024 44.5909 123.491 44.6818 122.901 44.6818ZM130.531 44.5L127.872 35.7727H129.281L131.168 42.4545H131.258L133.122 35.7727H134.554L136.395 42.4318H136.486L138.372 35.7727H139.781L137.122 44.5H135.804L133.895 37.7955H133.758L131.849 44.5H130.531ZM146.554 38.8864V40.1364H141.463V38.8864H146.554ZM155.095 37.7273L153.891 38.0682C153.815 37.8674 153.703 37.6723 153.555 37.483C153.411 37.2898 153.214 37.1307 152.964 37.0057C152.714 36.8807 152.394 36.8182 152.004 36.8182C151.47 36.8182 151.025 36.9413 150.669 37.1875C150.317 37.4299 150.141 37.7386 150.141 38.1136C150.141 38.447 150.262 38.7102 150.504 38.9034C150.747 39.0966 151.125 39.2576 151.641 39.3864L152.936 39.7045C153.716 39.8939 154.298 40.1837 154.68 40.5739C155.063 40.9602 155.254 41.4583 155.254 42.0682C155.254 42.5682 155.11 43.0152 154.822 43.4091C154.538 43.803 154.141 44.1136 153.629 44.3409C153.118 44.5682 152.523 44.6818 151.845 44.6818C150.955 44.6818 150.218 44.4886 149.635 44.1023C149.052 43.7159 148.682 43.1515 148.527 42.4091L149.8 42.0909C149.921 42.5606 150.15 42.9129 150.487 43.1477C150.828 43.3826 151.273 43.5 151.822 43.5C152.447 43.5 152.944 43.3674 153.311 43.1023C153.682 42.8333 153.868 42.5114 153.868 42.1364C153.868 41.8333 153.762 41.5795 153.55 41.375C153.338 41.1667 153.012 41.0114 152.572 40.9091L151.118 40.5682C150.319 40.3788 149.731 40.0852 149.356 39.6875C148.985 39.286 148.8 38.7841 148.8 38.1818C148.8 37.6894 148.938 37.2538 149.214 36.875C149.495 36.4962 149.875 36.1989 150.356 35.983C150.841 35.767 151.391 35.6591 152.004 35.6591C152.868 35.6591 153.546 35.8485 154.038 36.2273C154.535 36.6061 154.887 37.1061 155.095 37.7273ZM157.273 44.5V35.7727H158.614V44.5H157.273ZM157.955 34.3182C157.693 34.3182 157.468 34.2292 157.278 34.0511C157.093 33.8731 157 33.6591 157 33.4091C157 33.1591 157.093 32.9451 157.278 32.767C157.468 32.589 157.693 32.5 157.955 32.5C158.216 32.5 158.439 32.589 158.625 32.767C158.814 32.9451 158.909 33.1591 158.909 33.4091C158.909 33.6591 158.814 33.8731 158.625 34.0511C158.439 34.2292 158.216 34.3182 157.955 34.3182ZM164.592 47.9545C163.945 47.9545 163.388 47.8712 162.922 47.7045C162.456 47.5417 162.068 47.3258 161.757 47.0568C161.45 46.7917 161.206 46.5076 161.024 46.2045L162.092 45.4545C162.213 45.6136 162.367 45.7955 162.553 46C162.738 46.2083 162.992 46.3883 163.314 46.5398C163.64 46.6951 164.066 46.7727 164.592 46.7727C165.297 46.7727 165.878 46.6023 166.337 46.2614C166.795 45.9205 167.024 45.3864 167.024 44.6591V42.8864H166.91C166.812 43.0455 166.672 43.2424 166.49 43.4773C166.312 43.7083 166.054 43.9148 165.717 44.0966C165.384 44.2746 164.933 44.3636 164.365 44.3636C163.66 44.3636 163.028 44.197 162.467 43.8636C161.91 43.5303 161.469 43.0455 161.143 42.4091C160.821 41.7727 160.66 41 160.66 40.0909C160.66 39.197 160.818 38.4186 161.132 37.7557C161.446 37.089 161.884 36.5739 162.445 36.2102C163.005 35.8428 163.653 35.6591 164.388 35.6591C164.956 35.6591 165.407 35.7538 165.74 35.9432C166.077 36.1288 166.335 36.3409 166.513 36.5795C166.695 36.8144 166.835 37.0076 166.933 37.1591H167.07V35.7727H168.365V44.75C168.365 45.5 168.195 46.1098 167.854 46.5795C167.517 47.053 167.062 47.3996 166.49 47.6193C165.922 47.8428 165.289 47.9545 164.592 47.9545ZM164.547 43.1591C165.085 43.1591 165.539 43.036 165.91 42.7898C166.282 42.5436 166.564 42.1894 166.757 41.7273C166.95 41.2652 167.047 40.7121 167.047 40.0682C167.047 39.4394 166.952 38.8845 166.763 38.4034C166.573 37.9223 166.293 37.5455 165.922 37.2727C165.551 37 165.092 36.8636 164.547 36.8636C163.979 36.8636 163.505 37.0076 163.126 37.2955C162.751 37.5833 162.469 37.9697 162.28 38.4545C162.094 38.9394 162.001 39.4773 162.001 40.0682C162.001 40.6742 162.096 41.2102 162.285 41.6761C162.479 42.1383 162.763 42.5019 163.138 42.767C163.517 43.0284 163.986 43.1591 164.547 43.1591ZM172.16 39.25V44.5H170.82V35.7727H172.115V37.1364H172.229C172.433 36.6932 172.744 36.3371 173.16 36.0682C173.577 35.7955 174.115 35.6591 174.774 35.6591C175.365 35.6591 175.882 35.7803 176.325 36.0227C176.768 36.2614 177.113 36.625 177.359 37.1136C177.606 37.5985 177.729 38.2121 177.729 38.9545V44.5H176.388V39.0455C176.388 38.3598 176.21 37.8258 175.854 37.4432C175.498 37.0568 175.009 36.8636 174.388 36.8636C173.96 36.8636 173.577 36.9564 173.24 37.142C172.907 37.3277 172.643 37.5985 172.45 37.9545C172.257 38.3106 172.16 38.7424 172.16 39.25ZM185.679 40.9318V35.7727H187.02V44.5H185.679V43.0227H185.588C185.383 43.4659 185.065 43.8428 184.633 44.1534C184.202 44.4602 183.656 44.6136 182.997 44.6136C182.452 44.6136 181.967 44.4943 181.543 44.2557C181.118 44.0133 180.785 43.6496 180.543 43.1648C180.3 42.6761 180.179 42.0606 180.179 41.3182V35.7727H181.52V41.2273C181.52 41.8636 181.698 42.3712 182.054 42.75C182.414 43.1288 182.872 43.3182 183.429 43.3182C183.762 43.3182 184.101 43.233 184.446 43.0625C184.794 42.892 185.086 42.6307 185.321 42.2784C185.56 41.9261 185.679 41.4773 185.679 40.9318ZM189.476 47.7727V35.7727H190.771V37.1591H190.93C191.029 37.0076 191.165 36.8144 191.339 36.5795C191.517 36.3409 191.771 36.1288 192.101 35.9432C192.434 35.7538 192.885 35.6591 193.453 35.6591C194.188 35.6591 194.836 35.8428 195.396 36.2102C195.957 36.5777 196.394 37.0985 196.709 37.7727C197.023 38.447 197.18 39.2424 197.18 40.1591C197.18 41.0833 197.023 41.8845 196.709 42.5625C196.394 43.2367 195.959 43.7595 195.402 44.1307C194.845 44.4981 194.203 44.6818 193.476 44.6818C192.915 44.6818 192.466 44.589 192.129 44.4034C191.792 44.214 191.533 44 191.351 43.7614C191.169 43.5189 191.029 43.3182 190.93 43.1591H190.817V47.7727H189.476ZM190.794 40.1364C190.794 40.7955 190.891 41.3769 191.084 41.8807C191.277 42.3807 191.559 42.7727 191.93 43.0568C192.302 43.3371 192.756 43.4773 193.294 43.4773C193.855 43.4773 194.322 43.3295 194.697 43.0341C195.076 42.7348 195.36 42.3333 195.55 41.8295C195.743 41.322 195.839 40.7576 195.839 40.1364C195.839 39.5227 195.745 38.9697 195.555 38.4773C195.37 37.9811 195.088 37.589 194.709 37.3011C194.334 37.0095 193.862 36.8636 193.294 36.8636C192.749 36.8636 192.29 37.0019 191.919 37.2784C191.548 37.5511 191.267 37.9337 191.078 38.4261C190.889 38.9148 190.794 39.4848 190.794 40.1364ZM204.226 38.8864V40.1364H199.135V38.8864H204.226ZM210.472 35.7727V36.9091H205.767V35.7727H210.472ZM207.176 44.5V34.5682C207.176 34.0682 207.294 33.6515 207.528 33.3182C207.763 32.9848 208.068 32.7348 208.443 32.5682C208.818 32.4015 209.214 32.3182 209.631 32.3182C209.96 32.3182 210.229 32.3447 210.437 32.3977C210.646 32.4508 210.801 32.5 210.903 32.5455L210.517 33.7045C210.449 33.6818 210.354 33.6534 210.233 33.6193C210.115 33.5852 209.96 33.5682 209.767 33.5682C209.324 33.5682 209.004 33.6799 208.807 33.9034C208.614 34.1269 208.517 34.4545 208.517 34.8864V44.5H207.176ZM213.692 32.8636V44.5H212.351V32.8636H213.692ZM219.693 44.6818C218.905 44.6818 218.214 44.4943 217.619 44.1193C217.028 43.7443 216.566 43.2197 216.233 42.5455C215.903 41.8712 215.739 41.0833 215.739 40.1818C215.739 39.2727 215.903 38.4792 216.233 37.8011C216.566 37.1231 217.028 36.5966 217.619 36.2216C218.214 35.8466 218.905 35.6591 219.693 35.6591C220.481 35.6591 221.17 35.8466 221.761 36.2216C222.356 36.5966 222.818 37.1231 223.148 37.8011C223.481 38.4792 223.648 39.2727 223.648 40.1818C223.648 41.0833 223.481 41.8712 223.148 42.5455C222.818 43.2197 222.356 43.7443 221.761 44.1193C221.17 44.4943 220.481 44.6818 219.693 44.6818ZM219.693 43.4773C220.292 43.4773 220.784 43.3239 221.17 43.017C221.557 42.7102 221.843 42.3068 222.028 41.8068C222.214 41.3068 222.307 40.7652 222.307 40.1818C222.307 39.5985 222.214 39.0549 222.028 38.5511C221.843 38.0473 221.557 37.6402 221.17 37.3295C220.784 37.0189 220.292 36.8636 219.693 36.8636C219.095 36.8636 218.602 37.0189 218.216 37.3295C217.83 37.6402 217.544 38.0473 217.358 38.5511C217.172 39.0549 217.08 39.5985 217.08 40.1818C217.08 40.7652 217.172 41.3068 217.358 41.8068C217.544 42.3068 217.83 42.7102 218.216 43.017C218.602 43.3239 219.095 43.4773 219.693 43.4773ZM227.375 44.5L224.716 35.7727H226.125L228.011 42.4545H228.102L229.966 35.7727H231.398L233.239 42.4318H233.33L235.216 35.7727H236.625L233.966 44.5H232.648L230.739 37.7955H230.602L228.693 44.5H227.375ZM243.398 38.8864V40.1364H238.307V38.8864H243.398ZM249.053 44.6818C248.325 44.6818 247.683 44.4981 247.126 44.1307C246.57 43.7595 246.134 43.2367 245.82 42.5625C245.505 41.8845 245.348 41.0833 245.348 40.1591C245.348 39.2424 245.505 38.447 245.82 37.7727C246.134 37.0985 246.571 36.5777 247.132 36.2102C247.693 35.8428 248.34 35.6591 249.075 35.6591C249.643 35.6591 250.092 35.7538 250.422 35.9432C250.755 36.1288 251.009 36.3409 251.183 36.5795C251.361 36.8144 251.499 37.0076 251.598 37.1591H251.712V32.8636H253.053V44.5H251.757V43.1591H251.598C251.499 43.3182 251.359 43.5189 251.178 43.7614C250.996 44 250.736 44.214 250.399 44.4034C250.062 44.589 249.613 44.6818 249.053 44.6818ZM249.234 43.4773C249.772 43.4773 250.227 43.3371 250.598 43.0568C250.969 42.7727 251.251 42.3807 251.445 41.8807C251.638 41.3769 251.734 40.7955 251.734 40.1364C251.734 39.4848 251.64 38.9148 251.45 38.4261C251.261 37.9337 250.981 37.5511 250.609 37.2784C250.238 37.0019 249.78 36.8636 249.234 36.8636C248.666 36.8636 248.193 37.0095 247.814 37.3011C247.439 37.589 247.157 37.9811 246.967 38.4773C246.782 38.9697 246.689 39.5227 246.689 40.1364C246.689 40.7576 246.784 41.322 246.973 41.8295C247.166 42.3333 247.45 42.7348 247.825 43.0341C248.204 43.3295 248.674 43.4773 249.234 43.4773ZM259.354 44.6818C258.513 44.6818 257.787 44.4962 257.178 44.125C256.571 43.75 256.104 43.2273 255.774 42.5568C255.448 41.8826 255.285 41.0985 255.285 40.2045C255.285 39.3106 255.448 38.5227 255.774 37.8409C256.104 37.1553 256.562 36.6212 257.149 36.2386C257.74 35.8523 258.429 35.6591 259.217 35.6591C259.672 35.6591 260.121 35.7348 260.564 35.8864C261.007 36.0379 261.41 36.2841 261.774 36.625C262.138 36.9621 262.428 37.4091 262.643 37.9659C262.859 38.5227 262.967 39.2083 262.967 40.0227V40.5909H256.24V39.4318H261.604C261.604 38.9394 261.505 38.5 261.308 38.1136C261.115 37.7273 260.838 37.4223 260.479 37.1989C260.123 36.9754 259.702 36.8636 259.217 36.8636C258.683 36.8636 258.221 36.9962 257.831 37.2614C257.445 37.5227 257.147 37.8636 256.939 38.2841C256.731 38.7045 256.626 39.1553 256.626 39.6364V40.4091C256.626 41.0682 256.74 41.6269 256.967 42.0852C257.198 42.5398 257.518 42.8864 257.928 43.125C258.337 43.3598 258.812 43.4773 259.354 43.4773C259.706 43.4773 260.024 43.428 260.308 43.3295C260.596 43.2273 260.844 43.0758 261.053 42.875C261.261 42.6705 261.422 42.4167 261.535 42.1136L262.831 42.4773C262.695 42.9167 262.465 43.303 262.143 43.6364C261.821 43.9659 261.424 44.2235 260.95 44.4091C260.477 44.5909 259.945 44.6818 259.354 44.6818ZM271.189 37.7273L269.984 38.0682C269.909 37.8674 269.797 37.6723 269.649 37.483C269.505 37.2898 269.308 37.1307 269.058 37.0057C268.808 36.8807 268.488 36.8182 268.098 36.8182C267.564 36.8182 267.119 36.9413 266.763 37.1875C266.41 37.4299 266.234 37.7386 266.234 38.1136C266.234 38.447 266.356 38.7102 266.598 38.9034C266.84 39.0966 267.219 39.2576 267.734 39.3864L269.03 39.7045C269.81 39.8939 270.392 40.1837 270.774 40.5739C271.157 40.9602 271.348 41.4583 271.348 42.0682C271.348 42.5682 271.204 43.0152 270.916 43.4091C270.632 43.803 270.234 44.1136 269.723 44.3409C269.212 44.5682 268.617 44.6818 267.939 44.6818C267.049 44.6818 266.312 44.4886 265.729 44.1023C265.145 43.7159 264.776 43.1515 264.621 42.4091L265.893 42.0909C266.015 42.5606 266.244 42.9129 266.581 43.1477C266.922 43.3826 267.367 43.5 267.916 43.5C268.541 43.5 269.037 43.3674 269.405 43.1023C269.776 42.8333 269.962 42.5114 269.962 42.1364C269.962 41.8333 269.856 41.5795 269.643 41.375C269.431 41.1667 269.106 41.0114 268.666 40.9091L267.212 40.5682C266.412 40.3788 265.825 40.0852 265.45 39.6875C265.079 39.286 264.893 38.7841 264.893 38.1818C264.893 37.6894 265.032 37.2538 265.308 36.875C265.588 36.4962 265.969 36.1989 266.45 35.983C266.935 35.767 267.484 35.6591 268.098 35.6591C268.962 35.6591 269.64 35.8485 270.132 36.2273C270.628 36.6061 270.981 37.1061 271.189 37.7273ZM274.616 41.3182L274.594 39.6591H274.866L278.685 35.7727H280.344L276.276 39.8864H276.162L274.616 41.3182ZM273.366 44.5V32.8636H274.707V44.5H273.366ZM278.912 44.5L275.503 40.1818L276.457 39.25L280.616 44.5H278.912ZM285.865 35.7727V36.9091H281.342V35.7727H285.865ZM282.66 33.6818H284.001V42C284.001 42.3788 284.056 42.6629 284.166 42.8523C284.28 43.0379 284.424 43.1629 284.598 43.2273C284.776 43.2879 284.963 43.3182 285.16 43.3182C285.308 43.3182 285.429 43.3106 285.524 43.2955C285.619 43.2765 285.695 43.2614 285.751 43.25L286.024 44.4545C285.933 44.4886 285.806 44.5227 285.643 44.5568C285.481 44.5947 285.274 44.6136 285.024 44.6136C284.645 44.6136 284.274 44.5322 283.91 44.3693C283.551 44.2064 283.251 43.9583 283.013 43.625C282.778 43.2917 282.66 42.8712 282.66 42.3636V33.6818ZM291.334 44.6818C290.546 44.6818 289.855 44.4943 289.26 44.1193C288.669 43.7443 288.207 43.2197 287.874 42.5455C287.544 41.8712 287.379 41.0833 287.379 40.1818C287.379 39.2727 287.544 38.4792 287.874 37.8011C288.207 37.1231 288.669 36.5966 289.26 36.2216C289.855 35.8466 290.546 35.6591 291.334 35.6591C292.122 35.6591 292.811 35.8466 293.402 36.2216C293.997 36.5966 294.459 37.1231 294.788 37.8011C295.122 38.4792 295.288 39.2727 295.288 40.1818C295.288 41.0833 295.122 41.8712 294.788 42.5455C294.459 43.2197 293.997 43.7443 293.402 44.1193C292.811 44.4943 292.122 44.6818 291.334 44.6818ZM291.334 43.4773C291.932 43.4773 292.425 43.3239 292.811 43.017C293.197 42.7102 293.483 42.3068 293.669 41.8068C293.855 41.3068 293.947 40.7652 293.947 40.1818C293.947 39.5985 293.855 39.0549 293.669 38.5511C293.483 38.0473 293.197 37.6402 292.811 37.3295C292.425 37.0189 291.932 36.8636 291.334 36.8636C290.735 36.8636 290.243 37.0189 289.856 37.3295C289.47 37.6402 289.184 38.0473 288.999 38.5511C288.813 39.0549 288.72 39.5985 288.72 40.1818C288.72 40.7652 288.813 41.3068 288.999 41.8068C289.184 42.3068 289.47 42.7102 289.856 43.017C290.243 43.3239 290.735 43.4773 291.334 43.4773ZM297.335 47.7727V35.7727H298.631V37.1591H298.79C298.888 37.0076 299.025 36.8144 299.199 36.5795C299.377 36.3409 299.631 36.1288 299.96 35.9432C300.294 35.7538 300.744 35.6591 301.312 35.6591C302.047 35.6591 302.695 35.8428 303.256 36.2102C303.816 36.5777 304.254 37.0985 304.568 37.7727C304.883 38.447 305.04 39.2424 305.04 40.1591C305.04 41.0833 304.883 41.8845 304.568 42.5625C304.254 43.2367 303.818 43.7595 303.261 44.1307C302.705 44.4981 302.062 44.6818 301.335 44.6818C300.775 44.6818 300.326 44.589 299.989 44.4034C299.651 44.214 299.392 44 299.21 43.7614C299.028 43.5189 298.888 43.3182 298.79 43.1591H298.676V47.7727H297.335ZM298.653 40.1364C298.653 40.7955 298.75 41.3769 298.943 41.8807C299.136 42.3807 299.419 42.7727 299.79 43.0568C300.161 43.3371 300.615 43.4773 301.153 43.4773C301.714 43.4773 302.182 43.3295 302.557 43.0341C302.936 42.7348 303.22 42.3333 303.409 41.8295C303.602 41.322 303.699 40.7576 303.699 40.1364C303.699 39.5227 303.604 38.9697 303.415 38.4773C303.229 37.9811 302.947 37.589 302.568 37.3011C302.193 37.0095 301.722 36.8636 301.153 36.8636C300.608 36.8636 300.15 37.0019 299.778 37.2784C299.407 37.5511 299.127 37.9337 298.937 38.4261C298.748 38.9148 298.653 39.4848 298.653 40.1364Z" fill="#2400B7" fill-opacity="0.66"/>
</svg>
