<svg width="542" height="80" viewBox="0 0 542 80" fill="none" xmlns="http://www.w3.org/2000/svg">
<mask id="path-1-inside-1_196_15252" fill="white">
<path d="M0 4C0 1.79086 1.79086 0 4 0H538C540.209 0 542 1.79086 542 4V76C542 78.2091 540.209 80 538 80H4C1.79086 80 0 78.2091 0 76V4Z"/>
</mask>
<path d="M0 4C0 1.79086 1.79086 0 4 0H538C540.209 0 542 1.79086 542 4V76C542 78.2091 540.209 80 538 80H4C1.79086 80 0 78.2091 0 76V4Z" fill="url(#paint0_linear_196_15252)"/>
<path d="M4 1H538V-1H4V1ZM541 4V76H543V4H541ZM538 79H4V81H538V79ZM1 76V4H-1V76H1ZM4 79C2.34314 79 1 77.6569 1 76H-1C-1 78.7614 1.23857 81 4 81V79ZM541 76C541 77.6569 539.657 79 538 79V81C540.761 81 543 78.7614 543 76H541ZM538 1C539.657 1 541 2.34314 541 4H543C543 1.23858 540.761 -1 538 -1V1ZM4 -1C1.23858 -1 -1 1.23858 -1 4H1C1 2.34315 2.34315 1 4 1V-1Z" fill="url(#paint1_linear_196_15252)" mask="url(#path-1-inside-1_196_15252)"/>
<rect x="24.4346" y="20.0479" width="65.3258" height="38" rx="19" fill="white"/>
<path d="M112.329 39.2979V44.5479H110.988V35.8206H112.283V37.1842H112.397C112.602 36.741 112.912 36.385 113.329 36.116C113.746 35.8433 114.283 35.7069 114.943 35.7069C115.533 35.7069 116.051 35.8282 116.494 36.0706C116.937 36.3092 117.282 36.6729 117.528 37.1615C117.774 37.6463 117.897 38.26 117.897 39.0024V44.5479H116.556V39.0933C116.556 38.4077 116.378 37.8736 116.022 37.491C115.666 37.1047 115.177 36.9115 114.556 36.9115C114.128 36.9115 113.746 37.0043 113.408 37.1899C113.075 37.3755 112.812 37.6463 112.619 38.0024C112.426 38.3585 112.329 38.7903 112.329 39.2979ZM124.006 44.7297C123.166 44.7297 122.44 44.5441 121.83 44.1729C121.224 43.7979 120.756 43.2751 120.427 42.6047C120.101 41.9304 119.938 41.1463 119.938 40.2524C119.938 39.3585 120.101 38.5706 120.427 37.8888C120.756 37.2032 121.215 36.6691 121.802 36.2865C122.393 35.9001 123.082 35.7069 123.87 35.7069C124.325 35.7069 124.774 35.7827 125.217 35.9342C125.66 36.0857 126.063 36.3319 126.427 36.6729C126.791 37.01 127.08 37.4569 127.296 38.0138C127.512 38.5706 127.62 39.2562 127.62 40.0706V40.6388H120.893V39.4797H126.256C126.256 38.9872 126.158 38.5479 125.961 38.1615C125.768 37.7751 125.491 37.4702 125.131 37.2467C124.775 37.0232 124.355 36.9115 123.87 36.9115C123.336 36.9115 122.874 37.0441 122.484 37.3092C122.097 37.5706 121.8 37.9115 121.592 38.3319C121.383 38.7524 121.279 39.2032 121.279 39.6842V40.4569C121.279 41.116 121.393 41.6747 121.62 42.1331C121.851 42.5876 122.171 42.9342 122.58 43.1729C122.989 43.4077 123.465 43.5251 124.006 43.5251C124.359 43.5251 124.677 43.4759 124.961 43.3774C125.249 43.2751 125.497 43.1236 125.705 42.9229C125.914 42.7183 126.075 42.4645 126.188 42.1615L127.484 42.5251C127.347 42.9645 127.118 43.3509 126.796 43.6842C126.474 44.0138 126.077 44.2713 125.603 44.4569C125.13 44.6388 124.597 44.7297 124.006 44.7297ZM131.637 44.5479L128.978 35.8206H130.387L132.274 42.5024H132.364L134.228 35.8206H135.66L137.501 42.4797H137.592L139.478 35.8206H140.887L138.228 44.5479H136.91L135.001 37.8433H134.864L132.955 44.5479H131.637ZM147.66 38.9342V40.1842H142.569V38.9342H147.66ZM156.201 37.7751L154.997 38.116C154.921 37.9153 154.809 37.7202 154.661 37.5308C154.517 37.3376 154.32 37.1785 154.07 37.0535C153.82 36.9285 153.5 36.866 153.11 36.866C152.576 36.866 152.131 36.9891 151.775 37.2354C151.423 37.4778 151.247 37.7865 151.247 38.1615C151.247 38.4948 151.368 38.7581 151.61 38.9513C151.853 39.1444 152.231 39.3054 152.747 39.4342L154.042 39.7524C154.822 39.9418 155.404 40.2316 155.786 40.6217C156.169 41.0081 156.36 41.5062 156.36 42.116C156.36 42.616 156.216 43.063 155.928 43.4569C155.644 43.8509 155.247 44.1615 154.735 44.3888C154.224 44.616 153.629 44.7297 152.951 44.7297C152.061 44.7297 151.324 44.5365 150.741 44.1501C150.158 43.7638 149.788 43.1994 149.633 42.4569L150.906 42.1388C151.027 42.6085 151.256 42.9607 151.593 43.1956C151.934 43.4304 152.379 43.5479 152.928 43.5479C153.553 43.5479 154.05 43.4153 154.417 43.1501C154.788 42.8812 154.974 42.5592 154.974 42.1842C154.974 41.8812 154.868 41.6274 154.656 41.4229C154.444 41.2145 154.118 41.0592 153.678 40.9569L152.224 40.616C151.425 40.4266 150.837 40.1331 150.462 39.7354C150.091 39.3338 149.906 38.8319 149.906 38.2297C149.906 37.7372 150.044 37.3016 150.32 36.9229C150.601 36.5441 150.981 36.2467 151.462 36.0308C151.947 35.8149 152.497 35.7069 153.11 35.7069C153.974 35.7069 154.652 35.8963 155.144 36.2751C155.64 36.6539 155.993 37.1539 156.201 37.7751ZM158.379 44.5479V35.8206H159.72V44.5479H158.379ZM159.06 34.366C158.799 34.366 158.574 34.277 158.384 34.099C158.199 33.921 158.106 33.7069 158.106 33.4569C158.106 33.2069 158.199 32.9929 158.384 32.8149C158.574 32.6369 158.799 32.5479 159.06 32.5479C159.322 32.5479 159.545 32.6369 159.731 32.8149C159.92 32.9929 160.015 33.2069 160.015 33.4569C160.015 33.7069 159.92 33.921 159.731 34.099C159.545 34.277 159.322 34.366 159.06 34.366ZM165.698 48.0024C165.051 48.0024 164.494 47.9191 164.028 47.7524C163.562 47.5895 163.174 47.3736 162.863 47.1047C162.556 46.8395 162.312 46.5554 162.13 46.2524L163.198 45.5024C163.319 45.6615 163.473 45.8433 163.658 46.0479C163.844 46.2562 164.098 46.4361 164.42 46.5876C164.746 46.7429 165.172 46.8206 165.698 46.8206C166.403 46.8206 166.984 46.6501 167.443 46.3092C167.901 45.9683 168.13 45.4342 168.13 44.7069V42.9342H168.016C167.918 43.0933 167.778 43.2903 167.596 43.5251C167.418 43.7562 167.16 43.9626 166.823 44.1444C166.49 44.3225 166.039 44.4115 165.471 44.4115C164.766 44.4115 164.134 44.2448 163.573 43.9115C163.016 43.5782 162.575 43.0933 162.249 42.4569C161.927 41.8206 161.766 41.0479 161.766 40.1388C161.766 39.2448 161.924 38.4664 162.238 37.8035C162.552 37.1369 162.99 36.6217 163.551 36.2581C164.111 35.8907 164.759 35.7069 165.494 35.7069C166.062 35.7069 166.513 35.8016 166.846 35.991C167.183 36.1766 167.441 36.3888 167.619 36.6274C167.801 36.8622 167.941 37.0554 168.039 37.2069H168.176V35.8206H169.471V44.7979C169.471 45.5479 169.301 46.1577 168.96 46.6274C168.622 47.1009 168.168 47.4475 167.596 47.6672C167.028 47.8907 166.395 48.0024 165.698 48.0024ZM165.653 43.2069C166.191 43.2069 166.645 43.0838 167.016 42.8376C167.388 42.5914 167.67 42.2372 167.863 41.7751C168.056 41.313 168.153 40.76 168.153 40.116C168.153 39.4872 168.058 38.9323 167.869 38.4513C167.679 37.9702 167.399 37.5933 167.028 37.3206C166.657 37.0479 166.198 36.9115 165.653 36.9115C165.085 36.9115 164.611 37.0554 164.232 37.3433C163.857 37.6312 163.575 38.0175 163.386 38.5024C163.2 38.9872 163.107 39.5251 163.107 40.116C163.107 40.7221 163.202 41.2581 163.391 41.724C163.585 42.1861 163.869 42.5497 164.244 42.8149C164.622 43.0763 165.092 43.2069 165.653 43.2069ZM173.266 39.2979V44.5479H171.926V35.8206H173.221V37.1842H173.335C173.539 36.741 173.85 36.385 174.266 36.116C174.683 35.8433 175.221 35.7069 175.88 35.7069C176.471 35.7069 176.988 35.8282 177.431 36.0706C177.874 36.3092 178.219 36.6729 178.465 37.1615C178.712 37.6463 178.835 38.26 178.835 39.0024V44.5479H177.494V39.0933C177.494 38.4077 177.316 37.8736 176.96 37.491C176.604 37.1047 176.115 36.9115 175.494 36.9115C175.066 36.9115 174.683 37.0043 174.346 37.1899C174.013 37.3755 173.749 37.6463 173.556 38.0024C173.363 38.3585 173.266 38.7903 173.266 39.2979ZM186.785 40.9797V35.8206H188.126V44.5479H186.785V43.0706H186.694C186.489 43.5138 186.171 43.8907 185.739 44.2013C185.308 44.5081 184.762 44.6615 184.103 44.6615C183.558 44.6615 183.073 44.5422 182.649 44.3035C182.224 44.0611 181.891 43.6975 181.649 43.2126C181.406 42.724 181.285 42.1085 181.285 41.366V35.8206H182.626V41.2751C182.626 41.9115 182.804 42.4191 183.16 42.7979C183.52 43.1766 183.978 43.366 184.535 43.366C184.868 43.366 185.207 43.2808 185.552 43.1104C185.9 42.9399 186.192 42.6785 186.427 42.3263C186.666 41.974 186.785 41.5251 186.785 40.9797ZM190.582 47.8206V35.8206H191.877V37.2069H192.036C192.135 37.0554 192.271 36.8622 192.445 36.6274C192.623 36.3888 192.877 36.1766 193.207 35.991C193.54 35.8016 193.991 35.7069 194.559 35.7069C195.294 35.7069 195.942 35.8907 196.502 36.2581C197.063 36.6255 197.5 37.1463 197.815 37.8206C198.129 38.4948 198.286 39.2903 198.286 40.2069C198.286 41.1312 198.129 41.9323 197.815 42.6104C197.5 43.2846 197.065 43.8073 196.508 44.1785C195.951 44.546 195.309 44.7297 194.582 44.7297C194.021 44.7297 193.572 44.6369 193.235 44.4513C192.898 44.2619 192.639 44.0479 192.457 43.8092C192.275 43.5668 192.135 43.366 192.036 43.2069H191.923V47.8206H190.582ZM191.9 40.1842C191.9 40.8433 191.997 41.4247 192.19 41.9285C192.383 42.4285 192.665 42.8206 193.036 43.1047C193.408 43.385 193.862 43.5251 194.4 43.5251C194.961 43.5251 195.428 43.3774 195.803 43.0819C196.182 42.7827 196.466 42.3812 196.656 41.8774C196.849 41.3698 196.945 40.8054 196.945 40.1842C196.945 39.5706 196.851 39.0175 196.661 38.5251C196.476 38.0289 196.194 37.6369 195.815 37.349C195.44 37.0573 194.968 36.9115 194.4 36.9115C193.854 36.9115 193.396 37.0497 193.025 37.3263C192.654 37.599 192.373 37.9816 192.184 38.474C191.995 38.9626 191.9 39.5327 191.9 40.1842ZM205.332 38.9342V40.1842H200.241V38.9342H205.332ZM211.578 35.8206V36.9569H206.873V35.8206H211.578ZM208.282 44.5479V34.616C208.282 34.116 208.399 33.6994 208.634 33.366C208.869 33.0327 209.174 32.7827 209.549 32.616C209.924 32.4494 210.32 32.366 210.737 32.366C211.066 32.366 211.335 32.3925 211.543 32.4456C211.752 32.4986 211.907 32.5479 212.009 32.5933L211.623 33.7524C211.555 33.7297 211.46 33.7013 211.339 33.6672C211.221 33.6331 211.066 33.616 210.873 33.616C210.43 33.616 210.11 33.7278 209.913 33.9513C209.72 34.1747 209.623 34.5024 209.623 34.9342V44.5479H208.282ZM214.798 32.9115V44.5479H213.457V32.9115H214.798ZM220.799 44.7297C220.011 44.7297 219.32 44.5422 218.725 44.1672C218.134 43.7922 217.672 43.2675 217.339 42.5933C217.009 41.9191 216.845 41.1312 216.845 40.2297C216.845 39.3206 217.009 38.527 217.339 37.849C217.672 37.171 218.134 36.6444 218.725 36.2694C219.32 35.8944 220.011 35.7069 220.799 35.7069C221.587 35.7069 222.276 35.8944 222.867 36.2694C223.462 36.6444 223.924 37.171 224.254 37.849C224.587 38.527 224.754 39.3206 224.754 40.2297C224.754 41.1312 224.587 41.9191 224.254 42.5933C223.924 43.2675 223.462 43.7922 222.867 44.1672C222.276 44.5422 221.587 44.7297 220.799 44.7297ZM220.799 43.5251C221.398 43.5251 221.89 43.3717 222.276 43.0649C222.663 42.7581 222.949 42.3547 223.134 41.8547C223.32 41.3547 223.413 40.813 223.413 40.2297C223.413 39.6463 223.32 39.1028 223.134 38.599C222.949 38.0952 222.663 37.688 222.276 37.3774C221.89 37.0668 221.398 36.9115 220.799 36.9115C220.201 36.9115 219.708 37.0668 219.322 37.3774C218.935 37.688 218.649 38.0952 218.464 38.599C218.278 39.1028 218.185 39.6463 218.185 40.2297C218.185 40.813 218.278 41.3547 218.464 41.8547C218.649 42.3547 218.935 42.7581 219.322 43.0649C219.708 43.3717 220.201 43.5251 220.799 43.5251ZM228.481 44.5479L225.822 35.8206H227.231L229.117 42.5024H229.208L231.072 35.8206H232.504L234.345 42.4797H234.435L236.322 35.8206H237.731L235.072 44.5479H233.754L231.845 37.8433H231.708L229.799 44.5479H228.481ZM244.504 38.9342V40.1842H239.413V38.9342H244.504ZM250.158 44.7297C249.431 44.7297 248.789 44.546 248.232 44.1785C247.676 43.8073 247.24 43.2846 246.926 42.6104C246.611 41.9323 246.454 41.1312 246.454 40.2069C246.454 39.2903 246.611 38.4948 246.926 37.8206C247.24 37.1463 247.677 36.6255 248.238 36.2581C248.799 35.8907 249.446 35.7069 250.181 35.7069C250.749 35.7069 251.198 35.8016 251.528 35.991C251.861 36.1766 252.115 36.3888 252.289 36.6274C252.467 36.8622 252.605 37.0554 252.704 37.2069H252.818V32.9115H254.158V44.5479H252.863V43.2069H252.704C252.605 43.366 252.465 43.5668 252.283 43.8092C252.102 44.0479 251.842 44.2619 251.505 44.4513C251.168 44.6369 250.719 44.7297 250.158 44.7297ZM250.34 43.5251C250.878 43.5251 251.333 43.385 251.704 43.1047C252.075 42.8206 252.357 42.4285 252.551 41.9285C252.744 41.4247 252.84 40.8433 252.84 40.1842C252.84 39.5327 252.746 38.9626 252.556 38.474C252.367 37.9816 252.087 37.599 251.715 37.3263C251.344 37.0497 250.886 36.9115 250.34 36.9115C249.772 36.9115 249.299 37.0573 248.92 37.349C248.545 37.6369 248.263 38.0289 248.073 38.5251C247.888 39.0175 247.795 39.5706 247.795 40.1842C247.795 40.8054 247.89 41.3698 248.079 41.8774C248.272 42.3812 248.556 42.7827 248.931 43.0819C249.31 43.3774 249.78 43.5251 250.34 43.5251ZM260.46 44.7297C259.619 44.7297 258.893 44.5441 258.283 44.1729C257.677 43.7979 257.21 43.2751 256.88 42.6047C256.554 41.9304 256.391 41.1463 256.391 40.2524C256.391 39.3585 256.554 38.5706 256.88 37.8888C257.21 37.2032 257.668 36.6691 258.255 36.2865C258.846 35.9001 259.535 35.7069 260.323 35.7069C260.778 35.7069 261.227 35.7827 261.67 35.9342C262.113 36.0857 262.516 36.3319 262.88 36.6729C263.244 37.01 263.533 37.4569 263.749 38.0138C263.965 38.5706 264.073 39.2562 264.073 40.0706V40.6388H257.346V39.4797H262.71C262.71 38.9872 262.611 38.5479 262.414 38.1615C262.221 37.7751 261.944 37.4702 261.585 37.2467C261.229 37.0232 260.808 36.9115 260.323 36.9115C259.789 36.9115 259.327 37.0441 258.937 37.3092C258.551 37.5706 258.253 37.9115 258.045 38.3319C257.836 38.7524 257.732 39.2032 257.732 39.6842V40.4569C257.732 41.116 257.846 41.6747 258.073 42.1331C258.304 42.5876 258.624 42.9342 259.033 43.1729C259.443 43.4077 259.918 43.5251 260.46 43.5251C260.812 43.5251 261.13 43.4759 261.414 43.3774C261.702 43.2751 261.95 43.1236 262.158 42.9229C262.367 42.7183 262.528 42.4645 262.641 42.1615L263.937 42.5251C263.801 42.9645 263.571 43.3509 263.249 43.6842C262.927 44.0138 262.53 44.2713 262.056 44.4569C261.583 44.6388 261.051 44.7297 260.46 44.7297ZM272.295 37.7751L271.09 38.116C271.015 37.9153 270.903 37.7202 270.755 37.5308C270.611 37.3376 270.414 37.1785 270.164 37.0535C269.914 36.9285 269.594 36.866 269.204 36.866C268.67 36.866 268.225 36.9891 267.869 37.2354C267.516 37.4778 267.34 37.7865 267.34 38.1615C267.34 38.4948 267.461 38.7581 267.704 38.9513C267.946 39.1444 268.325 39.3054 268.84 39.4342L270.136 39.7524C270.916 39.9418 271.497 40.2316 271.88 40.6217C272.263 41.0081 272.454 41.5062 272.454 42.116C272.454 42.616 272.31 43.063 272.022 43.4569C271.738 43.8509 271.34 44.1615 270.829 44.3888C270.318 44.616 269.723 44.7297 269.045 44.7297C268.155 44.7297 267.418 44.5365 266.835 44.1501C266.251 43.7638 265.882 43.1994 265.727 42.4569L266.999 42.1388C267.121 42.6085 267.35 42.9607 267.687 43.1956C268.028 43.4304 268.473 43.5479 269.022 43.5479C269.647 43.5479 270.143 43.4153 270.511 43.1501C270.882 42.8812 271.068 42.5592 271.068 42.1842C271.068 41.8812 270.962 41.6274 270.749 41.4229C270.537 41.2145 270.211 41.0592 269.772 40.9569L268.318 40.616C267.518 40.4266 266.931 40.1331 266.556 39.7354C266.185 39.3338 265.999 38.8319 265.999 38.2297C265.999 37.7372 266.138 37.3016 266.414 36.9229C266.694 36.5441 267.075 36.2467 267.556 36.0308C268.041 35.8149 268.59 35.7069 269.204 35.7069C270.068 35.7069 270.746 35.8963 271.238 36.2751C271.734 36.6539 272.086 37.1539 272.295 37.7751ZM275.722 41.366L275.7 39.7069H275.972L279.791 35.8206H281.45L277.381 39.9342H277.268L275.722 41.366ZM274.472 44.5479V32.9115H275.813V44.5479H274.472ZM280.018 44.5479L276.609 40.2297L277.563 39.2979L281.722 44.5479H280.018ZM286.971 35.8206V36.9569H282.448V35.8206H286.971ZM283.766 33.7297H285.107V42.0479C285.107 42.4266 285.162 42.7107 285.272 42.9001C285.386 43.0857 285.53 43.2107 285.704 43.2751C285.882 43.3357 286.069 43.366 286.266 43.366C286.414 43.366 286.535 43.3585 286.63 43.3433C286.725 43.3244 286.801 43.3092 286.857 43.2979L287.13 44.5024C287.039 44.5365 286.912 44.5706 286.749 44.6047C286.587 44.6425 286.38 44.6615 286.13 44.6615C285.751 44.6615 285.38 44.58 285.016 44.4172C284.657 44.2543 284.357 44.0062 284.119 43.6729C283.884 43.3395 283.766 42.9191 283.766 42.4115V33.7297ZM292.44 44.7297C291.652 44.7297 290.961 44.5422 290.366 44.1672C289.775 43.7922 289.313 43.2675 288.979 42.5933C288.65 41.9191 288.485 41.1312 288.485 40.2297C288.485 39.3206 288.65 38.527 288.979 37.849C289.313 37.171 289.775 36.6444 290.366 36.2694C290.961 35.8944 291.652 35.7069 292.44 35.7069C293.228 35.7069 293.917 35.8944 294.508 36.2694C295.103 36.6444 295.565 37.171 295.894 37.849C296.228 38.527 296.394 39.3206 296.394 40.2297C296.394 41.1312 296.228 41.9191 295.894 42.5933C295.565 43.2675 295.103 43.7922 294.508 44.1672C293.917 44.5422 293.228 44.7297 292.44 44.7297ZM292.44 43.5251C293.038 43.5251 293.531 43.3717 293.917 43.0649C294.303 42.7581 294.589 42.3547 294.775 41.8547C294.961 41.3547 295.053 40.813 295.053 40.2297C295.053 39.6463 294.961 39.1028 294.775 38.599C294.589 38.0952 294.303 37.688 293.917 37.3774C293.531 37.0668 293.038 36.9115 292.44 36.9115C291.841 36.9115 291.349 37.0668 290.962 37.3774C290.576 37.688 290.29 38.0952 290.104 38.599C289.919 39.1028 289.826 39.6463 289.826 40.2297C289.826 40.813 289.919 41.3547 290.104 41.8547C290.29 42.3547 290.576 42.7581 290.962 43.0649C291.349 43.3717 291.841 43.5251 292.44 43.5251ZM298.441 47.8206V35.8206H299.737V37.2069H299.896C299.994 37.0554 300.131 36.8622 300.305 36.6274C300.483 36.3888 300.737 36.1766 301.066 35.991C301.399 35.8016 301.85 35.7069 302.418 35.7069C303.153 35.7069 303.801 35.8907 304.362 36.2581C304.922 36.6255 305.36 37.1463 305.674 37.8206C305.988 38.4948 306.146 39.2903 306.146 40.2069C306.146 41.1312 305.988 41.9323 305.674 42.6104C305.36 43.2846 304.924 43.8073 304.367 44.1785C303.81 44.546 303.168 44.7297 302.441 44.7297C301.881 44.7297 301.432 44.6369 301.095 44.4513C300.757 44.2619 300.498 44.0479 300.316 43.8092C300.134 43.5668 299.994 43.366 299.896 43.2069H299.782V47.8206H298.441ZM299.759 40.1842C299.759 40.8433 299.856 41.4247 300.049 41.9285C300.242 42.4285 300.524 42.8206 300.896 43.1047C301.267 43.385 301.721 43.5251 302.259 43.5251C302.82 43.5251 303.288 43.3774 303.663 43.0819C304.042 42.7827 304.326 42.3812 304.515 41.8774C304.708 41.3698 304.805 40.8054 304.805 40.1842C304.805 39.5706 304.71 39.0175 304.521 38.5251C304.335 38.0289 304.053 37.6369 303.674 37.349C303.299 37.0573 302.828 36.9115 302.259 36.9115C301.714 36.9115 301.256 37.0497 300.884 37.3263C300.513 37.599 300.233 37.9816 300.043 38.474C299.854 38.9626 299.759 39.5327 299.759 40.1842Z" fill="#2400B7" fill-opacity="0.66"/>
<path d="M54.0981 39.0479C54.0981 30.2113 61.2616 23.0479 70.0981 23.0479H70.6762C79.5128 23.0479 86.6762 30.2113 86.6762 39.0479C86.6762 47.8844 79.5128 55.0479 70.6762 55.0479H70.0981C61.2616 55.0479 54.0981 47.8844 54.0981 39.0479Z" fill="url(#paint2_radial_196_15252)"/>
<path d="M57.2007 39C57.2007 31.8203 63.021 26 70.2007 26H70.6704C77.8501 26 83.6704 31.8203 83.6704 39C83.6704 46.1797 77.8501 52 70.6704 52H70.2007C63.021 52 57.2007 46.1797 57.2007 39Z" fill="url(#paint3_linear_196_15252)"/>
<defs>
<linearGradient id="paint0_linear_196_15252" x1="271" y1="0" x2="271" y2="80" gradientUnits="userSpaceOnUse">
<stop stop-color="#4400EE" stop-opacity="0.06"/>
<stop offset="1" stop-color="#4300FF" stop-opacity="0.11"/>
</linearGradient>
<linearGradient id="paint1_linear_196_15252" x1="58.913" y1="2.5" x2="477.503" y2="213.416" gradientUnits="userSpaceOnUse">
<stop stop-color="#4400EE" stop-opacity="0.06"/>
<stop offset="1" stop-color="#3600FF" stop-opacity="0.15"/>
</linearGradient>
<radialGradient id="paint2_radial_196_15252" cx="0" cy="0" r="1" gradientUnits="userSpaceOnUse" gradientTransform="translate(60.764 30.5002) rotate(68.5939) scale(26.3664 26.717)">
<stop stop-color="#C2B5F5"/>
<stop offset="1" stop-color="#654DC4"/>
</radialGradient>
<linearGradient id="paint3_linear_196_15252" x1="33.7365" y1="21.5" x2="85.4793" y2="61.3917" gradientUnits="userSpaceOnUse">
<stop stop-color="#654DC4"/>
<stop offset="0.926373" stop-color="#C2B5F5"/>
</linearGradient>
</defs>
</svg>
