<svg width="542" height="80" viewBox="0 0 542 80" fill="none" xmlns="http://www.w3.org/2000/svg">
<path d="M0.5 4C0.5 2.067 2.067 0.5 4 0.5H538C539.933 0.5 541.5 2.067 541.5 4V76C541.5 77.933 539.933 79.5 538 79.5H4C2.067 79.5 0.5 77.933 0.5 76V4Z" stroke="#845FFD" stroke-opacity="0.37"/>
<rect x="24.5" y="20.5" width="63" height="37" rx="18.5" stroke="#845FFD" stroke-opacity="0.37"/>
<path d="M26.9297 39.0479C26.9297 30.2113 34.0931 23.0479 42.9297 23.0479C51.7662 23.0479 58.9297 30.2113 58.9297 39.0479C58.9297 47.8844 51.7662 55.0479 42.9297 55.0479C34.0931 55.0479 26.9297 47.8844 26.9297 39.0479Z" fill="#473876"/>
<path d="M29.9697 39C29.9697 31.8203 35.79 26 42.9697 26C50.1494 26 55.9697 31.8203 55.9697 39C55.9697 46.1797 50.1494 52 42.9697 52C35.79 52 29.9697 46.1797 29.9697 39Z" fill="#473876"/>
<path d="M109.227 45V36.2727H110.568V45H109.227ZM109.909 34.8182C109.648 34.8182 109.422 34.7292 109.233 34.5511C109.047 34.3731 108.955 34.1591 108.955 33.9091C108.955 33.6591 109.047 33.4451 109.233 33.267C109.422 33.089 109.648 33 109.909 33C110.17 33 110.394 33.089 110.58 33.267C110.769 33.4451 110.864 33.6591 110.864 33.9091C110.864 34.1591 110.769 34.3731 110.58 34.5511C110.394 34.7292 110.17 34.8182 109.909 34.8182ZM114.365 39.75V45H113.024V36.2727H114.32V37.6364H114.433C114.638 37.1932 114.948 36.8371 115.365 36.5682C115.782 36.2955 116.32 36.1591 116.979 36.1591C117.57 36.1591 118.087 36.2803 118.53 36.5227C118.973 36.7614 119.318 37.125 119.564 37.6136C119.81 38.0985 119.933 38.7121 119.933 39.4545V45H118.592V39.5455C118.592 38.8598 118.414 38.3258 118.058 37.9432C117.702 37.5568 117.214 37.3636 116.592 37.3636C116.164 37.3636 115.782 37.4564 115.445 37.642C115.111 37.8277 114.848 38.0985 114.655 38.4545C114.462 38.8106 114.365 39.2424 114.365 39.75ZM129.207 36.2727L125.98 45H124.616L121.389 36.2727H122.844L125.253 43.2273H125.344L127.753 36.2727H129.207ZM130.977 45V36.2727H132.318V45H130.977ZM131.659 34.8182C131.398 34.8182 131.172 34.7292 130.983 34.5511C130.797 34.3731 130.705 34.1591 130.705 33.9091C130.705 33.6591 130.797 33.4451 130.983 33.267C131.172 33.089 131.398 33 131.659 33C131.92 33 132.144 33.089 132.33 33.267C132.519 33.4451 132.614 33.6591 132.614 33.9091C132.614 34.1591 132.519 34.3731 132.33 34.5511C132.144 34.7292 131.92 34.8182 131.659 34.8182ZM138.57 36.2727V37.4091H134.047V36.2727H138.57ZM135.365 34.1818H136.706V42.5C136.706 42.8788 136.761 43.1629 136.871 43.3523C136.984 43.5379 137.128 43.6629 137.303 43.7273C137.481 43.7879 137.668 43.8182 137.865 43.8182C138.013 43.8182 138.134 43.8106 138.229 43.7955C138.323 43.7765 138.399 43.7614 138.456 43.75L138.729 44.9545C138.638 44.9886 138.511 45.0227 138.348 45.0568C138.185 45.0947 137.979 45.1136 137.729 45.1136C137.35 45.1136 136.979 45.0322 136.615 44.8693C136.255 44.7064 135.956 44.4583 135.717 44.125C135.482 43.7917 135.365 43.3712 135.365 42.8636V34.1818ZM144.152 45.1818C143.311 45.1818 142.586 44.9962 141.976 44.625C141.37 44.25 140.902 43.7273 140.572 43.0568C140.247 42.3826 140.084 41.5985 140.084 40.7045C140.084 39.8106 140.247 39.0227 140.572 38.3409C140.902 37.6553 141.36 37.1212 141.947 36.7386C142.538 36.3523 143.228 36.1591 144.016 36.1591C144.47 36.1591 144.919 36.2348 145.362 36.3864C145.805 36.5379 146.209 36.7841 146.572 37.125C146.936 37.4621 147.226 37.9091 147.442 38.4659C147.658 39.0227 147.766 39.7083 147.766 40.5227V41.0909H141.038V39.9318H146.402C146.402 39.4394 146.304 39 146.107 38.6136C145.913 38.2273 145.637 37.9223 145.277 37.6989C144.921 37.4754 144.5 37.3636 144.016 37.3636C143.482 37.3636 143.019 37.4962 142.629 37.7614C142.243 38.0227 141.946 38.3636 141.737 38.7841C141.529 39.2045 141.425 39.6553 141.425 40.1364V40.9091C141.425 41.5682 141.538 42.1269 141.766 42.5852C141.997 43.0398 142.317 43.3864 142.726 43.625C143.135 43.8598 143.61 43.9773 144.152 43.9773C144.504 43.9773 144.822 43.928 145.107 43.8295C145.394 43.7273 145.643 43.5758 145.851 43.375C146.059 43.1705 146.22 42.9167 146.334 42.6136L147.629 42.9773C147.493 43.4167 147.264 43.803 146.942 44.1364C146.62 44.4659 146.222 44.7235 145.749 44.9091C145.275 45.0909 144.743 45.1818 144.152 45.1818ZM154.805 39.3864V40.6364H149.714V39.3864H154.805ZM160.96 36.2727V37.4091H156.438V36.2727H160.96ZM157.756 34.1818H159.097V42.5C159.097 42.8788 159.152 43.1629 159.261 43.3523C159.375 43.5379 159.519 43.6629 159.693 43.7273C159.871 43.7879 160.059 43.8182 160.256 43.8182C160.403 43.8182 160.525 43.8106 160.619 43.7955C160.714 43.7765 160.79 43.7614 160.847 43.75L161.119 44.9545C161.028 44.9886 160.902 45.0227 160.739 45.0568C160.576 45.0947 160.369 45.1136 160.119 45.1136C159.741 45.1136 159.369 45.0322 159.006 44.8693C158.646 44.7064 158.347 44.4583 158.108 44.125C157.873 43.7917 157.756 43.3712 157.756 42.8636V34.1818ZM166.543 45.1818C165.702 45.1818 164.976 44.9962 164.366 44.625C163.76 44.25 163.293 43.7273 162.963 43.0568C162.637 42.3826 162.474 41.5985 162.474 40.7045C162.474 39.8106 162.637 39.0227 162.963 38.3409C163.293 37.6553 163.751 37.1212 164.338 36.7386C164.929 36.3523 165.618 36.1591 166.406 36.1591C166.861 36.1591 167.31 36.2348 167.753 36.3864C168.196 36.5379 168.599 36.7841 168.963 37.125C169.327 37.4621 169.616 37.9091 169.832 38.4659C170.048 39.0227 170.156 39.7083 170.156 40.5227V41.0909H163.429V39.9318H168.793C168.793 39.4394 168.694 39 168.497 38.6136C168.304 38.2273 168.027 37.9223 167.668 37.6989C167.312 37.4754 166.891 37.3636 166.406 37.3636C165.872 37.3636 165.41 37.4962 165.02 37.7614C164.634 38.0227 164.336 38.3636 164.128 38.7841C163.92 39.2045 163.815 39.6553 163.815 40.1364V40.9091C163.815 41.5682 163.929 42.1269 164.156 42.5852C164.387 43.0398 164.707 43.3864 165.116 43.625C165.526 43.8598 166.001 43.9773 166.543 43.9773C166.895 43.9773 167.213 43.928 167.497 43.8295C167.785 43.7273 168.033 43.5758 168.241 43.375C168.45 43.1705 168.611 42.9167 168.724 42.6136L170.02 42.9773C169.884 43.4167 169.654 43.803 169.332 44.1364C169.01 44.4659 168.613 44.7235 168.139 44.9091C167.666 45.0909 167.134 45.1818 166.543 45.1818ZM174.764 45.2045C174.211 45.2045 173.709 45.1004 173.259 44.892C172.808 44.6799 172.45 44.375 172.185 43.9773C171.92 43.5758 171.787 43.0909 171.787 42.5227C171.787 42.0227 171.885 41.6174 172.082 41.3068C172.279 40.9924 172.543 40.7462 172.872 40.5682C173.202 40.3902 173.565 40.2576 173.963 40.1705C174.365 40.0795 174.768 40.0076 175.173 39.9545C175.704 39.8864 176.134 39.8352 176.463 39.8011C176.796 39.7633 177.039 39.7008 177.19 39.6136C177.346 39.5265 177.423 39.375 177.423 39.1591V39.1136C177.423 38.553 177.27 38.1174 176.963 37.8068C176.66 37.4962 176.2 37.3409 175.582 37.3409C174.942 37.3409 174.44 37.4811 174.077 37.7614C173.713 38.0417 173.457 38.3409 173.31 38.6591L172.037 38.2045C172.264 37.6742 172.567 37.2614 172.946 36.9659C173.329 36.6667 173.745 36.4583 174.196 36.3409C174.651 36.2197 175.098 36.1591 175.537 36.1591C175.817 36.1591 176.139 36.1932 176.503 36.2614C176.87 36.3258 177.224 36.4602 177.565 36.6648C177.91 36.8693 178.196 37.178 178.423 37.5909C178.651 38.0038 178.764 38.5568 178.764 39.25V45H177.423V43.8182H177.355C177.264 44.0076 177.113 44.2102 176.901 44.4261C176.688 44.642 176.406 44.8258 176.054 44.9773C175.702 45.1288 175.272 45.2045 174.764 45.2045ZM174.969 44C175.499 44 175.946 43.8958 176.31 43.6875C176.677 43.4792 176.954 43.2102 177.139 42.8807C177.329 42.5511 177.423 42.2045 177.423 41.8409V40.6136C177.366 40.6818 177.241 40.7443 177.048 40.8011C176.859 40.8542 176.639 40.9015 176.389 40.9432C176.143 40.9811 175.902 41.0152 175.668 41.0455C175.437 41.072 175.249 41.0947 175.105 41.1136C174.757 41.1591 174.431 41.233 174.128 41.3352C173.829 41.4337 173.586 41.5833 173.401 41.7841C173.219 41.9811 173.128 42.25 173.128 42.5909C173.128 43.0568 173.3 43.4091 173.645 43.6477C173.993 43.8826 174.435 44 174.969 44ZM181.212 45V36.2727H182.507V37.6364H182.621C182.803 37.1705 183.096 36.8087 183.501 36.5511C183.907 36.2898 184.393 36.1591 184.962 36.1591C185.537 36.1591 186.017 36.2898 186.399 36.5511C186.786 36.8087 187.087 37.1705 187.303 37.6364H187.393C187.617 37.1856 187.952 36.8277 188.399 36.5625C188.846 36.2936 189.382 36.1591 190.007 36.1591C190.787 36.1591 191.426 36.4034 191.922 36.892C192.418 37.3769 192.666 38.1326 192.666 39.1591V45H191.325V39.1591C191.325 38.5152 191.149 38.0549 190.797 37.7784C190.445 37.5019 190.03 37.3636 189.553 37.3636C188.939 37.3636 188.464 37.5492 188.126 37.9205C187.789 38.2879 187.621 38.7538 187.621 39.3182V45H186.257V39.0227C186.257 38.5265 186.096 38.1269 185.774 37.8239C185.452 37.517 185.037 37.3636 184.53 37.3636C184.181 37.3636 183.856 37.4564 183.553 37.642C183.253 37.8277 183.011 38.0852 182.825 38.4148C182.643 38.7405 182.553 39.1174 182.553 39.5455V45H181.212ZM200.118 39.3864V40.6364H195.027V39.3864H200.118ZM202.477 45V36.2727H203.773V37.6364H203.886C204.068 37.1705 204.362 36.8087 204.767 36.5511C205.172 36.2898 205.659 36.1591 206.227 36.1591C206.803 36.1591 207.282 36.2898 207.665 36.5511C208.051 36.8087 208.352 37.1705 208.568 37.6364H208.659C208.883 37.1856 209.218 36.8277 209.665 36.5625C210.112 36.2936 210.648 36.1591 211.273 36.1591C212.053 36.1591 212.691 36.4034 213.188 36.892C213.684 37.3769 213.932 38.1326 213.932 39.1591V45H212.591V39.1591C212.591 38.5152 212.415 38.0549 212.062 37.7784C211.71 37.5019 211.295 37.3636 210.818 37.3636C210.205 37.3636 209.729 37.5492 209.392 37.9205C209.055 38.2879 208.886 38.7538 208.886 39.3182V45H207.523V39.0227C207.523 38.5265 207.362 38.1269 207.04 37.8239C206.718 37.517 206.303 37.3636 205.795 37.3636C205.447 37.3636 205.121 37.4564 204.818 37.642C204.519 37.8277 204.277 38.0852 204.091 38.4148C203.909 38.7405 203.818 39.1174 203.818 39.5455V45H202.477ZM220.043 45.1818C219.202 45.1818 218.476 44.9962 217.866 44.625C217.26 44.25 216.793 43.7273 216.463 43.0568C216.137 42.3826 215.974 41.5985 215.974 40.7045C215.974 39.8106 216.137 39.0227 216.463 38.3409C216.793 37.6553 217.251 37.1212 217.838 36.7386C218.429 36.3523 219.118 36.1591 219.906 36.1591C220.361 36.1591 220.81 36.2348 221.253 36.3864C221.696 36.5379 222.099 36.7841 222.463 37.125C222.827 37.4621 223.116 37.9091 223.332 38.4659C223.548 39.0227 223.656 39.7083 223.656 40.5227V41.0909H216.929V39.9318H222.293C222.293 39.4394 222.194 39 221.997 38.6136C221.804 38.2273 221.527 37.9223 221.168 37.6989C220.812 37.4754 220.391 37.3636 219.906 37.3636C219.372 37.3636 218.91 37.4962 218.52 37.7614C218.134 38.0227 217.836 38.3636 217.628 38.7841C217.42 39.2045 217.315 39.6553 217.315 40.1364V40.9091C217.315 41.5682 217.429 42.1269 217.656 42.5852C217.887 43.0398 218.207 43.3864 218.616 43.625C219.026 43.8598 219.501 43.9773 220.043 43.9773C220.395 43.9773 220.713 43.928 220.997 43.8295C221.285 43.7273 221.533 43.5758 221.741 43.375C221.95 43.1705 222.111 42.9167 222.224 42.6136L223.52 42.9773C223.384 43.4167 223.154 43.803 222.832 44.1364C222.51 44.4659 222.113 44.7235 221.639 44.9091C221.166 45.0909 220.634 45.1818 220.043 45.1818ZM225.696 45V36.2727H226.991V37.6364H227.105C227.287 37.1705 227.58 36.8087 227.986 36.5511C228.391 36.2898 228.878 36.1591 229.446 36.1591C230.022 36.1591 230.501 36.2898 230.884 36.5511C231.27 36.8087 231.571 37.1705 231.787 37.6364H231.878C232.101 37.1856 232.437 36.8277 232.884 36.5625C233.33 36.2936 233.866 36.1591 234.491 36.1591C235.272 36.1591 235.91 36.4034 236.406 36.892C236.902 37.3769 237.151 38.1326 237.151 39.1591V45H235.81V39.1591C235.81 38.5152 235.634 38.0549 235.281 37.7784C234.929 37.5019 234.514 37.3636 234.037 37.3636C233.423 37.3636 232.948 37.5492 232.611 37.9205C232.274 38.2879 232.105 38.7538 232.105 39.3182V45H230.741V39.0227C230.741 38.5265 230.58 38.1269 230.259 37.8239C229.937 37.517 229.522 37.3636 229.014 37.3636C228.666 37.3636 228.34 37.4564 228.037 37.642C227.738 37.8277 227.495 38.0852 227.31 38.4148C227.128 38.7405 227.037 39.1174 227.037 39.5455V45H225.696ZM239.784 45V33.3636H241.125V37.6591H241.239C241.337 37.5076 241.473 37.3144 241.648 37.0795C241.826 36.8409 242.08 36.6288 242.409 36.4432C242.742 36.2538 243.193 36.1591 243.761 36.1591C244.496 36.1591 245.144 36.3428 245.705 36.7102C246.265 37.0777 246.703 37.5985 247.017 38.2727C247.331 38.947 247.489 39.7424 247.489 40.6591C247.489 41.5833 247.331 42.3845 247.017 43.0625C246.703 43.7367 246.267 44.2595 245.71 44.6307C245.153 44.9981 244.511 45.1818 243.784 45.1818C243.223 45.1818 242.775 45.089 242.438 44.9034C242.1 44.714 241.841 44.5 241.659 44.2614C241.477 44.0189 241.337 43.8182 241.239 43.6591H241.08V45H239.784ZM241.102 40.6364C241.102 41.2955 241.199 41.8769 241.392 42.3807C241.585 42.8807 241.867 43.2727 242.239 43.5568C242.61 43.8371 243.064 43.9773 243.602 43.9773C244.163 43.9773 244.631 43.8295 245.006 43.5341C245.384 43.2348 245.669 42.8333 245.858 42.3295C246.051 41.822 246.148 41.2576 246.148 40.6364C246.148 40.0227 246.053 39.4697 245.864 38.9773C245.678 38.4811 245.396 38.089 245.017 37.8011C244.642 37.5095 244.17 37.3636 243.602 37.3636C243.057 37.3636 242.598 37.5019 242.227 37.7784C241.856 38.0511 241.576 38.4337 241.386 38.9261C241.197 39.4148 241.102 39.9848 241.102 40.6364ZM253.199 45.1818C252.358 45.1818 251.633 44.9962 251.023 44.625C250.417 44.25 249.949 43.7273 249.619 43.0568C249.294 42.3826 249.131 41.5985 249.131 40.7045C249.131 39.8106 249.294 39.0227 249.619 38.3409C249.949 37.6553 250.407 37.1212 250.994 36.7386C251.585 36.3523 252.275 36.1591 253.062 36.1591C253.517 36.1591 253.966 36.2348 254.409 36.3864C254.852 36.5379 255.256 36.7841 255.619 37.125C255.983 37.4621 256.273 37.9091 256.489 38.4659C256.705 39.0227 256.812 39.7083 256.812 40.5227V41.0909H250.085V39.9318H255.449C255.449 39.4394 255.35 39 255.153 38.6136C254.96 38.2273 254.684 37.9223 254.324 37.6989C253.968 37.4754 253.547 37.3636 253.062 37.3636C252.528 37.3636 252.066 37.4962 251.676 37.7614C251.29 38.0227 250.992 38.3636 250.784 38.7841C250.576 39.2045 250.472 39.6553 250.472 40.1364V40.9091C250.472 41.5682 250.585 42.1269 250.812 42.5852C251.044 43.0398 251.364 43.3864 251.773 43.625C252.182 43.8598 252.657 43.9773 253.199 43.9773C253.551 43.9773 253.869 43.928 254.153 43.8295C254.441 43.7273 254.689 43.5758 254.898 43.375C255.106 43.1705 255.267 42.9167 255.381 42.6136L256.676 42.9773C256.54 43.4167 256.311 43.803 255.989 44.1364C255.667 44.4659 255.269 44.7235 254.795 44.9091C254.322 45.0909 253.79 45.1818 253.199 45.1818ZM258.852 45V36.2727H260.148V37.5909H260.239C260.398 37.1591 260.686 36.8087 261.102 36.5398C261.519 36.2708 261.989 36.1364 262.511 36.1364C262.61 36.1364 262.733 36.1383 262.881 36.142C263.028 36.1458 263.14 36.1515 263.216 36.1591V37.5227C263.17 37.5114 263.066 37.4943 262.903 37.4716C262.744 37.4451 262.576 37.4318 262.398 37.4318C261.973 37.4318 261.595 37.5208 261.261 37.6989C260.932 37.8731 260.67 38.1155 260.477 38.4261C260.288 38.733 260.193 39.0833 260.193 39.4773V45H258.852ZM269.165 39.3864V40.6364H264.074V39.3864H269.165ZM274.82 45.1818C274.092 45.1818 273.45 44.9981 272.893 44.6307C272.337 44.2595 271.901 43.7367 271.587 43.0625C271.272 42.3845 271.115 41.5833 271.115 40.6591C271.115 39.7424 271.272 38.947 271.587 38.2727C271.901 37.5985 272.339 37.0777 272.899 36.7102C273.46 36.3428 274.107 36.1591 274.842 36.1591C275.411 36.1591 275.859 36.2538 276.189 36.4432C276.522 36.6288 276.776 36.8409 276.95 37.0795C277.128 37.3144 277.267 37.5076 277.365 37.6591H277.479V33.3636H278.82V45H277.524V43.6591H277.365C277.267 43.8182 277.126 44.0189 276.945 44.2614C276.763 44.5 276.503 44.714 276.166 44.9034C275.829 45.089 275.38 45.1818 274.82 45.1818ZM275.001 43.9773C275.539 43.9773 275.994 43.8371 276.365 43.5568C276.736 43.2727 277.018 42.8807 277.212 42.3807C277.405 41.8769 277.501 41.2955 277.501 40.6364C277.501 39.9848 277.407 39.4148 277.217 38.9261C277.028 38.4337 276.748 38.0511 276.376 37.7784C276.005 37.5019 275.547 37.3636 275.001 37.3636C274.433 37.3636 273.96 37.5095 273.581 37.8011C273.206 38.089 272.924 38.4811 272.734 38.9773C272.549 39.4697 272.456 40.0227 272.456 40.6364C272.456 41.2576 272.551 41.822 272.74 42.3295C272.933 42.8333 273.217 43.2348 273.592 43.5341C273.971 43.8295 274.441 43.9773 275.001 43.9773ZM285.121 45.1818C284.28 45.1818 283.554 44.9962 282.945 44.625C282.339 44.25 281.871 43.7273 281.541 43.0568C281.215 42.3826 281.053 41.5985 281.053 40.7045C281.053 39.8106 281.215 39.0227 281.541 38.3409C281.871 37.6553 282.329 37.1212 282.916 36.7386C283.507 36.3523 284.196 36.1591 284.984 36.1591C285.439 36.1591 285.888 36.2348 286.331 36.3864C286.774 36.5379 287.178 36.7841 287.541 37.125C287.905 37.4621 288.195 37.9091 288.411 38.4659C288.626 39.0227 288.734 39.7083 288.734 40.5227V41.0909H282.007V39.9318H287.371C287.371 39.4394 287.272 39 287.075 38.6136C286.882 38.2273 286.606 37.9223 286.246 37.6989C285.89 37.4754 285.469 37.3636 284.984 37.3636C284.45 37.3636 283.988 37.4962 283.598 37.7614C283.212 38.0227 282.914 38.3636 282.706 38.7841C282.498 39.2045 282.393 39.6553 282.393 40.1364V40.9091C282.393 41.5682 282.507 42.1269 282.734 42.5852C282.965 43.0398 283.286 43.3864 283.695 43.625C284.104 43.8598 284.579 43.9773 285.121 43.9773C285.473 43.9773 285.791 43.928 286.075 43.8295C286.363 43.7273 286.611 43.5758 286.82 43.375C287.028 43.1705 287.189 42.9167 287.303 42.6136L288.598 42.9773C288.462 43.4167 288.232 43.803 287.911 44.1364C287.589 44.4659 287.191 44.7235 286.717 44.9091C286.244 45.0909 285.712 45.1818 285.121 45.1818ZM296.956 38.2273L295.751 38.5682C295.676 38.3674 295.564 38.1723 295.416 37.983C295.272 37.7898 295.075 37.6307 294.825 37.5057C294.575 37.3807 294.255 37.3182 293.865 37.3182C293.331 37.3182 292.886 37.4413 292.53 37.6875C292.178 37.9299 292.001 38.2386 292.001 38.6136C292.001 38.947 292.123 39.2102 292.365 39.4034C292.607 39.5966 292.986 39.7576 293.501 39.8864L294.797 40.2045C295.577 40.3939 296.159 40.6837 296.541 41.0739C296.924 41.4602 297.115 41.9583 297.115 42.5682C297.115 43.0682 296.971 43.5152 296.683 43.9091C296.399 44.303 296.001 44.6136 295.49 44.8409C294.979 45.0682 294.384 45.1818 293.706 45.1818C292.816 45.1818 292.079 44.9886 291.496 44.6023C290.912 44.2159 290.543 43.6515 290.388 42.9091L291.661 42.5909C291.782 43.0606 292.011 43.4129 292.348 43.6477C292.689 43.8826 293.134 44 293.683 44C294.308 44 294.804 43.8674 295.172 43.6023C295.543 43.3333 295.729 43.0114 295.729 42.6364C295.729 42.3333 295.623 42.0795 295.411 41.875C295.198 41.6667 294.873 41.5114 294.433 41.4091L292.979 41.0682C292.179 40.8788 291.592 40.5852 291.217 40.1875C290.846 39.786 290.661 39.2841 290.661 38.6818C290.661 38.1894 290.799 37.7538 291.075 37.375C291.356 36.9962 291.736 36.6989 292.217 36.483C292.702 36.267 293.251 36.1591 293.865 36.1591C294.729 36.1591 295.407 36.3485 295.899 36.7273C296.395 37.1061 296.748 37.6061 296.956 38.2273ZM300.384 41.8182L300.361 40.1591H300.634L304.452 36.2727H306.111L302.043 40.3864H301.929L300.384 41.8182ZM299.134 45V33.3636H300.474V45H299.134ZM304.679 45L301.27 40.6818L302.224 39.75L306.384 45H304.679ZM311.632 36.2727V37.4091H307.109V36.2727H311.632ZM308.428 34.1818H309.768V42.5C309.768 42.8788 309.823 43.1629 309.933 43.3523C310.047 43.5379 310.191 43.6629 310.365 43.7273C310.543 43.7879 310.731 43.8182 310.928 43.8182C311.075 43.8182 311.196 43.8106 311.291 43.7955C311.386 43.7765 311.462 43.7614 311.518 43.75L311.791 44.9545C311.7 44.9886 311.573 45.0227 311.411 45.0568C311.248 45.0947 311.041 45.1136 310.791 45.1136C310.412 45.1136 310.041 45.0322 309.678 44.8693C309.318 44.7064 309.018 44.4583 308.78 44.125C308.545 43.7917 308.428 43.3712 308.428 42.8636V34.1818ZM317.101 45.1818C316.313 45.1818 315.622 44.9943 315.027 44.6193C314.436 44.2443 313.974 43.7197 313.641 43.0455C313.311 42.3712 313.146 41.5833 313.146 40.6818C313.146 39.7727 313.311 38.9792 313.641 38.3011C313.974 37.6231 314.436 37.0966 315.027 36.7216C315.622 36.3466 316.313 36.1591 317.101 36.1591C317.889 36.1591 318.578 36.3466 319.169 36.7216C319.764 37.0966 320.226 37.6231 320.555 38.3011C320.889 38.9792 321.055 39.7727 321.055 40.6818C321.055 41.5833 320.889 42.3712 320.555 43.0455C320.226 43.7197 319.764 44.2443 319.169 44.6193C318.578 44.9943 317.889 45.1818 317.101 45.1818ZM317.101 43.9773C317.699 43.9773 318.192 43.8239 318.578 43.517C318.964 43.2102 319.25 42.8068 319.436 42.3068C319.622 41.8068 319.714 41.2652 319.714 40.6818C319.714 40.0985 319.622 39.5549 319.436 39.0511C319.25 38.5473 318.964 38.1402 318.578 37.8295C318.192 37.5189 317.699 37.3636 317.101 37.3636C316.502 37.3636 316.01 37.5189 315.624 37.8295C315.237 38.1402 314.951 38.5473 314.766 39.0511C314.58 39.5549 314.487 40.0985 314.487 40.6818C314.487 41.2652 314.58 41.8068 314.766 42.3068C314.951 42.8068 315.237 43.2102 315.624 43.517C316.01 43.8239 316.502 43.9773 317.101 43.9773ZM323.102 48.2727V36.2727H324.398V37.6591H324.557C324.655 37.5076 324.792 37.3144 324.966 37.0795C325.144 36.8409 325.398 36.6288 325.727 36.4432C326.061 36.2538 326.511 36.1591 327.08 36.1591C327.814 36.1591 328.462 36.3428 329.023 36.7102C329.583 37.0777 330.021 37.5985 330.335 38.2727C330.65 38.947 330.807 39.7424 330.807 40.6591C330.807 41.5833 330.65 42.3845 330.335 43.0625C330.021 43.7367 329.585 44.2595 329.028 44.6307C328.472 44.9981 327.83 45.1818 327.102 45.1818C326.542 45.1818 326.093 45.089 325.756 44.9034C325.419 44.714 325.159 44.5 324.977 44.2614C324.795 44.0189 324.655 43.8182 324.557 43.6591H324.443V48.2727H323.102ZM324.42 40.6364C324.42 41.2955 324.517 41.8769 324.71 42.3807C324.903 42.8807 325.186 43.2727 325.557 43.5568C325.928 43.8371 326.383 43.9773 326.92 43.9773C327.481 43.9773 327.949 43.8295 328.324 43.5341C328.703 43.2348 328.987 42.8333 329.176 42.3295C329.369 41.822 329.466 41.2576 329.466 40.6364C329.466 40.0227 329.371 39.4697 329.182 38.9773C328.996 38.4811 328.714 38.089 328.335 37.8011C327.96 37.5095 327.489 37.3636 326.92 37.3636C326.375 37.3636 325.917 37.5019 325.545 37.7784C325.174 38.0511 324.894 38.4337 324.705 38.9261C324.515 39.4148 324.42 39.9848 324.42 40.6364Z" fill="#9879FF" fill-opacity="0.51"/>
</svg>
