<svg width="542" height="80" viewBox="0 0 542 80" fill="none" xmlns="http://www.w3.org/2000/svg">
<mask id="path-1-inside-1_62_20269" fill="white">
<path d="M0 4C0 1.79086 1.79086 0 4 0H538C540.209 0 542 1.79086 542 4V76C542 78.2091 540.209 80 538 80H4C1.79086 80 0 78.2091 0 76V4Z"/>
</mask>
<path d="M0 4C0 1.79086 1.79086 0 4 0H538C540.209 0 542 1.79086 542 4V76C542 78.2091 540.209 80 538 80H4C1.79086 80 0 78.2091 0 76V4Z" fill="url(#paint0_linear_62_20269)"/>
<path d="M4 1H538V-1H4V1ZM541 4V76H543V4H541ZM538 79H4V81H538V79ZM1 76V4H-1V76H1ZM4 79C2.34314 79 1 77.6569 1 76H-1C-1 78.7614 1.23857 81 4 81V79ZM541 76C541 77.6569 539.657 79 538 79V81C540.761 81 543 78.7614 543 76H541ZM538 1C539.657 1 541 2.34314 541 4H543C543 1.23858 540.761 -1 538 -1V1ZM4 -1C1.23858 -1 -1 1.23858 -1 4H1C1 2.34315 2.34315 1 4 1V-1Z" fill="url(#paint1_linear_62_20269)" mask="url(#path-1-inside-1_62_20269)"/>
<rect x="24.4346" y="20.0479" width="65.3258" height="38" rx="19" fill="white"/>
<path d="M110.988 44.5479V35.8206H112.329V44.5479H110.988ZM111.67 34.366C111.408 34.366 111.183 34.277 110.994 34.099C110.808 33.921 110.715 33.7069 110.715 33.4569C110.715 33.2069 110.808 32.9929 110.994 32.8149C111.183 32.6369 111.408 32.5479 111.67 32.5479C111.931 32.5479 112.155 32.6369 112.34 32.8149C112.53 32.9929 112.624 33.2069 112.624 33.4569C112.624 33.7069 112.53 33.921 112.34 34.099C112.155 34.277 111.931 34.366 111.67 34.366ZM116.126 39.2979V44.5479H114.785V35.8206H116.08V37.1842H116.194C116.399 36.741 116.709 36.385 117.126 36.116C117.542 35.8433 118.08 35.7069 118.739 35.7069C119.33 35.7069 119.847 35.8282 120.291 36.0706C120.734 36.3092 121.078 36.6729 121.325 37.1615C121.571 37.6463 121.694 38.26 121.694 39.0024V44.5479H120.353V39.0933C120.353 38.4077 120.175 37.8736 119.819 37.491C119.463 37.1047 118.974 36.9115 118.353 36.9115C117.925 36.9115 117.542 37.0043 117.205 37.1899C116.872 37.3755 116.609 37.6463 116.416 38.0024C116.222 38.3585 116.126 38.7903 116.126 39.2979ZM130.968 35.8206L127.741 44.5479H126.377L123.15 35.8206H124.604L127.014 42.7751H127.104L129.514 35.8206H130.968ZM132.738 44.5479V35.8206H134.079V44.5479H132.738ZM133.42 34.366C133.158 34.366 132.933 34.277 132.744 34.099C132.558 33.921 132.465 33.7069 132.465 33.4569C132.465 33.2069 132.558 32.9929 132.744 32.8149C132.933 32.6369 133.158 32.5479 133.42 32.5479C133.681 32.5479 133.905 32.6369 134.09 32.8149C134.28 32.9929 134.374 33.2069 134.374 33.4569C134.374 33.7069 134.28 33.921 134.09 34.099C133.905 34.277 133.681 34.366 133.42 34.366ZM140.33 35.8206V36.9569H135.808V35.8206H140.33ZM137.126 33.7297H138.467V42.0479C138.467 42.4266 138.522 42.7107 138.631 42.9001C138.745 43.0857 138.889 43.2107 139.063 43.2751C139.241 43.3357 139.429 43.366 139.626 43.366C139.774 43.366 139.895 43.3585 139.989 43.3433C140.084 43.3244 140.16 43.3092 140.217 43.2979L140.489 44.5024C140.399 44.5365 140.272 44.5706 140.109 44.6047C139.946 44.6425 139.739 44.6615 139.489 44.6615C139.111 44.6615 138.739 44.58 138.376 44.4172C138.016 44.2543 137.717 44.0062 137.478 43.6729C137.243 43.3395 137.126 42.9191 137.126 42.4115V33.7297ZM145.913 44.7297C145.072 44.7297 144.346 44.5441 143.737 44.1729C143.131 43.7979 142.663 43.2751 142.333 42.6047C142.007 41.9304 141.845 41.1463 141.845 40.2524C141.845 39.3585 142.007 38.5706 142.333 37.8888C142.663 37.2032 143.121 36.6691 143.708 36.2865C144.299 35.9001 144.988 35.7069 145.776 35.7069C146.231 35.7069 146.68 35.7827 147.123 35.9342C147.566 36.0857 147.97 36.3319 148.333 36.6729C148.697 37.01 148.987 37.4569 149.203 38.0138C149.418 38.5706 149.526 39.2562 149.526 40.0706V40.6388H142.799V39.4797H148.163C148.163 38.9872 148.064 38.5479 147.867 38.1615C147.674 37.7751 147.398 37.4702 147.038 37.2467C146.682 37.0232 146.261 36.9115 145.776 36.9115C145.242 36.9115 144.78 37.0441 144.39 37.3092C144.004 37.5706 143.706 37.9115 143.498 38.3319C143.29 38.7524 143.185 39.2032 143.185 39.6842V40.4569C143.185 41.116 143.299 41.6747 143.526 42.1331C143.757 42.5876 144.078 42.9342 144.487 43.1729C144.896 43.4077 145.371 43.5251 145.913 43.5251C146.265 43.5251 146.583 43.4759 146.867 43.3774C147.155 43.2751 147.403 43.1236 147.612 42.9229C147.82 42.7183 147.981 42.4645 148.095 42.1615L149.39 42.5251C149.254 42.9645 149.024 43.3509 148.703 43.6842C148.381 44.0138 147.983 44.2713 147.509 44.4569C147.036 44.6388 146.504 44.7297 145.913 44.7297ZM156.566 38.9342V40.1842H151.475V38.9342H156.566ZM162.721 35.8206V36.9569H158.198V35.8206H162.721ZM159.516 33.7297H160.857V42.0479C160.857 42.4266 160.912 42.7107 161.022 42.9001C161.136 43.0857 161.28 43.2107 161.454 43.2751C161.632 43.3357 161.819 43.366 162.016 43.366C162.164 43.366 162.285 43.3585 162.38 43.3433C162.475 43.3244 162.551 43.3092 162.607 43.2979L162.88 44.5024C162.789 44.5365 162.662 44.5706 162.499 44.6047C162.337 44.6425 162.13 44.6615 161.88 44.6615C161.501 44.6615 161.13 44.58 160.766 44.4172C160.407 44.2543 160.107 44.0062 159.869 43.6729C159.634 43.3395 159.516 42.9191 159.516 42.4115V33.7297ZM168.303 44.7297C167.462 44.7297 166.737 44.5441 166.127 44.1729C165.521 43.7979 165.053 43.2751 164.724 42.6047C164.398 41.9304 164.235 41.1463 164.235 40.2524C164.235 39.3585 164.398 38.5706 164.724 37.8888C165.053 37.2032 165.512 36.6691 166.099 36.2865C166.69 35.9001 167.379 35.7069 168.167 35.7069C168.622 35.7069 169.07 35.7827 169.514 35.9342C169.957 36.0857 170.36 36.3319 170.724 36.6729C171.087 37.01 171.377 37.4569 171.593 38.0138C171.809 38.5706 171.917 39.2562 171.917 40.0706V40.6388H165.19V39.4797H170.553C170.553 38.9872 170.455 38.5479 170.258 38.1615C170.065 37.7751 169.788 37.4702 169.428 37.2467C169.072 37.0232 168.652 36.9115 168.167 36.9115C167.633 36.9115 167.171 37.0441 166.781 37.3092C166.394 37.5706 166.097 37.9115 165.889 38.3319C165.68 38.7524 165.576 39.2032 165.576 39.6842V40.4569C165.576 41.116 165.69 41.6747 165.917 42.1331C166.148 42.5876 166.468 42.9342 166.877 43.1729C167.286 43.4077 167.762 43.5251 168.303 43.5251C168.656 43.5251 168.974 43.4759 169.258 43.3774C169.546 43.2751 169.794 43.1236 170.002 42.9229C170.211 42.7183 170.372 42.4645 170.485 42.1615L171.781 42.5251C171.644 42.9645 171.415 43.3509 171.093 43.6842C170.771 44.0138 170.373 44.2713 169.9 44.4569C169.426 44.6388 168.894 44.7297 168.303 44.7297ZM176.525 44.7524C175.972 44.7524 175.47 44.6482 175.019 44.4399C174.569 44.2278 174.211 43.9229 173.945 43.5251C173.68 43.1236 173.548 42.6388 173.548 42.0706C173.548 41.5706 173.646 41.1653 173.843 40.8547C174.04 40.5403 174.303 40.2941 174.633 40.116C174.962 39.938 175.326 39.8054 175.724 39.7183C176.125 39.6274 176.529 39.5554 176.934 39.5024C177.464 39.4342 177.894 39.3831 178.224 39.349C178.557 39.3111 178.8 39.2486 178.951 39.1615C179.106 39.0744 179.184 38.9229 179.184 38.7069V38.6615C179.184 38.1009 179.031 37.6653 178.724 37.3547C178.421 37.0441 177.961 36.8888 177.343 36.8888C176.703 36.8888 176.201 37.0289 175.837 37.3092C175.474 37.5895 175.218 37.8888 175.07 38.2069L173.798 37.7524C174.025 37.2221 174.328 36.8092 174.707 36.5138C175.089 36.2145 175.506 36.0062 175.957 35.8888C176.411 35.7675 176.858 35.7069 177.298 35.7069C177.578 35.7069 177.9 35.741 178.264 35.8092C178.631 35.8736 178.985 36.0081 179.326 36.2126C179.671 36.4172 179.957 36.7259 180.184 37.1388C180.411 37.5516 180.525 38.1047 180.525 38.7979V44.5479H179.184V43.366H179.116C179.025 43.5554 178.873 43.7581 178.661 43.974C178.449 44.1899 178.167 44.3736 177.815 44.5251C177.462 44.6766 177.033 44.7524 176.525 44.7524ZM176.729 43.5479C177.26 43.5479 177.707 43.4437 178.07 43.2354C178.438 43.027 178.714 42.7581 178.9 42.4285C179.089 42.099 179.184 41.7524 179.184 41.3888V40.1615C179.127 40.2297 179.002 40.2922 178.809 40.349C178.62 40.402 178.4 40.4494 178.15 40.491C177.904 40.5289 177.663 40.563 177.428 40.5933C177.197 40.6198 177.01 40.6425 176.866 40.6615C176.517 40.7069 176.192 40.7808 175.889 40.8831C175.589 40.9816 175.347 41.1312 175.161 41.3319C174.979 41.5289 174.889 41.7979 174.889 42.1388C174.889 42.6047 175.061 42.9569 175.406 43.1956C175.754 43.4304 176.195 43.5479 176.729 43.5479ZM182.972 44.5479V35.8206H184.268V37.1842H184.381C184.563 36.7183 184.857 36.3566 185.262 36.099C185.667 35.8376 186.154 35.7069 186.722 35.7069C187.298 35.7069 187.777 35.8376 188.16 36.099C188.546 36.3566 188.847 36.7183 189.063 37.1842H189.154C189.378 36.7335 189.713 36.3755 190.16 36.1104C190.607 35.8414 191.143 35.7069 191.768 35.7069C192.548 35.7069 193.186 35.9513 193.683 36.4399C194.179 36.9247 194.427 37.6804 194.427 38.7069V44.5479H193.086V38.7069C193.086 38.063 192.91 37.6028 192.558 37.3263C192.205 37.0497 191.791 36.9115 191.313 36.9115C190.7 36.9115 190.224 37.0971 189.887 37.4683C189.55 37.8357 189.381 38.3016 189.381 38.866V44.5479H188.018V38.5706C188.018 38.0744 187.857 37.6747 187.535 37.3717C187.213 37.0649 186.798 36.9115 186.291 36.9115C185.942 36.9115 185.616 37.0043 185.313 37.1899C185.014 37.3755 184.772 37.6331 184.586 37.9626C184.404 38.2884 184.313 38.6653 184.313 39.0933V44.5479H182.972ZM201.879 38.9342V40.1842H196.788V38.9342H201.879ZM204.238 44.5479V35.8206H205.533V37.1842H205.647C205.829 36.7183 206.122 36.3566 206.528 36.099C206.933 35.8376 207.42 35.7069 207.988 35.7069C208.564 35.7069 209.043 35.8376 209.426 36.099C209.812 36.3566 210.113 36.7183 210.329 37.1842H210.42C210.643 36.7335 210.979 36.3755 211.426 36.1104C211.872 35.8414 212.408 35.7069 213.033 35.7069C213.814 35.7069 214.452 35.9513 214.948 36.4399C215.444 36.9247 215.693 37.6804 215.693 38.7069V44.5479H214.352V38.7069C214.352 38.063 214.176 37.6028 213.823 37.3263C213.471 37.0497 213.056 36.9115 212.579 36.9115C211.965 36.9115 211.49 37.0971 211.153 37.4683C210.816 37.8357 210.647 38.3016 210.647 38.866V44.5479H209.283V38.5706C209.283 38.0744 209.122 37.6747 208.801 37.3717C208.479 37.0649 208.064 36.9115 207.556 36.9115C207.208 36.9115 206.882 37.0043 206.579 37.1899C206.28 37.3755 206.037 37.6331 205.852 37.9626C205.67 38.2884 205.579 38.6653 205.579 39.0933V44.5479H204.238ZM221.803 44.7297C220.962 44.7297 220.237 44.5441 219.627 44.1729C219.021 43.7979 218.553 43.2751 218.224 42.6047C217.898 41.9304 217.735 41.1463 217.735 40.2524C217.735 39.3585 217.898 38.5706 218.224 37.8888C218.553 37.2032 219.012 36.6691 219.599 36.2865C220.19 35.9001 220.879 35.7069 221.667 35.7069C222.122 35.7069 222.57 35.7827 223.014 35.9342C223.457 36.0857 223.86 36.3319 224.224 36.6729C224.587 37.01 224.877 37.4569 225.093 38.0138C225.309 38.5706 225.417 39.2562 225.417 40.0706V40.6388H218.69V39.4797H224.053C224.053 38.9872 223.955 38.5479 223.758 38.1615C223.565 37.7751 223.288 37.4702 222.928 37.2467C222.572 37.0232 222.152 36.9115 221.667 36.9115C221.133 36.9115 220.671 37.0441 220.281 37.3092C219.894 37.5706 219.597 37.9115 219.389 38.3319C219.18 38.7524 219.076 39.2032 219.076 39.6842V40.4569C219.076 41.116 219.19 41.6747 219.417 42.1331C219.648 42.5876 219.968 42.9342 220.377 43.1729C220.786 43.4077 221.262 43.5251 221.803 43.5251C222.156 43.5251 222.474 43.4759 222.758 43.3774C223.046 43.2751 223.294 43.1236 223.502 42.9229C223.711 42.7183 223.872 42.4645 223.985 42.1615L225.281 42.5251C225.144 42.9645 224.915 43.3509 224.593 43.6842C224.271 44.0138 223.873 44.2713 223.4 44.4569C222.926 44.6388 222.394 44.7297 221.803 44.7297ZM227.457 44.5479V35.8206H228.752V37.1842H228.866C229.048 36.7183 229.341 36.3566 229.747 36.099C230.152 35.8376 230.639 35.7069 231.207 35.7069C231.783 35.7069 232.262 35.8376 232.644 36.099C233.031 36.3566 233.332 36.7183 233.548 37.1842H233.639C233.862 36.7335 234.197 36.3755 234.644 36.1104C235.091 35.8414 235.627 35.7069 236.252 35.7069C237.033 35.7069 237.671 35.9513 238.167 36.4399C238.663 36.9247 238.911 37.6804 238.911 38.7069V44.5479H237.57V38.7069C237.57 38.063 237.394 37.6028 237.042 37.3263C236.69 37.0497 236.275 36.9115 235.798 36.9115C235.184 36.9115 234.709 37.0971 234.372 37.4683C234.034 37.8357 233.866 38.3016 233.866 38.866V44.5479H232.502V38.5706C232.502 38.0744 232.341 37.6747 232.019 37.3717C231.697 37.0649 231.283 36.9115 230.775 36.9115C230.426 36.9115 230.101 37.0043 229.798 37.1899C229.498 37.3755 229.256 37.6331 229.07 37.9626C228.889 38.2884 228.798 38.6653 228.798 39.0933V44.5479H227.457ZM241.545 44.5479V32.9115H242.886V37.2069H242.999C243.098 37.0554 243.234 36.8622 243.408 36.6274C243.586 36.3888 243.84 36.1766 244.17 35.991C244.503 35.8016 244.954 35.7069 245.522 35.7069C246.257 35.7069 246.905 35.8907 247.465 36.2581C248.026 36.6255 248.463 37.1463 248.778 37.8206C249.092 38.4948 249.249 39.2903 249.249 40.2069C249.249 41.1312 249.092 41.9323 248.778 42.6104C248.463 43.2846 248.028 43.8073 247.471 44.1785C246.914 44.546 246.272 44.7297 245.545 44.7297C244.984 44.7297 244.535 44.6369 244.198 44.4513C243.861 44.2619 243.602 44.0479 243.42 43.8092C243.238 43.5668 243.098 43.366 242.999 43.2069H242.84V44.5479H241.545ZM242.863 40.1842C242.863 40.8433 242.96 41.4247 243.153 41.9285C243.346 42.4285 243.628 42.8206 243.999 43.1047C244.371 43.385 244.825 43.5251 245.363 43.5251C245.924 43.5251 246.391 43.3774 246.766 43.0819C247.145 42.7827 247.429 42.3812 247.619 41.8774C247.812 41.3698 247.908 40.8054 247.908 40.1842C247.908 39.5706 247.814 39.0175 247.624 38.5251C247.439 38.0289 247.157 37.6369 246.778 37.349C246.403 37.0573 245.931 36.9115 245.363 36.9115C244.818 36.9115 244.359 37.0497 243.988 37.3263C243.617 37.599 243.336 37.9816 243.147 38.474C242.958 38.9626 242.863 39.5327 242.863 40.1842ZM254.96 44.7297C254.119 44.7297 253.393 44.5441 252.783 44.1729C252.177 43.7979 251.71 43.2751 251.38 42.6047C251.054 41.9304 250.891 41.1463 250.891 40.2524C250.891 39.3585 251.054 38.5706 251.38 37.8888C251.71 37.2032 252.168 36.6691 252.755 36.2865C253.346 35.9001 254.035 35.7069 254.823 35.7069C255.278 35.7069 255.727 35.7827 256.17 35.9342C256.613 36.0857 257.016 36.3319 257.38 36.6729C257.744 37.01 258.033 37.4569 258.249 38.0138C258.465 38.5706 258.573 39.2562 258.573 40.0706V40.6388H251.846V39.4797H257.21C257.21 38.9872 257.111 38.5479 256.914 38.1615C256.721 37.7751 256.444 37.4702 256.085 37.2467C255.729 37.0232 255.308 36.9115 254.823 36.9115C254.289 36.9115 253.827 37.0441 253.437 37.3092C253.051 37.5706 252.753 37.9115 252.545 38.3319C252.336 38.7524 252.232 39.2032 252.232 39.6842V40.4569C252.232 41.116 252.346 41.6747 252.573 42.1331C252.804 42.5876 253.124 42.9342 253.533 43.1729C253.943 43.4077 254.418 43.5251 254.96 43.5251C255.312 43.5251 255.63 43.4759 255.914 43.3774C256.202 43.2751 256.45 43.1236 256.658 42.9229C256.867 42.7183 257.028 42.4645 257.141 42.1615L258.437 42.5251C258.301 42.9645 258.071 43.3509 257.749 43.6842C257.427 44.0138 257.03 44.2713 256.556 44.4569C256.083 44.6388 255.551 44.7297 254.96 44.7297ZM260.613 44.5479V35.8206H261.908V37.1388H261.999C262.158 36.7069 262.446 36.3566 262.863 36.0876C263.28 35.8187 263.749 35.6842 264.272 35.6842C264.371 35.6842 264.494 35.6861 264.641 35.6899C264.789 35.6937 264.901 35.6994 264.977 35.7069V37.0706C264.931 37.0592 264.827 37.0422 264.664 37.0194C264.505 36.9929 264.337 36.9797 264.158 36.9797C263.734 36.9797 263.355 37.0687 263.022 37.2467C262.693 37.421 262.431 37.6634 262.238 37.974C262.049 38.2808 261.954 38.6312 261.954 39.0251V44.5479H260.613ZM270.926 38.9342V40.1842H265.835V38.9342H270.926ZM276.58 44.7297C275.853 44.7297 275.211 44.546 274.654 44.1785C274.097 43.8073 273.662 43.2846 273.347 42.6104C273.033 41.9323 272.876 41.1312 272.876 40.2069C272.876 39.2903 273.033 38.4948 273.347 37.8206C273.662 37.1463 274.099 36.6255 274.66 36.2581C275.22 35.8907 275.868 35.7069 276.603 35.7069C277.171 35.7069 277.62 35.8016 277.95 35.991C278.283 36.1766 278.537 36.3888 278.711 36.6274C278.889 36.8622 279.027 37.0554 279.126 37.2069H279.239V32.9115H280.58V44.5479H279.285V43.2069H279.126C279.027 43.366 278.887 43.5668 278.705 43.8092C278.524 44.0479 278.264 44.2619 277.927 44.4513C277.59 44.6369 277.141 44.7297 276.58 44.7297ZM276.762 43.5251C277.3 43.5251 277.755 43.385 278.126 43.1047C278.497 42.8206 278.779 42.4285 278.972 41.9285C279.166 41.4247 279.262 40.8433 279.262 40.1842C279.262 39.5327 279.167 38.9626 278.978 38.474C278.789 37.9816 278.508 37.599 278.137 37.3263C277.766 37.0497 277.308 36.9115 276.762 36.9115C276.194 36.9115 275.72 37.0573 275.342 37.349C274.967 37.6369 274.685 38.0289 274.495 38.5251C274.31 39.0175 274.217 39.5706 274.217 40.1842C274.217 40.8054 274.311 41.3698 274.501 41.8774C274.694 42.3812 274.978 42.7827 275.353 43.0819C275.732 43.3774 276.202 43.5251 276.762 43.5251ZM286.881 44.7297C286.041 44.7297 285.315 44.5441 284.705 44.1729C284.099 43.7979 283.631 43.2751 283.302 42.6047C282.976 41.9304 282.813 41.1463 282.813 40.2524C282.813 39.3585 282.976 38.5706 283.302 37.8888C283.631 37.2032 284.09 36.6691 284.677 36.2865C285.268 35.9001 285.957 35.7069 286.745 35.7069C287.2 35.7069 287.649 35.7827 288.092 35.9342C288.535 36.0857 288.938 36.3319 289.302 36.6729C289.666 37.01 289.955 37.4569 290.171 38.0138C290.387 38.5706 290.495 39.2562 290.495 40.0706V40.6388H283.768V39.4797H289.131C289.131 38.9872 289.033 38.5479 288.836 38.1615C288.643 37.7751 288.366 37.4702 288.006 37.2467C287.65 37.0232 287.23 36.9115 286.745 36.9115C286.211 36.9115 285.749 37.0441 285.359 37.3092C284.972 37.5706 284.675 37.9115 284.467 38.3319C284.258 38.7524 284.154 39.2032 284.154 39.6842V40.4569C284.154 41.116 284.268 41.6747 284.495 42.1331C284.726 42.5876 285.046 42.9342 285.455 43.1729C285.864 43.4077 286.34 43.5251 286.881 43.5251C287.234 43.5251 287.552 43.4759 287.836 43.3774C288.124 43.2751 288.372 43.1236 288.58 42.9229C288.789 42.7183 288.95 42.4645 289.063 42.1615L290.359 42.5251C290.222 42.9645 289.993 43.3509 289.671 43.6842C289.349 44.0138 288.952 44.2713 288.478 44.4569C288.005 44.6388 287.472 44.7297 286.881 44.7297ZM298.717 37.7751L297.512 38.116C297.436 37.9153 297.325 37.7202 297.177 37.5308C297.033 37.3376 296.836 37.1785 296.586 37.0535C296.336 36.9285 296.016 36.866 295.626 36.866C295.092 36.866 294.647 36.9891 294.291 37.2354C293.938 37.4778 293.762 37.7865 293.762 38.1615C293.762 38.4948 293.883 38.7581 294.126 38.9513C294.368 39.1444 294.747 39.3054 295.262 39.4342L296.558 39.7524C297.338 39.9418 297.919 40.2316 298.302 40.6217C298.685 41.0081 298.876 41.5062 298.876 42.116C298.876 42.616 298.732 43.063 298.444 43.4569C298.16 43.8509 297.762 44.1615 297.251 44.3888C296.739 44.616 296.145 44.7297 295.467 44.7297C294.577 44.7297 293.84 44.5365 293.256 44.1501C292.673 43.7638 292.304 43.1994 292.149 42.4569L293.421 42.1388C293.542 42.6085 293.772 42.9607 294.109 43.1956C294.45 43.4304 294.895 43.5479 295.444 43.5479C296.069 43.5479 296.565 43.4153 296.933 43.1501C297.304 42.8812 297.489 42.5592 297.489 42.1842C297.489 41.8812 297.383 41.6274 297.171 41.4229C296.959 41.2145 296.633 41.0592 296.194 40.9569L294.739 40.616C293.94 40.4266 293.353 40.1331 292.978 39.7354C292.607 39.3338 292.421 38.8319 292.421 38.2297C292.421 37.7372 292.56 37.3016 292.836 36.9229C293.116 36.5441 293.497 36.2467 293.978 36.0308C294.463 35.8149 295.012 35.7069 295.626 35.7069C296.489 35.7069 297.167 35.8963 297.66 36.2751C298.156 36.6539 298.508 37.1539 298.717 37.7751ZM302.144 41.366L302.122 39.7069H302.394L306.212 35.8206H307.872L303.803 39.9342H303.69L302.144 41.366ZM300.894 44.5479V32.9115H302.235V44.5479H300.894ZM306.44 44.5479L303.031 40.2297L303.985 39.2979L308.144 44.5479H306.44ZM313.393 35.8206V36.9569H308.87V35.8206H313.393ZM310.188 33.7297H311.529V42.0479C311.529 42.4266 311.584 42.7107 311.694 42.9001C311.808 43.0857 311.952 43.2107 312.126 43.2751C312.304 43.3357 312.491 43.366 312.688 43.366C312.836 43.366 312.957 43.3585 313.052 43.3433C313.147 43.3244 313.222 43.3092 313.279 43.2979L313.552 44.5024C313.461 44.5365 313.334 44.5706 313.171 44.6047C313.008 44.6425 312.802 44.6615 312.552 44.6615C312.173 44.6615 311.802 44.58 311.438 44.4172C311.078 44.2543 310.779 44.0062 310.541 43.6729C310.306 43.3395 310.188 42.9191 310.188 42.4115V33.7297ZM318.862 44.7297C318.074 44.7297 317.382 44.5422 316.788 44.1672C316.197 43.7922 315.735 43.2675 315.401 42.5933C315.072 41.9191 314.907 41.1312 314.907 40.2297C314.907 39.3206 315.072 38.527 315.401 37.849C315.735 37.171 316.197 36.6444 316.788 36.2694C317.382 35.8944 318.074 35.7069 318.862 35.7069C319.649 35.7069 320.339 35.8944 320.93 36.2694C321.524 36.6444 321.987 37.171 322.316 37.849C322.649 38.527 322.816 39.3206 322.816 40.2297C322.816 41.1312 322.649 41.9191 322.316 42.5933C321.987 43.2675 321.524 43.7922 320.93 44.1672C320.339 44.5422 319.649 44.7297 318.862 44.7297ZM318.862 43.5251C319.46 43.5251 319.953 43.3717 320.339 43.0649C320.725 42.7581 321.011 42.3547 321.197 41.8547C321.382 41.3547 321.475 40.813 321.475 40.2297C321.475 39.6463 321.382 39.1028 321.197 38.599C321.011 38.0952 320.725 37.688 320.339 37.3774C319.953 37.0668 319.46 36.9115 318.862 36.9115C318.263 36.9115 317.771 37.0668 317.384 37.3774C316.998 37.688 316.712 38.0952 316.526 38.599C316.341 39.1028 316.248 39.6463 316.248 40.2297C316.248 40.813 316.341 41.3547 316.526 41.8547C316.712 42.3547 316.998 42.7581 317.384 43.0649C317.771 43.3717 318.263 43.5251 318.862 43.5251ZM324.863 47.8206V35.8206H326.158V37.2069H326.318C326.416 37.0554 326.552 36.8622 326.727 36.6274C326.905 36.3888 327.158 36.1766 327.488 35.991C327.821 35.8016 328.272 35.7069 328.84 35.7069C329.575 35.7069 330.223 35.8907 330.783 36.2581C331.344 36.6255 331.782 37.1463 332.096 37.8206C332.41 38.4948 332.568 39.2903 332.568 40.2069C332.568 41.1312 332.41 41.9323 332.096 42.6104C331.782 43.2846 331.346 43.8073 330.789 44.1785C330.232 44.546 329.59 44.7297 328.863 44.7297C328.302 44.7297 327.854 44.6369 327.516 44.4513C327.179 44.2619 326.92 44.0479 326.738 43.8092C326.556 43.5668 326.416 43.366 326.318 43.2069H326.204V47.8206H324.863ZM326.181 40.1842C326.181 40.8433 326.278 41.4247 326.471 41.9285C326.664 42.4285 326.946 42.8206 327.318 43.1047C327.689 43.385 328.143 43.5251 328.681 43.5251C329.242 43.5251 329.71 43.3774 330.085 43.0819C330.463 42.7827 330.747 42.3812 330.937 41.8774C331.13 41.3698 331.227 40.8054 331.227 40.1842C331.227 39.5706 331.132 39.0175 330.943 38.5251C330.757 38.0289 330.475 37.6369 330.096 37.349C329.721 37.0573 329.249 36.9115 328.681 36.9115C328.136 36.9115 327.677 37.0497 327.306 37.3263C326.935 37.599 326.655 37.9816 326.465 38.474C326.276 38.9626 326.181 39.5327 326.181 40.1842Z" fill="#2400B7" fill-opacity="0.66"/>
<path d="M54.0981 39.0479C54.0981 30.2113 61.2616 23.0479 70.0981 23.0479H70.6762C79.5128 23.0479 86.6762 30.2113 86.6762 39.0479C86.6762 47.8844 79.5128 55.0479 70.6762 55.0479H70.0981C61.2616 55.0479 54.0981 47.8844 54.0981 39.0479Z" fill="url(#paint2_radial_62_20269)"/>
<path d="M57.2007 39C57.2007 31.8203 63.021 26 70.2007 26H70.6704C77.8501 26 83.6704 31.8203 83.6704 39C83.6704 46.1797 77.8501 52 70.6704 52H70.2007C63.021 52 57.2007 46.1797 57.2007 39Z" fill="url(#paint3_linear_62_20269)"/>
<defs>
<linearGradient id="paint0_linear_62_20269" x1="271" y1="0" x2="271" y2="80" gradientUnits="userSpaceOnUse">
<stop stop-color="#4400EE" stop-opacity="0.06"/>
<stop offset="1" stop-color="#4300FF" stop-opacity="0.11"/>
</linearGradient>
<linearGradient id="paint1_linear_62_20269" x1="58.913" y1="2.5" x2="477.503" y2="213.416" gradientUnits="userSpaceOnUse">
<stop stop-color="#4400EE" stop-opacity="0.06"/>
<stop offset="1" stop-color="#3600FF" stop-opacity="0.15"/>
</linearGradient>
<radialGradient id="paint2_radial_62_20269" cx="0" cy="0" r="1" gradientUnits="userSpaceOnUse" gradientTransform="translate(60.764 30.5002) rotate(68.5939) scale(26.3664 26.717)">
<stop stop-color="#C2B5F5"/>
<stop offset="1" stop-color="#654DC4"/>
</radialGradient>
<linearGradient id="paint3_linear_62_20269" x1="33.7365" y1="21.5" x2="85.4793" y2="61.3917" gradientUnits="userSpaceOnUse">
<stop stop-color="#654DC4"/>
<stop offset="0.926373" stop-color="#C2B5F5"/>
</linearGradient>
</defs>
</svg>
