<svg xmlns="http://www.w3.org/2000/svg" width="542" height="80" fill="none">
  <path stroke="#3600FF" stroke-opacity=".15" d="M.5 4A3.5 3.5 0 0 1 4 .5h534a3.5 3.5 0 0 1 3.5 3.5v72a3.5 3.5 0 0 1-3.5 3.5H4A3.5 3.5 0 0 1 .5 76V4Z"/>
  <rect width="63.476" height="37" x="24.678" y="20.5" stroke="#3600FF" stroke-opacity=".15" rx="18.5"/>
  <path fill="#D4CAFE" d="M27.13 39.048c0-8.837 7.283-16 16.12-16 8.836 0 16.118 7.163 16.118 16 0 8.836-7.282 16-16.119 16s-16.119-7.164-16.119-16Z"/>
  <path fill="#D4CAFE" d="M30.193 39c0-7.18 5.917-13 13.096-13 7.18 0 13.097 5.82 13.097 13S50.47 52 43.29 52s-13.096-5.82-13.096-13Z"/>
</svg>
