<svg xmlns="http://www.w3.org/2000/svg" width="542" height="80" fill="none">
  <path stroke="#845FFD" stroke-opacity=".37" d="M.5 4A3.5 3.5 0 0 1 4 .5h534a3.5 3.5 0 0 1 3.5 3.5v72a3.5 3.5 0 0 1-3.5 3.5H4A3.5 3.5 0 0 1 .5 76V4Z"/>
  <rect width="63" height="37" x="24.5" y="20.5" stroke="#845FFD" stroke-opacity=".37" rx="18.5"/>
  <path fill="#473876" d="M26.93 39.048c0-8.837 7.163-16 16-16s16 7.163 16 16c0 8.836-7.163 16-16 16s-16-7.164-16-16Z"/>
  <path fill="#473876" d="M29.97 39c0-7.18 5.82-13 13-13s13 5.82 13 13-5.82 13-13 13-13-5.82-13-13Z"/>
</svg>
