<svg width="384" height="80" viewBox="0 0 384 80" fill="none" xmlns="http://www.w3.org/2000/svg">
<mask id="path-1-inside-1_2247_6514" fill="white">
<path d="M0 8C0 3.58172 3.58172 0 8 0H384V80H7.99999C3.58171 80 0 76.4183 0 72V8Z"/>
</mask>
<path d="M0 8C0 3.58172 3.58172 0 8 0H384V80H7.99999C3.58171 80 0 76.4183 0 72V8Z" fill="url(#paint0_linear_2247_6514)"/>
<path d="M-1 8C-1 3.02944 3.02944 -1 8 -1H384V1H8C4.13401 1 1 4.13401 1 8H-1ZM384 81H8C3.02944 81 -1 76.9706 -1 72H1C1 75.866 4.13401 79 8 79H384V81ZM8 81C3.02944 81 -1 76.9706 -1 72V8C-1 3.02944 3.02944 -1 8 -1V1C4.13401 1 1 4.13401 1 8V72C1 75.866 4.13401 79 8 79V81ZM384 0V80V0Z" fill="url(#paint1_linear_2247_6514)" mask="url(#path-1-inside-1_2247_6514)"/>
<g filter="url(#filter0_d_2247_6514)">
<path d="M23.9375 39.0476C23.9375 28.5279 32.4654 20 42.9851 20H68.8899C79.4096 20 87.9375 28.5279 87.9375 39.0476C87.9375 49.5673 79.4096 58.0952 68.8899 58.0952H42.9851C32.4654 58.0952 23.9375 49.5673 23.9375 39.0476Z" fill="white"/>
</g>
<path d="M26.9297 39.0476C26.9297 30.234 34.0745 23.0476 42.8881 23.0476C51.7017 23.0476 58.8466 30.234 58.8466 39.0476C58.8466 47.8612 51.7017 55.0476 42.8881 55.0476C34.0745 55.0476 26.9297 47.8612 26.9297 39.0476Z" fill="url(#paint2_radial_2247_6514)"/>
<path d="M29.9697 39C29.9697 31.8389 35.7749 26 42.936 26C50.097 26 55.9022 31.8389 55.9022 39C55.9022 46.1611 50.097 52 42.936 52C35.7749 52 29.9697 46.1611 29.9697 39Z" fill="url(#paint3_linear_2247_6514)"/>
<defs>
<filter id="filter0_d_2247_6514" x="15.9375" y="20" width="161.906" height="54.0952" filterUnits="userSpaceOnUse" color-interpolation-filters="sRGB">
<feFlood flood-opacity="0" result="BackgroundImageFix"/>
<feColorMatrix in="SourceAlpha" type="matrix" values="0 0 0 0 0 0 0 0 0 0 0 0 0 0 0 0 0 0 127 0" result="hardAlpha"/>
<feOffset dy="8"/>
<feGaussianBlur stdDeviation="4"/>
<feComposite in2="hardAlpha" operator="out"/>
<feColorMatrix type="matrix" values="0 0 0 0 0.482353 0 0 0 0 0.270588 0 0 0 0 0.917647 0 0 0 0.1 0"/>
<feBlend mode="normal" in2="BackgroundImageFix" result="effect1_dropShadow_2247_6514"/>
<feBlend mode="normal" in="SourceGraphic" in2="effect1_dropShadow_2247_6514" result="shape"/>
</filter>
<linearGradient id="paint0_linear_2247_6514" x1="192" y1="0" x2="192" y2="80" gradientUnits="userSpaceOnUse">
<stop stop-color="white" stop-opacity="0.74"/>
<stop offset="1" stop-color="white" stop-opacity="0"/>
</linearGradient>
<linearGradient id="paint1_linear_2247_6514" x1="41.7391" y1="2.5" x2="371.566" y2="120.244" gradientUnits="userSpaceOnUse">
<stop stop-color="white"/>
<stop offset="1" stop-color="#7B45EA" stop-opacity="0.15"/>
</linearGradient>
<radialGradient id="paint2_radial_2247_6514" cx="0" cy="0" r="1" gradientUnits="userSpaceOnUse" gradientTransform="translate(33.4603 30.5) rotate(68.9901) scale(26.2958 26.2451)">
<stop stop-color="#FBFAFF"/>
<stop offset="1" stop-color="#CACBD4"/>
</radialGradient>
<linearGradient id="paint3_linear_2247_6514" x1="6.98174" y1="21.5" x2="58.4453" y2="60.3712" gradientUnits="userSpaceOnUse">
<stop stop-color="#AFB1C1"/>
<stop offset="0.926373" stop-color="#F3F5F9"/>
</linearGradient>
</defs>
</svg>
