<svg width="384" height="80" viewBox="0 0 384 80" fill="none" xmlns="http://www.w3.org/2000/svg">
<mask id="path-1-inside-1_2247_6529" fill="white">
<path d="M0 8C0 3.58172 3.58172 0 8 0H384V80H7.99999C3.58171 80 0 76.4183 0 72V8Z"/>
</mask>
<path d="M0 8C0 3.58172 3.58172 0 8 0H384V80H7.99999C3.58171 80 0 76.4183 0 72V8Z" fill="url(#paint0_linear_2247_6529)"/>
<path d="M0 8C0 3.58172 3.58172 0 8 0H384V80H7.99999C3.58171 80 0 76.4183 0 72V8Z" fill="url(#paint1_linear_2247_6529)"/>
<path d="M-1 8C-1 3.02944 3.02944 -1 8 -1H384V1H8C4.13401 1 1 4.13401 1 8H-1ZM384 81H8C3.02944 81 -1 76.9706 -1 72H1C1 75.866 4.13401 79 8 79H384V81ZM8 81C3.02944 81 -1 76.9706 -1 72V8C-1 3.02944 3.02944 -1 8 -1V1C4.13401 1 1 4.13401 1 8V72C1 75.866 4.13401 79 8 79V81ZM384 0V80V0Z" fill="url(#paint2_linear_2247_6529)" mask="url(#path-1-inside-1_2247_6529)"/>
<g filter="url(#filter0_dd_2247_6529)">
<path d="M23.938 39.0476C23.938 28.5279 32.4659 20 42.9856 20H68.8904C79.4101 20 87.938 28.5279 87.938 39.0476C87.938 49.5673 79.4101 58.0952 68.8904 58.0952H42.9856C32.4659 58.0952 23.938 49.5673 23.938 39.0476Z" fill="white" shape-rendering="crispEdges"/>
<path d="M52.8901 39.0476C52.8901 30.2111 60.0536 23.0476 68.8901 23.0476C77.7267 23.0476 84.8901 30.2111 84.8901 39.0476C84.8901 47.8842 77.7267 55.0476 68.8901 55.0476C60.0536 55.0476 52.8901 47.8842 52.8901 39.0476Z" fill="url(#paint3_radial_2247_6529)"/>
</g>
<path d="M55.8545 39C55.8545 31.8389 61.6597 26 68.8207 26C75.9818 26 81.787 31.8389 81.787 39C81.787 46.1611 75.9818 52 68.8207 52C61.6597 52 55.8545 46.1611 55.8545 39Z" fill="url(#paint4_linear_2247_6529)"/>
<defs>
<filter id="filter0_dd_2247_6529" x="15.938" y="15" width="80" height="54.0952" filterUnits="userSpaceOnUse" color-interpolation-filters="sRGB">
<feFlood flood-opacity="0" result="BackgroundImageFix"/>
<feColorMatrix in="SourceAlpha" type="matrix" values="0 0 0 0 0 0 0 0 0 0 0 0 0 0 0 0 0 0 127 0" result="hardAlpha"/>
<feOffset dy="2"/>
<feGaussianBlur stdDeviation="1.5"/>
<feComposite in2="hardAlpha" operator="out"/>
<feColorMatrix type="matrix" values="0 0 0 0 0.482353 0 0 0 0 0.270588 0 0 0 0 0.917647 0 0 0 0.1 0"/>
<feBlend mode="normal" in2="BackgroundImageFix" result="effect1_dropShadow_2247_6529"/>
<feColorMatrix in="SourceAlpha" type="matrix" values="0 0 0 0 0 0 0 0 0 0 0 0 0 0 0 0 0 0 127 0" result="hardAlpha"/>
<feOffset dy="3"/>
<feGaussianBlur stdDeviation="4"/>
<feComposite in2="hardAlpha" operator="out"/>
<feColorMatrix type="matrix" values="0 0 0 0 0.482353 0 0 0 0 0.270588 0 0 0 0 0.917647 0 0 0 0.2 0"/>
<feBlend mode="normal" in2="effect1_dropShadow_2247_6529" result="effect2_dropShadow_2247_6529"/>
<feBlend mode="normal" in="SourceGraphic" in2="effect2_dropShadow_2247_6529" result="shape"/>
</filter>
<linearGradient id="paint0_linear_2247_6529" x1="192" y1="0" x2="192" y2="80" gradientUnits="userSpaceOnUse">
<stop stop-color="white" stop-opacity="0.74"/>
<stop offset="1" stop-color="white" stop-opacity="0"/>
</linearGradient>
<linearGradient id="paint1_linear_2247_6529" x1="192" y1="40" x2="384" y2="40" gradientUnits="userSpaceOnUse">
<stop stop-color="white" stop-opacity="0"/>
<stop offset="1" stop-color="#7B45EA" stop-opacity="0.2"/>
</linearGradient>
<linearGradient id="paint2_linear_2247_6529" x1="41.7391" y1="2.5" x2="371.566" y2="120.244" gradientUnits="userSpaceOnUse">
<stop stop-color="white"/>
<stop offset="1" stop-color="#7B45EA" stop-opacity="0.15"/>
</linearGradient>
<radialGradient id="paint3_radial_2247_6529" cx="0" cy="0" r="1" gradientUnits="userSpaceOnUse" gradientTransform="translate(59.4378 30.5) rotate(68.9401) scale(26.3046)">
<stop stop-color="#DAAAFF" stop-opacity="0.53"/>
<stop offset="1" stop-color="#6B38D4"/>
</radialGradient>
<linearGradient id="paint4_linear_2247_6529" x1="55.8545" y1="28.5" x2="93.3642" y2="69.9029" gradientUnits="userSpaceOnUse">
<stop stop-color="#9D74F2"/>
<stop offset="0.840479" stop-color="#7B45EA"/>
</linearGradient>
</defs>
</svg>
