<svg xmlns="http://www.w3.org/2000/svg" width="1749" height="321" viewBox="0 0 1749 321">
  <defs>
    <style>
      .cls-1 {
        fill: #029dd1;
      }

      .cls-1, .cls-2, .cls-3 {
        fill-rule: evenodd;
      }

      .cls-2 {
        fill: #0047bd;
      }

      .cls-3 {
        fill: #4817a1;
      }
    </style>
  </defs>
  <g id="logo_mark" data-name="logo mark">
    <path id="book3" class="cls-1" d="M102.259,122.286l167.413-94.2s-15.783,13.884-15.089,43.938c0.74,32.029,15.089,43.939,15.089,43.939L250,107,96,167.287s-3.739-10.476-3.8-18.372C92.041,129.435,102.259,122.286,102.259,122.286Z"/>
    <path id="book2" class="cls-2" d="M66.644,183.868l182.91-66.908s-15.783,13.884-15.089,43.939c0.74,32.029,15.089,43.938,15.089,43.938L224,195,59.827,227.317s-3.184-9.656-3.242-16.82C56.427,191.016,66.644,183.868,66.644,183.868Z"/>
    <g id="book_1" data-name="book 1">
      <path id="book1" class="cls-3" d="M31.059,238.127l192.988-34.621s-15.783,13.884-15.089,43.938c0.74,32.029,15.089,43.939,15.089,43.939H32.5S21.168,284.5,21,263.756C20.842,244.275,31.059,238.127,31.059,238.127Z"/>
    </g>
  </g>
  <path id="GrowthBook_text" data-name="GrowthBook text" class="cls-1" d="M318.391,191.727c0,55.742,41.867,92.281,93.335,92.281,30.934,0,55.734-12.8,73.334-32.271V185.06H400.792v27.471H453.86v27.737c-8,7.468-24,16-42.134,16-35.2,0-61.334-27.205-61.334-64.544s26.133-64.276,61.334-64.276a56.633,56.633,0,0,1,46.134,23.737l25.6-14.4c-14.4-20.537-37.067-37.072-71.734-37.072C360.258,99.714,318.391,135.986,318.391,191.727Zm190.374,88.814h28V192.794c5.6-9.068,21.334-17.069,33.067-17.069a41.294,41.294,0,0,1,8.8.8V148.788c-16.8,0-32.267,9.6-41.867,21.87V151.721h-28v128.82Zm142.652,3.2c41.334,0,66.4-30.671,66.4-67.743,0-36.806-25.067-67.477-66.4-67.477-40.8,0-66.135,30.671-66.135,67.477C585.282,253.07,610.616,283.741,651.417,283.741Zm0-24.8c-23.734,0-37.068-20-37.068-42.94,0-22.67,13.334-42.673,37.068-42.673,24,0,37.333,20,37.333,42.673C688.75,238.935,675.417,258.938,651.417,258.938Zm198.913,21.6h29.334l40-128.82H890.6l-27.2,93.615L832.73,151.721H808.2l-30.667,93.615-27.2-93.615H721.262l40,128.82H790.6l29.867-94.414Zm119.439,3.2c13.067,0,21.333-3.467,26.4-8.268L989.5,254.4c-2.133,2.4-7.2,4.534-12.533,4.534-8,0-12.267-6.4-12.267-15.2V176.258h26.134V151.721H964.7v-35.2h-28v35.205H915.368v24.537H936.7V250.67C936.7,272.006,948.169,283.741,969.769,283.741Zm125.581-3.2h28.01V189.327c0-26.4-13.87-40.806-41.61-40.806-20.26,0-37.06,10.668-45.6,20.8V102.647h-28V280.541h28v-89.88c6.67-8.8,18.94-17.336,33.07-17.336,15.73,0,26.13,6.134,26.13,26.137v81.079Zm57.05,0h89.87c33.33,0,51.73-20.537,51.73-48.007,0-21.87-15.47-40.807-34.4-43.74,16.53-3.467,30.93-18.4,30.93-40.806,0-25.071-18.13-45.341-50.66-45.341H1152.4V280.541Zm31.2-104.283v-46.14h49.87c16,0,25.06,9.868,25.06,23.2s-9.06,22.936-25.06,22.936H1183.6Zm0,76.812V203.729h51.2c17.87,0,27.2,11.2,27.2,24.537,0,15.469-10.13,24.8-27.2,24.8h-51.2Zm190.91,30.671c41.33,0,66.4-30.671,66.4-67.743,0-36.806-25.07-67.477-66.4-67.477-40.8,0-66.14,30.671-66.14,67.477C1308.37,253.07,1333.71,283.741,1374.51,283.741Zm0-24.8c-23.73,0-37.07-20-37.07-42.94,0-22.67,13.34-42.673,37.07-42.673,24,0,37.33,20,37.33,42.673C1411.84,238.935,1398.51,258.938,1374.51,258.938Zm144.78,24.8c41.33,0,66.4-30.671,66.4-67.743,0-36.806-25.07-67.477-66.4-67.477-40.8,0-66.14,30.671-66.14,67.477C1453.15,253.07,1478.49,283.741,1519.29,283.741Zm0-24.8c-23.74,0-37.07-20-37.07-42.94,0-22.67,13.33-42.673,37.07-42.673,24,0,37.33,20,37.33,42.673C1556.62,238.935,1543.29,258.938,1519.29,258.938Zm171.98,21.6h35.2L1671.8,210.13l53.6-58.409h-34.66l-56.81,62.143V102.647h-28V280.541h28V245.869l17.87-18.4Z"/>
</svg>
