<?xml version="1.0" encoding="utf-8"?>
<!-- Generator: Adobe Illustrator 24.0.0, SVG Export Plug-In . SVG Version: 6.00 Build 0)  -->
<svg version="1.1" xmlns="http://www.w3.org/2000/svg" xmlns:xlink="http://www.w3.org/1999/xlink" x="0px" y="0px"
	 viewBox="0 0 150 150" style="enable-background:new 0 0 150 150;" xml:space="preserve">
<style type="text/css">
	.st0{fill:none;}
	.st1{fill:#377FC1;}
</style>
<g id="logosandtypes_com">
</g>
<g id="Layer_3">
	<path class="st0" d="M0,0h150v150H0V0z"/>
</g>
<g id="Layer_2">
</g>
<g id="dermira">
</g>
<g id="delifrance">
</g>
<g id="Layer_1">
</g>
<g id="fundacion_comillas">
</g>
<g id="replay_app">
</g>
<g id="alitalia">
</g>
<g id="arfadia">
</g>
<g id="actively_learn">
</g>
<g id="Alemite">
</g>
<g id="Amplitude">
	<path class="st1" d="M74.9,7.3c-36.5,0-66,29.6-66,66s29.6,66,66,66s66-29.6,66-66S111.3,7.3,74.9,7.3z M120.3,74.5
		c-0.5,0-0.9,0.1-1.4,0.1c-10,0-20,0.1-30,0.1c-0.3,0-0.6,0-1,0c0.1,0,0.1,0.7,0.2,1c1.3,5.3,2.6,10.6,4,15.8c0.9,3.3,2,6.4,3.4,9.5
		c0.5,1.1,1.2,2.1,1.9,3.2c0.2,0.4,0.6,0.7,0.8,1c1.5,1.6,3.5,1.4,4.9,0.5c0.8-0.5,1.4-1.2,1.9-1.9c1-1.4,1.8-3,2.4-4.6
		c1.6-4.3,3.2-8.6,4.8-12.9c0.5-1.3,0.9-2.6,1.4-3.9c0.3-0.9,0.7-1.1,1.3-1c0.6,0.2,0.7,0.6,0.5,1.5c-1,3.9-1.9,7.8-3,11.6
		c-1,3.7-2.1,7.3-3.8,10.8c-1.1,2.2-2.3,4.3-4.1,6c-1,0.9-2,1.7-3.3,2.1c-2.6,1-5,0.5-7.1-1.4c-1.5-1.3-2.6-2.9-3.5-4.6
		c-1.4-2.5-2.5-5.2-3.5-7.9c-2.5-6.7-4.4-13.4-6.2-20.3c-0.4-1.5-0.8-3.3-1.2-4.5c-9.9,0-19.8,0-29.7,0c-0.1,0-0.2,0.5-0.3,0.7
		c-1.9,5.9-3.7,11.8-5.5,17.7c-0.4,1.2-1.3,1.9-2.4,1.9c-1,0-2-0.7-2.3-1.7c-0.1-0.3-0.1-0.7-0.1-1.1c0.9-5,1.9-10.2,2.8-15.2
		c0.2-0.9,0.4-1.7,0.6-2.9c-0.4,0-0.7,0-1,0c-3.8,0-7.5,0.2-11.3,0.2c-1.6,0-3.6-1-4-3.2c-0.4-2.2,1.2-4.3,3.4-4.5
		c0.5,0,0.9,0,1.4,0c3.8,0.1,7.7,0.1,11.5,0.2c0.5,0,1.1,0,1.7,0c0.3-1.1,0.6-2.3,0.9-3.4c1.6-6,3.3-11.9,5.6-17.7
		c1.5-3.8,3.2-7.5,5.5-10.9c1.2-1.8,2.5-3.4,4.2-4.7c1.4-1.1,2.9-1.9,4.7-2c1.4-0.1,2.7,0.3,3.9,1.1c1.2,0.8,2.1,1.8,3,2.9
		c1.9,2.5,3.3,5.2,4.6,8c2.6,5.7,4.5,11.6,6.2,17.5c0.9,3.1,1.8,6.2,2.6,9.3c0,0.2,0.1,0.3,0.1,0.5c0.2,0,0.3,0.1,0.4,0.1
		c2.3,0.1,4.5,0.1,6.8,0.2c5.3,0.2,10.6,0.3,16,0.5c3.6,0.2,7.2,0.4,10.8,0.6c1.6,0.1,2.6,0.9,2.9,2.3
		C123.1,72.7,122,74.4,120.3,74.5z"/>
	<path class="st1" d="M71.3,47.4c-0.8-2.3-1.7-4.5-2.9-6.6c-0.2-0.4-0.5-0.7-0.7-1c-0.5-0.6-1.2-0.7-1.9-0.4
		c-0.3,0.1-0.7,0.4-0.9,0.6c-0.7,0.9-1.5,1.8-2.1,2.7c-1.3,2.1-2.3,4.3-3.2,6.6C57.3,55.1,55.5,61,54,67c0,0.2-0.1,0.4-0.1,0.6
		c7.9,0.1,15.7,0.2,23.6,0.3c-0.2-0.7-0.3-1.2-0.5-1.8C75.3,59.8,73.5,53.5,71.3,47.4z"/>
</g>
<g id="Aceleradora_Aranda_Emprende">
</g>
<g id="Armstrong_Downes_Commercial">
</g>
</svg>
