<svg xmlns:xlink="http://www.w3.org/1999/xlink" xmlns="http://www.w3.org/2000/svg" version="1.1" viewBox="0 0 92.96000000000001 125" style="max-height: 500px" width="92.96000000000001" height="125">
    
    <title>Black</title>
    <desc>Created with Sketch.</desc>
    <g fill-rule="evenodd" fill="none" stroke-width="1" stroke="none" id="Black">
        <g fill-rule="nonzero" id="Freshpaint-LOGO-SVG">
            <g fill="#FFFFFF" transform="translate(153.000000, 23.000000)" id="Group">
                <polygon points="0.325729167 59.9641509 0.325729167 0.684339623 42.9576042 0.684339623 42.9576042 11.4611321 11.5125 11.4611321 11.5125 27.6635849 41.2594792 27.6635849 41.2594792 38.0081132 11.5125 38.0081132 11.5125 59.9790566 0.325729167 59.9790566" id="Path"/>
                <path id="Path" d="M59.4621875,18.1537736 L60.221875,22.9832075 C63.439375,17.8109434 67.7591667,17.0507547 72.0044792,17.0507547 C76.3242708,17.0507547 80.4802083,18.75 82.7741667,21.030566 L78.1117708,30.0186792 C75.9965625,28.2449057 74.0452083,27.3058491 70.6489583,27.3058491 C65.226875,27.3058491 60.221875,30.1975472 60.221875,37.9037736 L60.221875,59.9492453 L49.8841667,59.9492453 L49.8841667,18.1388679 L59.4621875,18.1388679 L59.4621875,18.1537736 Z"/>
                <path id="Shape" d="M95.4803125,42.7481132 C96.150625,47.9203774 100.649167,51.6616981 107.933229,51.6616981 C111.746562,51.6616981 116.751562,50.2158491 119.12,47.7564151 L125.73375,54.2850943 C121.324583,58.8611321 114.129896,61.0671698 107.769375,61.0671698 C93.3651042,61.0671698 84.8,52.1684906 84.8,38.7683019 C84.8,26.0537736 93.4395833,16.8867925 107.009687,16.8867925 C120.996875,16.8867925 129.725833,25.5320755 128.117083,42.7481132 L95.4803125,42.7481132 L95.4803125,42.7481132 Z M118.181562,34.1922642 C117.51125,28.7666038 113.265937,26.0537736 107.337396,26.0537736 C101.751458,26.0537736 97.1635417,28.7666038 95.6441667,34.1922642 L118.181562,34.1922642 Z"/>
                <path id="Path" d="M163.345729,29.2733962 C160.381458,26.4711321 156.985208,25.5469811 153.008021,25.5469811 C148.092396,25.5469811 145.381354,27.0673585 145.381354,29.7056604 C145.381354,32.4184906 147.839167,33.9388679 153.171875,34.2816981 C161.051771,34.7884906 171.061771,36.5771698 171.061771,47.6818868 C171.061771,55.0601887 165.043854,61.4249057 153.097396,61.4249057 C146.483646,61.4249057 139.869896,60.3218868 133.7775,53.9571698 L138.856979,46.5788679 C141.82125,49.8879245 148.598854,52.3473585 153.26125,52.4367925 C157.163958,52.5262264 160.798542,50.4841509 160.798542,47.4284906 C160.798542,44.5516981 158.430104,43.3592453 152.486667,43.0164151 C144.606771,42.4201887 135.192604,39.5433962 135.192604,30.0335849 C135.192604,20.3598113 145.187708,16.9762264 152.814375,16.9762264 C159.33875,16.9762264 164.254375,18.2432075 169.080625,22.4913208 L163.345729,29.2733962 Z"/>
                <path id="Path" d="M187.998333,0.59490566 L187.998333,23.8328302 C191.722292,19.0033962 196.295313,17.5575472 201.047083,17.5575472 C212.919063,17.5575472 218.162396,25.6215094 218.162396,37.9186792 L218.162396,59.9641509 L207.824688,59.9641509 L207.824688,37.9932075 C207.824688,30.3615094 203.8475,27.1418868 198.336042,27.1418868 C192.22875,27.1418868 187.998333,32.3141509 187.998333,38.589434 L187.998333,59.9641509 L177.660625,59.9641509 L177.660625,0.59490566 L187.998333,0.59490566 L187.998333,0.59490566 Z"/>
                <path id="Shape" d="M226.891354,77.4335849 L226.891354,18.1537736 L236.55875,18.1537736 L237.243958,23.9222642 C240.461458,19.2567925 246.062292,17.2296226 250.799167,17.2296226 C263.684063,17.2296226 272.234271,26.8139623 272.234271,39.1111321 C272.234271,51.3188679 264.518229,60.9926415 251.126875,60.9926415 C246.717708,60.9926415 240.193333,59.6362264 237.229063,55.0601887 L237.229063,77.4484906 L226.891354,77.4484906 L226.891354,77.4335849 Z M261.896563,39.1111321 C261.896563,32.5824528 257.487396,27.2313208 250.024583,27.2313208 C242.561771,27.2313208 238.152604,32.5675472 238.152604,39.1111321 C238.152604,45.654717 242.978854,50.9909434 250.024583,50.9909434 C257.070313,50.9909434 261.896563,45.6398113 261.896563,39.1111321 Z"/>
                <path id="Shape" d="M312.989271,18.1537736 L322.909896,18.1537736 L322.909896,59.9641509 L313.168021,59.9641509 L312.661563,53.8528302 C310.293125,58.7716981 303.76875,61.1416981 299.106354,61.2311321 C286.727917,61.320566 277.581875,53.6888679 277.581875,39.0067925 C277.581875,24.5930189 287.159896,17.0358491 299.359583,17.125283 C304.960417,17.125283 310.293125,19.7486792 312.661563,23.9073585 L312.989271,18.1537736 Z M287.904687,39.0216981 C287.904687,46.9962264 293.416146,51.7362264 300.283125,51.7362264 C316.549375,51.7362264 316.549375,26.3816981 300.283125,26.3816981 C293.416146,26.3816981 287.904687,31.0471698 287.904687,39.0216981 Z"/>
                <path id="Shape" d="M342.900104,6.36339623 C342.900104,14.4124528 330.700403,14.4124528 330.700403,6.36339623 C330.685521,-1.68566038 342.900104,-1.68566038 342.900104,6.36339623 Z M331.623958,17.9898113 L331.623958,59.9641509 L341.961667,59.9641509 L341.961667,17.9898113 L331.623958,17.9898113 Z"/>
                <path id="Path" d="M382.046354,59.9641509 L382.046354,38.0826415 C382.046354,31.7179245 378.575625,26.8884906 371.961875,26.8884906 C365.601354,26.8884906 361.281562,32.224717 361.281562,38.589434 L361.281562,59.9641509 L351.033229,59.9641509 L351.033229,18.0643396 L360.268646,18.0643396 L360.953854,23.7433962 C365.184271,19.584717 369.429583,17.4681132 374.687812,17.4681132 C384.519062,17.4681132 392.398958,24.8464151 392.398958,37.9932075 L392.398958,59.9641509 L382.046354,59.9641509 Z"/>
                <path id="Path" d="M414.072396,6.36339623 L414.072396,18.2432075 L425.601771,18.2432075 L425.601771,27.1418868 L413.983021,27.1418868 L413.983021,45.2075472 C413.983021,49.1873585 416.187604,51.14 419.405104,51.14 C421.013854,51.14 422.875833,50.6332075 424.410104,49.8730189 L427.285,58.6971698 C424.320729,59.8896226 421.862917,60.3964151 418.719896,60.4709434 C409.648333,60.8137736 403.719792,55.6415094 403.719792,45.2075472 L403.719792,27.1418868 L395.914375,27.1418868 L395.914375,18.2432075 L403.719792,18.2432075 L403.719792,7.46641509 L414.072396,6.36339623 Z"/>
            </g>
            <g id="Group">
                <path fill="#EE5757" id="Path" d="M0.238412698,75.1636905 L0.238412698,48.8244048 C0.238412698,47.485119 1.32761905,46.4136905 2.65555556,46.4136905 L32.392381,46.4136905 C33.7352381,46.4136905 34.8095238,47.5 34.8095238,48.8244048 L34.8095238,75.1636905 C34.8095238,76.5029762 33.7203175,77.5744048 32.392381,77.5744048 L2.65555556,77.5744048 C1.31269841,77.5744048 0.238412698,76.4880952 0.238412698,75.1636905 Z"/>
                <path fill="#61DABF" id="Path" d="M34.8244444,94.375 L34.8244444,121.369048 C34.8244444,122.693452 33.7501587,123.779762 32.4222222,123.779762 L2.68539683,124.04777 C1.34253968,124.0625 0.238412698,122.97619 0.238412698,121.636905 L0.238412698,94.360119 C0.238412698,93.0208333 1.32761905,91.9494048 2.65555556,91.9494048 L32.392381,91.9494048 C33.7352381,91.9642857 34.8244444,93.0505952 34.8244444,94.375 Z"/>
                <path fill="#EE5757" id="Path" d="M91.9107937,2.61904762 C91.9107937,1.2797619 90.8215873,0.208333333 89.4936508,0.208333333 L84.3460317,0.208333333 L50.1479365,0.208333333 L34.8244444,0.208333333 L2.65555556,0.208333333 C1.31269841,0.208333333 0.238412698,1.29464286 0.238412698,2.61904762 L0.238412698,29.5982143 C0.238412698,30.9375 1.32761905,32.0089286 2.65555556,32.0089286 L50.1479365,32.0089286 L89.4787302,32.0089286 C90.8215873,32.0089286 91.895873,30.922619 91.895873,29.5982143 L91.895873,2.61904762 L91.9107937,2.61904762 Z"/>
                <path fill="#61DABF" id="Path" d="M91.9107937,48.8244048 C91.9107937,47.485119 90.8215873,46.4136905 89.4936508,46.4136905 L84.3460317,46.4136905 L52.5650794,46.4136905 C51.2222222,46.4136905 50.1479365,47.5 50.1479365,48.8244048 L50.1479365,75.1636905 C50.1479365,76.5029762 51.2371429,77.5744048 52.5650794,77.5744048 L84.3311111,77.5744048 L89.4787302,77.5744048 C90.8215873,77.5744048 91.895873,76.4880952 91.895873,75.1636905 L91.895873,48.8244048 L91.9107937,48.8244048 Z"/>
            </g>
        </g>
    </g>
</svg>