<?xml version="1.0" encoding="UTF-8"?>
<svg id="logosandtypes_com" data-name="logosandtypes com" xmlns="http://www.w3.org/2000/svg" viewBox="0 0 150 150">
  <defs>
    <style>
      .cls-1 {
        fill: #f38334;
      }

      .cls-2 {
        fill: #95c748;
      }

      .cls-3 {
        fill: #3152a0;
      }

      .cls-4 {
        fill: none;
      }

      .cls-5 {
        fill: #35bfc0;
      }
    </style>
  </defs>
  <path class="cls-4" d="M0,0H150V150H0V0Z"/>
  <path class="cls-2" d="M145.34,82.62l-.41-.57c-.08-.08-.16-.16-.16-.24l-26.14-39.82-33.79,25.08,24.83,38.11,.33,.49,.16,.16c6.68,9.61,19.87,12.05,29.48,5.37,9.2-6.35,11.81-19.05,5.7-28.58"/>
  <path class="cls-1" d="M121.81,53.06c0-11.73-9.45-21.17-21.17-21.17s-21.17,9.45-21.17,21.17,9.45,21.17,21.17,21.17h.08c11.64,0,21.09-9.45,21.09-21.17"/>
  <path class="cls-3" d="M100.64,74.23c-7.17,0-13.76-3.58-17.67-9.53l-16.12-22.72c-6.11-9.93-19.13-13.03-29.07-7-2.85,1.79-5.21,4.15-6.92,7L5.21,81.88c6.51-9.69,34.12-1.71,35.66,.9l16.77,23.45c6.92,9.45,20.11,11.48,29.48,4.56,1.79-1.3,3.26-2.85,4.56-4.56l.16-.24,1.22-1.79,25.08-39.17c-3.91,5.78-10.5,9.2-17.51,9.2M4.64,82.7l.49-.73-.49,.73Z"/>
  <path class="cls-5" d="M43.89,93.69c0-11.73-9.45-21.17-21.17-21.17S1.55,82.05,1.55,93.69s9.45,21.17,21.17,21.17h0c11.73,0,21.17-9.45,21.17-21.17"/>
</svg>