<svg xmlns="http://www.w3.org/2000/svg" viewBox="0 0 140.548 142.57668711656441" fill="none" style="max-height: 500px" width="140.548" height="142.57668711656441">
  <path fill="#105ed5" d="m0 6.66667c0-3.68189 2.98477-6.66667 6.66667-6.66667h129.33333c2.209 0 4 1.79086 4 4v129.333c0 3.682-2.985 6.667-6.667 6.667-73.6376 0-133.333-59.6954-133.333-133.33333z"/>
  <g fill="#2e2e2e">
    <path d="m189.439 63.562c-1.049-.1237-.655-1.237-.262-2.2266 1.049-2.9688 1.311-5.0718 1.311-7.4221v-3.9481c0-.5523-.448-1-1-1h-8.488c-.552 0-1 .4477-1 1v61.3358c0 .552.448 1 1 1h8.488c.552 0 1-.448 1-1v-31.2866c0-16.2684 5.43-22.8854 24.097-21.9561.576.0287 1.074-.4273 1.074-1.0045v-8.0782c0-.5523-.457-1.0006-1.009-.9947-16.046.1721-19.533 4.5317-23.9 14.5915-.262.4949-.524 1.1133-1.311.9896z"/>
    <path d="m249.254 113c12.204 0 21.225-8.412 23.481-14.7206.132-.3709.663-1.1133 1.459-.8658 1.061.3714.398 1.4844 0 2.4739-1.062 2.5975-1.327 4.5775-1.327 6.8035v4.32c0 .552.448 1 1 1h8.613c.552 0 1-.448 1-1v-61.3361c0-.5523-.448-1-1-1h-8.613c-.552 0-1 .4477-1 1v30.544c0 15.0917-11.276 24.3691-21.624 24.3691-9.418 0-16.582-4.082-16.582-18.8024v-36.1107c0-.5523-.448-1-1-1h-8.612c-.553 0-1 .4477-1 1v36.6055c0 18.5556 9.551 26.7196 25.205 26.7196z"/>
    <path d="m346.59 27c-.552 0-1 .4477-1 1v24.8219c0 2.2567.266 4.388 1.193 6.8954.398 1.1283 1.193 2.2567 0 2.6327-.795.2508-1.325-.8775-1.458-1.2536-3.048-8.6506-11.93-14.2923-22.799-14.2923-17.63 0-29.957 14.0415-29.957 33.0979 0 19.0565 12.327 33.098 29.957 33.098 10.604 0 19.618-5.516 22.799-14.5433.133-.3759.663-1.3789 1.591-1.0028.795.3759.397 1.3788 0 2.3824-1.06 2.7577-1.326 4.5137-1.326 6.6447v4.516c0 .552.448 1 1 1h8.605c.552 0 1-.448 1-1v-82.997c0-.5523-.448-1-1-1zm-22.473 76.974c-13.786 0-20.943-11.0334-20.943-24.072s7.157-24.0712 20.943-24.0712c12.593 0 21.473 11.0326 21.473 24.0712s-8.88 24.072-21.473 24.072z"/>
    <path d="m418.14 27c-.552 0-1 .4477-1 1v24.8219c0 2.2567.26 4.388 1.167 6.8954.389 1.1283 1.167 2.2567 0 2.6327-.777.2508-1.296-.8775-1.426-1.2536-2.981-8.6506-11.668-14.2923-22.298-14.2923-17.242 0-29.299 14.0415-29.299 33.0979 0 19.0565 12.057 33.098 29.299 33.098 10.371 0 19.187-5.516 22.298-14.5433.13-.3759.649-1.3789 1.556-1.0028.778.3759.389 1.3788 0 2.3824-1.037 2.7577-1.297 4.5137-1.297 6.6447v4.516c0 .552.448 1 1 1h8.372c.552 0 1-.448 1-1v-82.997c0-.5523-.448-1-1-1zm-22.001 76.974c-13.483 0-20.483-11.0334-20.483-24.072s7-24.0712 20.483-24.0712c12.316 0 21.001 11.0326 21.001 24.0712s-8.685 24.072-21.001 24.072z"/>
    <path d="m500.227 78.6405c0-21.6748-15.596-30.6649-30.514-30.6649-19.258 0-32.412 13.1773-32.412 32.5121 0 17.3649 11.527 32.5123 32.683 32.5123 16.427 0 25.835-10.356 28.707-20.4562.177-.6194-.3-1.2187-.944-1.2187h-9.417c-.428 0-.806.2726-.954.6738-2.516 6.8218-7.398 12.1341-16.985 12.1341-13.395 0-21.45-9.4703-22.438-20.1347-.053-.569.404-1.0475.976-1.0475h50.142c.506 0 .933-.3768.983-.8797.096-.9678.173-2.1291.173-3.4306zm-29.7-22.2906c10.508 0 17.454 6.7001 18.743 17.6391.069.5805-.393 1.0801-.977 1.0801h-38.717c-.609 0-1.078-.5409-.971-1.1404 1.752-9.8129 7.687-17.5788 21.922-17.5788z"/>
    <path d="m548.22 49.1981c.127-.6325-.358-1.223-1.003-1.2153-3.524.0423-6.472.2671-8.972.6882-3.138.5282-5.571 1.3654-7.555 2.5386-3.986 2.3574-6.161 6.0716-8.592 11.3627-.019.033-.038.0666-.056.1005-.262.4736-.555 1.0045-1.333.8891-1.11-.1237-.694-1.237-.277-2.2267 1.11-2.9688 1.387-5.0717 1.387-7.422v-3.9261c0-.5644-.457-1.0221-1.022-1.0221h-9.06c-.564 0-1.022.4577-1.022 1.0222v61.2918c0 .564.458 1.022 1.022 1.022h9.06c.565 0 1.022-.458 1.022-1.022v-31.2647c0-9.1624 1.824-15.2634 6.948-18.6791 2.391-1.5935 5.5-2.6026 9.478-3.0654 2.178-.2534 4.617-.343 7.341-.275.502.0125.942-.3343 1.04-.8258z"/>
    <path d="m553.714 90.34c-.57 0-1.027.4789-.98 1.0475 1.102 13.3055 11.238 21.6125 27.771 21.6125 17.091 0 28.097-7.759 28.097-20.5665 0-10.0985-9.841-14.7782-25.508-16.6255-16.961-1.9704-18.127-6.0345-18.127-9.6059 0-4.1872 4.014-9.8522 15.538-9.8522 11.544 0 15.167 5.6504 15.841 11.3817.062.5237.495.9336 1.022.9336h8.212c.582 0 1.043-.4964.975-1.0747-1.339-11.2812-9.971-19.6149-25.662-19.6149-17.091 0-26.284 9.9753-26.284 19.458 0 8.2513 7.38 14.9014 21.623 16.5024 17.609 1.9705 22.011 4.1872 22.011 10.3448 0 4.064-4.014 10.3442-17.22 10.3442-12.82 0-17.66-6.8081-18.207-13.3059-.045-.5429-.486-.9791-1.031-.9791z"/>
    <path d="m650.23 47.8059c.564 0 1.022.4576 1.022 1.0221v6.5215c0 .5645-.458 1.0221-1.022 1.0221h-12.639c-.564 0-1.022.4576-1.022 1.0221v36.7678c0 7.3065 1.573 9.5735 8.915 9.5735 2.118 0 4.028-.302 5.479-.632.577-.131 1.16.229 1.277.809l1.088 5.443c.091.453-.132.911-.554 1.098-1.381.61-4.068 1.609-7.29 1.848-13.858 1.026-19.403-3.905-19.403-18.8953v-36.012c0-.5645-.457-1.0221-1.022-1.0221h-10.541c-.565 0-1.022-.4576-1.022-1.0221v-6.5215c0-.5645.457-1.0221 1.022-1.0221h10.541c.565 0 1.022-.4576 1.022-1.0221v-16.8483c0-.4872.344-.9067.822-1.0023l8.444-1.6887c.632-.1265 1.222.3572 1.222 1.0022v18.5371c0 .5645.458 1.0221 1.022 1.0221z"/>
    <path d="m658.244 94.404c0 10.837 10.335 18.596 22.549 18.596 12.616 0 22.951-6.158 26.575-16.133.134-.4926.537-1.3547 1.342-1.1084 1.074.2463.671 1.3547.268 2.3397-.939 2.5867-1.342 4.4337-1.342 6.8967v6.02c0 .552.448 1 1 1h8.738c.552 0 1-.448 1-1v-34.9607c0-23.1527-12.751-28.0787-28.186-28.0787-14.345 0-26.661 5.4636-29.566 18.5369-.135.6059.337 1.1674.958 1.1674h8.433c.489 0 .901-.3547 1.016-.8302 1.299-5.3752 6.596-10.4998 18.085-10.4998 15.704 0 18.388 6.8965 18.522 11.8226.135 7.0197-12.616 6.0345-25.233 7.0197-12.079.9852-24.159 5.2955-24.159 19.2118zm47.381-16.036c.785-.4634 1.979.0838 1.922.9931-.996 15.8254-10.086 24.2119-22.325 25.2639-11.14.986-16.241-4.8022-16.241-10.8368 0-6.5271 5.369-9.3595 13.691-10.5911 9.029-1.3807 18.057-1.9371 22.953-4.8291z"/>
    <path d="m727.463 80.4877c0 17.8571 12.338 32.5123 32.589 32.5123 17.561 0 27.93-10.891 29.517-22.5593.079-.5819-.384-1.086-.971-1.086h-8.513c-.493 0-.909.359-1.006.8414-1.624 8.0678-7.998 13.9369-18.759 13.9369-15.288 0-22.128-10.8374-22.128-23.6453 0-12.8078 6.84-23.6451 22.128-23.6451 10.761 0 17.135 5.8694 18.759 13.9369.097.4824.513.8413 1.006.8413h8.513c.587 0 1.05-.5041.97-1.0859-1.594-11.668-12.085-22.5593-29.516-22.5593-20.653 0-32.589 14.6551-32.589 32.5121z"/>
    <path d="m855.355 112.301c.851 0 1.313-.997.763-1.647l-29.839-35.2329c-.349-.4124-.308-1.0278.094-1.3894l27.108-24.4072c.681-.6132.247-1.7431-.669-1.7431h-10.895c-.258 0-.506.0998-.692.2785l-31.039 29.7922c-.524.5033-1.055 1.1324-1.706.6291-.786-.5033-.262-1.2582.262-1.8873 1.968-2.5164 2.619-4.6553 2.619-7.9266v-40.7673c0-.5523-.448-1-1-1h-8.483c-.552 0-1 .4477-1 1v83.301c0 .552.448 1 1 1h8.483c.552 0 1-.448 1-1v-23.3438c0-.282.119-.551.328-.7405l6.239-5.6628c.424-.3849 1.084-.3357 1.447.1079l24.728 30.2712c.19.233.474.368.774.368z"/>
  </g>
</svg>