<svg xmlns="http://www.w3.org/2000/svg" fill="none" viewBox="0 0 67.2 60.800000000000004" style="max-height: 500px" width="67.2" height="60.800000000000004"><path fill="#9E62DD" d="M180.894 9.714a16.27 16.27 0 0 0-9.864 3.368 16.586 16.586 0 0 0-5.87 8.698 16.229 16.229 0 0 0-.696 4.298v7.496c.039 1.422.261 2.832.661 4.196a16.458 16.458 0 0 0 5.809 8.772 16.135 16.135 0 0 0 9.885 3.39c3.574 0 7.049-1.191 9.886-3.39a16.458 16.458 0 0 0 5.809-8.772c.373-1.367.564-2.778.569-4.196v-7.495c0-1.454-.195-2.9-.582-4.3a16.46 16.46 0 0 0-5.805-8.688 16.147 16.147 0 0 0-9.815-3.377h.013zm6.15 23.86c0 1.454-.522 2.859-1.47 3.953a6.216 6.216 0 0 1-2.103 1.644 6.15 6.15 0 0 1-2.59.604 6.495 6.495 0 0 1-2.662-.602 6.56 6.56 0 0 1-2.191-1.646 6.184 6.184 0 0 1-1.607-3.953v-7.16a6.356 6.356 0 0 1 1.961-4.392 6.328 6.328 0 0 1 4.432-1.82 6.238 6.238 0 0 1 4.329 1.82 6.07 6.07 0 0 1 1.386 2c.323.756.491 1.57.493 2.392 0 1.337.022 5.83.022 7.158m145.26-23.858a16.257 16.257 0 0 0-9.859 3.369 16.574 16.574 0 0 0-5.862 8.697 16.175 16.175 0 0 0-.673 4.298v7.496c.029 1.422.248 2.833.65 4.196a16.447 16.447 0 0 0 5.807 8.768 16.13 16.13 0 0 0 9.882 3.39c3.572 0 7.045-1.192 9.881-3.39a16.446 16.446 0 0 0 5.806-8.768 16.11 16.11 0 0 0 .56-4.196v-7.495c0-1.454-.196-2.9-.582-4.3a16.46 16.46 0 0 0-5.805-8.688 16.147 16.147 0 0 0-9.815-3.377h.01zm6.153 23.86c0 1.454-.522 2.859-1.47 3.953a6.208 6.208 0 0 1-2.104 1.644 6.15 6.15 0 0 1-2.591.604 6.46 6.46 0 0 1-2.657-.602 6.523 6.523 0 0 1-2.184-1.646 6.16 6.16 0 0 1-1.594-3.953v-7.16a6.322 6.322 0 0 1 .54-2.393 6.274 6.274 0 0 1 1.408-1.998 6.32 6.32 0 0 1 4.432-1.82 6.242 6.242 0 0 1 4.329 1.82 6.054 6.054 0 0 1 1.387 2c.323.755.491 1.568.494 2.39 0 1.338.023 5.832.023 7.159M159.703 10.625h-9.524V28.5l-9.034-15.938a4.088 4.088 0 0 0-1.349-1.35 4.029 4.029 0 0 0-1.807-.585h-9.502v38.318h5.868a3.551 3.551 0 0 0 1.415-.305 3.615 3.615 0 0 0 1.934-2.095c.165-.463.235-.956.206-1.448v-17.62l12.327 21.468h5.914c.482 0 .959-.098 1.402-.289a3.593 3.593 0 0 0 1.939-2.049c.17-.456.246-.943.225-1.43l-.014-34.55zm139.701 28.796V10.626h-9.423v38.318h18.08a3.594 3.594 0 0 0 2.593-1.215 3.71 3.71 0 0 0 .917-2.738v-5.57h-12.167zm-27.549-28.795h-18.274v38.318h5.868a3.555 3.555 0 0 0 2.595-1.15 3.63 3.63 0 0 0 .754-1.25c.165-.463.235-.956.206-1.448v-7.388h8.853a13.313 13.313 0 0 0 9.359-4.025 13.623 13.623 0 0 0 3.863-9.516c0-3.563-1.388-6.982-3.863-9.517a13.313 13.313 0 0 0-9.359-4.024h-.002zm.024 17.345h-8.875v-7.61h8.828a3.738 3.738 0 0 1 2.666 1.098 3.826 3.826 0 0 1 1.118 2.684 3.825 3.825 0 0 1-1.086 2.697 3.739 3.739 0 0 1-2.653 1.13m-57.682 20.974a3.833 3.833 0 0 0 2.436-.744 3.905 3.905 0 0 0 1.45-2.115c.126-.322 2.792-9.426 5.343-18.209l5.084 17.253 1.163 3.815h4.91a3.73 3.73 0 0 0 2.03-.652 3.795 3.795 0 0 0 1.354-1.664c.149-.296.275-.604.376-.921.203-.646 10.264-35.081 10.264-35.081h-10.093l-5.013 17.367a7306.005 7306.005 0 0 1-4.294-14.52 3.725 3.725 0 0 0-1.238-2.003 3.655 3.655 0 0 0-2.18-.845h-7.45l-4.99 17.278c-2.084-6.95-4.113-13.645-4.328-14.441a3.762 3.762 0 0 0-1.351-2.068 3.684 3.684 0 0 0-2.33-.767h-7.149l11.313 38.31 4.693.007zm151.389 0a3.833 3.833 0 0 0 2.436-.744 3.908 3.908 0 0 0 1.449-2.115c.127-.322 2.793-9.426 5.344-18.209l5.084 17.253 1.161 3.815h4.91a3.735 3.735 0 0 0 2.03-.652c.6-.411 1.07-.989 1.353-1.664a6.24 6.24 0 0 0 .377-.921c.203-.646 10.266-35.081 10.266-35.081H389.9l-5.012 17.367a7306.005 7306.005 0 0 1-4.294-14.52 3.73 3.73 0 0 0-1.238-2.003 3.655 3.655 0 0 0-2.18-.845h-7.45l-4.99 17.278c-2.084-6.95-4.113-13.645-4.329-14.441a3.76 3.76 0 0 0-1.35-2.068 3.686 3.686 0 0 0-2.33-.767h-7.147l11.313 38.31 4.691.007zM121.983 31.66a11.913 11.913 0 0 0-4.762-3.78 45.173 45.173 0 0 0-7.235-2.502 50.159 50.159 0 0 1-5.354-1.762c-1.185-.496-2.165-.823-2.165-1.775a1.574 1.574 0 0 1 .775-1.58 7.51 7.51 0 0 1 3.93-.841 6.88 6.88 0 0 1 3.772.944c.5.284.92.692 1.22 1.187h10.447v-.568a10.148 10.148 0 0 0-2.074-5.473 13.503 13.503 0 0 0-5.344-4.219 18.581 18.581 0 0 0-8.021-1.612 19.354 19.354 0 0 0-7.727 1.406 12.741 12.741 0 0 0-5.435 4.184 10.43 10.43 0 0 0-1.96 6.19 10.566 10.566 0 0 0 1.594 5.91 11.51 11.51 0 0 0 4.5 3.896 34.126 34.126 0 0 0 6.789 2.501c2.631.749 4.614 1.372 5.897 1.868a5.79 5.79 0 0 1 2.108 1.21c.285.287.285.367.285.886.028.368-.047.737-.216 1.064-.169.328-.426.6-.742.787a11.476 11.476 0 0 1-9.353.035 3.727 3.727 0 0 1-1.435-1.59H91.052a1.306 1.306 0 0 0-.012.253v.08a10.166 10.166 0 0 0 2.236 5.901 13.708 13.708 0 0 0 5.811 4.184 21.462 21.462 0 0 0 8.337 1.474 19.752 19.752 0 0 0 11.484-3.064 10.798 10.798 0 0 0 3.562-4.008 10.924 10.924 0 0 0 1.212-5.248 10.06 10.06 0 0 0-1.697-5.936m-56.08-4.566L52.088 2.882A6.259 6.259 0 0 0 49.95.837a6.175 6.175 0 0 0-2.826-.825H36.82a.98.98 0 0 0-.285 0H19.471a6.141 6.141 0 0 0-2.826.827 6.224 6.224 0 0 0-2.13 2.053L.694 27.095a6.386 6.386 0 0 0 0 5.786L14.52 57.106a6.25 6.25 0 0 0 2.127 2.055c.862.504 1.83.79 2.824.837h27.653a6.168 6.168 0 0 0 2.826-.835 6.252 6.252 0 0 0 2.13-2.057l13.826-24.225a6.386 6.386 0 0 0 0-5.786zM50.368 3.889l5.047 8.845-8.841 15.305-5.787-10.025a.995.995 0 0 0-.854-.496H28.446l8.796-15.5h9.882c.643.044 1.269.234 1.83.558.56.323 1.04.771 1.405 1.31l.008.003zm-16.44 25.176l-5.51-9.544h10.95l5.514 9.542-10.953.002zm-1.799.969l-5.447 9.439-5.468-9.484 5.446-9.44 5.47 9.485zm1.743 1.049h10.892l-5.41 9.381H28.416l5.454-9.381zM16.246 3.889a4.26 4.26 0 0 1 1.402-1.3 4.206 4.206 0 0 1 1.823-.55h15.471l-8.786 15.48H8.466l7.78-13.63zM2.419 28.103l4.895-8.582H24.95l-5.755 9.958a1.01 1.01 0 0 0 0 1.014l5.755 9.97H7.314l-4.9-8.574a4.39 4.39 0 0 1 0-3.78l.005-.006zm17.052 29.881a4.235 4.235 0 0 1-1.833-.568 4.289 4.289 0 0 1-1.402-1.322L8.452 42.467H26.09l8.874 15.517H19.47zm30.886-1.89a4.29 4.29 0 0 1-1.401 1.322 4.235 4.235 0 0 1-1.832.568h-9.86L28.39 42.461h11.529a.982.982 0 0 0 .854-.495l5.742-9.939 8.828 15.34-4.985 8.727zM64.183 31.87l-7.69 13.484-8.796-15.292 8.868-15.332 7.633 13.37a4.39 4.39 0 0 1 0 3.78"/></svg>