<?xml version="1.0" encoding="UTF-8"?>
<svg id="_图层_1" data-name="图层 1" xmlns="http://www.w3.org/2000/svg" viewBox="0 0 128.22 40.13">
  <defs>
    <style>
      .cls-1 {
        fill: #00008B;
      }

      .cls-1, .cls-2 {
        fill-rule: evenodd;
      }

      .cls-1, .cls-2, .cls-3 {
        stroke-width: 0px;
      }

      .cls-2, .cls-3 {
        <!-- fill: #10347c; -->
        fill: #fff;
      }
    </style>
  </defs>
  <path class="cls-2" d="M17.1,11.91c.31-2.26.53-3.39.84-5.66.49-2.23-2.78-2.37-2.9,0-1.01,5.92-2.17,10.65-2.93,16.55,0,.96,2.23.9,2.43.27.61-1.45,1.1-3.64,1.45-6.58h6.52c-.92,6.41-2.78,8.31-5.82,10.46-5.74,1.74-10.87-1.1-10.87-3.53.29-5.27,1.59-11.2,3.04-18.08,1.25-2.97,3.8-4.09,6.44-4.7,5-.55,8.87.96,8.72,4.7l-.7,6.66-6.23-.08h0Z"/>
  <path class="cls-2" d="M35.25,9.01s.4-3.74.08-4.14c-.35-.43-2.06-.39-2.41,1.1-.29,1.19-.51,2.49-.09,3.58.13.33.66.55.96.78,1.39,1.04,5.48,3.18,5.88,5.62.41,2.43-.35,8.17-2.7,9.97-2.35,1.8-7.47,2.29-9.91,1.1-2.41-1.16-2.96-2.76-3.04-3.25-.04-.29.06-2.35.3-3.98.16-1.13.53-2.04.53-2.04h5.88s-1.53,5.27-.43,5.47c1.12.21,2.29.7,2.84-1.8.57-2.49.22-3.12-.96-4.29-1.19-1.19-5.27-3.27-5.82-5.13-.55-1.88-.69-7.68,3.33-9.97,4.03-2.29,8.03-1.39,9.91-.35,1.86,1.04,1.8,3.1,1.8,3.1l-.21,4.29-5.96-.06h0Z"/>
  <polygon class="cls-2" points="45.5 .84 51.99 .84 47.3 27.36 40.86 27.36 45.5 .84 45.5 .84"/>
  <polygon class="cls-2" points="55.39 .84 61.9 .84 57.21 27.36 50.75 27.36 55.39 .84 55.39 .84"/>
  <polygon class="cls-2" points="67.44 0 67.3 2.08 71.39 2.08 71.26 4.66 71.26 4.86 66.61 4.86 66.48 6.93 70.83 6.93 67.73 27.7 70.22 27.7 73.47 6.93 77.27 6.93 77.49 4.78 73.75 4.78 73.96 2.17 78.11 2.17 78.45 0 67.44 0 67.44 0"/>
  <polygon class="cls-2" points="66.54 8.66 63.84 27.7 65.64 27.7 68.42 8.66 66.54 8.66 66.54 8.66"/>
  <polygon class="cls-2" points="75.21 8.66 72.51 27.7 74.31 27.7 77.06 8.66 75.21 8.66 75.21 8.66"/>
  <polygon class="cls-2" points="81.85 1.74 80.74 8.26 84.13 8.26 85.18 1.74 81.85 1.74 81.85 1.74"/>
  <polygon class="cls-2" points="80.6 9.99 79.5 16.49 82.89 16.49 83.93 9.99 80.6 9.99 80.6 9.99"/>
  <polygon class="cls-2" points="87.58 .08 82.89 27.84 85.44 27.84 90.16 0 87.58 .08 87.58 .08"/>
  <polygon class="cls-2" points="77.06 19.67 90.51 19.04 90.51 20.72 76.86 21.41 77.06 19.67 77.06 19.67"/>
  <polygon class="cls-2" points="96.74 2.17 96.39 4.23 124.57 4.23 124.91 2.17 96.74 2.17 96.74 2.17"/>
  <polygon class="cls-2" points="102.69 0 101.64 6.52 105.11 6.52 106.08 0 102.69 0 102.69 0"/>
  <polygon class="cls-2" points="115.78 0 114.74 6.52 118.19 6.52 119.17 0 115.78 0 115.78 0"/>
  <polygon class="cls-2" points="97.9 8.66 97.01 15.59 99.99 15.59 100.82 8.66 97.9 8.66 97.9 8.66"/>
  <polygon class="cls-2" points="104.3 7.83 102.42 17.74 106.14 17.74 107.87 7.83 104.3 7.83 104.3 7.83"/>
  <polygon class="cls-2" points="111.26 8.26 110.37 15.18 113.35 15.18 114.19 8.26 111.26 8.26 111.26 8.26"/>
  <polygon class="cls-2" points="113.84 9.15 123.46 9.15 123.4 11.15 113.49 11.15 113.84 9.15 113.84 9.15"/>
  <polygon class="cls-2" points="117.09 12.2 116.33 16.98 119.37 16.98 120.07 12.2 117.09 12.2 117.09 12.2"/>
  <polygon class="cls-2" points="96.19 19.53 95.29 25.56 92.3 25.56 92.02 27.7 120.21 27.7 120.97 25.7 118.27 25.7 119.17 19.53 96.19 19.53 96.19 19.53"/>
  <rect class="cls-3" y="29.5" width="128.22" height=".8"/>
  <path class="cls-3" d="M13.18,35.75c.39.22.8.41,1.2.55.14-.26.33-.51.53-.67.04-.02.06-.06.06-.06-1.56-.31-2.56-1.07-2.99-2.23.03-.02.06-.06.12-.1.04,0,.06-.04.06-.06-.06-.02-.37-.1-.9-.18-.72,1.29-1.94,2.27-3.64,2.94,0,.02.02.04.06.04.17.08.29.27.39.53.43-.2.82-.45,1.16-.71l-.1.45c.1,0,.41-.03.92-.03h.71l-.18.96h-1.2c-.35,0-.65-.02-.88-.06l-.12.71s.04,0,.02,0c.31-.02.61-.06.88-.06h1.21l-.27,1.55h-1.68c-.18,0-.57-.02-1.1-.04l-.12.61h.34c.31,0,.57-.02.78-.02h4.25c.12,0,.31,0,.57.02h.45l.1-.61c-.31.02-.67.04-1.06.04h-.73c.29-.45.57-.78.84-.96.06-.04.1-.1.12-.14.02-.02-.23-.15-.74-.33-.27.61-.57,1.08-.86,1.43h-.51l.27-1.55h1.39c.22,0,.51,0,.86.02l.12-.67c-.34.04-.65.06-.9.06h-1.37l.16-.96h.87c.29,0,.56,0,.8.03l.09-.49ZM10.24,35.67c-.14,0-.39-.02-.71-.06.82-.55,1.49-1.2,2.04-1.92.27.78.73,1.41,1.45,1.92-.27.04-.52.06-.66.06h-2.12ZM9.81,38.92c-.2-.49-.39-.82-.51-.96l-.63.25c.27.33.41.65.45.98l.69-.27Z"/>
  <path class="cls-3" d="M38.68,37.27c.59,0,1,.02,1.21.08,0-.16.02-.37.06-.57.02-.14.09-.49.17-.96.08-.43.14-.71.16-.86.02-.15.06-.33.12-.49-.23.04-.66.06-1.23.06.1-.57.24-1.02.39-1.31.02-.02.04-.04.04-.06.02-.06-.24-.1-.8-.1,0,.12,0,.31-.02.53-.02.18-.1.51-.16.94-.57,0-.98-.02-1.21-.04,0,.18-.04.43-.1.73l-.29,1.59c-.06.43-.12.76-.18.96h.61c0-.1.02-.29.06-.51h.61l-.31,1.71c-.47.06-.96.09-1.47.09.06.22.08.45.06.71.55-.16,1.45-.33,2.71-.45.02.08.04.27.06.57l.65-.24c-.06-.67-.18-1.29-.31-1.8l-.59.18c.06.16.1.41.16.75-.35.06-.6.1-.72.12l.29-1.65ZM34.83,33.47c-.31,0-.61-.02-.86-.06l-.12.65c.23-.02.53-.04.88-.04h1.74c.39,0,.7.02.9.04l.1-.65c-.23.04-.53.06-.88.06h-1.76ZM34.12,34.49c0,.1,0,.2-.02.31,0,.1-.04.27-.09.49-.02.18-.08.39-.14.64-.02.12-.04.2-.04.24.12-.03.27-.04.43-.04h1.37c.39,0,.67.02.86.04,0-.06,0-.19.02-.31.02-.06.04-.27.1-.53.04-.27.06-.45.08-.53.02-.1.06-.22.1-.31-.18.02-.37.04-.53.04h-1.65c-.16,0-.35-.02-.49-.04h0ZM34.63,34.98h1.49l-.12.69h-1.49l.12-.69ZM39.07,35.04h.63l-.31,1.71h-.61l.29-1.71ZM37.9,35.04h.61l-.28,1.71h-.63l.31-1.71ZM36.53,37.3c.04-.22.08-.38.1-.49.02-.1.04-.2.08-.3-.29.04-.59.06-.86.06h-1.51c-.39,0-.7-.02-.88-.06-.02.24-.08.55-.15.92l-.27,1.57c-.06.35-.14.67-.2.95h.65c0-.27.04-.58.12-.91l.35-1.98h2.04l-.33,1.92c0,.29-.22.41-.65.35.1.16.12.37.06.63.45-.04.73-.12.86-.2.15-.06.22-.24.25-.51l.33-1.94ZM35.65,38.1c-.06.02-.24.04-.49.04.17-.27.33-.49.47-.66.02-.02.04-.06.06-.08.04-.02-.08-.1-.37-.2-.06,0-.1-.02-.12-.02-.04.16-.14.39-.27.65-.04.14-.1.24-.12.31-.35,0-.66-.02-.84-.04l-.08.51c.14-.02.33-.06.59-.04-.06.51-.14.84-.2,1h.53c0-.24.04-.59.1-1,.31,0,.51,0,.66.04l.08-.51ZM34.77,37.86s-.04-.14-.06-.25c-.02-.22-.06-.37-.08-.41l-.45.16s.02.1.02.18c.06.2.08.35.08.43l.49-.12Z"/>
  <path class="cls-3" d="M60.86,33.53c-.64,0-1.06,0-1.21-.02l-.12.67c.14-.02.53-.06,1.16-.06h.72c-.49,1.57-.96,2.8-1.39,3.68h.06c.23,0,.49-.02.78-.02h2.47l-.34,1.14h-3.53c-.57,0-.94-.02-1.04-.04h-.04l-.1.63c.16-.02.53-.04,1.13-.04h4.94c.53,0,.88.02,1.02.04l.1-.63c-.14.02-.51.04-1.06.04h-.8c.04-.1.15-.43.29-.9.35-1.19.66-2.14.9-2.82-.26.04-.57.06-.92.06h-2.23l.43-1.14h2.82c.51,0,.82.02.94.06l.12-.67c-.14.02-.46.02-.96.02h-4.13ZM63.86,35.81l-.39,1.37h-2.55l.49-1.37h2.45Z"/>
  <path class="cls-3" d="M90.32,34.59c.08-.1.31-.41.67-.88.11-.12.23-.27.35-.37.04-.02.06-.09.06-.09,0-.08-.27-.22-.8-.39-.19.59-.47,1.16-.82,1.71h-.69c-.45-.02-.88-.04-1.23-.06l-.1.64c.18,0,.61-.02,1.26-.02h.12l-.25,1.43h-.29c-.45-.02-.88-.04-1.25-.06l-.12.67c.35-.02.78-.06,1.33-.06h.2c-.41,1.2-1.12,1.98-2.12,2.33.22.22.39.43.47.63,1-.67,1.65-1.43,1.98-2.23.06.71.47,1.43,1.27,2.14.18-.26.45-.53.78-.71-.92-.43-1.49-1.16-1.68-2.17h.47c.59.02,1.04.04,1.32.06l.12-.71c-.2.04-.67.06-1.37.06h-.51l.24-1.39h.59c.28,0,.63.02,1.04.06l.12-.67c-.37.04-.73.06-1.08.06h-.12ZM89.53,34.12c-.02-.3-.12-.71-.27-1.14l-.73.18c.12.25.23.61.29,1.1l.71-.14ZM86.97,34.08l-.18,1.02h-1.06l.18-1.02h1.06ZM85.65,35.63h1.04l-.18,1.06h-1.04l.18-1.06ZM85.36,37.21h1.07l-.18,1-1.08.18.2-1.19ZM86.58,40.13c.02-.31.06-.72.15-1.15l.04-.31c.1-.02.31-.06.57-.1l.18-.61-.65.12.71-4c.19,0,.35.02.51.04l.15-.71c-.29.02-.73.04-1.29.06h-1.06c-.39,0-.76-.04-1.04-.06l-.12.73c.16,0,.35-.04.53-.06l-.77,4.41-.63.08.12.76c.78-.22,1.49-.41,2.12-.53l-.02.18c0,.09-.04.27-.1.53-.06.31-.12.51-.15.61h.76Z"/>
  <path class="cls-3" d="M112.17,33.28c-.64,0-1.04-.02-1.21-.04,0,.18-.08.63-.2,1.35l-.72,3.98c-.06.51-.18.94-.33,1.33h.82c0-.2.06-.67.18-1.35l.82-4.65h4.93l-.88,4.9c-.02.29-.11.43-.23.45-.1.06-.43.06-.94,0,.18.22.24.47.21.78.65-.02,1.08-.12,1.27-.24.18-.08.28-.35.35-.78l.8-4.53c.12-.65.22-1.08.29-1.22-.24.02-.74.04-1.43.04h-3.72ZM110.76,38.49c.22.12.39.21.53.27.12-.1.43-.55.92-1.29.1-.15.18-.27.25-.35,0,.06.02.16.06.35.06.26.1.49.12.67.2-.15.43-.27.67-.35-.14-.43-.3-.88-.45-1.29.18-.33.37-.7.59-1.08.12-.22.22-.41.29-.51.08-.11.16-.21.22-.27.02-.02.04-.04.04-.04.02,0-.08-.04-.28-.12-.18-.06-.33-.15-.43-.18-.15.55-.37,1.1-.63,1.62-.12-.41-.29-.84-.43-1.25-.23.06-.45.12-.64.18.29.51.49,1.08.64,1.71-.43.72-.92,1.37-1.47,1.92h0ZM114.29,36.66c-.41.75-1,1.39-1.74,1.9.12.02.31.09.53.18.1.04.16.06.18.06.2-.22.49-.61.84-1.08.18-.18.28-.35.35-.45.08.47.14.92.2,1.31.1-.02.35-.14.72-.28-.08-.27-.27-.84-.49-1.63.22-.35.49-.86.77-1.45.06-.14.12-.24.14-.31.06-.06.13-.16.21-.22.02,0,.04-.02.04-.02.02-.02-.15-.08-.47-.16-.15,0-.25-.04-.31-.06-.1.49-.33,1.02-.59,1.62-.02.04-.06-.02-.08-.18-.08-.31-.21-.65-.31-1-.12.08-.29.15-.43.18-.06.02-.14.04-.2.06.22.47.39.84.49,1.15.06.18.1.31.14.41h0Z"/>
  <polygon class="cls-1" points="98.54 21.68 97.9 25.62 102.13 25.62 102.63 21.68 98.54 21.68 98.54 21.68"/>
  <polygon class="cls-1" points="105.26 21.68 104.62 25.62 108.85 25.62 109.34 21.68 105.26 21.68 105.26 21.68"/>
  <polygon class="cls-1" points="112.18 21.68 111.55 25.62 115.78 25.62 116.25 21.68 112.18 21.68 112.18 21.68"/>
</svg>