<svg xmlns="http://www.w3.org/2000/svg" width="1488" height="321" viewBox="0 0 1488 321">
  <defs>
    <style>
      .cls-1 {
        fill: #fff;
        fill-rule: evenodd;
      }
    </style>
  </defs>
  <path id="GrowthBook" class="cls-1" d="M54.391,191.727c0,55.742,41.867,92.281,93.335,92.281,30.934,0,55.734-12.8,73.334-32.271V185.06H136.792v27.471H189.86v27.737c-8,7.468-24,16-42.134,16-35.2,0-61.334-27.205-61.334-64.544s26.133-64.276,61.334-64.276a56.633,56.633,0,0,1,46.134,23.737l25.6-14.4c-14.4-20.537-37.067-37.072-71.734-37.072C96.258,99.714,54.391,135.986,54.391,191.727Zm190.374,88.814h28V192.794c5.6-9.068,21.334-17.069,33.067-17.069a41.294,41.294,0,0,1,8.8.8V148.788c-16.8,0-32.267,9.6-41.867,21.87V151.721h-28v128.82Zm142.652,3.2c41.334,0,66.4-30.671,66.4-67.743,0-36.806-25.067-67.477-66.4-67.477-40.8,0-66.135,30.671-66.135,67.477C321.282,253.07,346.616,283.741,387.417,283.741Zm0-24.8c-23.734,0-37.068-20-37.068-42.94,0-22.67,13.334-42.673,37.068-42.673,24,0,37.333,20,37.333,42.673C424.75,238.935,411.417,258.938,387.417,258.938Zm198.913,21.6h29.334l40-128.82H626.6l-27.2,93.615L568.73,151.721H544.2l-30.667,93.615-27.2-93.615H457.262l40,128.82H526.6l29.867-94.414Zm119.439,3.2c13.067,0,21.333-3.467,26.4-8.268L725.5,254.4c-2.133,2.4-7.2,4.534-12.533,4.534-8,0-12.267-6.4-12.267-15.2V176.258h26.134V151.721H700.7v-35.2h-28v35.205H651.368v24.537H672.7V250.67C672.7,272.006,684.169,283.741,705.769,283.741Zm125.586-3.2h28V189.327c0-26.4-13.867-40.806-41.6-40.806-20.267,0-37.067,10.668-45.6,20.8V102.647h-28V280.541h28v-89.88c6.667-8.8,18.934-17.336,33.067-17.336,15.734,0,26.134,6.134,26.134,26.137v81.079Zm57.044,0h89.868C1011.6,280.541,1030,260,1030,232.534c0-21.87-15.47-40.807-34.4-43.74,16.53-3.467,30.93-18.4,30.93-40.806,0-25.071-18.13-45.341-50.663-45.341H888.4V280.541Zm31.2-104.283v-46.14h49.868c16,0,25.067,9.868,25.067,23.2s-9.067,22.936-25.067,22.936H919.6Zm0,76.812V203.729h51.2c17.867,0,27.2,11.2,27.2,24.537,0,15.469-10.133,24.8-27.2,24.8H919.6Zm190.911,30.671c41.33,0,66.4-30.671,66.4-67.743,0-36.806-25.07-67.477-66.4-67.477-40.8,0-66.14,30.671-66.14,67.477C1044.37,253.07,1069.71,283.741,1110.51,283.741Zm0-24.8c-23.73,0-37.07-20-37.07-42.94,0-22.67,13.34-42.673,37.07-42.673,24,0,37.33,20,37.33,42.673C1147.84,238.935,1134.51,258.938,1110.51,258.938Zm144.78,24.8c41.33,0,66.4-30.671,66.4-67.743,0-36.806-25.07-67.477-66.4-67.477-40.8,0-66.14,30.671-66.14,67.477C1189.15,253.07,1214.49,283.741,1255.29,283.741Zm0-24.8c-23.74,0-37.07-20-37.07-42.94,0-22.67,13.33-42.673,37.07-42.673,24,0,37.33,20,37.33,42.673C1292.62,238.935,1279.29,258.938,1255.29,258.938Zm171.98,21.6h35.2L1407.8,210.13l53.6-58.409h-34.66l-56.81,62.143V102.647h-28V280.541h28V245.869l17.87-18.4Z"/>
</svg>
