<svg width="32" height="32" viewBox="0 0 32 32" fill="none" xmlns="http://www.w3.org/2000/svg">
<path d="M0 4C0 1.79086 1.79086 0 4 0H28C30.2091 0 32 1.79086 32 4V28C32 30.2091 30.2091 32 28 32H4C1.79086 32 0 30.2091 0 28V4Z" fill="#7817D3"/>
<path fill-rule="evenodd" clip-rule="evenodd" d="M12.5927 13.0378L25.835 5.58661C25.835 5.58661 24.5867 6.68483 24.6415 9.0621C24.7 11.5956 25.835 12.5377 25.835 12.5377L24.279 11.8287L12.0976 16.5974C12.0976 16.5974 11.8018 15.7688 11.797 15.1442C11.7844 13.6033 12.5927 13.0378 12.5927 13.0378Z" fill="white"/>
<path fill-rule="evenodd" clip-rule="evenodd" d="M9.77603 17.9089L24.2442 12.6166C24.2442 12.6166 22.9957 13.7148 23.0507 16.0922C23.1092 18.6256 24.2442 19.5676 24.2442 19.5676L22.2229 18.7895L9.23681 21.3458C9.23681 21.3458 8.98496 20.582 8.98037 20.0153C8.96788 18.4743 9.77603 17.9089 9.77603 17.9089Z" fill="white"/>
<path fill-rule="evenodd" clip-rule="evenodd" d="M6.96086 22.2008L22.2262 19.4623C22.2262 19.4623 20.9778 20.5606 21.0326 22.9378C21.0912 25.4714 22.2262 26.4134 22.2262 26.4134H7.07483C7.07483 26.4134 6.17847 25.8689 6.16518 24.2282C6.15269 22.6872 6.96086 22.2008 6.96086 22.2008Z" fill="white"/>
</svg>
