<svg xmlns="http://www.w3.org/2000/svg" width="300" height="300" viewBox="0 0 300 300">
  <defs>
    <style>
      .cls-1 {
        fill: #fff;
        fill-rule: evenodd;
      }
    </style>
  </defs>
  <g id="logo_mark" data-name="logo mark">
    <path id="Rectangle_12_copy_5" data-name="Rectangle 12 copy 5" class="cls-1" d="M102.259,112.286l167.413-94.2s-15.783,13.884-15.089,43.938c0.74,32.029,15.089,43.939,15.089,43.939L250,97,96,157.287s-3.739-10.476-3.8-18.372C92.041,119.435,102.259,112.286,102.259,112.286Z"/>
    <path id="Rectangle_12_copy_3" data-name="Rectangle 12 copy 3" class="cls-1" d="M66.644,173.868l182.91-66.908s-15.783,13.884-15.089,43.939c0.74,32.029,15.089,43.938,15.089,43.938L224,185,59.827,217.317s-3.184-9.656-3.242-16.82C56.427,181.016,66.644,173.868,66.644,173.868Z"/>
    <path class="cls-1" d="M31.059,228.127l192.988-34.621s-15.783,13.884-15.089,43.938c0.74,32.029,15.089,43.939,15.089,43.939H32.5S21.168,274.5,21,253.756C20.842,234.275,31.059,228.127,31.059,228.127Z"/>
  </g>
</svg>
