<svg width="726" height="122" viewBox="0 0 726 122" fill="none" xmlns="http://www.w3.org/2000/svg">
<path d="M171.061 50.4545V51.6477H167.298V50.4545H171.061ZM168.227 48.8864H169.77V55.0312C169.77 55.2386 169.801 55.3977 169.864 55.5085C169.929 55.6165 170.014 55.6903 170.119 55.7301C170.224 55.7699 170.341 55.7898 170.469 55.7898C170.565 55.7898 170.653 55.7827 170.733 55.7685C170.815 55.7543 170.878 55.7415 170.92 55.7301L171.18 56.9361C171.098 56.9645 170.98 56.9957 170.827 57.0298C170.676 57.0639 170.491 57.0838 170.273 57.0895C169.886 57.1009 169.538 57.0426 169.229 56.9148C168.919 56.7841 168.673 56.5824 168.491 56.3097C168.313 56.0369 168.224 55.696 168.227 55.2869V48.8864ZM172.351 57V50.4545H173.847V51.5455H173.915C174.034 51.1676 174.239 50.8764 174.529 50.6719C174.821 50.4645 175.155 50.3608 175.53 50.3608C175.615 50.3608 175.711 50.3651 175.816 50.3736C175.924 50.3793 176.013 50.3892 176.084 50.4034V51.8224C176.019 51.7997 175.915 51.7798 175.773 51.7628C175.634 51.7429 175.499 51.733 175.368 51.733C175.087 51.733 174.834 51.794 174.61 51.9162C174.388 52.0355 174.213 52.2017 174.086 52.4148C173.958 52.6278 173.894 52.8736 173.894 53.152V57H172.351ZM178.875 57.1321C178.461 57.1321 178.087 57.0582 177.755 56.9105C177.425 56.7599 177.164 56.5384 176.971 56.2457C176.78 55.9531 176.685 55.5923 176.685 55.1634C176.685 54.794 176.753 54.4886 176.89 54.2472C177.026 54.0057 177.212 53.8125 177.448 53.6676C177.684 53.5227 177.949 53.4134 178.245 53.3395C178.543 53.2628 178.851 53.2074 179.169 53.1733C179.553 53.1335 179.864 53.098 180.103 53.0668C180.341 53.0327 180.515 52.9815 180.623 52.9134C180.733 52.8423 180.789 52.733 180.789 52.5852V52.5597C180.789 52.2386 180.694 51.9901 180.503 51.8139C180.313 51.6378 180.039 51.5497 179.681 51.5497C179.303 51.5497 179.003 51.6321 178.782 51.7969C178.563 51.9616 178.415 52.1562 178.338 52.3807L176.898 52.1761C177.012 51.7784 177.199 51.446 177.461 51.179C177.722 50.9091 178.042 50.7074 178.419 50.5739C178.797 50.4375 179.215 50.3693 179.672 50.3693C179.988 50.3693 180.301 50.4062 180.614 50.4801C180.926 50.554 181.212 50.6761 181.471 50.8466C181.729 51.0142 181.936 51.2429 182.093 51.5327C182.252 51.8224 182.331 52.1847 182.331 52.6193V57H180.848V56.1009H180.797C180.703 56.2827 180.571 56.4531 180.401 56.6122C180.233 56.7685 180.022 56.8949 179.766 56.9915C179.513 57.0852 179.216 57.1321 178.875 57.1321ZM179.276 55.9986C179.586 55.9986 179.854 55.9375 180.081 55.8153C180.309 55.6903 180.483 55.5256 180.605 55.321C180.73 55.1165 180.793 54.8935 180.793 54.652V53.8807C180.745 53.9205 180.662 53.9574 180.546 53.9915C180.432 54.0256 180.304 54.0554 180.162 54.081C180.02 54.1065 179.88 54.1293 179.74 54.1491C179.601 54.169 179.48 54.1861 179.378 54.2003C179.148 54.2315 178.942 54.2827 178.76 54.3537C178.578 54.4247 178.435 54.5241 178.33 54.652C178.225 54.777 178.172 54.9389 178.172 55.1378C178.172 55.4219 178.276 55.6364 178.483 55.7812C178.691 55.9261 178.955 55.9986 179.276 55.9986ZM186.738 57.1278C186.084 57.1278 185.523 56.9844 185.054 56.6974C184.588 56.4105 184.229 56.0142 183.976 55.5085C183.726 55 183.601 54.4148 183.601 53.7528C183.601 53.0881 183.729 52.5014 183.985 51.9929C184.24 51.4815 184.601 51.0838 185.067 50.7997C185.536 50.5128 186.09 50.3693 186.729 50.3693C187.26 50.3693 187.73 50.4673 188.14 50.6634C188.551 50.8565 188.88 51.1307 189.124 51.4858C189.368 51.8381 189.507 52.25 189.542 52.7216H188.067C188.007 52.4062 187.865 52.1435 187.641 51.9332C187.419 51.7202 187.123 51.6136 186.75 51.6136C186.435 51.6136 186.158 51.6989 185.919 51.8693C185.681 52.0369 185.495 52.2784 185.361 52.5938C185.23 52.9091 185.165 53.2869 185.165 53.7273C185.165 54.1733 185.23 54.5568 185.361 54.8778C185.492 55.196 185.675 55.4418 185.911 55.6151C186.15 55.7855 186.429 55.8707 186.75 55.8707C186.978 55.8707 187.181 55.8281 187.36 55.7429C187.542 55.6548 187.694 55.5284 187.816 55.3636C187.938 55.1989 188.022 54.9986 188.067 54.7628H189.542C189.505 55.2259 189.368 55.6364 189.132 55.9943C188.897 56.3494 188.576 56.6278 188.169 56.8295C187.763 57.0284 187.286 57.1278 186.738 57.1278ZM192.214 54.946L192.21 53.0838H192.457L194.81 50.4545H196.612L193.719 53.6761H193.399L192.214 54.946ZM190.808 57V48.2727H192.351V57H190.808ZM194.916 57L192.786 54.0213L193.825 52.9347L196.761 57H194.916ZM197.64 57V50.4545H199.183V57H197.64ZM198.416 49.5256C198.172 49.5256 197.961 49.4446 197.785 49.2827C197.609 49.1179 197.521 48.9205 197.521 48.6903C197.521 48.4574 197.609 48.2599 197.785 48.098C197.961 47.9332 198.172 47.8509 198.416 47.8509C198.663 47.8509 198.873 47.9332 199.047 48.098C199.223 48.2599 199.311 48.4574 199.311 48.6903C199.311 48.9205 199.223 49.1179 199.047 49.2827C198.873 49.4446 198.663 49.5256 198.416 49.5256ZM202.312 53.1648V57H200.769V50.4545H202.244V51.5668H202.32C202.471 51.2003 202.711 50.9091 203.04 50.6932C203.373 50.4773 203.783 50.3693 204.272 50.3693C204.724 50.3693 205.117 50.4659 205.452 50.6591C205.79 50.8523 206.052 51.1321 206.237 51.4986C206.424 51.8651 206.516 52.3097 206.513 52.8324V57H204.971V53.071C204.971 52.6335 204.857 52.2912 204.63 52.044C204.406 51.7969 204.094 51.6733 203.697 51.6733C203.427 51.6733 203.187 51.733 202.977 51.8523C202.769 51.9687 202.606 52.1378 202.487 52.3594C202.37 52.581 202.312 52.8494 202.312 53.1648ZM210.928 59.5909C210.374 59.5909 209.898 59.5156 209.501 59.3651C209.103 59.2173 208.783 59.0185 208.542 58.7685C208.3 58.5185 208.133 58.2415 208.039 57.9375L209.428 57.6009C209.491 57.7287 209.582 57.8551 209.701 57.9801C209.82 58.108 209.981 58.2131 210.183 58.2955C210.387 58.3807 210.644 58.4233 210.954 58.4233C211.391 58.4233 211.754 58.3168 212.04 58.1037C212.327 57.8935 212.471 57.5469 212.471 57.0639V55.8239H212.394C212.315 55.983 212.198 56.1463 212.045 56.3139C211.894 56.4815 211.694 56.6222 211.444 56.7358C211.197 56.8494 210.886 56.9062 210.511 56.9062C210.008 56.9062 209.552 56.7884 209.143 56.5526C208.737 56.3139 208.413 55.9588 208.171 55.4872C207.933 55.0128 207.813 54.419 207.813 53.706C207.813 52.9872 207.933 52.3807 208.171 51.8864C208.413 51.3892 208.738 51.0128 209.147 50.7571C209.556 50.4986 210.012 50.3693 210.515 50.3693C210.898 50.3693 211.214 50.4347 211.461 50.5653C211.711 50.6932 211.91 50.848 212.058 51.0298C212.205 51.2088 212.317 51.3778 212.394 51.5369H212.479V50.4545H214.001V57.1065C214.001 57.6662 213.867 58.1293 213.6 58.4957C213.333 58.8622 212.968 59.1364 212.505 59.3182C212.042 59.5 211.516 59.5909 210.928 59.5909ZM210.941 55.696C211.268 55.696 211.546 55.6165 211.776 55.4574C212.006 55.2983 212.181 55.0696 212.3 54.7713C212.42 54.473 212.479 54.1151 212.479 53.6974C212.479 53.2855 212.42 52.9247 212.3 52.6151C212.184 52.3054 212.011 52.0653 211.781 51.8949C211.553 51.7216 211.273 51.6349 210.941 51.6349C210.597 51.6349 210.31 51.7244 210.08 51.9034C209.85 52.0824 209.677 52.3281 209.56 52.6406C209.444 52.9503 209.386 53.3026 209.386 53.6974C209.386 54.098 209.444 54.4489 209.56 54.75C209.68 55.0483 209.854 55.2812 210.085 55.4489C210.317 55.6136 210.603 55.696 210.941 55.696ZM223.12 51.2173H221.526C221.481 50.956 221.397 50.7244 221.275 50.5227C221.153 50.3182 221.001 50.1449 220.819 50.0028C220.637 49.8608 220.43 49.7543 220.197 49.6832C219.967 49.6094 219.718 49.5724 219.451 49.5724C218.977 49.5724 218.556 49.6918 218.19 49.9304C217.823 50.1662 217.536 50.5128 217.329 50.9702C217.121 51.4247 217.018 51.9801 217.018 52.6364C217.018 53.304 217.121 53.8665 217.329 54.3239C217.539 54.7784 217.826 55.1222 218.19 55.3551C218.556 55.5852 218.975 55.7003 219.447 55.7003C219.708 55.7003 219.952 55.6662 220.18 55.598C220.41 55.527 220.616 55.4233 220.798 55.2869C220.982 55.1506 221.137 54.983 221.262 54.7841C221.39 54.5852 221.478 54.358 221.526 54.1023L223.12 54.1108C223.06 54.5256 222.931 54.9148 222.732 55.2784C222.536 55.642 222.279 55.9631 221.961 56.2415C221.643 56.517 221.271 56.733 220.844 56.8892C220.418 57.0426 219.945 57.1193 219.425 57.1193C218.658 57.1193 217.974 56.9418 217.371 56.5866C216.769 56.2315 216.295 55.7188 215.948 55.0483C215.602 54.3778 215.428 53.5739 215.428 52.6364C215.428 51.696 215.603 50.892 215.952 50.2244C216.302 49.554 216.778 49.0412 217.38 48.6861C217.982 48.331 218.664 48.1534 219.425 48.1534C219.911 48.1534 220.363 48.2216 220.781 48.358C221.198 48.4943 221.57 48.6946 221.897 48.9588C222.224 49.2202 222.492 49.5412 222.702 49.9219C222.915 50.2997 223.055 50.7315 223.12 51.2173ZM226.383 57.1321C225.968 57.1321 225.595 57.0582 225.262 56.9105C224.933 56.7599 224.672 56.5384 224.478 56.2457C224.288 55.9531 224.193 55.5923 224.193 55.1634C224.193 54.794 224.261 54.4886 224.397 54.2472C224.534 54.0057 224.72 53.8125 224.956 53.6676C225.191 53.5227 225.457 53.4134 225.752 53.3395C226.051 53.2628 226.359 53.2074 226.677 53.1733C227.061 53.1335 227.372 53.098 227.61 53.0668C227.849 53.0327 228.022 52.9815 228.13 52.9134C228.241 52.8423 228.297 52.733 228.297 52.5852V52.5597C228.297 52.2386 228.201 51.9901 228.011 51.8139C227.821 51.6378 227.547 51.5497 227.189 51.5497C226.811 51.5497 226.511 51.6321 226.289 51.7969C226.071 51.9616 225.923 52.1562 225.846 52.3807L224.406 52.1761C224.52 51.7784 224.707 51.446 224.968 51.179C225.23 50.9091 225.549 50.7074 225.927 50.5739C226.305 50.4375 226.723 50.3693 227.18 50.3693C227.495 50.3693 227.809 50.4062 228.122 50.4801C228.434 50.554 228.72 50.6761 228.978 50.8466C229.237 51.0142 229.444 51.2429 229.6 51.5327C229.76 51.8224 229.839 52.1847 229.839 52.6193V57H228.356V56.1009H228.305C228.211 56.2827 228.079 56.4531 227.909 56.6122C227.741 56.7685 227.529 56.8949 227.274 56.9915C227.021 57.0852 226.724 57.1321 226.383 57.1321ZM226.784 55.9986C227.093 55.9986 227.362 55.9375 227.589 55.8153C227.816 55.6903 227.991 55.5256 228.113 55.321C228.238 55.1165 228.301 54.8935 228.301 54.652V53.8807C228.252 53.9205 228.17 53.9574 228.054 53.9915C227.94 54.0256 227.812 54.0554 227.67 54.081C227.528 54.1065 227.387 54.1293 227.248 54.1491C227.109 54.169 226.988 54.1861 226.886 54.2003C226.656 54.2315 226.45 54.2827 226.268 54.3537C226.086 54.4247 225.943 54.5241 225.838 54.652C225.733 54.777 225.68 54.9389 225.68 55.1378C225.68 55.4219 225.784 55.6364 225.991 55.7812C226.199 55.9261 226.463 55.9986 226.784 55.9986ZM232.933 48.2727V57H231.39V48.2727H232.933ZM236.062 48.2727V57H234.519V48.2727H236.062ZM237.716 57V48.2727H239.259V51.5369H239.323C239.402 51.3778 239.515 51.2088 239.659 51.0298C239.804 50.848 240 50.6932 240.248 50.5653C240.495 50.4347 240.81 50.3693 241.194 50.3693C241.699 50.3693 242.155 50.4986 242.561 50.7571C242.971 51.0128 243.294 51.392 243.533 51.8949C243.775 52.3949 243.895 53.0085 243.895 53.7358C243.895 54.4545 243.777 55.0653 243.542 55.5682C243.306 56.071 242.985 56.4545 242.578 56.7188C242.172 56.983 241.712 57.1151 241.198 57.1151C240.823 57.1151 240.512 57.0526 240.265 56.9276C240.017 56.8026 239.819 56.652 239.668 56.4759C239.52 56.2969 239.405 56.1278 239.323 55.9688H239.233V57H237.716ZM239.229 53.7273C239.229 54.1506 239.289 54.5213 239.408 54.8395C239.53 55.1577 239.705 55.4062 239.932 55.5852C240.162 55.7614 240.441 55.8494 240.767 55.8494C241.108 55.8494 241.394 55.7585 241.624 55.5767C241.854 55.392 242.027 55.1406 242.144 54.8224C242.263 54.5014 242.323 54.1364 242.323 53.7273C242.323 53.321 242.265 52.9602 242.148 52.6449C242.032 52.3295 241.858 52.0824 241.628 51.9034C241.398 51.7244 241.111 51.6349 240.767 51.6349C240.438 51.6349 240.158 51.7216 239.928 51.8949C239.698 52.0682 239.523 52.3111 239.404 52.6236C239.287 52.9361 239.229 53.304 239.229 53.7273ZM247.09 57.1321C246.675 57.1321 246.302 57.0582 245.969 56.9105C245.64 56.7599 245.379 56.5384 245.185 56.2457C244.995 55.9531 244.9 55.5923 244.9 55.1634C244.9 54.794 244.968 54.4886 245.104 54.2472C245.241 54.0057 245.427 53.8125 245.663 53.6676C245.898 53.5227 246.164 53.4134 246.46 53.3395C246.758 53.2628 247.066 53.2074 247.384 53.1733C247.768 53.1335 248.079 53.098 248.317 53.0668C248.556 53.0327 248.729 52.9815 248.837 52.9134C248.948 52.8423 249.004 52.733 249.004 52.5852V52.5597C249.004 52.2386 248.908 51.9901 248.718 51.8139C248.528 51.6378 248.254 51.5497 247.896 51.5497C247.518 51.5497 247.218 51.6321 246.996 51.7969C246.778 51.9616 246.63 52.1562 246.553 52.3807L245.113 52.1761C245.227 51.7784 245.414 51.446 245.675 51.179C245.937 50.9091 246.256 50.7074 246.634 50.5739C247.012 50.4375 247.43 50.3693 247.887 50.3693C248.202 50.3693 248.516 50.4062 248.829 50.4801C249.141 50.554 249.427 50.6761 249.685 50.8466C249.944 51.0142 250.151 51.2429 250.308 51.5327C250.467 51.8224 250.546 52.1847 250.546 52.6193V57H249.063V56.1009H249.012C248.918 56.2827 248.786 56.4531 248.616 56.6122C248.448 56.7685 248.237 56.8949 247.981 56.9915C247.728 57.0852 247.431 57.1321 247.09 57.1321ZM247.491 55.9986C247.8 55.9986 248.069 55.9375 248.296 55.8153C248.523 55.6903 248.698 55.5256 248.82 55.321C248.945 55.1165 249.008 54.8935 249.008 54.652V53.8807C248.96 53.9205 248.877 53.9574 248.761 53.9915C248.647 54.0256 248.519 54.0554 248.377 54.081C248.235 54.1065 248.094 54.1293 247.955 54.1491C247.816 54.169 247.695 54.1861 247.593 54.2003C247.363 54.2315 247.157 54.2827 246.975 54.3537C246.793 54.4247 246.65 54.5241 246.545 54.652C246.44 54.777 246.387 54.9389 246.387 55.1378C246.387 55.4219 246.491 55.6364 246.698 55.7812C246.906 55.9261 247.17 55.9986 247.491 55.9986ZM254.952 57.1278C254.299 57.1278 253.738 56.9844 253.269 56.6974C252.803 56.4105 252.444 56.0142 252.191 55.5085C251.941 55 251.816 54.4148 251.816 53.7528C251.816 53.0881 251.944 52.5014 252.2 51.9929C252.455 51.4815 252.816 51.0838 253.282 50.7997C253.751 50.5128 254.305 50.3693 254.944 50.3693C255.475 50.3693 255.945 50.4673 256.354 50.6634C256.766 50.8565 257.094 51.1307 257.339 51.4858C257.583 51.8381 257.722 52.25 257.756 52.7216H256.282C256.222 52.4062 256.08 52.1435 255.856 51.9332C255.634 51.7202 255.337 51.6136 254.965 51.6136C254.65 51.6136 254.373 51.6989 254.134 51.8693C253.896 52.0369 253.71 52.2784 253.576 52.5938C253.445 52.9091 253.38 53.2869 253.38 53.7273C253.38 54.1733 253.445 54.5568 253.576 54.8778C253.707 55.196 253.89 55.4418 254.126 55.6151C254.364 55.7855 254.644 55.8707 254.965 55.8707C255.192 55.8707 255.396 55.8281 255.575 55.7429C255.756 55.6548 255.908 55.5284 256.031 55.3636C256.153 55.1989 256.237 54.9986 256.282 54.7628H257.756C257.719 55.2259 257.583 55.6364 257.347 55.9943C257.112 56.3494 256.79 56.6278 256.384 56.8295C255.978 57.0284 255.501 57.1278 254.952 57.1278ZM260.429 54.946L260.425 53.0838H260.672L263.025 50.4545H264.827L261.934 53.6761H261.614L260.429 54.946ZM259.023 57V48.2727H260.566V57H259.023ZM263.131 57L261 54.0213L262.04 52.9347L264.976 57H263.131Z" fill="#1F2D5C" fill-opacity="0.85"/>
<path d="M496.793 59.4545V50.4545H498.31V51.5369H498.399C498.479 51.3778 498.591 51.2088 498.736 51.0298C498.881 50.848 499.077 50.6932 499.324 50.5653C499.571 50.4347 499.886 50.3693 500.27 50.3693C500.776 50.3693 501.232 50.4986 501.638 50.7571C502.047 51.0128 502.371 51.392 502.609 51.8949C502.851 52.3949 502.972 53.0085 502.972 53.7358C502.972 54.4545 502.854 55.0653 502.618 55.5682C502.382 56.071 502.061 56.4545 501.655 56.7188C501.249 56.983 500.788 57.1151 500.274 57.1151C499.899 57.1151 499.588 57.0526 499.341 56.9276C499.094 56.8026 498.895 56.652 498.744 56.4759C498.597 56.2969 498.482 56.1278 498.399 55.9688H498.335V59.4545H496.793ZM498.305 53.7273C498.305 54.1506 498.365 54.5213 498.484 54.8395C498.607 55.1577 498.781 55.4062 499.009 55.5852C499.239 55.7614 499.517 55.8494 499.844 55.8494C500.185 55.8494 500.47 55.7585 500.7 55.5767C500.93 55.392 501.104 55.1406 501.22 54.8224C501.339 54.5014 501.399 54.1364 501.399 53.7273C501.399 53.321 501.341 52.9602 501.224 52.6449C501.108 52.3295 500.935 52.0824 500.705 51.9034C500.474 51.7244 500.188 51.6349 499.844 51.6349C499.514 51.6349 499.234 51.7216 499.004 51.8949C498.774 52.0682 498.599 52.3111 498.48 52.6236C498.364 52.9361 498.305 53.304 498.305 53.7273ZM507.148 57.1278C506.509 57.1278 505.955 56.9872 505.486 56.706C505.017 56.4247 504.653 56.0312 504.395 55.5256C504.139 55.0199 504.011 54.429 504.011 53.7528C504.011 53.0767 504.139 52.4844 504.395 51.9759C504.653 51.4673 505.017 51.0724 505.486 50.7912C505.955 50.5099 506.509 50.3693 507.148 50.3693C507.787 50.3693 508.341 50.5099 508.81 50.7912C509.278 51.0724 509.641 51.4673 509.896 51.9759C510.155 52.4844 510.284 53.0767 510.284 53.7528C510.284 54.429 510.155 55.0199 509.896 55.5256C509.641 56.0312 509.278 56.4247 508.81 56.706C508.341 56.9872 507.787 57.1278 507.148 57.1278ZM507.156 55.892C507.503 55.892 507.793 55.7969 508.026 55.6065C508.259 55.4134 508.432 55.1548 508.545 54.831C508.662 54.5071 508.72 54.1463 508.72 53.7486C508.72 53.348 508.662 52.9858 508.545 52.6619C508.432 52.3352 508.259 52.0753 508.026 51.8821C507.793 51.6889 507.503 51.5923 507.156 51.5923C506.801 51.5923 506.506 51.6889 506.27 51.8821C506.037 52.0753 505.862 52.3352 505.746 52.6619C505.632 52.9858 505.575 53.348 505.575 53.7486C505.575 54.1463 505.632 54.5071 505.746 54.831C505.862 55.1548 506.037 55.4134 506.27 55.6065C506.506 55.7969 506.801 55.892 507.156 55.892ZM513.136 48.2727V57H511.593V48.2727H513.136ZM516.265 48.2727V57H514.722V48.2727H516.265ZM517.851 57V50.4545H519.394V57H517.851ZM518.627 49.5256C518.382 49.5256 518.172 49.4446 517.996 49.2827C517.82 49.1179 517.732 48.9205 517.732 48.6903C517.732 48.4574 517.82 48.2599 517.996 48.098C518.172 47.9332 518.382 47.8509 518.627 47.8509C518.874 47.8509 519.084 47.9332 519.257 48.098C519.434 48.2599 519.522 48.4574 519.522 48.6903C519.522 48.9205 519.434 49.1179 519.257 49.2827C519.084 49.4446 518.874 49.5256 518.627 49.5256ZM522.523 53.1648V57H520.98V50.4545H522.455V51.5668H522.531C522.682 51.2003 522.922 50.9091 523.251 50.6932C523.584 50.4773 523.994 50.3693 524.483 50.3693C524.935 50.3693 525.328 50.4659 525.663 50.6591C526.001 50.8523 526.263 51.1321 526.447 51.4986C526.635 51.8651 526.727 52.3097 526.724 52.8324V57H525.182V53.071C525.182 52.6335 525.068 52.2912 524.841 52.044C524.616 51.7969 524.305 51.6733 523.908 51.6733C523.638 51.6733 523.398 51.733 523.188 51.8523C522.98 51.9687 522.817 52.1378 522.697 52.3594C522.581 52.581 522.523 52.8494 522.523 53.1648ZM531.139 59.5909C530.585 59.5909 530.109 59.5156 529.712 59.3651C529.314 59.2173 528.994 59.0185 528.753 58.7685C528.511 58.5185 528.344 58.2415 528.25 57.9375L529.639 57.6009C529.702 57.7287 529.793 57.8551 529.912 57.9801C530.031 58.108 530.192 58.2131 530.393 58.2955C530.598 58.3807 530.855 58.4233 531.165 58.4233C531.602 58.4233 531.964 58.3168 532.251 58.1037C532.538 57.8935 532.682 57.5469 532.682 57.0639V55.8239H532.605C532.526 55.983 532.409 56.1463 532.256 56.3139C532.105 56.4815 531.905 56.6222 531.655 56.7358C531.408 56.8494 531.097 56.9062 530.722 56.9062C530.219 56.9062 529.763 56.7884 529.354 56.5526C528.947 56.3139 528.624 55.9588 528.382 55.4872C528.143 55.0128 528.024 54.419 528.024 53.706C528.024 52.9872 528.143 52.3807 528.382 51.8864C528.624 51.3892 528.949 51.0128 529.358 50.7571C529.767 50.4986 530.223 50.3693 530.726 50.3693C531.109 50.3693 531.425 50.4347 531.672 50.5653C531.922 50.6932 532.121 50.848 532.268 51.0298C532.416 51.2088 532.528 51.3778 532.605 51.5369H532.69V50.4545H534.212V57.1065C534.212 57.6662 534.078 58.1293 533.811 58.4957C533.544 58.8622 533.179 59.1364 532.716 59.3182C532.253 59.5 531.727 59.5909 531.139 59.5909ZM531.152 55.696C531.479 55.696 531.757 55.6165 531.987 55.4574C532.217 55.2983 532.392 55.0696 532.511 54.7713C532.631 54.473 532.69 54.1151 532.69 53.6974C532.69 53.2855 532.631 52.9247 532.511 52.6151C532.395 52.3054 532.222 52.0653 531.991 51.8949C531.764 51.7216 531.484 51.6349 531.152 51.6349C530.808 51.6349 530.521 51.7244 530.291 51.9034C530.061 52.0824 529.888 52.3281 529.771 52.6406C529.655 52.9503 529.597 53.3026 529.597 53.6974C529.597 54.098 529.655 54.4489 529.771 54.75C529.891 55.0483 530.065 55.2812 530.295 55.4489C530.528 55.6136 530.814 55.696 531.152 55.696Z" fill="#1F2D5C" fill-opacity="0.85"/>
<path d="M662 90V90.5H662.5V90H662ZM74 90H73.5V90.5H74V90ZM74 68L71.1132 73H76.8868L74 68ZM661.5 68V90H662.5V68H661.5ZM662 89.5H74V90.5H662V89.5ZM74.5 90V72.5H73.5V90H74.5Z" fill="#CDCED6"/>
<path d="M347.388 105.273H349.323L351.914 111.597H352.016L354.607 105.273H356.542V114H355.025V108.004H354.944L352.532 113.974H351.398L348.986 107.991H348.905V114H347.388V105.273ZM361.093 114.128C360.436 114.128 359.87 113.991 359.392 113.719C358.918 113.443 358.553 113.054 358.297 112.551C358.042 112.045 357.914 111.45 357.914 110.766C357.914 110.092 358.042 109.501 358.297 108.993C358.556 108.482 358.917 108.084 359.38 107.8C359.843 107.513 360.387 107.369 361.012 107.369C361.415 107.369 361.796 107.435 362.154 107.565C362.515 107.693 362.833 107.892 363.108 108.162C363.387 108.432 363.605 108.776 363.765 109.193C363.924 109.608 364.003 110.102 364.003 110.676V111.149H358.638V110.109H362.525C362.522 109.814 362.458 109.551 362.333 109.321C362.208 109.088 362.033 108.905 361.809 108.771C361.587 108.638 361.328 108.571 361.033 108.571C360.718 108.571 360.441 108.648 360.202 108.801C359.963 108.952 359.777 109.151 359.644 109.398C359.513 109.642 359.446 109.911 359.444 110.203V111.111C359.444 111.491 359.513 111.818 359.652 112.091C359.792 112.361 359.986 112.568 360.236 112.713C360.486 112.855 360.779 112.926 361.114 112.926C361.338 112.926 361.542 112.895 361.723 112.832C361.905 112.767 362.063 112.672 362.196 112.547C362.33 112.422 362.431 112.267 362.499 112.082L363.939 112.244C363.848 112.625 363.675 112.957 363.419 113.241C363.167 113.523 362.843 113.741 362.448 113.898C362.053 114.051 361.601 114.128 361.093 114.128ZM368.577 107.455V108.648H364.814V107.455H368.577ZM365.743 105.886H367.286V112.031C367.286 112.239 367.317 112.398 367.379 112.509C367.445 112.616 367.53 112.69 367.635 112.73C367.74 112.77 367.857 112.79 367.984 112.79C368.081 112.79 368.169 112.783 368.249 112.768C368.331 112.754 368.393 112.741 368.436 112.73L368.696 113.936C368.614 113.964 368.496 113.996 368.342 114.03C368.192 114.064 368.007 114.084 367.788 114.089C367.402 114.101 367.054 114.043 366.744 113.915C366.435 113.784 366.189 113.582 366.007 113.31C365.828 113.037 365.74 112.696 365.743 112.287V105.886ZM369.867 114V107.455H371.363V108.545H371.431C371.55 108.168 371.755 107.876 372.044 107.672C372.337 107.464 372.671 107.361 373.046 107.361C373.131 107.361 373.226 107.365 373.331 107.374C373.439 107.379 373.529 107.389 373.6 107.403V108.822C373.534 108.8 373.431 108.78 373.289 108.763C373.15 108.743 373.015 108.733 372.884 108.733C372.603 108.733 372.35 108.794 372.125 108.916C371.904 109.036 371.729 109.202 371.601 109.415C371.473 109.628 371.409 109.874 371.409 110.152V114H369.867ZM374.625 114V107.455H376.167V114H374.625ZM375.4 106.526C375.156 106.526 374.946 106.445 374.77 106.283C374.593 106.118 374.505 105.92 374.505 105.69C374.505 105.457 374.593 105.26 374.77 105.098C374.946 104.933 375.156 104.851 375.4 104.851C375.647 104.851 375.858 104.933 376.031 105.098C376.207 105.26 376.295 105.457 376.295 105.69C376.295 105.92 376.207 106.118 376.031 106.283C375.858 106.445 375.647 106.526 375.4 106.526ZM380.609 114.128C379.955 114.128 379.394 113.984 378.925 113.697C378.46 113.411 378.1 113.014 377.847 112.509C377.597 112 377.472 111.415 377.472 110.753C377.472 110.088 377.6 109.501 377.856 108.993C378.112 108.482 378.472 108.084 378.938 107.8C379.407 107.513 379.961 107.369 380.6 107.369C381.131 107.369 381.602 107.467 382.011 107.663C382.423 107.857 382.751 108.131 382.995 108.486C383.239 108.838 383.379 109.25 383.413 109.722H381.938C381.879 109.406 381.737 109.143 381.512 108.933C381.29 108.72 380.994 108.614 380.621 108.614C380.306 108.614 380.029 108.699 379.79 108.869C379.552 109.037 379.366 109.278 379.232 109.594C379.102 109.909 379.036 110.287 379.036 110.727C379.036 111.173 379.102 111.557 379.232 111.878C379.363 112.196 379.546 112.442 379.782 112.615C380.021 112.786 380.3 112.871 380.621 112.871C380.849 112.871 381.052 112.828 381.231 112.743C381.413 112.655 381.565 112.528 381.687 112.364C381.809 112.199 381.893 111.999 381.938 111.763H383.413C383.376 112.226 383.239 112.636 383.004 112.994C382.768 113.349 382.447 113.628 382.04 113.83C381.634 114.028 381.157 114.128 380.609 114.128ZM389.853 109.185L388.446 109.338C388.407 109.196 388.337 109.062 388.238 108.938C388.141 108.812 388.01 108.712 387.846 108.635C387.681 108.558 387.479 108.52 387.24 108.52C386.919 108.52 386.65 108.589 386.431 108.729C386.215 108.868 386.108 109.048 386.111 109.27C386.108 109.46 386.178 109.615 386.32 109.734C386.465 109.854 386.703 109.952 387.036 110.028L388.152 110.267C388.772 110.401 389.232 110.612 389.533 110.902C389.837 111.192 389.99 111.571 389.993 112.04C389.99 112.452 389.87 112.815 389.631 113.131C389.395 113.443 389.067 113.687 388.647 113.864C388.226 114.04 387.743 114.128 387.198 114.128C386.397 114.128 385.752 113.96 385.263 113.625C384.775 113.287 384.483 112.817 384.39 112.214L385.894 112.07C385.962 112.365 386.107 112.588 386.328 112.739C386.55 112.889 386.838 112.964 387.194 112.964C387.56 112.964 387.854 112.889 388.076 112.739C388.3 112.588 388.412 112.402 388.412 112.18C388.412 111.993 388.34 111.838 388.195 111.716C388.053 111.594 387.831 111.5 387.53 111.435L386.414 111.2C385.786 111.07 385.321 110.849 385.02 110.54C384.719 110.227 384.57 109.832 384.573 109.355C384.57 108.952 384.679 108.602 384.901 108.307C385.125 108.009 385.436 107.778 385.834 107.616C386.235 107.452 386.696 107.369 387.219 107.369C387.986 107.369 388.59 107.533 389.03 107.859C389.473 108.186 389.748 108.628 389.853 109.185Z" fill="#1F2D5C" fill-opacity="0.85"/>
<path d="M0 6C0 2.68629 2.68629 0 6 0H151C154.314 0 157 2.68629 157 6V62C157 65.3137 154.314 68 151 68H6C2.6863 68 0 65.3137 0 62V6Z" fill="white" fill-opacity="0.85"/>
<path d="M0.5 6C0.5 2.96244 2.96243 0.5 6 0.5H151C154.038 0.5 156.5 2.96243 156.5 6V62C156.5 65.0376 154.038 67.5 151 67.5H6C2.96244 67.5 0.5 65.0376 0.5 62V6Z" stroke="#000932" stroke-opacity="0.12"/>
<g clip-path="url(#clip0_2018_11224)">
<path d="M26.8418 25.4088L47.1177 14C47.1177 14 45.2062 15.6815 45.2902 19.3215C45.3798 23.2006 47.1177 24.6431 47.1177 24.6431L44.7352 23.5575L26.0837 30.8591C26.0837 30.8591 25.6309 29.5903 25.6235 28.634C25.6043 26.2747 26.8418 25.4088 26.8418 25.4088Z" fill="#029DD1"/>
<path d="M22.5283 32.8672L44.6811 24.7638C44.6811 24.7638 42.7695 26.4453 42.8536 30.0854C42.9432 33.9645 44.6811 35.4068 44.6811 35.4068L41.5861 34.2155L21.7027 38.1295C21.7027 38.1295 21.317 36.96 21.3098 36.0923C21.2909 33.7329 22.5283 32.8672 22.5283 32.8672Z" fill="#0047BD"/>
<path d="M18.2185 39.4387L41.5918 35.2456C41.5918 35.2456 39.6803 36.9271 39.7644 40.5671C39.854 44.4462 41.5918 45.8887 41.5918 45.8887H18.393C18.393 45.8887 17.0205 45.055 17 42.5427C16.9811 40.1833 18.2185 39.4387 18.2185 39.4387Z" fill="#4817A1"/>
</g>
<path d="M63.8253 22.0696C63.7424 21.8011 63.6281 21.5608 63.4822 21.3487C63.3397 21.1333 63.1674 20.9493 62.9652 20.7969C62.7663 20.6444 62.5376 20.5301 62.2791 20.4538C62.0206 20.3743 61.7389 20.3345 61.4339 20.3345C60.8871 20.3345 60.3999 20.4721 59.9723 20.7472C59.5447 21.0223 59.2083 21.4266 58.9631 21.9602C58.7211 22.4905 58.6001 23.1368 58.6001 23.8991C58.6001 24.6681 58.7211 25.3194 58.9631 25.853C59.205 26.3866 59.5414 26.7926 59.9723 27.071C60.4032 27.3461 60.9036 27.4837 61.4737 27.4837C61.9908 27.4837 62.4382 27.3842 62.8161 27.1854C63.1972 26.9865 63.4905 26.7048 63.696 26.3402C63.9015 25.9723 64.0043 25.5414 64.0043 25.0476L64.4219 25.1122H61.6577V23.6705H65.7891V24.8935C65.7891 25.7652 65.6035 26.5192 65.2322 27.1555C64.861 27.7919 64.3506 28.2824 63.701 28.6271C63.0514 28.9685 62.3056 29.1392 61.4638 29.1392C60.5258 29.1392 59.7022 28.9287 58.9929 28.5078C58.2869 28.0836 57.7351 27.482 57.3374 26.7031C56.9429 25.9209 56.7457 24.9929 56.7457 23.919C56.7457 23.0971 56.8617 22.3629 57.0938 21.7166C57.3291 21.0703 57.6572 20.5218 58.0781 20.071C58.4991 19.617 58.9929 19.2723 59.5597 19.0369C60.1264 18.7983 60.7429 18.679 61.4091 18.679C61.9725 18.679 62.4979 18.7618 62.9851 18.9276C63.4723 19.09 63.9048 19.322 64.2827 19.6236C64.6638 19.9252 64.977 20.2831 65.2223 20.6974C65.4676 21.1117 65.6283 21.5691 65.7045 22.0696H63.8253ZM67.4931 29V21.3636H69.2381V22.6364H69.3176C69.4569 22.1955 69.6955 21.8558 70.0336 21.6172C70.3749 21.3752 70.7644 21.2543 71.2019 21.2543C71.3013 21.2543 71.4123 21.2592 71.535 21.2692C71.6609 21.2758 71.7653 21.2874 71.8482 21.304V22.9595C71.772 22.933 71.651 22.9098 71.4853 22.8899C71.3229 22.8667 71.1654 22.8551 71.013 22.8551C70.6848 22.8551 70.3899 22.9264 70.128 23.0689C69.8695 23.2081 69.6657 23.402 69.5165 23.6506C69.3674 23.8991 69.2928 24.1858 69.2928 24.5107V29H67.4931ZM76.0604 29.1491C75.3146 29.1491 74.6683 28.9851 74.1214 28.657C73.5746 28.3288 73.1503 27.8698 72.8487 27.2798C72.5504 26.6899 72.4013 26.0005 72.4013 25.2116C72.4013 24.4228 72.5504 23.7318 72.8487 23.1385C73.1503 22.5452 73.5746 22.0845 74.1214 21.7564C74.6683 21.4283 75.3146 21.2642 76.0604 21.2642C76.8061 21.2642 77.4524 21.4283 77.9993 21.7564C78.5462 22.0845 78.9688 22.5452 79.267 23.1385C79.5687 23.7318 79.7195 24.4228 79.7195 25.2116C79.7195 26.0005 79.5687 26.6899 79.267 27.2798C78.9688 27.8698 78.5462 28.3288 77.9993 28.657C77.4524 28.9851 76.8061 29.1491 76.0604 29.1491ZM76.0703 27.7074C76.4747 27.7074 76.8127 27.5964 77.0845 27.3743C77.3563 27.1489 77.5585 26.8473 77.6911 26.4695C77.8269 26.0916 77.8949 25.6707 77.8949 25.2067C77.8949 24.7393 77.8269 24.3168 77.6911 23.9389C77.5585 23.5578 77.3563 23.2545 77.0845 23.0291C76.8127 22.8037 76.4747 22.6911 76.0703 22.6911C75.656 22.6911 75.3113 22.8037 75.0362 23.0291C74.7644 23.2545 74.5606 23.5578 74.4247 23.9389C74.2921 24.3168 74.2259 24.7393 74.2259 25.2067C74.2259 25.6707 74.2921 26.0916 74.4247 26.4695C74.5606 26.8473 74.7644 27.1489 75.0362 27.3743C75.3113 27.5964 75.656 27.7074 76.0703 27.7074ZM82.6042 29L80.4466 21.3636H82.2811L83.6234 26.733H83.693L85.0652 21.3636H86.8798L88.252 26.7031H88.3265L89.649 21.3636H91.4885L89.3258 29H87.4515L86.0197 23.8395H85.9153L84.4835 29H82.6042ZM96.5582 21.3636V22.7557H92.1683V21.3636H96.5582ZM93.2521 19.5341H95.0518V26.7031C95.0518 26.9451 95.0883 27.1307 95.1612 27.2599C95.2375 27.3859 95.3369 27.4721 95.4595 27.5185C95.5821 27.5649 95.718 27.5881 95.8672 27.5881C95.9799 27.5881 96.0826 27.5798 96.1754 27.5632C96.2715 27.5466 96.3445 27.5317 96.3942 27.5185L96.6974 28.9254C96.6013 28.9586 96.4638 28.995 96.2848 29.0348C96.1091 29.0746 95.8937 29.0978 95.6385 29.1044C95.1877 29.1177 94.7817 29.0497 94.4205 28.9006C94.0592 28.7481 93.7725 28.5128 93.5604 28.1946C93.3516 27.8764 93.2488 27.4787 93.2521 27.0014V19.5341ZM100.027 24.5256V29H98.2275V18.8182H99.9874V22.6612H100.077C100.256 22.2304 100.533 21.8906 100.907 21.642C101.285 21.3902 101.766 21.2642 102.349 21.2642C102.879 21.2642 103.342 21.3752 103.736 21.5973C104.13 21.8194 104.435 22.1442 104.651 22.5717C104.869 22.9993 104.979 23.5213 104.979 24.1378V29H103.179V24.4162C103.179 23.9025 103.047 23.5031 102.781 23.218C102.52 22.9297 102.152 22.7855 101.678 22.7855C101.36 22.7855 101.075 22.8551 100.823 22.9943C100.574 23.1302 100.378 23.3274 100.236 23.5859C100.097 23.8445 100.027 24.1577 100.027 24.5256ZM106.893 29V18.8182H110.791C111.526 18.8182 112.138 18.9342 112.625 19.1662C113.116 19.3949 113.482 19.7081 113.724 20.1058C113.969 20.5036 114.092 20.9543 114.092 21.4581C114.092 21.8724 114.012 22.227 113.853 22.522C113.694 22.8137 113.48 23.0507 113.212 23.233C112.943 23.4152 112.643 23.5462 112.312 23.6257V23.7251C112.673 23.745 113.02 23.8561 113.351 24.0582C113.686 24.2571 113.959 24.5388 114.171 24.9034C114.383 25.268 114.49 25.7088 114.49 26.2259C114.49 26.7528 114.362 27.2268 114.107 27.6477C113.852 28.0653 113.467 28.3951 112.953 28.6371C112.44 28.879 111.793 29 111.014 29H106.893ZM108.737 27.4588H110.721C111.391 27.4588 111.873 27.3312 112.168 27.076C112.466 26.8175 112.615 26.486 112.615 26.0817C112.615 25.7801 112.541 25.5083 112.392 25.2663C112.242 25.0211 112.03 24.8288 111.755 24.6896C111.48 24.5471 111.152 24.4759 110.771 24.4759H108.737V27.4588ZM108.737 23.1484H110.562C110.88 23.1484 111.167 23.0904 111.422 22.9744C111.677 22.8551 111.878 22.6877 112.024 22.4723C112.173 22.2536 112.247 21.995 112.247 21.6967C112.247 21.3023 112.108 20.9775 111.83 20.7223C111.555 20.4671 111.145 20.3395 110.602 20.3395H108.737V23.1484ZM119.346 29.1491C118.6 29.1491 117.953 28.9851 117.407 28.657C116.86 28.3288 116.435 27.8698 116.134 27.2798C115.836 26.6899 115.686 26.0005 115.686 25.2116C115.686 24.4228 115.836 23.7318 116.134 23.1385C116.435 22.5452 116.86 22.0845 117.407 21.7564C117.953 21.4283 118.6 21.2642 119.346 21.2642C120.091 21.2642 120.738 21.4283 121.284 21.7564C121.831 22.0845 122.254 22.5452 122.552 23.1385C122.854 23.7318 123.005 24.4228 123.005 25.2116C123.005 26.0005 122.854 26.6899 122.552 27.2798C122.254 27.8698 121.831 28.3288 121.284 28.657C120.738 28.9851 120.091 29.1491 119.346 29.1491ZM119.355 27.7074C119.76 27.7074 120.098 27.5964 120.37 27.3743C120.641 27.1489 120.844 26.8473 120.976 26.4695C121.112 26.0916 121.18 25.6707 121.18 25.2067C121.18 24.7393 121.112 24.3168 120.976 23.9389C120.844 23.5578 120.641 23.2545 120.37 23.0291C120.098 22.8037 119.76 22.6911 119.355 22.6911C118.941 22.6911 118.596 22.8037 118.321 23.0291C118.05 23.2545 117.846 23.5578 117.71 23.9389C117.577 24.3168 117.511 24.7393 117.511 25.2067C117.511 25.6707 117.577 26.0916 117.71 26.4695C117.846 26.8473 118.05 27.1489 118.321 27.3743C118.596 27.5964 118.941 27.7074 119.355 27.7074ZM127.863 29.1491C127.117 29.1491 126.471 28.9851 125.924 28.657C125.377 28.3288 124.953 27.8698 124.651 27.2798C124.353 26.6899 124.204 26.0005 124.204 25.2116C124.204 24.4228 124.353 23.7318 124.651 23.1385C124.953 22.5452 125.377 22.0845 125.924 21.7564C126.471 21.4283 127.117 21.2642 127.863 21.2642C128.609 21.2642 129.255 21.4283 129.802 21.7564C130.349 22.0845 130.771 22.5452 131.07 23.1385C131.371 23.7318 131.522 24.4228 131.522 25.2116C131.522 26.0005 131.371 26.6899 131.07 27.2798C130.771 27.8698 130.349 28.3288 129.802 28.657C129.255 28.9851 128.609 29.1491 127.863 29.1491ZM127.873 27.7074C128.277 27.7074 128.615 27.5964 128.887 27.3743C129.159 27.1489 129.361 26.8473 129.494 26.4695C129.63 26.0916 129.698 25.6707 129.698 25.2067C129.698 24.7393 129.63 24.3168 129.494 23.9389C129.361 23.5578 129.159 23.2545 128.887 23.0291C128.615 22.8037 128.277 22.6911 127.873 22.6911C127.459 22.6911 127.114 22.8037 126.839 23.0291C126.567 23.2545 126.363 23.5578 126.227 23.9389C126.095 24.3168 126.029 24.7393 126.029 25.2067C126.029 25.6707 126.095 26.0916 126.227 26.4695C126.363 26.8473 126.567 27.1489 126.839 27.3743C127.114 27.5964 127.459 27.7074 127.873 27.7074ZM134.69 26.6037L134.685 24.4311H134.974L137.718 21.3636H139.821L136.445 25.1222H136.072L134.69 26.6037ZM133.05 29V18.8182H134.849V29H133.05ZM137.842 29L135.357 25.5249L136.57 24.2571L139.995 29H137.842Z" fill="#1F2D5C"/>
<path d="M62.6719 41.4929C62.6188 41.0223 62.4001 40.6577 62.0156 40.3991C61.6312 40.1373 61.1473 40.0064 60.5639 40.0064C60.1463 40.0064 59.785 40.0727 59.4801 40.2053C59.1752 40.3345 58.9382 40.5135 58.7692 40.7422C58.6035 40.9676 58.5206 41.2244 58.5206 41.5128C58.5206 41.7547 58.5769 41.9635 58.6896 42.1392C58.8056 42.3149 58.9564 42.4624 59.142 42.5817C59.331 42.6977 59.5331 42.7955 59.7486 42.875C59.964 42.9512 60.1712 43.0142 60.37 43.0639L61.3643 43.3224C61.6892 43.402 62.0223 43.5097 62.3636 43.6456C62.705 43.7815 63.0215 43.9605 63.3132 44.1825C63.6049 44.4046 63.8402 44.6797 64.0192 45.0078C64.2015 45.3359 64.2926 45.7287 64.2926 46.1861C64.2926 46.7628 64.1435 47.2749 63.8452 47.7223C63.5502 48.1697 63.121 48.5227 62.5575 48.7812C61.9974 49.0398 61.3196 49.169 60.5241 49.169C59.7618 49.169 59.1023 49.0481 58.5455 48.8061C57.9886 48.5642 57.5528 48.2211 57.2379 47.777C56.9231 47.3295 56.7491 46.7992 56.7159 46.1861H58.2571C58.2869 46.554 58.4063 46.8606 58.6151 47.1058C58.8272 47.3478 59.0973 47.5284 59.4254 47.6477C59.7569 47.7637 60.1198 47.8217 60.5142 47.8217C60.9484 47.8217 61.3345 47.7538 61.6726 47.6179C62.014 47.4787 62.2824 47.2865 62.478 47.0412C62.6735 46.7926 62.7713 46.5026 62.7713 46.1712C62.7713 45.8696 62.6851 45.6226 62.5128 45.4304C62.3438 45.2382 62.1134 45.0791 61.8217 44.9531C61.5334 44.8272 61.2069 44.7161 60.8423 44.62L59.6392 44.2919C58.8239 44.0698 58.1776 43.7434 57.7003 43.3125C57.2263 42.8816 56.9893 42.3116 56.9893 41.6023C56.9893 41.0156 57.1484 40.5036 57.4666 40.0661C57.7848 39.6286 58.2157 39.2888 58.7592 39.0469C59.3028 38.8016 59.916 38.679 60.5987 38.679C61.2881 38.679 61.8963 38.8 62.4233 39.0419C62.9536 39.2839 63.3712 39.617 63.6761 40.0412C63.9811 40.4621 64.1402 40.946 64.1534 41.4929H62.6719ZM69.4245 49H66.1284V38.8182H69.5289C70.5266 38.8182 71.3833 39.022 72.0993 39.4297C72.8152 39.834 73.3637 40.4157 73.7449 41.1747C74.1293 41.9304 74.3216 42.8369 74.3216 43.8942C74.3216 44.9548 74.1277 45.8662 73.7399 46.6286C73.3554 47.3909 72.7986 47.9775 72.0694 48.3885C71.3403 48.7962 70.4586 49 69.4245 49ZM67.6646 47.6577H69.34C70.1156 47.6577 70.7602 47.5118 71.274 47.2202C71.7877 46.9252 72.1722 46.4993 72.4274 45.9425C72.6826 45.3823 72.8102 44.6996 72.8102 43.8942C72.8102 43.0954 72.6826 42.4176 72.4274 41.8608C72.1755 41.304 71.7993 40.8814 71.2988 40.593C70.7984 40.3047 70.1769 40.1605 69.4345 40.1605H67.6646V47.6577ZM76.2319 49V38.8182H77.7681V43.6804H77.8924L82.163 38.8182H84.0969L79.9904 43.402L84.1119 49H82.2624L78.9712 44.451L77.7681 45.8331V49H76.2319Z" fill="#1F2D5C" fill-opacity="0.85"/>
<path d="M280 33L275 30.1133L275 35.8868L280 33ZM157 33.5L275.5 33.5L275.5 32.5L157 32.5L157 33.5Z" fill="#CDCED6"/>
<path d="M545 34L540 31.1132V36.8868L545 34ZM484 34.5H540.5V33.5H484V34.5Z" fill="#CDCED6"/>
<path d="M545 6C545 2.68629 547.686 0 551 0H720C723.314 0 726 2.68629 726 6V62C726 65.3137 723.314 68 720 68H551C547.686 68 545 65.3137 545 62V6Z" fill="white" fill-opacity="0.85"/>
<path d="M545.5 6C545.5 2.96244 547.962 0.5 551 0.5H720C723.038 0.5 725.5 2.96243 725.5 6V62C725.5 65.0376 723.038 67.5 720 67.5H551C547.962 67.5 545.5 65.0376 545.5 62V6Z" stroke="#000932" stroke-opacity="0.12"/>
<g clip-path="url(#clip1_2018_11224)">
<path d="M561 18C561 15.7909 562.791 14 565 14H589C591.209 14 593 15.7909 593 18V42C593 44.2091 591.209 46 589 46H565C562.791 46 561 44.2091 561 42V18Z" fill="#4400EE" fill-opacity="0.06"/>
<path d="M574.077 35H572.447L576.111 24.8182H577.886L581.55 35H579.919L577.04 26.6676H576.961L574.077 35ZM574.351 31.0128H579.641V32.3054H574.351V31.0128Z" fill="#1F0099" fill-opacity="0.69"/>
<rect width="32" height="32" transform="translate(561 14)" fill="white"/>
</g>
<path d="M602.004 29V18.8182H605.902C606.638 18.8182 607.249 18.9342 607.737 19.1662C608.227 19.3949 608.593 19.7081 608.835 20.1058C609.08 20.5036 609.203 20.9543 609.203 21.4581C609.203 21.8724 609.124 22.227 608.964 22.522C608.805 22.8137 608.592 23.0507 608.323 23.233C608.055 23.4152 607.755 23.5462 607.423 23.6257V23.7251C607.785 23.745 608.131 23.8561 608.462 24.0582C608.797 24.2571 609.071 24.5388 609.283 24.9034C609.495 25.268 609.601 25.7088 609.601 26.2259C609.601 26.7528 609.473 27.2268 609.218 27.6477C608.963 28.0653 608.578 28.3951 608.065 28.6371C607.551 28.879 606.905 29 606.126 29H602.004ZM603.849 27.4588H605.832C606.502 27.4588 606.984 27.3312 607.279 27.076C607.577 26.8175 607.727 26.486 607.727 26.0817C607.727 25.7801 607.652 25.5083 607.503 25.2663C607.354 25.0211 607.142 24.8288 606.866 24.6896C606.591 24.5471 606.263 24.4759 605.882 24.4759H603.849V27.4588ZM603.849 23.1484H605.673C605.991 23.1484 606.278 23.0904 606.533 22.9744C606.789 22.8551 606.989 22.6877 607.135 22.4723C607.284 22.2536 607.359 21.995 607.359 21.6967C607.359 21.3023 607.219 20.9775 606.941 20.7223C606.666 20.4671 606.257 20.3395 605.713 20.3395H603.849V23.1484ZM611.126 29V21.3636H612.926V29H611.126ZM612.031 20.2798C611.746 20.2798 611.5 20.1854 611.295 19.9964C611.089 19.8042 610.987 19.5739 610.987 19.3054C610.987 19.0336 611.089 18.8033 611.295 18.6143C611.5 18.4221 611.746 18.326 612.031 18.326C612.319 18.326 612.564 18.4221 612.767 18.6143C612.972 18.8033 613.075 19.0336 613.075 19.3054C613.075 19.5739 612.972 19.8042 612.767 19.9964C612.564 20.1854 612.319 20.2798 612.031 20.2798ZM618.097 32.0227C617.451 32.0227 616.896 31.9349 616.432 31.7592C615.968 31.5869 615.595 31.3549 615.313 31.0632C615.031 30.7715 614.836 30.4484 614.727 30.0938L616.347 29.701C616.42 29.8501 616.526 29.9976 616.665 30.1435C616.805 30.2926 616.992 30.4152 617.227 30.5114C617.466 30.6108 617.766 30.6605 618.127 30.6605C618.638 30.6605 619.06 30.5362 619.395 30.2876C619.73 30.0424 619.897 29.638 619.897 29.0746V27.6278H619.808C619.715 27.8134 619.579 28.004 619.4 28.1996C619.224 28.3951 618.991 28.5592 618.699 28.6918C618.411 28.8243 618.048 28.8906 617.61 28.8906C617.023 28.8906 616.491 28.7531 616.014 28.478C615.54 28.1996 615.162 27.7853 614.881 27.2351C614.602 26.6816 614.463 25.9889 614.463 25.157C614.463 24.3184 614.602 23.6108 614.881 23.0341C615.162 22.4541 615.542 22.0149 616.019 21.7166C616.496 21.415 617.028 21.2642 617.615 21.2642C618.063 21.2642 618.43 21.3404 618.719 21.4929C619.01 21.642 619.242 21.8227 619.415 22.0348C619.587 22.2436 619.718 22.4408 619.808 22.6264H619.907V21.3636H621.682V29.1243C621.682 29.7772 621.526 30.3175 621.214 30.745C620.903 31.1726 620.477 31.4924 619.937 31.7045C619.397 31.9167 618.783 32.0227 618.097 32.0227ZM618.112 27.4787C618.493 27.4787 618.818 27.3859 619.087 27.2003C619.355 27.0147 619.559 26.7479 619.698 26.3999C619.837 26.0518 619.907 25.6342 619.907 25.147C619.907 24.6664 619.837 24.2455 619.698 23.8842C619.562 23.523 619.36 23.2429 619.092 23.044C618.826 22.8419 618.5 22.7408 618.112 22.7408C617.711 22.7408 617.376 22.8452 617.108 23.054C616.839 23.2628 616.637 23.5495 616.501 23.9141C616.366 24.2753 616.298 24.6863 616.298 25.147C616.298 25.6143 616.366 26.0237 616.501 26.375C616.641 26.723 616.844 26.9948 617.113 27.1903C617.385 27.3826 617.718 27.4787 618.112 27.4787ZM627.399 25.5795H629.07L630.059 26.8622L630.765 27.6974L632.46 29.875H630.67L629.517 28.4134L629.025 27.7173L627.399 25.5795ZM632.704 23.9091C632.704 25.0062 632.498 25.9458 632.087 26.728C631.68 27.5069 631.123 28.1035 630.417 28.5178C629.714 28.9321 628.917 29.1392 628.026 29.1392C627.134 29.1392 626.335 28.9321 625.629 28.5178C624.927 28.1001 624.37 27.5019 623.959 26.723C623.551 25.9408 623.347 25.0028 623.347 23.9091C623.347 22.812 623.551 21.8741 623.959 21.0952C624.37 20.313 624.927 19.7147 625.629 19.3004C626.335 18.8861 627.134 18.679 628.026 18.679C628.917 18.679 629.714 18.8861 630.417 19.3004C631.123 19.7147 631.68 20.313 632.087 21.0952C632.498 21.8741 632.704 22.812 632.704 23.9091ZM630.849 23.9091C630.849 23.1368 630.728 22.4856 630.487 21.9553C630.248 21.4216 629.916 21.0189 629.492 20.7472C629.068 20.4721 628.579 20.3345 628.026 20.3345C627.472 20.3345 626.983 20.4721 626.559 20.7472C626.135 21.0189 625.802 21.4216 625.56 21.9553C625.321 22.4856 625.202 23.1368 625.202 23.9091C625.202 24.6813 625.321 25.3343 625.56 25.8679C625.802 26.3982 626.135 26.8009 626.559 27.076C626.983 27.3478 627.472 27.4837 628.026 27.4837C628.579 27.4837 629.068 27.3478 629.492 27.076C629.916 26.8009 630.248 26.3982 630.487 25.8679C630.728 25.3343 630.849 24.6813 630.849 23.9091ZM639.249 25.7884V21.3636H641.049V29H639.304V27.6428H639.224C639.052 28.0703 638.768 28.42 638.374 28.6918C637.983 28.9635 637.501 29.0994 636.927 29.0994C636.427 29.0994 635.984 28.9884 635.6 28.7663C635.219 28.541 634.92 28.2145 634.705 27.7869C634.489 27.3561 634.382 26.8357 634.382 26.2259V21.3636H636.181V25.9474C636.181 26.4313 636.314 26.8158 636.579 27.1009C636.844 27.3859 637.192 27.5284 637.623 27.5284C637.888 27.5284 638.145 27.4638 638.394 27.3345C638.642 27.2053 638.846 27.013 639.005 26.7578C639.168 26.4993 639.249 26.1761 639.249 25.7884ZM646.28 29.1491C645.514 29.1491 644.853 28.9901 644.296 28.6719C643.743 28.3504 643.317 27.8963 643.019 27.3097C642.72 26.7197 642.571 26.0253 642.571 25.2266C642.571 24.4411 642.72 23.7517 643.019 23.1584C643.32 22.5618 643.741 22.0978 644.281 21.7663C644.822 21.4316 645.456 21.2642 646.186 21.2642C646.656 21.2642 647.1 21.3404 647.518 21.4929C647.939 21.642 648.31 21.8741 648.632 22.1889C648.956 22.5038 649.212 22.9048 649.397 23.392C649.583 23.8759 649.676 24.4527 649.676 25.1222V25.674H643.416V24.4609H647.95C647.947 24.1162 647.873 23.8097 647.727 23.5412C647.581 23.2694 647.377 23.0556 647.115 22.8999C646.857 22.7441 646.555 22.6662 646.21 22.6662C645.843 22.6662 645.519 22.7557 645.241 22.9347C644.963 23.1103 644.745 23.3423 644.59 23.6307C644.437 23.9157 644.359 24.2289 644.356 24.5703V25.6293C644.356 26.0734 644.437 26.4545 644.6 26.7727C644.762 27.0876 644.989 27.3295 645.281 27.4986C645.572 27.6643 645.914 27.7472 646.305 27.7472C646.567 27.7472 646.804 27.7107 647.016 27.6378C647.228 27.5616 647.412 27.4505 647.568 27.3047C647.723 27.1589 647.841 26.9782 647.921 26.7628L649.601 26.9517C649.495 27.3958 649.293 27.7836 648.994 28.1151C648.7 28.4432 648.322 28.6984 647.861 28.8807C647.4 29.0597 646.873 29.1491 646.28 29.1491ZM651.198 29V21.3636H652.943V22.6364H653.023C653.162 22.1955 653.401 21.8558 653.739 21.6172C654.08 21.3752 654.469 21.2543 654.907 21.2543C655.006 21.2543 655.117 21.2592 655.24 21.2692C655.366 21.2758 655.47 21.2874 655.553 21.304V22.9595C655.477 22.933 655.356 22.9098 655.19 22.8899C655.028 22.8667 654.871 22.8551 654.718 22.8551C654.39 22.8551 654.095 22.9264 653.833 23.0689C653.575 23.2081 653.371 23.402 653.222 23.6506C653.072 23.8991 652.998 24.1858 652.998 24.5107V29H651.198ZM658.1 31.8636C657.855 31.8636 657.628 31.8438 657.419 31.804C657.213 31.7675 657.049 31.7244 656.927 31.6747L657.344 30.2727C657.606 30.349 657.84 30.3854 658.045 30.3821C658.251 30.3788 658.431 30.3142 658.587 30.1882C658.746 30.0656 658.881 29.8601 658.99 29.5717L659.144 29.1591L656.375 21.3636H658.284L660.044 27.1307H660.123L661.888 21.3636H663.802L660.745 29.9247C660.602 30.3291 660.413 30.6754 660.178 30.9638C659.943 31.2554 659.654 31.4775 659.313 31.63C658.975 31.7857 658.571 31.8636 658.1 31.8636Z" fill="#1F2D5C"/>
<path d="M605.415 49H602.119V38.8182H605.519C606.517 38.8182 607.374 39.022 608.089 39.4297C608.805 39.834 609.354 40.4157 609.735 41.1747C610.12 41.9304 610.312 42.8369 610.312 43.8942C610.312 44.9548 610.118 45.8662 609.73 46.6286C609.346 47.3909 608.789 47.9775 608.06 48.3885C607.33 48.7962 606.449 49 605.415 49ZM603.655 47.6577H605.33C606.106 47.6577 606.75 47.5118 607.264 47.2202C607.778 46.9252 608.162 46.4993 608.418 45.9425C608.673 45.3823 608.8 44.6996 608.8 43.8942C608.8 43.0954 608.673 42.4176 608.418 41.8608C608.166 41.304 607.79 40.8814 607.289 40.593C606.789 40.3047 606.167 40.1605 605.425 40.1605H603.655V47.6577ZM614.325 49.169C613.841 49.169 613.404 49.0795 613.013 48.9006C612.622 48.7183 612.312 48.4548 612.083 48.1101C611.858 47.7654 611.745 47.3428 611.745 46.8423C611.745 46.4115 611.828 46.0568 611.993 45.7784C612.159 45.5 612.383 45.2796 612.665 45.1172C612.946 44.9548 613.261 44.8321 613.609 44.7493C613.957 44.6664 614.312 44.6035 614.673 44.5604C615.131 44.5073 615.502 44.4643 615.787 44.4311C616.072 44.3946 616.279 44.3366 616.408 44.2571C616.537 44.1776 616.602 44.0483 616.602 43.8693V43.8345C616.602 43.4003 616.479 43.0639 616.234 42.8253C615.992 42.5866 615.631 42.4673 615.15 42.4673C614.65 42.4673 614.256 42.5784 613.967 42.8004C613.682 43.0192 613.485 43.2628 613.376 43.5312L611.979 43.2131C612.144 42.7491 612.386 42.3745 612.704 42.0895C613.026 41.8011 613.395 41.5923 613.813 41.4631C614.231 41.3305 614.67 41.2642 615.131 41.2642C615.435 41.2642 615.759 41.3007 616.1 41.3736C616.445 41.4432 616.766 41.5724 617.064 41.7614C617.366 41.9503 617.613 42.2204 617.805 42.5717C617.997 42.9197 618.094 43.3722 618.094 43.929V49H616.642V47.956H616.582C616.486 48.1482 616.342 48.3371 616.15 48.5227C615.957 48.7083 615.711 48.8625 615.409 48.9851C615.107 49.1077 614.746 49.169 614.325 49.169ZM614.648 47.9759C615.059 47.9759 615.411 47.8946 615.702 47.7322C615.997 47.5698 616.221 47.3577 616.373 47.0959C616.529 46.8307 616.607 46.5473 616.607 46.2457V45.2614C616.554 45.3144 616.451 45.3641 616.299 45.4105C616.15 45.4536 615.979 45.4917 615.787 45.5249C615.595 45.5547 615.407 45.5829 615.225 45.6094C615.043 45.6326 614.89 45.6525 614.768 45.669C614.479 45.7055 614.216 45.7668 613.977 45.853C613.742 45.9392 613.553 46.0634 613.41 46.2259C613.271 46.3849 613.202 46.5971 613.202 46.8622C613.202 47.2301 613.337 47.5085 613.609 47.6974C613.881 47.883 614.227 47.9759 614.648 47.9759ZM623.638 41.3636V42.5568H619.467V41.3636H623.638ZM620.586 39.5341H622.072V46.7578C622.072 47.0462 622.115 47.2633 622.201 47.4091C622.288 47.5516 622.399 47.6494 622.534 47.7024C622.674 47.7521 622.824 47.777 622.987 47.777C623.106 47.777 623.211 47.7687 623.3 47.7521C623.39 47.7356 623.459 47.7223 623.509 47.7124L623.777 48.9403C623.691 48.9735 623.569 49.0066 623.409 49.0398C623.25 49.0762 623.051 49.0961 622.813 49.0994C622.422 49.1061 622.057 49.0365 621.719 48.8906C621.381 48.7448 621.108 48.5194 620.899 48.2145C620.69 47.9096 620.586 47.5268 620.586 47.0661V39.5341ZM627.505 49.169C627.021 49.169 626.583 49.0795 626.192 48.9006C625.801 48.7183 625.491 48.4548 625.263 48.1101C625.037 47.7654 624.925 47.3428 624.925 46.8423C624.925 46.4115 625.007 46.0568 625.173 45.7784C625.339 45.5 625.563 45.2796 625.844 45.1172C626.126 44.9548 626.441 44.8321 626.789 44.7493C627.137 44.6664 627.492 44.6035 627.853 44.5604C628.31 44.5073 628.681 44.4643 628.966 44.4311C629.251 44.3946 629.459 44.3366 629.588 44.2571C629.717 44.1776 629.782 44.0483 629.782 43.8693V43.8345C629.782 43.4003 629.659 43.0639 629.414 42.8253C629.172 42.5866 628.811 42.4673 628.33 42.4673C627.83 42.4673 627.435 42.5784 627.147 42.8004C626.862 43.0192 626.665 43.2628 626.555 43.5312L625.158 43.2131C625.324 42.7491 625.566 42.3745 625.884 42.0895C626.206 41.8011 626.575 41.5923 626.993 41.4631C627.41 41.3305 627.849 41.2642 628.31 41.2642C628.615 41.2642 628.938 41.3007 629.28 41.3736C629.624 41.4432 629.946 41.5724 630.244 41.7614C630.546 41.9503 630.793 42.2204 630.985 42.5717C631.177 42.9197 631.273 43.3722 631.273 43.929V49H629.822V47.956H629.762C629.666 48.1482 629.522 48.3371 629.329 48.5227C629.137 48.7083 628.89 48.8625 628.589 48.9851C628.287 49.1077 627.926 49.169 627.505 49.169ZM627.828 47.9759C628.239 47.9759 628.59 47.8946 628.882 47.7322C629.177 47.5698 629.401 47.3577 629.553 47.0959C629.709 46.8307 629.787 46.5473 629.787 46.2457V45.2614C629.734 45.3144 629.631 45.3641 629.479 45.4105C629.329 45.4536 629.159 45.4917 628.966 45.5249C628.774 45.5547 628.587 45.5829 628.405 45.6094C628.222 45.6326 628.07 45.6525 627.947 45.669C627.659 45.7055 627.395 45.7668 627.157 45.853C626.921 45.9392 626.733 46.0634 626.59 46.2259C626.451 46.3849 626.381 46.5971 626.381 46.8622C626.381 47.2301 626.517 47.5085 626.789 47.6974C627.061 47.883 627.407 47.9759 627.828 47.9759ZM638.614 49L636.367 41.3636H637.903L639.399 46.9716H639.474L640.975 41.3636H642.512L644.003 46.9467H644.078L645.564 41.3636H647.1L644.858 49H643.342L641.791 43.4865H641.676L640.125 49H638.614ZM650.733 49.169C650.249 49.169 649.812 49.0795 649.421 48.9006C649.03 48.7183 648.72 48.4548 648.491 48.1101C648.266 47.7654 648.153 47.3428 648.153 46.8423C648.153 46.4115 648.236 46.0568 648.402 45.7784C648.567 45.5 648.791 45.2796 649.073 45.1172C649.355 44.9548 649.669 44.8321 650.017 44.7493C650.365 44.6664 650.72 44.6035 651.081 44.5604C651.539 44.5073 651.91 44.4643 652.195 44.4311C652.48 44.3946 652.687 44.3366 652.816 44.2571C652.946 44.1776 653.01 44.0483 653.01 43.8693V43.8345C653.01 43.4003 652.888 43.0639 652.642 42.8253C652.4 42.5866 652.039 42.4673 651.559 42.4673C651.058 42.4673 650.664 42.5784 650.375 42.8004C650.09 43.0192 649.893 43.2628 649.784 43.5312L648.387 43.2131C648.552 42.7491 648.794 42.3745 649.113 42.0895C649.434 41.8011 649.804 41.5923 650.221 41.4631C650.639 41.3305 651.078 41.2642 651.539 41.2642C651.844 41.2642 652.167 41.3007 652.508 41.3736C652.853 41.4432 653.174 41.5724 653.473 41.7614C653.774 41.9503 654.021 42.2204 654.213 42.5717C654.406 42.9197 654.502 43.3722 654.502 43.929V49H653.05V47.956H652.99C652.894 48.1482 652.75 48.3371 652.558 48.5227C652.366 48.7083 652.119 48.8625 651.817 48.9851C651.516 49.1077 651.154 49.169 650.733 49.169ZM651.056 47.9759C651.467 47.9759 651.819 47.8946 652.11 47.7322C652.405 47.5698 652.629 47.3577 652.782 47.0959C652.937 46.8307 653.015 46.5473 653.015 46.2457V45.2614C652.962 45.3144 652.859 45.3641 652.707 45.4105C652.558 45.4536 652.387 45.4917 652.195 45.5249C652.003 45.5547 651.815 45.5829 651.633 45.6094C651.451 45.6326 651.298 45.6525 651.176 45.669C650.887 45.7055 650.624 45.7668 650.385 45.853C650.15 45.9392 649.961 46.0634 649.819 46.2259C649.679 46.3849 649.61 46.5971 649.61 46.8622C649.61 47.2301 649.746 47.5085 650.017 47.6974C650.289 47.883 650.636 47.9759 651.056 47.9759ZM656.482 49V41.3636H657.919V42.5767H657.998C658.137 42.1657 658.383 41.8426 658.734 41.6072C659.088 41.3686 659.49 41.2493 659.937 41.2493C660.03 41.2493 660.139 41.2526 660.265 41.2592C660.394 41.2659 660.495 41.2741 660.568 41.2841V42.706C660.509 42.6894 660.403 42.6712 660.25 42.6513C660.098 42.6281 659.945 42.6165 659.793 42.6165C659.441 42.6165 659.128 42.6911 658.853 42.8402C658.581 42.986 658.366 43.1899 658.207 43.4517C658.048 43.7102 657.968 44.0052 657.968 44.3366V49H656.482ZM664.873 49.1541C664.12 49.1541 663.472 48.9934 662.929 48.6719C662.388 48.3471 661.971 47.8913 661.676 47.3047C661.384 46.7147 661.238 46.0237 661.238 45.2315C661.238 44.4493 661.384 43.7599 661.676 43.1634C661.971 42.5668 662.382 42.1011 662.909 41.7663C663.439 41.4316 664.059 41.2642 664.768 41.2642C665.199 41.2642 665.617 41.3355 666.021 41.478C666.425 41.6205 666.788 41.8442 667.11 42.1491C667.431 42.4541 667.685 42.8501 667.87 43.3374C668.056 43.8213 668.149 44.4096 668.149 45.1023V45.6293H662.078V44.5156H666.692C666.692 44.1245 666.613 43.7782 666.453 43.4766C666.294 43.1716 666.071 42.9313 665.782 42.7557C665.497 42.58 665.163 42.4922 664.778 42.4922C664.36 42.4922 663.996 42.5949 663.684 42.8004C663.376 43.0026 663.137 43.2678 662.968 43.5959C662.803 43.9207 662.72 44.2737 662.72 44.6548V45.5249C662.72 46.0353 662.809 46.4695 662.988 46.8274C663.171 47.1854 663.424 47.4588 663.749 47.6477C664.074 47.8333 664.453 47.9261 664.887 47.9261C665.169 47.9261 665.426 47.8864 665.658 47.8068C665.89 47.724 666.091 47.6013 666.26 47.4389C666.429 47.2765 666.558 47.076 666.647 46.8374L668.054 47.0909C667.942 47.5052 667.739 47.8681 667.448 48.1797C667.159 48.4879 666.797 48.7282 666.359 48.9006C665.925 49.0696 665.429 49.1541 664.873 49.1541ZM671.285 44.4659V49H669.798V38.8182H671.265V42.6065H671.359C671.538 42.1955 671.812 41.8691 672.18 41.6271C672.547 41.3852 673.028 41.2642 673.621 41.2642C674.145 41.2642 674.602 41.3719 674.993 41.5874C675.388 41.8028 675.693 42.1243 675.908 42.5518C676.127 42.9761 676.236 43.5064 676.236 44.1428V49H674.75V44.3217C674.75 43.7616 674.606 43.3274 674.317 43.0192C674.029 42.7076 673.628 42.5518 673.114 42.5518C672.763 42.5518 672.448 42.6264 672.17 42.7756C671.894 42.9247 671.677 43.1435 671.518 43.4318C671.363 43.7169 671.285 44.0616 671.285 44.4659ZM681.437 49.1541C680.721 49.1541 680.096 48.9901 679.562 48.6619C679.029 48.3338 678.614 47.8748 678.319 47.2848C678.024 46.6948 677.877 46.0054 677.877 45.2166C677.877 44.4245 678.024 43.7318 678.319 43.1385C678.614 42.5452 679.029 42.0845 679.562 41.7564C680.096 41.4283 680.721 41.2642 681.437 41.2642C682.153 41.2642 682.777 41.4283 683.311 41.7564C683.845 42.0845 684.259 42.5452 684.554 43.1385C684.849 43.7318 684.996 44.4245 684.996 45.2166C684.996 46.0054 684.849 46.6948 684.554 47.2848C684.259 47.8748 683.845 48.3338 683.311 48.6619C682.777 48.9901 682.153 49.1541 681.437 49.1541ZM681.442 47.9062C681.906 47.9062 682.29 47.7836 682.595 47.5384C682.9 47.2931 683.125 46.9666 683.271 46.5589C683.42 46.1513 683.495 45.7022 683.495 45.2116C683.495 44.7244 683.42 44.277 683.271 43.8693C683.125 43.4583 682.9 43.1286 682.595 42.88C682.29 42.6314 681.906 42.5071 681.442 42.5071C680.974 42.5071 680.586 42.6314 680.278 42.88C679.973 43.1286 679.746 43.4583 679.597 43.8693C679.451 44.277 679.378 44.7244 679.378 45.2116C679.378 45.7022 679.451 46.1513 679.597 46.5589C679.746 46.9666 679.973 47.2931 680.278 47.5384C680.586 47.7836 680.974 47.9062 681.442 47.9062ZM691.493 45.8331V41.3636H692.984V49H691.523V47.6776H691.443C691.268 48.0852 690.986 48.425 690.598 48.6967C690.214 48.9652 689.735 49.0994 689.161 49.0994C688.671 49.0994 688.237 48.9917 687.859 48.7763C687.484 48.5575 687.189 48.2344 686.974 47.8068C686.762 47.3793 686.656 46.8506 686.656 46.2209V41.3636H688.142V46.0419C688.142 46.5623 688.286 46.9766 688.575 47.2848C688.863 47.593 689.237 47.7472 689.698 47.7472C689.977 47.7472 690.253 47.6776 690.528 47.5384C690.807 47.3991 691.037 47.1887 691.219 46.907C691.405 46.6252 691.496 46.2673 691.493 45.8331ZM700.704 43.228L699.357 43.4666C699.3 43.2943 699.211 43.1302 699.088 42.9744C698.969 42.8187 698.807 42.6911 698.601 42.5916C698.396 42.4922 698.139 42.4425 697.83 42.4425C697.41 42.4425 697.058 42.5369 696.776 42.7259C696.495 42.9115 696.354 43.1518 696.354 43.4467C696.354 43.7019 696.448 43.9074 696.637 44.0632C696.826 44.219 697.131 44.3466 697.552 44.446L698.765 44.7244C699.468 44.8868 699.991 45.1371 700.336 45.4751C700.681 45.8132 700.853 46.2524 700.853 46.7926C700.853 47.25 700.721 47.6577 700.455 48.0156C700.194 48.3703 699.827 48.6487 699.357 48.8509C698.889 49.053 698.347 49.1541 697.731 49.1541C696.876 49.1541 696.178 48.9718 695.638 48.6072C695.098 48.2393 694.766 47.7173 694.644 47.0412L696.08 46.8224C696.17 47.197 696.354 47.4804 696.632 47.6726C696.911 47.8615 697.274 47.956 697.721 47.956C698.208 47.956 698.598 47.8549 698.889 47.6527C699.181 47.4472 699.327 47.197 699.327 46.902C699.327 46.6634 699.237 46.4628 699.058 46.3004C698.883 46.138 698.613 46.0154 698.248 45.9325L696.955 45.6491C696.243 45.4867 695.716 45.2282 695.374 44.8736C695.036 44.5189 694.867 44.0698 694.867 43.5263C694.867 43.0755 694.993 42.6811 695.245 42.343C695.497 42.005 695.845 41.7415 696.289 41.5526C696.733 41.3603 697.242 41.2642 697.816 41.2642C698.641 41.2642 699.29 41.4432 699.764 41.8011C700.238 42.1558 700.552 42.6314 700.704 43.228ZM705.779 49.1541C705.026 49.1541 704.378 48.9934 703.835 48.6719C703.295 48.3471 702.877 47.8913 702.582 47.3047C702.29 46.7147 702.145 46.0237 702.145 45.2315C702.145 44.4493 702.29 43.7599 702.582 43.1634C702.877 42.5668 703.288 42.1011 703.815 41.7663C704.345 41.4316 704.965 41.2642 705.674 41.2642C706.105 41.2642 706.523 41.3355 706.927 41.478C707.332 41.6205 707.694 41.8442 708.016 42.1491C708.337 42.4541 708.591 42.8501 708.777 43.3374C708.962 43.8213 709.055 44.4096 709.055 45.1023V45.6293H702.985V44.5156H707.598C707.598 44.1245 707.519 43.7782 707.36 43.4766C707.201 43.1716 706.977 42.9313 706.689 42.7557C706.404 42.58 706.069 42.4922 705.684 42.4922C705.267 42.4922 704.902 42.5949 704.591 42.8004C704.282 43.0026 704.044 43.2678 703.875 43.5959C703.709 43.9207 703.626 44.2737 703.626 44.6548V45.5249C703.626 46.0353 703.716 46.4695 703.895 46.8274C704.077 47.1854 704.33 47.4588 704.655 47.6477C704.98 47.8333 705.359 47.9261 705.794 47.9261C706.075 47.9261 706.332 47.8864 706.564 47.8068C706.796 47.724 706.997 47.6013 707.166 47.4389C707.335 47.2765 707.464 47.076 707.554 46.8374L708.961 47.0909C708.848 47.5052 708.646 47.8681 708.354 48.1797C708.066 48.4879 707.703 48.7282 707.265 48.9006C706.831 49.0696 706.336 49.1541 705.779 49.1541Z" fill="#1F2D5C" fill-opacity="0.85"/>
<path d="M567.069 47.9505L559.87 35.4808C559.593 35.0014 559.447 34.4576 559.447 33.904C559.447 33.3504 559.593 32.8066 559.87 32.3272L567.069 19.8577C567.346 19.3782 567.744 18.9801 568.223 18.7033C568.703 18.4264 569.247 18.2807 569.8 18.2808H584.199C584.752 18.2808 585.296 18.4265 585.776 18.7033C586.255 18.9801 586.653 19.3783 586.93 19.8577L594.129 32.3272C594.406 32.8066 594.552 33.3505 594.552 33.9041C594.552 34.4578 594.406 35.0016 594.129 35.4811L586.93 47.9505C586.653 48.4299 586.255 48.828 585.776 49.1048C585.296 49.3815 584.752 49.5272 584.199 49.5272H569.8C569.247 49.5273 568.703 49.3816 568.223 49.1047C567.744 48.8279 567.346 48.43 567.069 47.9505Z" fill="url(#paint0_linear_2018_11224)"/>
<path opacity="0.07" d="M592.147 40.0693L581.559 29.4815L577 28.2614L572.905 29.7835L571.323 33.9041L572.595 38.4921L583.822 49.7194L586.205 49.6136L592.147 40.0693Z" fill="black"/>
<path d="M577 27.5425C573.487 27.5425 570.638 30.3906 570.638 33.904C570.638 37.4172 573.487 40.2653 577 40.2653C580.513 40.2653 583.361 37.4172 583.361 33.904C583.361 30.3906 580.513 27.5425 577 27.5425ZM577 38.7306C574.334 38.7306 572.173 36.5695 572.173 33.9038C572.173 31.238 574.334 29.0772 577 29.0772C579.665 29.0772 581.827 31.2383 581.827 33.904C581.827 36.5698 579.665 38.7306 577 38.7306Z" fill="white"/>
<path d="M573.98 33.6584V35.6357C574.273 36.138 574.686 36.5597 575.181 36.863V33.6584H573.98ZM576.362 31.9915V37.315C576.566 37.3525 576.775 37.3753 576.99 37.3753C577.186 37.3753 577.377 37.3547 577.564 37.3235V31.9915H576.362ZM578.855 34.48V36.8282C579.359 36.5078 579.773 36.0642 580.057 35.5392V34.4803L578.855 34.48ZM581.577 37.8223L580.918 38.4819C580.862 38.5379 580.831 38.6137 580.831 38.6927C580.831 38.7717 580.862 38.8475 580.918 38.9034L583.418 41.4024C583.474 41.4583 583.55 41.4896 583.629 41.4896C583.708 41.4896 583.784 41.4583 583.84 41.4024L584.499 40.7437C584.554 40.6876 584.585 40.6119 584.585 40.5331C584.585 40.4542 584.554 40.3785 584.499 40.3224L581.999 37.8223C581.943 37.7667 581.867 37.7355 581.788 37.7355C581.709 37.7355 581.633 37.7667 581.577 37.8223Z" fill="white"/>
<path d="M280 6C280 2.68629 282.686 0 286 0H482C485.314 0 488 2.68629 488 6V62C488 65.3137 485.314 68 482 68H286C282.686 68 280 65.3137 280 62V6Z" fill="white" fill-opacity="0.85"/>
<path d="M280.5 6C280.5 2.96244 282.962 0.5 286 0.5H482C485.038 0.5 487.5 2.96243 487.5 6V62C487.5 65.0376 485.038 67.5 482 67.5H286C282.962 67.5 280.5 65.0376 280.5 62V6Z" stroke="#000932" stroke-opacity="0.12"/>
<g clip-path="url(#clip2_2018_11224)">
<path d="M296 18C296 15.7909 297.791 14 300 14H324C326.209 14 328 15.7909 328 18V42C328 44.2091 326.209 46 324 46H300C297.791 46 296 44.2091 296 42V18Z" fill="#4400EE" fill-opacity="0.06"/>
<path d="M309.077 35H307.447L311.111 24.8182H312.886L316.55 35H314.919L312.04 26.6676H311.961L309.077 35ZM309.351 31.0128H314.641V32.3054H309.351V31.0128Z" fill="#1F0099" fill-opacity="0.69"/>
<rect width="32" height="32" transform="translate(296 14)" fill="white"/>
</g>
<path d="M343.825 22.0696C343.742 21.8011 343.628 21.5608 343.482 21.3487C343.34 21.1333 343.167 20.9493 342.965 20.7969C342.766 20.6444 342.538 20.5301 342.279 20.4538C342.021 20.3743 341.739 20.3345 341.434 20.3345C340.887 20.3345 340.4 20.4721 339.972 20.7472C339.545 21.0223 339.208 21.4266 338.963 21.9602C338.721 22.4905 338.6 23.1368 338.6 23.8991C338.6 24.6681 338.721 25.3194 338.963 25.853C339.205 26.3866 339.541 26.7926 339.972 27.071C340.403 27.3461 340.904 27.4837 341.474 27.4837C341.991 27.4837 342.438 27.3842 342.816 27.1854C343.197 26.9865 343.491 26.7048 343.696 26.3402C343.902 25.9723 344.004 25.5414 344.004 25.0476L344.422 25.1122H341.658V23.6705H345.789V24.8935C345.789 25.7652 345.603 26.5192 345.232 27.1555C344.861 27.7919 344.351 28.2824 343.701 28.6271C343.051 28.9685 342.306 29.1392 341.464 29.1392C340.526 29.1392 339.702 28.9287 338.993 28.5078C338.287 28.0836 337.735 27.482 337.337 26.7031C336.943 25.9209 336.746 24.9929 336.746 23.919C336.746 23.0971 336.862 22.3629 337.094 21.7166C337.329 21.0703 337.657 20.5218 338.078 20.071C338.499 19.617 338.993 19.2723 339.56 19.0369C340.126 18.7983 340.743 18.679 341.409 18.679C341.973 18.679 342.498 18.7618 342.985 18.9276C343.472 19.09 343.905 19.322 344.283 19.6236C344.664 19.9252 344.977 20.2831 345.222 20.6974C345.468 21.1117 345.628 21.5691 345.705 22.0696H343.825ZM350.824 29.1491C350.078 29.1491 349.432 28.9851 348.885 28.657C348.338 28.3288 347.914 27.8698 347.612 27.2798C347.314 26.6899 347.165 26.0005 347.165 25.2116C347.165 24.4228 347.314 23.7318 347.612 23.1385C347.914 22.5452 348.338 22.0845 348.885 21.7564C349.432 21.4283 350.078 21.2642 350.824 21.2642C351.57 21.2642 352.216 21.4283 352.763 21.7564C353.31 22.0845 353.732 22.5452 354.031 23.1385C354.332 23.7318 354.483 24.4228 354.483 25.2116C354.483 26.0005 354.332 26.6899 354.031 27.2798C353.732 27.8698 353.31 28.3288 352.763 28.657C352.216 28.9851 351.57 29.1491 350.824 29.1491ZM350.834 27.7074C351.238 27.7074 351.576 27.5964 351.848 27.3743C352.12 27.1489 352.322 26.8473 352.455 26.4695C352.591 26.0916 352.659 25.6707 352.659 25.2067C352.659 24.7393 352.591 24.3168 352.455 23.9389C352.322 23.5578 352.12 23.2545 351.848 23.0291C351.576 22.8037 351.238 22.6911 350.834 22.6911C350.42 22.6911 350.075 22.8037 349.8 23.0291C349.528 23.2545 349.324 23.5578 349.188 23.9389C349.056 24.3168 348.99 24.7393 348.99 25.2067C348.99 25.6707 349.056 26.0916 349.188 26.4695C349.324 26.8473 349.528 27.1489 349.8 27.3743C350.075 27.5964 350.42 27.7074 350.834 27.7074ZM359.342 29.1491C358.596 29.1491 357.95 28.9851 357.403 28.657C356.856 28.3288 356.432 27.8698 356.13 27.2798C355.832 26.6899 355.683 26.0005 355.683 25.2116C355.683 24.4228 355.832 23.7318 356.13 23.1385C356.432 22.5452 356.856 22.0845 357.403 21.7564C357.95 21.4283 358.596 21.2642 359.342 21.2642C360.087 21.2642 360.734 21.4283 361.281 21.7564C361.827 22.0845 362.25 22.5452 362.548 23.1385C362.85 23.7318 363.001 24.4228 363.001 25.2116C363.001 26.0005 362.85 26.6899 362.548 27.2798C362.25 27.8698 361.827 28.3288 361.281 28.657C360.734 28.9851 360.087 29.1491 359.342 29.1491ZM359.352 27.7074C359.756 27.7074 360.094 27.5964 360.366 27.3743C360.638 27.1489 360.84 26.8473 360.972 26.4695C361.108 26.0916 361.176 25.6707 361.176 25.2067C361.176 24.7393 361.108 24.3168 360.972 23.9389C360.84 23.5578 360.638 23.2545 360.366 23.0291C360.094 22.8037 359.756 22.6911 359.352 22.6911C358.937 22.6911 358.593 22.8037 358.317 23.0291C358.046 23.2545 357.842 23.5578 357.706 23.9389C357.573 24.3168 357.507 24.7393 357.507 25.2067C357.507 25.6707 357.573 26.0916 357.706 26.4695C357.842 26.8473 358.046 27.1489 358.317 27.3743C358.593 27.5964 358.937 27.7074 359.352 27.7074ZM367.849 32.0227C367.203 32.0227 366.648 31.9349 366.184 31.7592C365.72 31.5869 365.347 31.3549 365.065 31.0632C364.783 30.7715 364.588 30.4484 364.479 30.0938L366.099 29.701C366.172 29.8501 366.278 29.9976 366.417 30.1435C366.557 30.2926 366.744 30.4152 366.979 30.5114C367.218 30.6108 367.518 30.6605 367.879 30.6605C368.39 30.6605 368.812 30.5362 369.147 30.2876C369.482 30.0424 369.649 29.638 369.649 29.0746V27.6278H369.559C369.467 27.8134 369.331 28.004 369.152 28.1996C368.976 28.3951 368.742 28.5592 368.451 28.6918C368.162 28.8243 367.8 28.8906 367.362 28.8906C366.775 28.8906 366.243 28.7531 365.766 28.478C365.292 28.1996 364.914 27.7853 364.633 27.2351C364.354 26.6816 364.215 25.9889 364.215 25.157C364.215 24.3184 364.354 23.6108 364.633 23.0341C364.914 22.4541 365.294 22.0149 365.771 21.7166C366.248 21.415 366.78 21.2642 367.367 21.2642C367.814 21.2642 368.182 21.3404 368.471 21.4929C368.762 21.642 368.994 21.8227 369.167 22.0348C369.339 22.2436 369.47 22.4408 369.559 22.6264H369.659V21.3636H371.434V29.1243C371.434 29.7772 371.278 30.3175 370.966 30.745C370.655 31.1726 370.229 31.4924 369.689 31.7045C369.148 31.9167 368.535 32.0227 367.849 32.0227ZM367.864 27.4787C368.245 27.4787 368.57 27.3859 368.839 27.2003C369.107 27.0147 369.311 26.7479 369.45 26.3999C369.589 26.0518 369.659 25.6342 369.659 25.147C369.659 24.6664 369.589 24.2455 369.45 23.8842C369.314 23.523 369.112 23.2429 368.844 23.044C368.578 22.8419 368.252 22.7408 367.864 22.7408C367.463 22.7408 367.128 22.8452 366.86 23.054C366.591 23.2628 366.389 23.5495 366.253 23.9141C366.117 24.2753 366.05 24.6863 366.05 25.147C366.05 25.6143 366.117 26.0237 366.253 26.375C366.393 26.723 366.596 26.9948 366.865 27.1903C367.137 27.3826 367.47 27.4787 367.864 27.4787ZM375.078 18.8182V29H373.278V18.8182H375.078ZM380.309 29.1491C379.544 29.1491 378.882 28.9901 378.326 28.6719C377.772 28.3504 377.346 27.8963 377.048 27.3097C376.75 26.7197 376.6 26.0253 376.6 25.2266C376.6 24.4411 376.75 23.7517 377.048 23.1584C377.35 22.5618 377.77 22.0978 378.311 21.7663C378.851 21.4316 379.486 21.2642 380.215 21.2642C380.685 21.2642 381.13 21.3404 381.547 21.4929C381.968 21.642 382.339 21.8741 382.661 22.1889C382.986 22.5038 383.241 22.9048 383.426 23.392C383.612 23.8759 383.705 24.4527 383.705 25.1222V25.674H377.446V24.4609H381.98C381.976 24.1162 381.902 23.8097 381.756 23.5412C381.61 23.2694 381.406 23.0556 381.145 22.8999C380.886 22.7441 380.584 22.6662 380.24 22.6662C379.872 22.6662 379.549 22.7557 379.27 22.9347C378.992 23.1103 378.775 23.3423 378.619 23.6307C378.467 23.9157 378.389 24.2289 378.385 24.5703V25.6293C378.385 26.0734 378.467 26.4545 378.629 26.7727C378.791 27.0876 379.018 27.3295 379.31 27.4986C379.602 27.6643 379.943 27.7472 380.334 27.7472C380.596 27.7472 380.833 27.7107 381.045 27.6378C381.257 27.5616 381.441 27.4505 381.597 27.3047C381.753 27.1589 381.87 26.9782 381.95 26.7628L383.63 26.9517C383.524 27.3958 383.322 27.7836 383.024 28.1151C382.729 28.4432 382.351 28.6984 381.89 28.8807C381.43 29.0597 380.903 29.1491 380.309 29.1491ZM390.087 29H388.118L391.703 18.8182H393.98L397.569 29H395.601L392.881 20.9062H392.802L390.087 29ZM390.152 25.0078H395.521V26.4893H390.152V25.0078ZM400.631 24.5256V29H398.831V21.3636H400.551V22.6612H400.641C400.816 22.2337 401.096 21.8939 401.481 21.642C401.869 21.3902 402.348 21.2642 402.918 21.2642C403.445 21.2642 403.904 21.3769 404.295 21.6023C404.689 21.8277 404.994 22.1541 405.21 22.5817C405.428 23.0092 405.536 23.5279 405.533 24.1378V29H403.733V24.4162C403.733 23.9058 403.6 23.5064 403.335 23.218C403.073 22.9297 402.71 22.7855 402.246 22.7855C401.932 22.7855 401.652 22.8551 401.406 22.9943C401.164 23.1302 400.974 23.3274 400.835 23.5859C400.699 23.8445 400.631 24.1577 400.631 24.5256ZM409.56 29.1541C409.076 29.1541 408.64 29.0679 408.252 28.8956C407.868 28.7199 407.563 28.4614 407.337 28.12C407.115 27.7786 407.004 27.3577 407.004 26.8572C407.004 26.4264 407.084 26.0701 407.243 25.7884C407.402 25.5066 407.619 25.2812 407.894 25.1122C408.169 24.9432 408.479 24.8156 408.824 24.7294C409.172 24.6399 409.531 24.5753 409.903 24.5355C410.35 24.4891 410.713 24.4477 410.991 24.4112C411.27 24.3714 411.472 24.3118 411.598 24.2322C411.727 24.1494 411.792 24.0218 411.792 23.8494V23.8196C411.792 23.4451 411.681 23.1551 411.459 22.9496C411.237 22.7441 410.917 22.6413 410.499 22.6413C410.058 22.6413 409.709 22.7375 409.45 22.9297C409.195 23.1219 409.023 23.349 408.933 23.6108L407.253 23.3722C407.385 22.9081 407.604 22.5204 407.909 22.2088C408.214 21.8939 408.587 21.6586 409.028 21.5028C409.469 21.3438 409.956 21.2642 410.489 21.2642C410.857 21.2642 411.223 21.3073 411.588 21.3935C411.953 21.4796 412.286 21.6222 412.587 21.821C412.889 22.0166 413.131 22.2834 413.313 22.6214C413.499 22.9595 413.592 23.3821 413.592 23.8892V29H411.862V27.951H411.802C411.692 28.1631 411.538 28.362 411.339 28.5476C411.144 28.7299 410.897 28.8774 410.599 28.9901C410.304 29.0994 409.957 29.1541 409.56 29.1541ZM410.027 27.8317C410.388 27.8317 410.701 27.7604 410.967 27.6179C411.232 27.4721 411.436 27.2798 411.578 27.0412C411.724 26.8026 411.797 26.5424 411.797 26.2607V25.3608C411.741 25.4072 411.644 25.4503 411.509 25.4901C411.376 25.5298 411.227 25.5646 411.061 25.5945C410.895 25.6243 410.731 25.6508 410.569 25.674C410.406 25.6972 410.266 25.7171 410.146 25.7337C409.878 25.7701 409.638 25.8298 409.425 25.9126C409.213 25.9955 409.046 26.1115 408.923 26.2607C408.801 26.4065 408.739 26.5954 408.739 26.8274C408.739 27.1589 408.86 27.4091 409.102 27.5781C409.344 27.7472 409.652 27.8317 410.027 27.8317ZM417.201 18.8182V29H415.401V18.8182H417.201ZM420.17 31.8636C419.925 31.8636 419.698 31.8438 419.489 31.804C419.284 31.7675 419.12 31.7244 418.997 31.6747L419.415 30.2727C419.676 30.349 419.91 30.3854 420.116 30.3821C420.321 30.3788 420.502 30.3142 420.657 30.1882C420.817 30.0656 420.951 29.8601 421.06 29.5717L421.214 29.1591L418.445 21.3636H420.354L422.114 27.1307H422.194L423.959 21.3636H425.873L422.815 29.9247C422.673 30.3291 422.484 30.6754 422.248 30.9638C422.013 31.2554 421.725 31.4775 421.383 31.63C421.045 31.7857 420.641 31.8636 420.17 31.8636ZM430.931 21.3636V22.7557H426.541V21.3636H430.931ZM427.625 19.5341H429.425V26.7031C429.425 26.9451 429.461 27.1307 429.534 27.2599C429.61 27.3859 429.71 27.4721 429.833 27.5185C429.955 27.5649 430.091 27.5881 430.24 27.5881C430.353 27.5881 430.456 27.5798 430.548 27.5632C430.645 27.5466 430.718 27.5317 430.767 27.5185L431.07 28.9254C430.974 28.9586 430.837 28.995 430.658 29.0348C430.482 29.0746 430.267 29.0978 430.012 29.1044C429.561 29.1177 429.155 29.0497 428.794 28.9006C428.432 28.7481 428.146 28.5128 427.933 28.1946C427.725 27.8764 427.622 27.4787 427.625 27.0014V19.5341ZM432.436 29V21.3636H434.236V29H432.436ZM433.341 20.2798C433.056 20.2798 432.811 20.1854 432.605 19.9964C432.4 19.8042 432.297 19.5739 432.297 19.3054C432.297 19.0336 432.4 18.8033 432.605 18.6143C432.811 18.4221 433.056 18.326 433.341 18.326C433.63 18.326 433.875 18.4221 434.077 18.6143C434.283 18.8033 434.385 19.0336 434.385 19.3054C434.385 19.5739 434.283 19.8042 434.077 19.9964C433.875 20.1854 433.63 20.2798 433.341 20.2798ZM439.418 29.1491C438.655 29.1491 438.001 28.9818 437.454 28.647C436.91 28.3123 436.491 27.8499 436.196 27.2599C435.905 26.6667 435.759 25.9839 435.759 25.2116C435.759 24.4361 435.908 23.7517 436.206 23.1584C436.504 22.5618 436.925 22.0978 437.469 21.7663C438.016 21.4316 438.662 21.2642 439.408 21.2642C440.028 21.2642 440.576 21.3786 441.053 21.6072C441.534 21.8326 441.917 22.1525 442.202 22.5668C442.487 22.9777 442.649 23.4583 442.689 24.0085H440.969C440.899 23.6406 440.734 23.334 440.472 23.0888C440.213 22.8402 439.867 22.7159 439.433 22.7159C439.065 22.7159 438.742 22.8153 438.463 23.0142C438.185 23.2098 437.968 23.4915 437.812 23.8594C437.66 24.2273 437.583 24.6681 437.583 25.1818C437.583 25.7022 437.66 26.1496 437.812 26.5241C437.964 26.8954 438.178 27.1821 438.453 27.3842C438.732 27.5831 439.058 27.6825 439.433 27.6825C439.698 27.6825 439.935 27.6328 440.144 27.5334C440.356 27.4306 440.533 27.2831 440.676 27.0909C440.818 26.8987 440.916 26.665 440.969 26.3899H442.689C442.646 26.9302 442.487 27.4091 442.212 27.8267C441.937 28.241 441.562 28.5658 441.088 28.8011C440.614 29.0331 440.057 29.1491 439.418 29.1491ZM450.202 23.3821L448.562 23.5611C448.515 23.3954 448.434 23.2396 448.318 23.0938C448.205 22.9479 448.053 22.8303 447.861 22.7408C447.669 22.6513 447.433 22.6065 447.155 22.6065C446.78 22.6065 446.465 22.6877 446.21 22.8501C445.958 23.0125 445.834 23.223 445.837 23.4815C445.834 23.7036 445.915 23.8842 446.081 24.0234C446.25 24.1626 446.528 24.277 446.916 24.3665L448.219 24.6449C448.941 24.8007 449.478 25.0476 449.83 25.3857C450.184 25.7237 450.363 26.1662 450.366 26.7131C450.363 27.1937 450.222 27.6179 449.944 27.9858C449.669 28.3504 449.286 28.6354 448.795 28.8409C448.305 29.0464 447.741 29.1491 447.105 29.1491C446.17 29.1491 445.418 28.9536 444.848 28.5625C444.278 28.1681 443.938 27.6196 443.829 26.9169L445.584 26.7479C445.663 27.0926 445.832 27.3527 446.091 27.5284C446.349 27.7041 446.686 27.7919 447.1 27.7919C447.528 27.7919 447.871 27.7041 448.129 27.5284C448.391 27.3527 448.522 27.1357 448.522 26.8771C448.522 26.6584 448.438 26.4777 448.268 26.3352C448.103 26.1927 447.844 26.0833 447.493 26.0071L446.19 25.7337C445.458 25.5812 444.916 25.3243 444.565 24.9631C444.213 24.5985 444.039 24.1378 444.043 23.581C444.039 23.1103 444.167 22.7027 444.425 22.358C444.687 22.0099 445.05 21.7415 445.514 21.5526C445.982 21.3603 446.52 21.2642 447.13 21.2642C448.025 21.2642 448.729 21.4548 449.243 21.8359C449.76 22.2171 450.08 22.7325 450.202 23.3821ZM462.144 21.3636L459.425 29H457.436L454.717 21.3636H456.636L458.391 27.0362H458.47L460.23 21.3636H462.144ZM463.186 27.1108V25.6442L467.506 18.8182H468.729V20.9062H467.983L465.075 25.5149V25.5945H471.105V27.1108H463.186ZM468.043 29V26.6634L468.063 26.0071V18.8182H469.803V29H468.043Z" fill="#1F2D5C"/>
<path d="M337.119 49V38.8182H343.502V40.1406H338.655V43.2429H343.169V44.5604H338.655V47.6776H343.562V49H337.119ZM351.968 41.3636L349.198 49H347.607L344.833 41.3636H346.429L348.363 47.2401H348.443L350.372 41.3636H351.968ZM356.396 49.1541C355.644 49.1541 354.996 48.9934 354.452 48.6719C353.912 48.3471 353.494 47.8913 353.199 47.3047C352.908 46.7147 352.762 46.0237 352.762 45.2315C352.762 44.4493 352.908 43.7599 353.199 43.1634C353.494 42.5668 353.905 42.1011 354.432 41.7663C354.962 41.4316 355.582 41.2642 356.292 41.2642C356.722 41.2642 357.14 41.3355 357.544 41.478C357.949 41.6205 358.312 41.8442 358.633 42.1491C358.955 42.4541 359.208 42.8501 359.394 43.3374C359.579 43.8213 359.672 44.4096 359.672 45.1023V45.6293H353.602V44.5156H358.216C358.216 44.1245 358.136 43.7782 357.977 43.4766C357.818 43.1716 357.594 42.9313 357.306 42.7557C357.021 42.58 356.686 42.4922 356.301 42.4922C355.884 42.4922 355.519 42.5949 355.208 42.8004C354.9 43.0026 354.661 43.2678 354.492 43.5959C354.326 43.9207 354.243 44.2737 354.243 44.6548V45.5249C354.243 46.0353 354.333 46.4695 354.512 46.8274C354.694 47.1854 354.948 47.4588 355.272 47.6477C355.597 47.8333 355.977 47.9261 356.411 47.9261C356.693 47.9261 356.949 47.8864 357.181 47.8068C357.413 47.724 357.614 47.6013 357.783 47.4389C357.952 47.2765 358.081 47.076 358.171 46.8374L359.578 47.0909C359.465 47.5052 359.263 47.8681 358.971 48.1797C358.683 48.4879 358.32 48.7282 357.882 48.9006C357.448 49.0696 356.953 49.1541 356.396 49.1541ZM362.808 44.4659V49H361.322V41.3636H362.748V42.6065H362.843C363.019 42.2022 363.294 41.8774 363.668 41.6321C364.046 41.3868 364.522 41.2642 365.095 41.2642C365.615 41.2642 366.071 41.3736 366.462 41.5923C366.853 41.8078 367.157 42.1293 367.372 42.5568C367.587 42.9844 367.695 43.513 367.695 44.1428V49H366.209V44.3217C366.209 43.7682 366.064 43.3357 365.776 43.0241C365.488 42.7093 365.092 42.5518 364.588 42.5518C364.243 42.5518 363.937 42.6264 363.668 42.7756C363.403 42.9247 363.193 43.1435 363.037 43.4318C362.884 43.7169 362.808 44.0616 362.808 44.4659ZM373.253 41.3636V42.5568H369.082V41.3636H373.253ZM370.201 39.5341H371.687V46.7578C371.687 47.0462 371.73 47.2633 371.817 47.4091C371.903 47.5516 372.014 47.6494 372.15 47.7024C372.289 47.7521 372.44 47.777 372.602 47.777C372.721 47.777 372.826 47.7687 372.915 47.7521C373.005 47.7356 373.074 47.7223 373.124 47.7124L373.393 48.9403C373.306 48.9735 373.184 49.0066 373.025 49.0398C372.866 49.0762 372.667 49.0961 372.428 49.0994C372.037 49.1061 371.672 49.0365 371.334 48.8906C370.996 48.7448 370.723 48.5194 370.514 48.2145C370.305 47.9096 370.201 47.5268 370.201 47.0661V39.5341ZM382.167 41.3636V42.5568H377.996V41.3636H382.167ZM379.115 39.5341H380.601V46.7578C380.601 47.0462 380.644 47.2633 380.731 47.4091C380.817 47.5516 380.928 47.6494 381.064 47.7024C381.203 47.7521 381.354 47.777 381.516 47.777C381.635 47.777 381.74 47.7687 381.829 47.7521C381.919 47.7356 381.988 47.7223 382.038 47.7124L382.307 48.9403C382.22 48.9735 382.098 49.0066 381.939 49.0398C381.78 49.0762 381.581 49.0961 381.342 49.0994C380.951 49.1061 380.586 49.0365 380.248 48.8906C379.91 48.7448 379.637 48.5194 379.428 48.2145C379.219 47.9096 379.115 47.5268 379.115 47.0661V39.5341ZM383.812 49V41.3636H385.249V42.5767H385.328C385.467 42.1657 385.713 41.8426 386.064 41.6072C386.419 41.3686 386.82 41.2493 387.267 41.2493C387.36 41.2493 387.469 41.2526 387.595 41.2592C387.724 41.2659 387.826 41.2741 387.898 41.2841V42.706C387.839 42.6894 387.733 42.6712 387.58 42.6513C387.428 42.6281 387.275 42.6165 387.123 42.6165C386.772 42.6165 386.458 42.6911 386.183 42.8402C385.911 42.986 385.696 43.1899 385.537 43.4517C385.378 43.7102 385.298 44.0052 385.298 44.3366V49H383.812ZM391.339 49.169C390.855 49.169 390.417 49.0795 390.026 48.9006C389.635 48.7183 389.325 48.4548 389.097 48.1101C388.871 47.7654 388.759 47.3428 388.759 46.8423C388.759 46.4115 388.841 46.0568 389.007 45.7784C389.173 45.5 389.397 45.2796 389.678 45.1172C389.96 44.9548 390.275 44.8321 390.623 44.7493C390.971 44.6664 391.326 44.6035 391.687 44.5604C392.144 44.5073 392.515 44.4643 392.8 44.4311C393.085 44.3946 393.293 44.3366 393.422 44.2571C393.551 44.1776 393.616 44.0483 393.616 43.8693V43.8345C393.616 43.4003 393.493 43.0639 393.248 42.8253C393.006 42.5866 392.645 42.4673 392.164 42.4673C391.664 42.4673 391.269 42.5784 390.981 42.8004C390.696 43.0192 390.499 43.2628 390.389 43.5312L388.992 43.2131C389.158 42.7491 389.4 42.3745 389.718 42.0895C390.04 41.8011 390.409 41.5923 390.827 41.4631C391.244 41.3305 391.683 41.2642 392.144 41.2642C392.449 41.2642 392.772 41.3007 393.114 41.3736C393.458 41.4432 393.78 41.5724 394.078 41.7614C394.38 41.9503 394.627 42.2204 394.819 42.5717C395.011 42.9197 395.107 43.3722 395.107 43.929V49H393.656V47.956H393.596C393.5 48.1482 393.356 48.3371 393.163 48.5227C392.971 48.7083 392.724 48.8625 392.423 48.9851C392.121 49.1077 391.76 49.169 391.339 49.169ZM391.662 47.9759C392.073 47.9759 392.424 47.8946 392.716 47.7322C393.011 47.5698 393.235 47.3577 393.387 47.0959C393.543 46.8307 393.621 46.5473 393.621 46.2457V45.2614C393.568 45.3144 393.465 45.3641 393.312 45.4105C393.163 45.4536 392.993 45.4917 392.8 45.5249C392.608 45.5547 392.421 45.5829 392.239 45.6094C392.056 45.6326 391.904 45.6525 391.781 45.669C391.493 45.7055 391.229 45.7668 390.991 45.853C390.755 45.9392 390.567 46.0634 390.424 46.2259C390.285 46.3849 390.215 46.5971 390.215 46.8622C390.215 47.2301 390.351 47.5085 390.623 47.6974C390.895 47.883 391.241 47.9759 391.662 47.9759ZM400.304 49.1541C399.565 49.1541 398.928 48.9867 398.395 48.652C397.864 48.3139 397.457 47.8482 397.172 47.255C396.887 46.6617 396.744 45.9822 396.744 45.2166C396.744 44.4411 396.89 43.7566 397.182 43.1634C397.473 42.5668 397.884 42.1011 398.415 41.7663C398.945 41.4316 399.57 41.2642 400.289 41.2642C400.869 41.2642 401.386 41.3719 401.84 41.5874C402.294 41.7995 402.66 42.0978 402.939 42.4822C403.22 42.8667 403.388 43.3158 403.441 43.8295H401.994C401.915 43.4716 401.732 43.1634 401.447 42.9048C401.166 42.6463 400.788 42.517 400.314 42.517C399.899 42.517 399.537 42.6264 399.225 42.8452C398.917 43.0606 398.676 43.3688 398.504 43.7699C398.332 44.1676 398.246 44.6383 398.246 45.1818C398.246 45.7386 398.33 46.2192 398.499 46.6236C398.668 47.0279 398.907 47.3411 399.215 47.5632C399.527 47.7853 399.893 47.8963 400.314 47.8963C400.595 47.8963 400.851 47.8449 401.079 47.7422C401.311 47.6361 401.505 47.4853 401.661 47.2898C401.82 47.0942 401.931 46.8589 401.994 46.5838H403.441C403.388 47.0777 403.227 47.5185 402.959 47.9062C402.69 48.294 402.331 48.599 401.88 48.821C401.432 49.0431 400.907 49.1541 400.304 49.1541ZM406.398 46.4098L406.388 44.5952H406.646L409.689 41.3636H411.469L407.999 45.0426H407.765L406.398 46.4098ZM405.031 49V38.8182H406.517V49H405.031ZM409.853 49L407.119 45.3707L408.143 44.3317L411.678 49H409.853ZM415.8 49.1541C415.048 49.1541 414.4 48.9934 413.856 48.6719C413.316 48.3471 412.898 47.8913 412.604 47.3047C412.312 46.7147 412.166 46.0237 412.166 45.2315C412.166 44.4493 412.312 43.7599 412.604 43.1634C412.898 42.5668 413.309 42.1011 413.836 41.7663C414.367 41.4316 414.987 41.2642 415.696 41.2642C416.127 41.2642 416.544 41.3355 416.949 41.478C417.353 41.6205 417.716 41.8442 418.037 42.1491C418.359 42.4541 418.613 42.8501 418.798 43.3374C418.984 43.8213 419.077 44.4096 419.077 45.1023V45.6293H413.006V44.5156H417.62C417.62 44.1245 417.54 43.7782 417.381 43.4766C417.222 43.1716 416.998 42.9313 416.71 42.7557C416.425 42.58 416.09 42.4922 415.706 42.4922C415.288 42.4922 414.924 42.5949 414.612 42.8004C414.304 43.0026 414.065 43.2678 413.896 43.5959C413.73 43.9207 413.648 44.2737 413.648 44.6548V45.5249C413.648 46.0353 413.737 46.4695 413.916 46.8274C414.098 47.1854 414.352 47.4588 414.677 47.6477C415.001 47.8333 415.381 47.9261 415.815 47.9261C416.097 47.9261 416.354 47.8864 416.586 47.8068C416.818 47.724 417.018 47.6013 417.187 47.4389C417.356 47.2765 417.486 47.076 417.575 46.8374L418.982 47.0909C418.869 47.5052 418.667 47.8681 418.376 48.1797C418.087 48.4879 417.724 48.7282 417.287 48.9006C416.853 49.0696 416.357 49.1541 415.8 49.1541ZM420.726 49V41.3636H422.163V42.5767H422.242C422.381 42.1657 422.627 41.8426 422.978 41.6072C423.333 41.3686 423.734 41.2493 424.181 41.2493C424.274 41.2493 424.383 41.2526 424.509 41.2592C424.638 41.2659 424.74 41.2741 424.812 41.2841V42.706C424.753 42.6894 424.647 42.6712 424.494 42.6513C424.342 42.6281 424.189 42.6165 424.037 42.6165C423.686 42.6165 423.372 42.6911 423.097 42.8402C422.826 42.986 422.61 43.1899 422.451 43.4517C422.292 43.7102 422.212 44.0052 422.212 44.3366V49H420.726Z" fill="#1F2D5C" fill-opacity="0.85"/>
<path d="M325.923 45.9361C325.929 47.0738 325.446 48.1594 324.598 48.9172C323.749 49.675 322.616 50.0322 321.486 49.8979C319.453 49.5971 317.963 47.8279 318.013 45.7733V22.1516C317.964 20.0947 319.457 18.3247 321.493 18.0269C322.622 17.8948 323.753 18.2529 324.6 19.0105C325.447 19.768 325.929 20.8524 325.923 21.9888V45.9361Z" fill="#F9AB00"/>
<path d="M301.033 42.0218C303.217 42.0218 304.988 43.7925 304.988 45.9768C304.988 48.1611 303.217 49.9319 301.033 49.9319C298.849 49.9319 297.078 48.1611 297.078 45.9768C297.078 43.7925 298.849 42.0218 301.033 42.0218ZM311.44 30.0345C309.245 30.1548 307.542 31.9957 307.593 34.1931V44.8168C307.593 47.6999 308.862 49.4502 310.721 49.8233C311.888 50.0598 313.099 49.759 314.02 49.004C314.94 48.249 315.473 47.12 315.469 45.9293V34.0099C315.471 32.9455 315.046 31.925 314.288 31.1775C313.53 30.43 312.504 30.0182 311.44 30.0345Z" fill="#E37400"/>
<defs>
<linearGradient id="paint0_linear_2018_11224" x1="577" y1="18.281" x2="577" y2="49.4787" gradientUnits="userSpaceOnUse">
<stop stop-color="#4387FD"/>
<stop offset="1" stop-color="#4683EA"/>
</linearGradient>
<clipPath id="clip0_2018_11224">
<rect width="30.1176" height="32" fill="white" transform="translate(17 14)"/>
</clipPath>
<clipPath id="clip1_2018_11224">
<path d="M561 18C561 15.7909 562.791 14 565 14H589C591.209 14 593 15.7909 593 18V42C593 44.2091 591.209 46 589 46H565C562.791 46 561 44.2091 561 42V18Z" fill="white"/>
</clipPath>
<clipPath id="clip2_2018_11224">
<path d="M296 18C296 15.7909 297.791 14 300 14H324C326.209 14 328 15.7909 328 18V42C328 44.2091 326.209 46 324 46H300C297.791 46 296 44.2091 296 42V18Z" fill="white"/>
</clipPath>
</defs>
</svg>
