<svg width="32" height="32" viewBox="0 0 32 32" fill="none" xmlns="http://www.w3.org/2000/svg">
<path fill-rule="evenodd" clip-rule="evenodd" d="M11.1497 11.7834L29.9999 1.1767C29.9999 1.1767 28.2229 2.74 28.301 6.124C28.3843 9.73039 29.9999 11.0714 29.9999 11.0714L27.7849 10.0622L10.4449 16.8503C10.4449 16.8503 10.0239 15.6709 10.0171 14.7817C9.99916 12.5883 11.1497 11.7834 11.1497 11.7834Z" fill="white"/>
<path fill-rule="evenodd" clip-rule="evenodd" d="M7.14015 18.7173L27.7353 11.1837C27.7353 11.1837 25.9582 12.7471 26.0364 16.1312C26.1196 19.7375 27.7353 21.0785 27.7353 21.0785L24.8581 19.9708L6.37257 23.6096C6.37257 23.6096 6.01407 22.5224 6.00753 21.7157C5.98975 19.5222 7.14015 18.7173 7.14015 18.7173Z" fill="white"/>
<path fill-rule="evenodd" clip-rule="evenodd" d="M3.13283 24.8268L24.8628 20.9286C24.8628 20.9286 23.0857 22.492 23.1638 25.8759C23.2472 29.4823 24.8628 30.8233 24.8628 30.8233H3.29508C3.29508 30.8233 2.01912 30.0483 2.0002 27.7126C1.98241 25.5191 3.13283 24.8268 3.13283 24.8268Z" fill="white"/>
</svg>
