<svg width="30" height="30" viewBox="0 0 30 30" fill="none" xmlns="http://www.w3.org/2000/svg">
<circle cx="15" cy="15" r="12" fill="white"/>
<path d="M20.39 15C20.39 14.8137 20.316 14.635 20.1844 14.5032L16.4344 10.7532C16.3011 10.629 16.1248 10.5613 15.9426 10.5646C15.7605 10.5678 15.5867 10.6416 15.4579 10.7704C15.329 10.8992 15.2552 11.073 15.252 11.2552C15.2488 11.4373 15.3164 11.6136 15.4406 11.7469L17.9895 14.2969H10.3125C10.126 14.2969 9.94718 14.371 9.81532 14.5029C9.68345 14.6347 9.60938 14.8136 9.60938 15C9.60938 15.1865 9.68345 15.3654 9.81532 15.4972C9.94718 15.6291 10.126 15.7032 10.3125 15.7032H17.9895L15.4406 18.2532C15.3164 18.3865 15.2488 18.5627 15.252 18.7449C15.2552 18.9271 15.329 19.1009 15.4579 19.2297C15.5867 19.3585 15.7605 19.4323 15.9426 19.4355C16.1248 19.4387 16.3011 19.3711 16.4344 19.2469L20.1844 15.4969C20.316 15.3651 20.39 15.1864 20.39 15Z" fill="#050549"/>
</svg>
