<svg width="31" height="31" viewBox="0 0 31 31" fill="none" xmlns="http://www.w3.org/2000/svg">
<circle cx="15.5" cy="15" r="12" fill="#050549"/>
<path d="M20.89 15.5C20.89 15.3137 20.816 15.135 20.6844 15.0032L16.9344 11.2532C16.8011 11.129 16.6248 11.0613 16.4426 11.0646C16.2605 11.0678 16.0867 11.1416 15.9579 11.2704C15.829 11.3992 15.7552 11.573 15.752 11.7552C15.7488 11.9373 15.8164 12.1136 15.9406 12.2469L18.4895 14.7969H10.8125C10.626 14.7969 10.4472 14.871 10.3153 15.0029C10.1835 15.1347 10.1094 15.3136 10.1094 15.5C10.1094 15.6865 10.1835 15.8654 10.3153 15.9972C10.4472 16.1291 10.626 16.2032 10.8125 16.2032H18.4895L15.9406 18.7532C15.8164 18.8865 15.7488 19.0627 15.752 19.2449C15.7552 19.4271 15.829 19.6009 15.9579 19.7297C16.0867 19.8585 16.2605 19.9323 16.4426 19.9355C16.6248 19.9387 16.8011 19.8711 16.9344 19.7469L20.6844 15.9969C20.816 15.8651 20.89 15.6864 20.89 15.5Z" fill="white"/>
</svg>
