<svg width="30" height="30" viewBox="0 0 30 30" fill="none" xmlns="http://www.w3.org/2000/svg">
<path fill-rule="evenodd" clip-rule="evenodd" d="M15 26.5C21.6274 26.5 27 21.1274 27 14.5C27 7.87258 21.6274 2.5 15 2.5C8.37258 2.5 3 7.87258 3 14.5C3 21.1274 8.37258 26.5 15 26.5ZM20.1844 14.4387C20.316 14.5705 20.39 14.7493 20.39 14.9356C20.39 15.1219 20.316 15.3006 20.1844 15.4325L16.4344 19.1825C16.3011 19.3067 16.1248 19.3743 15.9426 19.3711C15.7605 19.3678 15.5867 19.2941 15.4579 19.1652C15.329 19.0364 15.2552 18.8626 15.252 18.6805C15.2488 18.4983 15.3164 18.322 15.4406 18.1887L17.9895 15.6387H10.3125C10.126 15.6387 9.94718 15.5646 9.81532 15.4328C9.68345 15.3009 9.60938 15.1221 9.60938 14.9356C9.60938 14.7491 9.68345 14.5703 9.81532 14.4384C9.94718 14.3065 10.126 14.2325 10.3125 14.2325H17.9895L15.4406 11.6825C15.3164 11.5492 15.2488 11.3729 15.252 11.1907C15.2552 11.0086 15.329 10.8348 15.4579 10.7059C15.5867 10.5771 15.7605 10.5033 15.9426 10.5001C16.1248 10.4969 16.3011 10.5645 16.4344 10.6887L20.1844 14.4387Z" fill="white"/>
</svg>
