<svg width="30" height="30" viewBox="0 0 30 30" fill="none" xmlns="http://www.w3.org/2000/svg">
<path d="M15 3.04688C12.6359 3.04687 10.3249 3.74791 8.3592 5.06134C6.39352 6.37477 4.86146 8.24159 3.95676 10.4257C3.05205 12.6099 2.81534 15.0133 3.27656 17.3319C3.73777 19.6506 4.87619 21.7805 6.54787 23.4521C8.21954 25.1238 10.3494 26.2622 12.6681 26.7234C14.9867 27.1847 17.3901 26.948 19.5743 26.0432C21.7584 25.1385 23.6252 23.6065 24.9387 21.6408C26.2521 19.6751 26.9531 17.3641 26.9531 15C26.9494 11.831 25.6889 8.79281 23.448 6.55198C21.2072 4.31114 18.169 3.0506 15 3.04688ZM15 25.5469C12.914 25.5469 10.8749 24.9283 9.14048 23.7694C7.40605 22.6105 6.05423 20.9633 5.25596 19.0361C4.4577 17.1089 4.24883 14.9883 4.65579 12.9424C5.06274 10.8965 6.06723 9.01724 7.54224 7.54223C9.01725 6.06723 10.8965 5.06273 12.9424 4.65578C14.9883 4.24883 17.1089 4.45769 19.0361 5.25596C20.9633 6.05423 22.6105 7.40605 23.7694 9.14047C24.9283 10.8749 25.5469 12.914 25.5469 15C25.5438 17.7963 24.4316 20.4771 22.4543 22.4543C20.4771 24.4316 17.7963 25.5438 15 25.5469Z" fill="white" fill-opacity="0.15"/>
<path d="M20.39 15C20.39 14.8137 20.316 14.635 20.1844 14.5032L16.4344 10.7532C16.3011 10.629 16.1248 10.5613 15.9426 10.5646C15.7605 10.5678 15.5867 10.6416 15.4579 10.7704C15.329 10.8992 15.2552 11.073 15.252 11.2552C15.2488 11.4373 15.3164 11.6136 15.4406 11.7469L17.9895 14.2969H10.3125C10.126 14.2969 9.94718 14.371 9.81532 14.5029C9.68345 14.6347 9.60938 14.8136 9.60938 15C9.60938 15.1865 9.68345 15.3654 9.81532 15.4972C9.94718 15.6291 10.126 15.7032 10.3125 15.7032H17.9895L15.4406 18.2532C15.3164 18.3865 15.2488 18.5627 15.252 18.7449C15.2552 18.9271 15.329 19.1009 15.4579 19.2297C15.5867 19.3585 15.7605 19.4323 15.9426 19.4355C16.1248 19.4387 16.3011 19.3711 16.4344 19.2469L20.1844 15.4969C20.316 15.3651 20.39 15.1864 20.39 15Z" fill="white" fill-opacity="0.65"/>
</svg>
