<svg width="31" height="31" viewBox="0 0 31 31" fill="none" xmlns="http://www.w3.org/2000/svg">
<path d="M15.5 3.54688C13.1359 3.54687 10.8249 4.24791 8.8592 5.56134C6.89352 6.87477 5.36146 8.74159 4.45676 10.9257C3.55205 13.1099 3.31534 15.5133 3.77656 17.8319C4.23777 20.1506 5.37619 22.2805 7.04787 23.9521C8.71954 25.6238 10.8494 26.7622 13.1681 27.2234C15.4867 27.6847 17.8901 27.448 20.0743 26.5432C22.2584 25.6385 24.1252 24.1065 25.4387 22.1408C26.7521 20.1751 27.4531 17.8641 27.4531 15.5C27.4494 12.331 26.1889 9.29281 23.948 7.05198C21.7072 4.81114 18.669 3.5506 15.5 3.54688ZM15.5 26.0469C13.414 26.0469 11.3749 25.4283 9.64048 24.2694C7.90605 23.1105 6.55423 21.4633 5.75596 19.5361C4.9577 17.6089 4.74883 15.4883 5.15579 13.4424C5.56274 11.3965 6.56723 9.51724 8.04224 8.04223C9.51725 6.56723 11.3965 5.56273 13.4424 5.15578C15.4883 4.74883 17.6089 4.95769 19.5361 5.75596C21.4633 6.55423 23.1105 7.90605 24.2694 9.64047C25.4283 11.3749 26.0469 13.414 26.0469 15.5C26.0438 18.2963 24.9316 20.9771 22.9543 22.9543C20.9771 24.9316 18.2963 26.0438 15.5 26.0469Z" fill="#050549" fill-opacity="0.15"/>
<path d="M20.89 15.5C20.89 15.3137 20.816 15.135 20.6844 15.0032L16.9344 11.2532C16.8011 11.129 16.6248 11.0613 16.4426 11.0646C16.2605 11.0678 16.0867 11.1416 15.9579 11.2704C15.829 11.3992 15.7552 11.573 15.752 11.7552C15.7488 11.9373 15.8164 12.1136 15.9406 12.2469L18.4895 14.7969H10.8125C10.626 14.7969 10.4472 14.871 10.3153 15.0029C10.1835 15.1347 10.1094 15.3136 10.1094 15.5C10.1094 15.6865 10.1835 15.8654 10.3153 15.9972C10.4472 16.1291 10.626 16.2032 10.8125 16.2032H18.4895L15.9406 18.7532C15.8164 18.8865 15.7488 19.0627 15.752 19.2449C15.7552 19.4271 15.829 19.6009 15.9579 19.7297C16.0867 19.8585 16.2605 19.9323 16.4426 19.9355C16.6248 19.9387 16.8011 19.8711 16.9344 19.7469L20.6844 15.9969C20.816 15.8651 20.89 15.6864 20.89 15.5Z" fill="#050549" fill-opacity="0.65"/>
</svg>
