<svg 
 xmlns="http://www.w3.org/2000/svg"
 xmlns:xlink="http://www.w3.org/1999/xlink"
 width="1396px" height="1479px">
<path fill-rule="evenodd" fill="rgb(2, 157, 209)"
 d="M454.794,532.009 L1391.782,4.777 C1391.782,4.777 1303.449,82.484 1307.333,250.694 C1311.473,429.957 1391.782,496.611 1391.782,496.611 L1281.680,446.455 L419.778,783.873 C419.778,783.873 398.853,725.238 398.493,681.049 C397.608,572.018 454.794,532.009 454.794,532.009 Z"/>
<path fill-rule="evenodd" fill="rgb(0, 71, 189)"
 d="M255.464,876.673 L1279.183,502.201 C1279.183,502.201 1190.850,579.908 1194.733,748.118 C1198.872,927.381 1279.183,994.035 1279.183,994.035 L1136.161,938.978 L217.307,1119.852 C217.307,1119.852 199.490,1065.809 199.164,1025.714 C198.279,916.683 255.464,876.673 255.464,876.673 Z"/>
<path fill-rule="evenodd"  fill="rgb(72, 23, 161)"
 d="M56.300,1180.351 L1136.423,986.583 C1136.423,986.583 1048.089,1064.291 1051.973,1232.500 C1056.113,1411.763 1136.423,1478.417 1136.423,1478.417 L64.343,1478.417 C64.343,1478.417 0.942,1439.882 0.000,1323.795 C-0.885,1214.764 56.300,1180.351 56.300,1180.351 Z"/>
</svg>