<svg width="1280" height="720" viewBox="0 0 1280 720" fill="none" xmlns="http://www.w3.org/2000/svg">
<rect width="1280" height="720" rx="5" fill="url(#paint0_linear_76_2)"/>
<g clip-path="url(#clip0_76_2)">
<path fill-rule="evenodd" clip-rule="evenodd" d="M96.2482 112.151L133.838 91C133.838 91 130.294 94.1174 130.45 100.866C130.616 108.057 133.838 110.731 133.838 110.731L129.421 108.719L94.8429 122.255C94.8429 122.255 94.0034 119.903 93.9897 118.13C93.954 113.756 96.2482 112.151 96.2482 112.151Z" fill="white"/>
<path fill-rule="evenodd" clip-rule="evenodd" d="M88.2482 125.978L129.318 110.955C129.318 110.955 125.774 114.072 125.93 120.821C126.096 128.012 129.318 130.686 129.318 130.686L123.58 128.478L86.7176 135.734C86.7176 135.734 86.0027 133.566 85.9897 131.957C85.9542 127.583 88.2482 125.978 88.2482 125.978Z" fill="white"/>
<path fill-rule="evenodd" clip-rule="evenodd" d="M80.258 138.161L123.59 130.387C123.59 130.387 120.046 133.505 120.202 140.253C120.368 147.445 123.59 150.119 123.59 150.119H80.5816C80.5816 150.119 78.0372 148.573 77.9994 143.916C77.964 139.541 80.258 138.161 80.258 138.161Z" fill="white"/>
<path fill-rule="evenodd" clip-rule="evenodd" d="M161.833 125.272C161.833 137.788 171.234 145.992 182.79 145.992C189.736 145.992 195.304 143.118 199.256 138.746V123.775H180.335V129.943H192.25V136.171C190.454 137.848 186.861 139.764 182.79 139.764C174.886 139.764 169.018 133.655 169.018 125.271C169.018 116.888 174.886 110.839 182.79 110.839C184.816 110.838 186.813 111.321 188.615 112.248C190.417 113.175 191.971 114.52 193.148 116.169L198.896 112.936C195.663 108.325 190.574 104.612 182.79 104.612C171.234 104.612 161.833 112.756 161.833 125.272ZM204.578 145.214H210.865V125.512C212.123 123.476 215.655 121.679 218.29 121.679C218.953 121.668 219.615 121.728 220.266 121.859V115.631C216.494 115.631 213.021 117.786 210.865 120.541V116.289H204.578V145.214ZM236.608 145.932C245.889 145.932 251.517 139.046 251.517 130.722C251.517 122.458 245.889 115.571 236.608 115.571C227.447 115.571 221.759 122.458 221.759 130.722C221.759 139.046 227.447 145.932 236.608 145.932ZM236.608 140.364C231.279 140.364 228.285 135.873 228.285 130.722C228.285 125.632 231.279 121.141 236.608 121.141C241.997 121.141 244.991 125.632 244.991 130.722C244.991 135.872 241.997 140.363 236.608 140.363V140.364ZM281.271 145.214H287.857L296.839 116.289H290.313L284.206 137.309L277.319 116.289H271.811L264.926 137.309L258.818 116.289H252.291L261.272 145.214H267.86L274.566 124.015L281.271 145.214ZM308.089 145.932C311.023 145.932 312.879 145.154 314.017 144.076L312.519 139.344C312.04 139.883 310.903 140.362 309.705 140.362C307.909 140.362 306.951 138.925 306.951 136.949V121.799H312.819V116.289H306.951V108.386H300.664V116.291H295.874V121.8H300.664V138.507C300.664 143.297 303.239 145.932 308.089 145.932ZM336.287 145.214H342.574V124.733C342.574 118.806 339.46 115.571 333.233 115.571C328.683 115.571 324.911 117.966 322.995 120.241V105.271H316.708V145.214H322.995V125.033C324.492 123.057 327.246 121.14 330.419 121.14C333.952 121.14 336.287 122.518 336.287 127.009V145.214H336.287ZM349.095 145.214H369.274C376.758 145.214 380.889 140.602 380.889 134.435C380.889 129.524 377.416 125.272 373.166 124.614C376.877 123.835 380.11 120.482 380.11 115.451C380.11 109.822 376.04 105.271 368.735 105.271H349.096V145.214H349.095ZM356.101 121.799V111.439H367.298C370.89 111.439 372.926 113.655 372.926 116.648C372.926 119.642 370.89 121.798 367.298 121.798H356.101L356.101 121.799ZM356.101 139.046V127.967H367.597C371.609 127.967 373.704 130.482 373.704 133.476C373.704 136.95 371.429 139.045 367.597 139.045H356.101L356.101 139.046ZM398.967 145.932C408.247 145.932 413.876 139.046 413.876 130.722C413.876 122.458 408.247 115.571 398.967 115.571C389.806 115.571 384.116 122.458 384.116 130.722C384.116 139.046 389.806 145.932 398.967 145.932ZM398.967 140.364C393.638 140.364 390.643 135.873 390.643 130.722C390.643 125.632 393.638 121.141 398.967 121.141C404.355 121.141 407.348 125.632 407.348 130.722C407.348 135.872 404.355 140.363 398.967 140.363V140.364ZM431.475 145.932C440.755 145.932 446.384 139.046 446.384 130.722C446.384 122.458 440.755 115.571 431.475 115.571C422.314 115.571 416.624 122.458 416.624 130.722C416.624 139.046 422.314 145.932 431.475 145.932ZM431.475 140.364C426.144 140.364 423.151 135.873 423.151 130.722C423.151 125.632 426.144 121.141 431.475 121.141C436.863 121.141 439.856 125.632 439.856 130.722C439.856 135.872 436.863 140.363 431.475 140.363V140.364ZM470.09 145.214H477.993L465.718 129.404L477.753 116.289H469.971L457.215 130.243V105.271H450.928V145.214H457.215V137.429L461.227 133.297L470.09 145.214Z" fill="white"/>
</g>
<path d="M105.031 340C104.81 337.773 103.827 336.003 102.082 334.687C100.337 333.372 98.1432 332.715 95.5 332.715C93.638 332.715 91.9974 333.034 90.5781 333.672C89.1719 334.31 88.0651 335.195 87.2578 336.328C86.4635 337.448 86.0664 338.724 86.0664 340.156C86.0664 341.211 86.2943 342.135 86.75 342.93C87.2057 343.724 87.8177 344.408 88.5859 344.98C89.3672 345.54 90.2266 346.022 91.1641 346.426C92.1146 346.829 93.0716 347.168 94.0352 347.441L98.2539 348.652C99.5299 349.004 100.806 349.453 102.082 350C103.358 350.547 104.523 351.237 105.578 352.07C106.646 352.891 107.499 353.9 108.137 355.098C108.788 356.283 109.113 357.708 109.113 359.375C109.113 361.51 108.56 363.431 107.453 365.137C106.346 366.842 104.758 368.197 102.688 369.199C100.617 370.189 98.1367 370.684 95.2461 370.684C92.5247 370.684 90.1615 370.234 88.1563 369.336C86.151 368.424 84.5755 367.168 83.4297 365.566C82.2839 363.965 81.6393 362.109 81.4961 360H85.2461C85.3763 361.576 85.8971 362.91 86.8086 364.004C87.7201 365.098 88.9049 365.931 90.3633 366.504C91.8216 367.064 93.4492 367.344 95.2461 367.344C97.2383 367.344 99.0091 367.012 100.559 366.348C102.121 365.671 103.345 364.733 104.23 363.535C105.129 362.324 105.578 360.918 105.578 359.316C105.578 357.962 105.227 356.829 104.523 355.918C103.82 354.993 102.837 354.219 101.574 353.594C100.324 352.969 98.8724 352.415 97.2188 351.934L92.4336 350.527C89.2956 349.59 86.8607 348.294 85.1289 346.641C83.3971 344.987 82.5313 342.878 82.5313 340.312C82.5313 338.164 83.1042 336.276 84.25 334.648C85.4089 333.008 86.9714 331.732 88.9375 330.82C90.9167 329.896 93.1367 329.434 95.5977 329.434C98.0846 329.434 100.285 329.889 102.199 330.801C104.113 331.712 105.63 332.969 106.75 334.57C107.883 336.159 108.488 337.969 108.566 340H105.031ZM124.459 370.684C122.649 370.684 120.995 370.332 119.498 369.629C118 368.913 116.809 367.884 115.923 366.543C115.038 365.189 114.595 363.548 114.595 361.621C114.595 360.137 114.875 358.887 115.435 357.871C115.995 356.855 116.789 356.022 117.818 355.371C118.847 354.72 120.064 354.206 121.47 353.828C122.877 353.451 124.426 353.158 126.119 352.949C127.798 352.741 129.218 352.559 130.377 352.402C131.548 352.246 132.44 351.999 133.052 351.66C133.664 351.322 133.97 350.775 133.97 350.02V349.316C133.97 347.272 133.358 345.664 132.134 344.492C130.923 343.307 129.179 342.715 126.9 342.715C124.739 342.715 122.974 343.19 121.607 344.141C120.253 345.091 119.302 346.211 118.755 347.5L115.455 346.309C116.132 344.668 117.069 343.359 118.267 342.383C119.465 341.393 120.806 340.684 122.291 340.254C123.775 339.811 125.279 339.59 126.802 339.59C127.948 339.59 129.14 339.74 130.377 340.039C131.627 340.339 132.785 340.859 133.853 341.602C134.921 342.331 135.787 343.353 136.451 344.668C137.115 345.97 137.447 347.624 137.447 349.629V370H133.97V365.254H133.755C133.339 366.139 132.72 366.999 131.9 367.832C131.08 368.665 130.051 369.349 128.814 369.883C127.577 370.417 126.125 370.684 124.459 370.684ZM124.927 367.5C126.776 367.5 128.378 367.09 129.732 366.27C131.086 365.449 132.128 364.362 132.857 363.008C133.599 361.641 133.97 360.137 133.97 358.496V354.16C133.71 354.408 133.274 354.629 132.662 354.824C132.063 355.02 131.366 355.195 130.572 355.352C129.791 355.495 129.009 355.618 128.228 355.723C127.447 355.827 126.744 355.918 126.119 355.996C124.426 356.204 122.981 356.53 121.783 356.973C120.585 357.415 119.667 358.027 119.029 358.809C118.391 359.577 118.072 360.566 118.072 361.777C118.072 363.6 118.723 365.013 120.025 366.016C121.327 367.005 122.961 367.5 124.927 367.5ZM157.939 340V343.027H143.193V340H157.939ZM147.802 370V335.605C147.802 333.991 148.173 332.63 148.915 331.523C149.67 330.417 150.654 329.577 151.864 329.004C153.075 328.431 154.358 328.145 155.712 328.145C156.624 328.145 157.379 328.223 157.978 328.379C158.59 328.522 159.071 328.665 159.423 328.809L158.407 331.855C158.147 331.777 157.828 331.686 157.45 331.582C157.073 331.478 156.598 331.426 156.025 331.426C154.514 331.426 153.349 331.849 152.529 332.695C151.708 333.542 151.298 334.753 151.298 336.328L151.279 370H147.802ZM174.671 370.625C171.871 370.625 169.449 369.974 167.405 368.672C165.361 367.357 163.779 365.54 162.659 363.223C161.552 360.892 160.999 358.21 160.999 355.176C160.999 352.155 161.552 349.473 162.659 347.129C163.779 344.772 165.322 342.93 167.288 341.602C169.267 340.26 171.552 339.59 174.143 339.59C175.771 339.59 177.34 339.889 178.85 340.488C180.361 341.074 181.715 341.979 182.913 343.203C184.124 344.414 185.081 345.944 185.784 347.793C186.487 349.629 186.839 351.803 186.839 354.316V356.035H163.401V352.969H183.284C183.284 351.042 182.893 349.31 182.112 347.773C181.344 346.224 180.27 345 178.889 344.102C177.522 343.203 175.94 342.754 174.143 342.754C172.242 342.754 170.569 343.262 169.124 344.277C167.679 345.293 166.546 346.634 165.725 348.301C164.918 349.967 164.508 351.79 164.495 353.77V355.605C164.495 357.988 164.905 360.072 165.725 361.855C166.559 363.626 167.737 365 169.261 365.977C170.784 366.953 172.587 367.441 174.671 367.441C176.09 367.441 177.333 367.22 178.401 366.777C179.482 366.335 180.387 365.742 181.116 365C181.858 364.245 182.418 363.418 182.796 362.52L186.096 363.594C185.641 364.857 184.892 366.022 183.85 367.09C182.822 368.158 181.533 369.017 179.983 369.668C178.447 370.306 176.676 370.625 174.671 370.625ZM208.491 370V330H221.401C224.24 330 226.61 330.514 228.511 331.543C230.425 332.559 231.864 333.971 232.827 335.781C233.804 337.578 234.292 339.642 234.292 341.973C234.292 344.303 233.804 346.361 232.827 348.145C231.864 349.928 230.431 351.322 228.53 352.324C226.629 353.327 224.272 353.828 221.46 353.828H210.464V350.488H221.362C223.446 350.488 225.177 350.143 226.558 349.453C227.951 348.763 228.986 347.78 229.663 346.504C230.353 345.228 230.698 343.717 230.698 341.973C230.698 340.228 230.353 338.704 229.663 337.402C228.973 336.087 227.931 335.072 226.538 334.355C225.158 333.639 223.413 333.281 221.304 333.281H212.144V370H208.491ZM226.128 351.953L235.972 370H231.753L222.007 351.953H226.128ZM252.704 370.625C250.113 370.625 247.821 369.967 245.829 368.652C243.85 367.337 242.3 365.521 241.18 363.203C240.06 360.872 239.501 358.184 239.501 355.137C239.501 352.064 240.06 349.362 241.18 347.031C242.3 344.687 243.85 342.865 245.829 341.562C247.821 340.247 250.113 339.59 252.704 339.59C255.295 339.59 257.58 340.247 259.559 341.562C261.538 342.878 263.088 344.701 264.208 347.031C265.34 349.362 265.907 352.064 265.907 355.137C265.907 358.184 265.347 360.872 264.227 363.203C263.107 365.521 261.551 367.337 259.559 368.652C257.58 369.967 255.295 370.625 252.704 370.625ZM252.704 367.441C254.787 367.441 256.551 366.882 257.997 365.762C259.442 364.642 260.536 363.151 261.278 361.289C262.033 359.427 262.411 357.376 262.411 355.137C262.411 352.897 262.033 350.84 261.278 348.965C260.536 347.09 259.442 345.586 257.997 344.453C256.551 343.32 254.787 342.754 252.704 342.754C250.633 342.754 248.869 343.32 247.411 344.453C245.965 345.586 244.865 347.09 244.11 348.965C243.368 350.84 242.997 352.897 242.997 355.137C242.997 357.376 243.368 359.427 244.11 361.289C244.865 363.151 245.965 364.642 247.411 365.762C248.856 366.882 250.62 367.441 252.704 367.441ZM275.915 330V370H272.439V330H275.915ZM287.491 330V370H284.014V330H287.491ZM307.25 370.625C304.659 370.625 302.368 369.967 300.375 368.652C298.396 367.337 296.847 365.521 295.727 363.203C294.607 360.872 294.047 358.184 294.047 355.137C294.047 352.064 294.607 349.362 295.727 347.031C296.847 344.687 298.396 342.865 300.375 341.562C302.368 340.247 304.659 339.59 307.25 339.59C309.842 339.59 312.127 340.247 314.106 341.562C316.085 342.878 317.635 344.701 318.754 347.031C319.887 349.362 320.454 352.064 320.454 355.137C320.454 358.184 319.894 360.872 318.774 363.203C317.654 365.521 316.098 367.337 314.106 368.652C312.127 369.967 309.842 370.625 307.25 370.625ZM307.25 367.441C309.334 367.441 311.098 366.882 312.543 365.762C313.989 364.642 315.082 363.151 315.825 361.289C316.58 359.427 316.957 357.376 316.957 355.137C316.957 352.897 316.58 350.84 315.825 348.965C315.082 347.09 313.989 345.586 312.543 344.453C311.098 343.32 309.334 342.754 307.25 342.754C305.18 342.754 303.416 343.32 301.957 344.453C300.512 345.586 299.412 347.09 298.657 348.965C297.914 350.84 297.543 352.897 297.543 355.137C297.543 357.376 297.914 359.427 298.657 361.289C299.412 363.151 300.512 364.642 301.957 365.762C303.403 366.882 305.167 367.441 307.25 367.441ZM346.048 358.535V340H349.524V370H346.048V365.02H345.774C345.071 366.556 343.958 367.839 342.435 368.867C340.911 369.883 339.049 370.391 336.849 370.391C334.935 370.391 333.235 369.974 331.751 369.141C330.267 368.294 329.101 367.057 328.255 365.43C327.409 363.802 326.985 361.803 326.985 359.434V340H330.462V359.219C330.462 361.562 331.152 363.451 332.532 364.883C333.912 366.302 335.683 367.012 337.845 367.012C339.199 367.012 340.501 366.686 341.751 366.035C343.001 365.384 344.03 364.434 344.837 363.184C345.644 361.921 346.048 360.371 346.048 358.535ZM369.445 340V343.027H355.129V340H369.445ZM359.601 332.812H363.097V362.168C363.097 363.418 363.312 364.401 363.742 365.117C364.171 365.82 364.731 366.322 365.421 366.621C366.112 366.908 366.847 367.051 367.629 367.051C368.084 367.051 368.475 367.025 368.8 366.973C369.126 366.908 369.412 366.842 369.66 366.777L370.402 369.922C370.063 370.052 369.647 370.169 369.152 370.273C368.657 370.391 368.045 370.449 367.316 370.449C366.04 370.449 364.809 370.169 363.625 369.609C362.453 369.049 361.489 368.216 360.734 367.109C359.979 366.003 359.601 364.629 359.601 362.988V332.812ZM395.86 346.582L392.676 347.48C392.363 346.582 391.921 345.768 391.348 345.039C390.775 344.31 390.026 343.73 389.102 343.301C388.19 342.871 387.057 342.656 385.703 342.656C383.672 342.656 382.005 343.138 380.703 344.102C379.401 345.065 378.75 346.309 378.75 347.832C378.75 349.121 379.193 350.169 380.078 350.977C380.977 351.771 382.357 352.402 384.219 352.871L388.75 353.984C391.263 354.596 393.145 355.566 394.395 356.895C395.658 358.223 396.289 359.889 396.289 361.895C396.289 363.587 395.82 365.091 394.883 366.406C393.945 367.721 392.637 368.757 390.957 369.512C389.291 370.254 387.357 370.625 385.156 370.625C382.227 370.625 379.811 369.967 377.91 368.652C376.009 367.324 374.792 365.41 374.258 362.91L377.598 362.09C378.028 363.874 378.867 365.221 380.117 366.133C381.38 367.044 383.041 367.5 385.098 367.5C387.403 367.5 389.245 366.986 390.625 365.957C392.005 364.915 392.695 363.613 392.695 362.051C392.695 360.84 392.292 359.824 391.485 359.004C390.677 358.171 389.453 357.559 387.813 357.168L382.91 355.996C380.306 355.371 378.379 354.382 377.129 353.027C375.879 351.673 375.254 349.993 375.254 347.988C375.254 346.335 375.703 344.883 376.602 343.633C377.5 342.37 378.737 341.38 380.313 340.664C381.888 339.948 383.685 339.59 385.703 339.59C388.451 339.59 390.645 340.215 392.285 341.465C393.939 342.702 395.13 344.408 395.86 346.582ZM83.3125 459V419H106.516V422.281H86.9648V437.34H105.285V440.621H86.9648V455.719H106.906V459H83.3125ZM116.295 429L124.029 441.793L131.763 429H135.806L126.158 444L135.806 459H131.763L124.029 446.617L116.295 459H112.271L121.802 444L112.271 429H116.295ZM141.996 470.25V429H145.375V434.723H145.785C146.202 433.824 146.775 432.906 147.504 431.969C148.233 431.018 149.197 430.217 150.395 429.566C151.606 428.915 153.129 428.59 154.965 428.59C157.439 428.59 159.6 429.241 161.449 430.543C163.311 431.832 164.757 433.642 165.785 435.973C166.827 438.29 167.348 440.992 167.348 444.078C167.348 447.177 166.827 449.892 165.785 452.223C164.757 454.553 163.311 456.37 161.449 457.672C159.6 458.974 157.452 459.625 155.004 459.625C153.194 459.625 151.677 459.299 150.453 458.648C149.242 457.997 148.259 457.197 147.504 456.246C146.762 455.283 146.189 454.345 145.785 453.434H145.473V470.25H141.996ZM145.434 444.02C145.434 446.441 145.792 448.59 146.508 450.465C147.237 452.327 148.279 453.792 149.633 454.859C151 455.914 152.654 456.441 154.594 456.441C156.586 456.441 158.266 455.895 159.633 454.801C161.013 453.694 162.061 452.203 162.778 450.328C163.507 448.453 163.871 446.35 163.871 444.02C163.871 441.715 163.513 439.638 162.797 437.789C162.094 435.94 161.052 434.475 159.672 433.395C158.292 432.301 156.599 431.754 154.594 431.754C152.641 431.754 150.981 432.281 149.613 433.336C148.246 434.378 147.205 435.823 146.488 437.672C145.785 439.508 145.434 441.624 145.434 444.02ZM186.004 459.625C183.204 459.625 180.782 458.974 178.738 457.672C176.694 456.357 175.112 454.54 173.992 452.223C172.885 449.892 172.332 447.21 172.332 444.176C172.332 441.155 172.885 438.473 173.992 436.129C175.112 433.772 176.655 431.93 178.621 430.602C180.6 429.26 182.885 428.59 185.476 428.59C187.104 428.59 188.673 428.889 190.183 429.488C191.694 430.074 193.048 430.979 194.246 432.203C195.457 433.414 196.414 434.944 197.117 436.793C197.82 438.629 198.172 440.803 198.172 443.316V445.035H174.734V441.969H194.617C194.617 440.042 194.226 438.31 193.445 436.773C192.677 435.224 191.603 434 190.222 433.102C188.855 432.203 187.273 431.754 185.476 431.754C183.575 431.754 181.902 432.262 180.457 433.277C179.012 434.293 177.879 435.634 177.058 437.301C176.251 438.967 175.841 440.79 175.828 442.77V444.605C175.828 446.988 176.238 449.072 177.058 450.855C177.892 452.626 179.07 454 180.594 454.977C182.117 455.953 183.92 456.441 186.004 456.441C187.423 456.441 188.666 456.22 189.734 455.777C190.815 455.335 191.72 454.742 192.449 454C193.191 453.245 193.751 452.418 194.129 451.52L197.429 452.594C196.974 453.857 196.225 455.022 195.183 456.09C194.155 457.158 192.866 458.017 191.316 458.668C189.78 459.306 188.009 459.625 186.004 459.625ZM204.733 459V429H208.112V433.609H208.366C208.965 432.099 210.006 430.882 211.491 429.957C212.988 429.02 214.681 428.551 216.569 428.551C216.855 428.551 217.174 428.557 217.526 428.57C217.877 428.583 218.17 428.596 218.405 428.609V432.145C218.248 432.118 217.975 432.079 217.584 432.027C217.194 431.975 216.771 431.949 216.315 431.949C214.752 431.949 213.359 432.281 212.135 432.945C210.924 433.596 209.967 434.501 209.264 435.66C208.561 436.819 208.209 438.141 208.209 439.625V459H204.733ZM223.276 459V429H226.772V459H223.276ZM225.054 423.844C224.338 423.844 223.726 423.603 223.218 423.121C222.71 422.626 222.456 422.034 222.456 421.344C222.456 420.654 222.71 420.068 223.218 419.586C223.726 419.091 224.338 418.844 225.054 418.844C225.77 418.844 226.382 419.091 226.89 419.586C227.397 420.068 227.651 420.654 227.651 421.344C227.651 422.034 227.397 422.626 226.89 423.121C226.382 423.603 225.77 423.844 225.054 423.844ZM234.867 459V429H238.246V433.609H238.558C239.157 432.06 240.153 430.842 241.546 429.957C242.953 429.059 244.639 428.609 246.605 428.609C248.675 428.609 250.375 429.098 251.703 430.074C253.044 431.038 254.046 432.366 254.711 434.059H254.964C255.642 432.392 256.742 431.07 258.265 430.094C259.802 429.104 261.664 428.609 263.851 428.609C266.638 428.609 268.838 429.488 270.453 431.246C272.067 432.991 272.875 435.543 272.875 438.902V459H269.398V438.902C269.398 436.533 268.793 434.755 267.582 433.57C266.371 432.385 264.776 431.793 262.796 431.793C260.505 431.793 258.74 432.496 257.504 433.902C256.267 435.309 255.648 437.092 255.648 439.254V459H252.093V438.59C252.093 436.559 251.527 434.918 250.394 433.668C249.261 432.418 247.666 431.793 245.609 431.793C244.229 431.793 242.985 432.132 241.879 432.809C240.785 433.486 239.919 434.43 239.281 435.641C238.656 436.839 238.343 438.219 238.343 439.781V459H234.867ZM293.108 459.625C290.308 459.625 287.886 458.974 285.842 457.672C283.798 456.357 282.216 454.54 281.096 452.223C279.989 449.892 279.436 447.21 279.436 444.176C279.436 441.155 279.989 438.473 281.096 436.129C282.216 433.772 283.759 431.93 285.725 430.602C287.704 429.26 289.989 428.59 292.58 428.59C294.208 428.59 295.777 428.889 297.287 429.488C298.798 430.074 300.152 430.979 301.35 432.203C302.561 433.414 303.518 434.944 304.221 436.793C304.924 438.629 305.276 440.803 305.276 443.316V445.035H281.838V441.969H301.721C301.721 440.042 301.33 438.31 300.549 436.773C299.781 435.224 298.707 434 297.326 433.102C295.959 432.203 294.377 431.754 292.58 431.754C290.679 431.754 289.006 432.262 287.561 433.277C286.115 434.293 284.983 435.634 284.162 437.301C283.355 438.967 282.945 440.79 282.932 442.77V444.605C282.932 446.988 283.342 449.072 284.162 450.855C284.996 452.626 286.174 454 287.697 454.977C289.221 455.953 291.024 456.441 293.108 456.441C294.527 456.441 295.77 456.22 296.838 455.777C297.919 455.335 298.824 454.742 299.553 454C300.295 453.245 300.855 452.418 301.233 451.52L304.533 452.594C304.078 453.857 303.329 455.022 302.287 456.09C301.259 457.158 299.97 458.017 298.42 458.668C296.884 459.306 295.113 459.625 293.108 459.625ZM315.313 440.25V459H311.837V429H315.216V433.707H315.528C316.231 432.171 317.325 430.94 318.809 430.016C320.307 429.078 322.156 428.609 324.356 428.609C326.374 428.609 328.145 429.033 329.669 429.879C331.205 430.712 332.397 431.943 333.243 433.57C334.102 435.198 334.532 437.197 334.532 439.566V459H331.055V439.781C331.055 437.32 330.365 435.374 328.985 433.941C327.618 432.509 325.782 431.793 323.477 431.793C321.902 431.793 320.502 432.132 319.278 432.809C318.054 433.486 317.084 434.462 316.368 435.738C315.665 437.001 315.313 438.505 315.313 440.25ZM354.404 429V432.027H340.087V429H354.404ZM344.56 421.812H348.056V451.168C348.056 452.418 348.271 453.401 348.701 454.117C349.13 454.82 349.69 455.322 350.38 455.621C351.07 455.908 351.806 456.051 352.587 456.051C353.043 456.051 353.434 456.025 353.759 455.973C354.085 455.908 354.371 455.842 354.619 455.777L355.361 458.922C355.022 459.052 354.606 459.169 354.111 459.273C353.616 459.391 353.004 459.449 352.275 459.449C350.999 459.449 349.768 459.169 348.583 458.609C347.412 458.049 346.448 457.216 345.693 456.109C344.938 455.003 344.56 453.629 344.56 451.988V421.812ZM373.869 422.281V419H402.873V422.281H390.197V459H386.545V422.281H373.869ZM409.312 459V429H412.808V459H409.312ZM411.089 423.844C410.373 423.844 409.761 423.603 409.253 423.121C408.745 422.626 408.491 422.034 408.491 421.344C408.491 420.654 408.745 420.068 409.253 419.586C409.761 419.091 410.373 418.844 411.089 418.844C411.805 418.844 412.417 419.091 412.925 419.586C413.433 420.068 413.687 420.654 413.687 421.344C413.687 422.034 413.433 422.626 412.925 423.121C412.417 423.603 411.805 423.844 411.089 423.844ZM420.902 459V429H424.281V433.609H424.594C425.193 432.06 426.189 430.842 427.582 429.957C428.988 429.059 430.674 428.609 432.64 428.609C434.711 428.609 436.41 429.098 437.738 430.074C439.079 431.038 440.082 432.366 440.746 434.059H441C441.677 432.392 442.777 431.07 444.301 430.094C445.837 429.104 447.699 428.609 449.887 428.609C452.673 428.609 454.874 429.488 456.488 431.246C458.103 432.991 458.91 435.543 458.91 438.902V459H455.433V438.902C455.433 436.533 454.828 434.755 453.617 433.57C452.406 432.385 450.811 431.793 448.832 431.793C446.54 431.793 444.776 432.496 443.539 433.902C442.302 435.309 441.683 437.092 441.683 439.254V459H438.129V438.59C438.129 436.559 437.562 434.918 436.43 433.668C435.297 432.418 433.702 431.793 431.644 431.793C430.264 431.793 429.021 432.132 427.914 432.809C426.82 433.486 425.954 434.43 425.316 435.641C424.691 436.839 424.379 438.219 424.379 439.781V459H420.902ZM479.143 459.625C476.343 459.625 473.922 458.974 471.877 457.672C469.833 456.357 468.251 454.54 467.131 452.223C466.024 449.892 465.471 447.21 465.471 444.176C465.471 441.155 466.024 438.473 467.131 436.129C468.251 433.772 469.794 431.93 471.76 430.602C473.739 429.26 476.024 428.59 478.616 428.59C480.243 428.59 481.812 428.889 483.323 429.488C484.833 430.074 486.187 430.979 487.385 432.203C488.596 433.414 489.553 434.944 490.256 436.793C490.959 438.629 491.311 440.803 491.311 443.316V445.035H467.873V441.969H487.756C487.756 440.042 487.366 438.31 486.584 436.773C485.816 435.224 484.742 434 483.362 433.102C481.995 432.203 480.413 431.754 478.616 431.754C476.715 431.754 475.041 432.262 473.596 433.277C472.151 434.293 471.018 435.634 470.198 437.301C469.39 438.967 468.98 440.79 468.967 442.77V444.605C468.967 446.988 469.377 449.072 470.198 450.855C471.031 452.626 472.209 454 473.733 454.977C475.256 455.953 477.06 456.441 479.143 456.441C480.562 456.441 481.806 456.22 482.873 455.777C483.954 455.335 484.859 454.742 485.588 454C486.33 453.245 486.89 452.418 487.268 451.52L490.569 452.594C490.113 453.857 489.364 455.022 488.323 456.09C487.294 457.158 486.005 458.017 484.455 458.668C482.919 459.306 481.148 459.625 479.143 459.625ZM534.682 429C534.461 426.773 533.478 425.003 531.733 423.687C529.988 422.372 527.794 421.715 525.151 421.715C523.289 421.715 521.648 422.034 520.229 422.672C518.823 423.31 517.716 424.195 516.909 425.328C516.115 426.448 515.717 427.724 515.717 429.156C515.717 430.211 515.945 431.135 516.401 431.93C516.857 432.724 517.469 433.408 518.237 433.98C519.018 434.54 519.878 435.022 520.815 435.426C521.766 435.829 522.723 436.168 523.686 436.441L527.905 437.652C529.181 438.004 530.457 438.453 531.733 439C533.009 439.547 534.174 440.237 535.229 441.07C536.297 441.891 537.15 442.9 537.788 444.098C538.439 445.283 538.764 446.708 538.764 448.375C538.764 450.51 538.211 452.431 537.104 454.137C535.997 455.842 534.409 457.197 532.338 458.199C530.268 459.189 527.788 459.684 524.897 459.684C522.176 459.684 519.812 459.234 517.807 458.336C515.802 457.424 514.226 456.168 513.081 454.566C511.935 452.965 511.29 451.109 511.147 449H514.897C515.027 450.576 515.548 451.91 516.46 453.004C517.371 454.098 518.556 454.931 520.014 455.504C521.473 456.064 523.1 456.344 524.897 456.344C526.889 456.344 528.66 456.012 530.21 455.348C531.772 454.671 532.996 453.733 533.881 452.535C534.78 451.324 535.229 449.918 535.229 448.316C535.229 446.962 534.878 445.829 534.174 444.918C533.471 443.993 532.488 443.219 531.225 442.594C529.975 441.969 528.523 441.415 526.87 440.934L522.085 439.527C518.947 438.59 516.512 437.294 514.78 435.641C513.048 433.987 512.182 431.878 512.182 429.312C512.182 427.164 512.755 425.276 513.901 423.648C515.06 422.008 516.622 420.732 518.588 419.82C520.568 418.896 522.788 418.434 525.249 418.434C527.736 418.434 529.936 418.889 531.85 419.801C533.764 420.712 535.281 421.969 536.401 423.57C537.534 425.159 538.139 426.969 538.217 429H534.682ZM557.86 459.625C555.06 459.625 552.638 458.974 550.594 457.672C548.55 456.357 546.968 454.54 545.848 452.223C544.741 449.892 544.188 447.21 544.188 444.176C544.188 441.155 544.741 438.473 545.848 436.129C546.968 433.772 548.511 431.93 550.477 430.602C552.456 429.26 554.741 428.59 557.332 428.59C558.96 428.59 560.529 428.889 562.039 429.488C563.55 430.074 564.904 430.979 566.102 432.203C567.313 433.414 568.27 434.944 568.973 436.793C569.676 438.629 570.028 440.803 570.028 443.316V445.035H546.59V441.969H566.473C566.473 440.042 566.082 438.31 565.301 436.773C564.533 435.224 563.459 434 562.078 433.102C560.711 432.203 559.129 431.754 557.332 431.754C555.431 431.754 553.758 432.262 552.313 433.277C550.867 434.293 549.735 435.634 548.914 437.301C548.107 438.967 547.697 440.79 547.684 442.77V444.605C547.684 446.988 548.094 449.072 548.914 450.855C549.748 452.626 550.926 454 552.449 454.977C553.973 455.953 555.776 456.441 557.86 456.441C559.279 456.441 560.522 456.22 561.59 455.777C562.671 455.335 563.576 454.742 564.305 454C565.047 453.245 565.607 452.418 565.985 451.52L569.285 452.594C568.83 453.857 568.081 455.022 567.039 456.09C566.011 457.158 564.722 458.017 563.172 458.668C561.636 459.306 559.865 459.625 557.86 459.625ZM576.589 459V429H579.968V433.609H580.221C580.82 432.099 581.862 430.882 583.346 429.957C584.844 429.02 586.537 428.551 588.425 428.551C588.711 428.551 589.03 428.557 589.382 428.57C589.733 428.583 590.026 428.596 590.261 428.609V432.145C590.104 432.118 589.831 432.079 589.44 432.027C589.05 431.975 588.626 431.949 588.171 431.949C586.608 431.949 585.215 432.281 583.991 432.945C582.78 433.596 581.823 434.501 581.12 435.66C580.417 436.819 580.065 438.141 580.065 439.625V459H576.589ZM595.132 459V429H598.628V459H595.132ZM596.91 423.844C596.193 423.844 595.581 423.603 595.074 423.121C594.566 422.626 594.312 422.034 594.312 421.344C594.312 420.654 594.566 420.068 595.074 419.586C595.581 419.091 596.193 418.844 596.91 418.844C597.626 418.844 598.238 419.091 598.745 419.586C599.253 420.068 599.507 420.654 599.507 421.344C599.507 422.034 599.253 422.626 598.745 423.121C598.238 423.603 597.626 423.844 596.91 423.844ZM618.852 459.625C616.052 459.625 613.63 458.974 611.586 457.672C609.542 456.357 607.96 454.54 606.84 452.223C605.733 449.892 605.18 447.21 605.18 444.176C605.18 441.155 605.733 438.473 606.84 436.129C607.96 433.772 609.503 431.93 611.469 430.602C613.448 429.26 615.733 428.59 618.324 428.59C619.952 428.59 621.521 428.889 623.031 429.488C624.542 430.074 625.896 430.979 627.094 432.203C628.305 433.414 629.262 434.944 629.965 436.793C630.668 438.629 631.02 440.803 631.02 443.316V445.035H607.582V441.969H627.465C627.465 440.042 627.074 438.31 626.293 436.773C625.525 435.224 624.451 434 623.07 433.102C621.703 432.203 620.121 431.754 618.324 431.754C616.423 431.754 614.75 432.262 613.305 433.277C611.859 434.293 610.727 435.634 609.906 437.301C609.099 438.967 608.689 440.79 608.676 442.77V444.605C608.676 446.988 609.086 449.072 609.906 450.855C610.74 452.626 611.918 454 613.441 454.977C614.965 455.953 616.768 456.441 618.852 456.441C620.271 456.441 621.514 456.22 622.582 455.777C623.663 455.335 624.568 454.742 625.297 454C626.039 453.245 626.599 452.418 626.977 451.52L630.277 452.594C629.822 453.857 629.073 455.022 628.031 456.09C627.003 457.158 625.714 458.017 624.164 458.668C622.628 459.306 620.857 459.625 618.852 459.625ZM657.737 435.582L654.553 436.48C654.241 435.582 653.798 434.768 653.225 434.039C652.652 433.31 651.904 432.73 650.979 432.301C650.068 431.871 648.935 431.656 647.581 431.656C645.549 431.656 643.883 432.138 642.581 433.102C641.279 434.065 640.628 435.309 640.628 436.832C640.628 438.121 641.07 439.169 641.956 439.977C642.854 440.771 644.234 441.402 646.096 441.871L650.628 442.984C653.141 443.596 655.022 444.566 656.272 445.895C657.535 447.223 658.167 448.889 658.167 450.895C658.167 452.587 657.698 454.091 656.76 455.406C655.823 456.721 654.514 457.757 652.835 458.512C651.168 459.254 649.234 459.625 647.034 459.625C644.104 459.625 641.689 458.967 639.788 457.652C637.887 456.324 636.669 454.41 636.135 451.91L639.475 451.09C639.905 452.874 640.745 454.221 641.995 455.133C643.258 456.044 644.918 456.5 646.975 456.5C649.28 456.5 651.122 455.986 652.503 454.957C653.883 453.915 654.573 452.613 654.573 451.051C654.573 449.84 654.169 448.824 653.362 448.004C652.555 447.171 651.331 446.559 649.69 446.168L644.788 444.996C642.184 444.371 640.256 443.382 639.006 442.027C637.756 440.673 637.131 438.993 637.131 436.988C637.131 435.335 637.581 433.883 638.479 432.633C639.378 431.37 640.615 430.38 642.19 429.664C643.766 428.948 645.562 428.59 647.581 428.59C650.328 428.59 652.522 429.215 654.163 430.465C655.816 431.702 657.008 433.408 657.737 435.582ZM116.105 528C116.105 532.167 115.363 535.793 113.879 538.879C112.395 541.952 110.35 544.335 107.746 546.027C105.155 547.707 102.173 548.547 98.8008 548.547C95.4284 548.547 92.4401 547.707 89.8359 546.027C87.2448 544.335 85.207 541.952 83.7227 538.879C82.2513 535.793 81.5156 532.167 81.5156 528C81.5156 523.833 82.2513 520.214 83.7227 517.141C85.207 514.055 87.2513 511.672 89.8555 509.992C92.4596 508.299 95.4414 507.453 98.8008 507.453C102.173 507.453 105.155 508.299 107.746 509.992C110.35 511.672 112.395 514.055 113.879 517.141C115.363 520.214 116.105 523.833 116.105 528ZM112.551 528C112.551 524.419 111.952 521.353 110.754 518.801C109.556 516.236 107.922 514.276 105.852 512.922C103.781 511.568 101.431 510.891 98.8008 510.891C96.1836 510.891 93.8398 511.568 91.7695 512.922C89.6992 514.276 88.0586 516.229 86.8477 518.781C85.6497 521.333 85.0508 524.406 85.0508 528C85.0508 531.581 85.6497 534.647 86.8477 537.199C88.0456 539.751 89.6797 541.711 91.75 543.078C93.8203 544.432 96.1706 545.109 98.8008 545.109C101.431 545.109 103.781 544.432 105.852 543.078C107.935 541.724 109.576 539.771 110.773 537.219C111.971 534.654 112.564 531.581 112.551 528ZM135.46 518V521.027H120.713V518H135.46ZM125.323 548V513.605C125.323 511.991 125.694 510.63 126.436 509.523C127.191 508.417 128.174 507.577 129.385 507.004C130.596 506.431 131.879 506.145 133.233 506.145C134.144 506.145 134.9 506.223 135.499 506.379C136.111 506.522 136.592 506.665 136.944 506.809L135.928 509.855C135.668 509.777 135.349 509.686 134.971 509.582C134.594 509.478 134.118 509.426 133.546 509.426C132.035 509.426 130.87 509.849 130.049 510.695C129.229 511.542 128.819 512.753 128.819 514.328L128.799 548H125.323ZM153.642 518V521.027H138.896V518H153.642ZM143.505 548V513.605C143.505 511.991 143.876 510.63 144.618 509.523C145.374 508.417 146.357 507.577 147.568 507.004C148.779 506.431 150.061 506.145 151.415 506.145C152.327 506.145 153.082 506.223 153.681 506.379C154.293 506.522 154.775 506.665 155.126 506.809L154.111 509.855C153.85 509.777 153.531 509.686 153.154 509.582C152.776 509.478 152.301 509.426 151.728 509.426C150.217 509.426 149.052 509.849 148.232 510.695C147.411 511.542 147.001 512.753 147.001 514.328L146.982 548H143.505ZM159.519 548V518H163.015V548H159.519ZM161.297 512.844C160.581 512.844 159.969 512.603 159.461 512.121C158.953 511.626 158.699 511.034 158.699 510.344C158.699 509.654 158.953 509.068 159.461 508.586C159.969 508.091 160.581 507.844 161.297 507.844C162.013 507.844 162.625 508.091 163.133 508.586C163.64 509.068 163.894 509.654 163.894 510.344C163.894 511.034 163.64 511.626 163.133 512.121C162.625 512.603 162.013 512.844 161.297 512.844ZM182.829 548.625C180.146 548.625 177.809 547.954 175.817 546.613C173.838 545.272 172.301 543.436 171.207 541.105C170.114 538.775 169.567 536.118 169.567 533.137C169.567 530.129 170.12 527.453 171.227 525.109C172.347 522.766 173.896 520.93 175.875 519.602C177.855 518.26 180.153 517.59 182.77 517.59C184.775 517.59 186.592 517.98 188.219 518.762C189.847 519.53 191.188 520.617 192.243 522.023C193.31 523.417 193.981 525.044 194.254 526.906H190.739C190.374 525.214 189.495 523.768 188.102 522.57C186.722 521.359 184.964 520.754 182.829 520.754C180.914 520.754 179.222 521.275 177.75 522.316C176.279 523.345 175.127 524.784 174.293 526.633C173.473 528.469 173.063 530.598 173.063 533.02C173.063 535.454 173.467 537.609 174.274 539.484C175.081 541.346 176.214 542.805 177.672 543.859C179.144 544.914 180.862 545.441 182.829 545.441C184.157 545.441 185.368 545.194 186.461 544.699C187.568 544.191 188.493 543.475 189.235 542.551C189.99 541.626 190.498 540.526 190.758 539.25H194.274C194.013 541.06 193.369 542.674 192.34 544.094C191.325 545.5 190.003 546.607 188.375 547.414C186.761 548.221 184.912 548.625 182.829 548.625ZM200.664 548V518H204.16V548H200.664ZM202.441 512.844C201.725 512.844 201.113 512.603 200.605 512.121C200.098 511.626 199.844 511.034 199.844 510.344C199.844 509.654 200.098 509.068 200.605 508.586C201.113 508.091 201.725 507.844 202.441 507.844C203.158 507.844 203.77 508.091 204.277 508.586C204.785 509.068 205.039 509.654 205.039 510.344C205.039 511.034 204.785 511.626 204.277 512.121C203.77 512.603 203.158 512.844 202.441 512.844ZM220.633 548.684C218.823 548.684 217.17 548.332 215.672 547.629C214.175 546.913 212.984 545.884 212.098 544.543C211.213 543.189 210.77 541.548 210.77 539.621C210.77 538.137 211.05 536.887 211.61 535.871C212.17 534.855 212.964 534.022 213.993 533.371C215.021 532.72 216.239 532.206 217.645 531.828C219.051 531.451 220.601 531.158 222.294 530.949C223.973 530.741 225.393 530.559 226.551 530.402C227.723 530.246 228.615 529.999 229.227 529.66C229.839 529.322 230.145 528.775 230.145 528.02V527.316C230.145 525.272 229.533 523.664 228.309 522.492C227.098 521.307 225.353 520.715 223.075 520.715C220.913 520.715 219.149 521.19 217.782 522.141C216.428 523.091 215.477 524.211 214.93 525.5L211.629 524.309C212.307 522.668 213.244 521.359 214.442 520.383C215.64 519.393 216.981 518.684 218.465 518.254C219.95 517.811 221.454 517.59 222.977 517.59C224.123 517.59 225.314 517.74 226.551 518.039C227.801 518.339 228.96 518.859 230.028 519.602C231.096 520.331 231.962 521.353 232.626 522.668C233.29 523.97 233.622 525.624 233.622 527.629V548H230.145V543.254H229.93C229.514 544.139 228.895 544.999 228.075 545.832C227.254 546.665 226.226 547.349 224.989 547.883C223.752 548.417 222.3 548.684 220.633 548.684ZM221.102 545.5C222.951 545.5 224.553 545.09 225.907 544.27C227.261 543.449 228.303 542.362 229.032 541.008C229.774 539.641 230.145 538.137 230.145 536.496V532.16C229.885 532.408 229.448 532.629 228.837 532.824C228.238 533.02 227.541 533.195 226.747 533.352C225.965 533.495 225.184 533.618 224.403 533.723C223.622 533.827 222.919 533.918 222.294 533.996C220.601 534.204 219.156 534.53 217.958 534.973C216.76 535.415 215.842 536.027 215.204 536.809C214.566 537.577 214.247 538.566 214.247 539.777C214.247 541.6 214.898 543.013 216.2 544.016C217.502 545.005 219.136 545.5 221.102 545.5ZM245.246 508V548H241.77V508H245.246ZM283.593 508H287.246V536.848C287.232 539.452 286.764 541.626 285.839 543.371C284.915 545.103 283.639 546.398 282.011 547.258C280.384 548.117 278.515 548.547 276.406 548.547C274.335 548.547 272.486 548.163 270.859 547.395C269.231 546.626 267.949 545.546 267.011 544.152C266.087 542.759 265.624 541.125 265.624 539.25H269.218C269.218 540.435 269.531 541.483 270.156 542.395C270.781 543.293 271.634 543.996 272.714 544.504C273.808 545.012 275.038 545.266 276.406 545.266C277.825 545.266 279.068 544.966 280.136 544.367C281.217 543.768 282.063 542.85 282.675 541.613C283.287 540.363 283.593 538.775 283.593 536.848V508ZM296.087 548V518H299.583V548H296.087ZM297.864 512.844C297.148 512.844 296.536 512.603 296.028 512.121C295.521 511.626 295.267 511.034 295.267 510.344C295.267 509.654 295.521 509.068 296.028 508.586C296.536 508.091 297.148 507.844 297.864 507.844C298.58 507.844 299.192 508.091 299.7 508.586C300.208 509.068 300.462 509.654 300.462 510.344C300.462 511.034 300.208 511.626 299.7 512.121C299.192 512.603 298.58 512.844 297.864 512.844ZM307.677 548V518H311.056V522.609H311.31C311.909 521.099 312.951 519.882 314.435 518.957C315.933 518.02 317.625 517.551 319.513 517.551C319.8 517.551 320.119 517.557 320.47 517.57C320.822 517.583 321.115 517.596 321.349 517.609V521.145C321.193 521.118 320.92 521.079 320.529 521.027C320.138 520.975 319.715 520.949 319.259 520.949C317.697 520.949 316.304 521.281 315.08 521.945C313.869 522.596 312.912 523.501 312.209 524.66C311.505 525.819 311.154 527.141 311.154 528.625V548H307.677ZM334.561 548.684C332.751 548.684 331.097 548.332 329.6 547.629C328.102 546.913 326.911 545.884 326.026 544.543C325.14 543.189 324.697 541.548 324.697 539.621C324.697 538.137 324.977 536.887 325.537 535.871C326.097 534.855 326.891 534.022 327.92 533.371C328.949 532.72 330.166 532.206 331.572 531.828C332.979 531.451 334.528 531.158 336.221 530.949C337.901 530.741 339.32 530.559 340.479 530.402C341.651 530.246 342.543 529.999 343.154 529.66C343.766 529.322 344.072 528.775 344.072 528.02V527.316C344.072 525.272 343.46 523.664 342.237 522.492C341.026 521.307 339.281 520.715 337.002 520.715C334.841 520.715 333.076 521.19 331.709 522.141C330.355 523.091 329.404 524.211 328.858 525.5L325.557 524.309C326.234 522.668 327.171 521.359 328.369 520.383C329.567 519.393 330.908 518.684 332.393 518.254C333.877 517.811 335.381 517.59 336.904 517.59C338.05 517.59 339.242 517.74 340.479 518.039C341.729 518.339 342.888 518.859 343.955 519.602C345.023 520.331 345.889 521.353 346.553 522.668C347.217 523.97 347.549 525.624 347.549 527.629V548H344.072V543.254H343.858C343.441 544.139 342.822 544.999 342.002 545.832C341.182 546.665 340.153 547.349 338.916 547.883C337.679 548.417 336.227 548.684 334.561 548.684ZM335.029 545.5C336.878 545.5 338.48 545.09 339.834 544.27C341.188 543.449 342.23 542.362 342.959 541.008C343.701 539.641 344.072 538.137 344.072 536.496V532.16C343.812 532.408 343.376 532.629 342.764 532.824C342.165 533.02 341.468 533.195 340.674 533.352C339.893 533.495 339.112 533.618 338.33 533.723C337.549 533.827 336.846 533.918 336.221 533.996C334.528 534.204 333.083 534.53 331.885 534.973C330.687 535.415 329.769 536.027 329.131 536.809C328.493 537.577 328.174 538.566 328.174 539.777C328.174 541.6 328.825 543.013 330.127 544.016C331.429 545.005 333.063 545.5 335.029 545.5ZM374.441 508V548H370.788V508H374.441ZM386.729 529.25V548H383.253V518H386.632V522.707H386.944C387.647 521.171 388.741 519.94 390.226 519.016C391.723 518.078 393.572 517.609 395.772 517.609C397.791 517.609 399.562 518.033 401.085 518.879C402.621 519.712 403.813 520.943 404.659 522.57C405.519 524.198 405.948 526.197 405.948 528.566V548H402.472V528.781C402.472 526.32 401.782 524.374 400.401 522.941C399.034 521.509 397.198 520.793 394.894 520.793C393.318 520.793 391.918 521.132 390.694 521.809C389.47 522.486 388.5 523.462 387.784 524.738C387.081 526.001 386.729 527.505 386.729 529.25ZM425.82 518V521.027H411.504V518H425.82ZM415.976 510.812H419.472V540.168C419.472 541.418 419.687 542.401 420.117 543.117C420.546 543.82 421.106 544.322 421.796 544.621C422.487 544.908 423.222 545.051 424.004 545.051C424.459 545.051 424.85 545.025 425.175 544.973C425.501 544.908 425.787 544.842 426.035 544.777L426.777 547.922C426.438 548.052 426.022 548.169 425.527 548.273C425.032 548.391 424.42 548.449 423.691 548.449C422.415 548.449 421.184 548.169 420 547.609C418.828 547.049 417.864 546.216 417.109 545.109C416.354 544.003 415.976 542.629 415.976 540.988V510.812ZM444.422 548.625C441.623 548.625 439.201 547.974 437.156 546.672C435.112 545.357 433.53 543.54 432.41 541.223C431.304 538.892 430.75 536.21 430.75 533.176C430.75 530.155 431.304 527.473 432.41 525.129C433.53 522.772 435.073 520.93 437.039 519.602C439.018 518.26 441.304 517.59 443.895 517.59C445.522 517.59 447.091 517.889 448.602 518.488C450.112 519.074 451.466 519.979 452.664 521.203C453.875 522.414 454.832 523.944 455.535 525.793C456.238 527.629 456.59 529.803 456.59 532.316V534.035H433.153V530.969H453.035C453.035 529.042 452.645 527.31 451.863 525.773C451.095 524.224 450.021 523 448.641 522.102C447.274 521.203 445.692 520.754 443.895 520.754C441.994 520.754 440.32 521.262 438.875 522.277C437.43 523.293 436.297 524.634 435.477 526.301C434.669 527.967 434.259 529.79 434.246 531.77V533.605C434.246 535.988 434.656 538.072 435.477 539.855C436.31 541.626 437.488 543 439.012 543.977C440.535 544.953 442.339 545.441 444.422 545.441C445.841 545.441 447.085 545.22 448.153 544.777C449.233 544.335 450.138 543.742 450.867 543C451.61 542.245 452.169 541.418 452.547 540.52L455.848 541.594C455.392 542.857 454.643 544.022 453.602 545.09C452.573 546.158 451.284 547.017 449.735 547.668C448.198 548.306 446.427 548.625 444.422 548.625ZM474.596 559.875C472.552 559.875 470.762 559.608 469.225 559.074C467.689 558.553 466.393 557.837 465.339 556.926C464.284 556.014 463.464 554.992 462.878 553.859L465.729 551.984C466.159 552.74 466.732 553.482 467.448 554.211C468.177 554.94 469.121 555.546 470.28 556.027C471.452 556.509 472.891 556.75 474.596 556.75C477.253 556.75 479.395 556.086 481.022 554.758C482.663 553.43 483.483 551.366 483.483 548.566V541.809H483.171C482.767 542.72 482.188 543.632 481.432 544.543C480.677 545.441 479.688 546.19 478.464 546.789C477.253 547.388 475.749 547.687 473.952 547.687C471.556 547.687 469.427 547.095 467.565 545.91C465.716 544.725 464.258 543.033 463.19 540.832C462.136 538.618 461.608 535.982 461.608 532.922C461.608 529.888 462.123 527.219 463.151 524.914C464.193 522.609 465.645 520.812 467.507 519.523C469.369 518.234 471.537 517.59 474.011 517.59C475.846 517.59 477.37 517.915 478.581 518.566C479.792 519.204 480.762 519.999 481.491 520.949C482.233 521.9 482.813 522.824 483.229 523.723H483.581V518H486.979V548.781C486.979 551.32 486.439 553.41 485.358 555.051C484.277 556.691 482.806 557.902 480.944 558.684C479.082 559.478 476.966 559.875 474.596 559.875ZM474.362 544.504C476.289 544.504 477.936 544.042 479.304 543.117C480.671 542.18 481.719 540.839 482.448 539.094C483.177 537.349 483.542 535.272 483.542 532.863C483.542 530.52 483.184 528.443 482.468 526.633C481.751 524.81 480.71 523.378 479.343 522.336C477.988 521.281 476.328 520.754 474.362 520.754C472.357 520.754 470.664 521.294 469.284 522.375C467.904 523.456 466.862 524.914 466.159 526.75C465.456 528.573 465.104 530.611 465.104 532.863C465.104 535.155 465.462 537.18 466.179 538.937C466.895 540.682 467.943 542.049 469.323 543.039C470.703 544.016 472.383 544.504 474.362 544.504ZM495.083 548V518H498.462V522.609H498.716C499.315 521.099 500.357 519.882 501.841 518.957C503.339 518.02 505.031 517.551 506.919 517.551C507.206 517.551 507.525 517.557 507.876 517.57C508.228 517.583 508.521 517.596 508.755 517.609V521.145C508.599 521.118 508.326 521.079 507.935 521.027C507.544 520.975 507.121 520.949 506.665 520.949C505.103 520.949 503.71 521.281 502.486 521.945C501.275 522.596 500.318 523.501 499.615 524.66C498.912 525.819 498.56 527.141 498.56 528.625V548H495.083ZM521.967 548.684C520.157 548.684 518.503 548.332 517.006 547.629C515.508 546.913 514.317 545.884 513.432 544.543C512.546 543.189 512.104 541.548 512.104 539.621C512.104 538.137 512.383 536.887 512.943 535.871C513.503 534.855 514.298 534.022 515.326 533.371C516.355 532.72 517.572 532.206 518.979 531.828C520.385 531.451 521.934 531.158 523.627 530.949C525.307 530.741 526.726 530.559 527.885 530.402C529.057 530.246 529.949 529.999 530.561 529.66C531.173 529.322 531.479 528.775 531.479 528.02V527.316C531.479 525.272 530.867 523.664 529.643 522.492C528.432 521.307 526.687 520.715 524.408 520.715C522.247 520.715 520.482 521.19 519.115 522.141C517.761 523.091 516.811 524.211 516.264 525.5L512.963 524.309C513.64 522.668 514.577 521.359 515.775 520.383C516.973 519.393 518.314 518.684 519.799 518.254C521.283 517.811 522.787 517.59 524.311 517.59C525.456 517.59 526.648 517.74 527.885 518.039C529.135 518.339 530.294 518.859 531.361 519.602C532.429 520.331 533.295 521.353 533.959 522.668C534.623 523.97 534.955 525.624 534.955 527.629V548H531.479V543.254H531.264C530.847 544.139 530.229 544.999 529.408 545.832C528.588 546.665 527.559 547.349 526.322 547.883C525.085 548.417 523.633 548.684 521.967 548.684ZM522.436 545.5C524.285 545.5 525.886 545.09 527.24 544.27C528.594 543.449 529.636 542.362 530.365 541.008C531.107 539.641 531.479 538.137 531.479 536.496V532.16C531.218 532.408 530.782 532.629 530.17 532.824C529.571 533.02 528.874 533.195 528.08 533.352C527.299 533.495 526.518 533.618 525.736 533.723C524.955 533.827 524.252 533.918 523.627 533.996C521.934 534.204 520.489 534.53 519.291 534.973C518.093 535.415 517.175 536.027 516.537 536.809C515.899 537.577 515.58 538.566 515.58 539.777C515.58 541.6 516.231 543.013 517.533 544.016C518.835 545.005 520.469 545.5 522.436 545.5ZM554.92 518V521.027H540.603V518H554.92ZM545.076 510.812H548.572V540.168C548.572 541.418 548.787 542.401 549.216 543.117C549.646 543.82 550.206 544.322 550.896 544.621C551.586 544.908 552.322 545.051 553.103 545.051C553.559 545.051 553.949 545.025 554.275 544.973C554.601 544.908 554.887 544.842 555.134 544.777L555.877 547.922C555.538 548.052 555.121 548.169 554.627 548.273C554.132 548.391 553.52 548.449 552.791 548.449C551.515 548.449 550.284 548.169 549.099 547.609C547.927 547.049 546.964 546.216 546.209 545.109C545.453 544.003 545.076 542.629 545.076 540.988V510.812ZM561.754 548V518H565.25V548H561.754ZM563.531 512.844C562.815 512.844 562.203 512.603 561.695 512.121C561.188 511.626 560.934 511.034 560.934 510.344C560.934 509.654 561.188 509.068 561.695 508.586C562.203 508.091 562.815 507.844 563.531 507.844C564.248 507.844 564.86 508.091 565.367 508.586C565.875 509.068 566.129 509.654 566.129 510.344C566.129 511.034 565.875 511.626 565.367 512.121C564.86 512.603 564.248 512.844 563.531 512.844ZM585.005 548.625C582.414 548.625 580.122 547.967 578.13 546.652C576.151 545.337 574.601 543.521 573.481 541.203C572.361 538.872 571.802 536.184 571.802 533.137C571.802 530.064 572.361 527.362 573.481 525.031C574.601 522.687 576.151 520.865 578.13 519.562C580.122 518.247 582.414 517.59 585.005 517.59C587.596 517.59 589.881 518.247 591.86 519.562C593.839 520.878 595.389 522.701 596.509 525.031C597.641 527.362 598.208 530.064 598.208 533.137C598.208 536.184 597.648 538.872 596.528 541.203C595.408 543.521 593.852 545.337 591.86 546.652C589.881 547.967 587.596 548.625 585.005 548.625ZM585.005 545.441C587.088 545.441 588.852 544.882 590.298 543.762C591.743 542.642 592.837 541.151 593.579 539.289C594.334 537.427 594.712 535.376 594.712 533.137C594.712 530.897 594.334 528.84 593.579 526.965C592.837 525.09 591.743 523.586 590.298 522.453C588.852 521.32 587.088 520.754 585.005 520.754C582.934 520.754 581.17 521.32 579.712 522.453C578.266 523.586 577.166 525.09 576.411 526.965C575.669 528.84 575.298 530.897 575.298 533.137C575.298 535.376 575.669 537.427 576.411 539.289C577.166 541.151 578.266 542.642 579.712 543.762C581.157 544.882 582.921 545.441 585.005 545.441ZM608.216 529.25V548H604.74V518H608.119V522.707H608.431C609.134 521.171 610.228 519.94 611.712 519.016C613.21 518.078 615.059 517.609 617.259 517.609C619.277 517.609 621.048 518.033 622.572 518.879C624.108 519.712 625.3 520.943 626.146 522.57C627.005 524.198 627.435 526.197 627.435 528.566V548H623.958V528.781C623.958 526.32 623.268 524.374 621.888 522.941C620.521 521.509 618.685 520.793 616.38 520.793C614.805 520.793 613.405 521.132 612.181 521.809C610.957 522.486 609.987 523.462 609.271 524.738C608.568 526.001 608.216 527.505 608.216 529.25ZM90.9688 637.684C89.1589 637.684 87.5052 637.332 86.0078 636.629C84.5104 635.913 83.319 634.884 82.4336 633.543C81.5482 632.189 81.1055 630.548 81.1055 628.621C81.1055 627.137 81.3854 625.887 81.9453 624.871C82.5052 623.855 83.2995 623.022 84.3281 622.371C85.3568 621.72 86.5742 621.206 87.9805 620.828C89.3867 620.451 90.9362 620.158 92.6289 619.949C94.3086 619.741 95.7279 619.559 96.8867 619.402C98.0586 619.246 98.9505 618.999 99.5625 618.66C100.174 618.322 100.48 617.775 100.48 617.02V616.316C100.48 614.272 99.8685 612.664 98.6445 611.492C97.4336 610.307 95.6888 609.715 93.4102 609.715C91.2487 609.715 89.4844 610.19 88.1172 611.141C86.763 612.091 85.8125 613.211 85.2656 614.5L81.9648 613.309C82.6419 611.668 83.5794 610.359 84.7773 609.383C85.9753 608.393 87.3164 607.684 88.8008 607.254C90.2852 606.811 91.7891 606.59 93.3125 606.59C94.4583 606.59 95.6497 606.74 96.8867 607.039C98.1367 607.339 99.2956 607.859 100.363 608.602C101.431 609.331 102.297 610.353 102.961 611.668C103.625 612.97 103.957 614.624 103.957 616.629V637H100.48V632.254H100.266C99.849 633.139 99.2305 633.999 98.4102 634.832C97.5898 635.665 96.5612 636.349 95.3242 636.883C94.0872 637.417 92.6354 637.684 90.9688 637.684ZM91.4375 634.5C93.2865 634.5 94.888 634.09 96.2422 633.27C97.5964 632.449 98.638 631.362 99.3672 630.008C100.109 628.641 100.48 627.137 100.48 625.496V621.16C100.22 621.408 99.7839 621.629 99.1719 621.824C98.5729 622.02 97.8763 622.195 97.082 622.352C96.3008 622.495 95.5195 622.618 94.7383 622.723C93.957 622.827 93.2539 622.918 92.6289 622.996C90.9362 623.204 89.4909 623.53 88.293 623.973C87.0951 624.415 86.1771 625.027 85.5391 625.809C84.901 626.577 84.582 627.566 84.582 628.777C84.582 630.6 85.2331 632.013 86.5352 633.016C87.8372 634.005 89.4714 634.5 91.4375 634.5ZM115.582 618.25V637H112.105V607H115.484V611.707H115.796C116.5 610.171 117.593 608.94 119.078 608.016C120.575 607.078 122.424 606.609 124.625 606.609C126.643 606.609 128.414 607.033 129.937 607.879C131.474 608.712 132.665 609.943 133.511 611.57C134.371 613.198 134.8 615.197 134.8 617.566V637H131.324V617.781C131.324 615.32 130.634 613.374 129.254 611.941C127.886 610.509 126.05 609.793 123.746 609.793C122.17 609.793 120.77 610.132 119.546 610.809C118.323 611.486 117.352 612.462 116.636 613.738C115.933 615.001 115.582 616.505 115.582 618.25ZM153.656 637.625C151.196 637.625 149.041 636.974 147.192 635.672C145.343 634.37 143.897 632.553 142.856 630.223C141.827 627.892 141.313 625.177 141.313 622.078C141.313 618.992 141.827 616.29 142.856 613.973C143.897 611.642 145.349 609.832 147.211 608.543C149.073 607.241 151.241 606.59 153.715 606.59C155.538 606.59 157.055 606.915 158.266 607.566C159.477 608.204 160.447 608.999 161.176 609.949C161.905 610.9 162.472 611.824 162.875 612.723H163.188V597H166.684V637H163.285V631.434H162.875C162.472 632.345 161.899 633.283 161.156 634.246C160.414 635.197 159.431 635.997 158.207 636.648C156.996 637.299 155.479 637.625 153.656 637.625ZM154.067 634.441C156.007 634.441 157.66 633.914 159.028 632.859C160.395 631.792 161.436 630.327 162.153 628.465C162.882 626.59 163.246 624.441 163.246 622.02C163.246 619.624 162.888 617.508 162.172 615.672C161.456 613.823 160.414 612.378 159.047 611.336C157.68 610.281 156.02 609.754 154.067 609.754C152.061 609.754 150.369 610.301 148.988 611.395C147.621 612.475 146.58 613.94 145.863 615.789C145.16 617.638 144.809 619.715 144.809 622.02C144.809 624.35 145.167 626.453 145.883 628.328C146.599 630.203 147.641 631.694 149.008 632.801C150.388 633.895 152.074 634.441 154.067 634.441ZM189.855 637V607H193.234V611.609H193.546C194.145 610.06 195.141 608.842 196.535 607.957C197.941 607.059 199.627 606.609 201.593 606.609C203.663 606.609 205.363 607.098 206.691 608.074C208.032 609.038 209.035 610.366 209.699 612.059H209.953C210.63 610.392 211.73 609.07 213.253 608.094C214.79 607.104 216.652 606.609 218.839 606.609C221.626 606.609 223.826 607.488 225.441 609.246C227.055 610.991 227.863 613.543 227.863 616.902V637H224.386V616.902C224.386 614.533 223.781 612.755 222.57 611.57C221.359 610.385 219.764 609.793 217.785 609.793C215.493 609.793 213.729 610.496 212.492 611.902C211.255 613.309 210.636 615.092 210.636 617.254V637H207.081V616.59C207.081 614.559 206.515 612.918 205.382 611.668C204.249 610.418 202.654 609.793 200.597 609.793C199.217 609.793 197.973 610.132 196.867 610.809C195.773 611.486 194.907 612.43 194.269 613.641C193.644 614.839 193.331 616.219 193.331 617.781V637H189.855ZM247.627 637.625C245.036 637.625 242.744 636.967 240.752 635.652C238.773 634.337 237.223 632.521 236.104 630.203C234.984 627.872 234.424 625.184 234.424 622.137C234.424 619.064 234.984 616.362 236.104 614.031C237.223 611.687 238.773 609.865 240.752 608.562C242.744 607.247 245.036 606.59 247.627 606.59C250.218 606.59 252.503 607.247 254.482 608.562C256.462 609.878 258.011 611.701 259.131 614.031C260.264 616.362 260.83 619.064 260.83 622.137C260.83 625.184 260.27 627.872 259.15 630.203C258.031 632.521 256.475 634.337 254.482 635.652C252.503 636.967 250.218 637.625 247.627 637.625ZM247.627 634.441C249.71 634.441 251.475 633.882 252.92 632.762C254.365 631.642 255.459 630.151 256.201 628.289C256.956 626.427 257.334 624.376 257.334 622.137C257.334 619.897 256.956 617.84 256.201 615.965C255.459 614.09 254.365 612.586 252.92 611.453C251.475 610.32 249.71 609.754 247.627 609.754C245.557 609.754 243.792 610.32 242.334 611.453C240.889 612.586 239.788 614.09 239.033 615.965C238.291 617.84 237.92 619.897 237.92 622.137C237.92 624.376 238.291 626.427 239.033 628.289C239.788 630.151 240.889 631.642 242.334 632.762C243.779 633.882 245.544 634.441 247.627 634.441ZM267.362 637V607H270.741V611.609H270.995C271.594 610.099 272.635 608.882 274.12 607.957C275.617 607.02 277.31 606.551 279.198 606.551C279.484 606.551 279.803 606.557 280.155 606.57C280.506 606.583 280.799 606.596 281.034 606.609V610.145C280.878 610.118 280.604 610.079 280.213 610.027C279.823 609.975 279.4 609.949 278.944 609.949C277.381 609.949 275.988 610.281 274.764 610.945C273.553 611.596 272.596 612.501 271.893 613.66C271.19 614.819 270.838 616.141 270.838 617.625V637H267.362ZM297.082 637.625C294.283 637.625 291.861 636.974 289.817 635.672C287.772 634.357 286.19 632.54 285.071 630.223C283.964 627.892 283.41 625.21 283.41 622.176C283.41 619.155 283.964 616.473 285.071 614.129C286.19 611.772 287.733 609.93 289.699 608.602C291.679 607.26 293.964 606.59 296.555 606.59C298.182 606.59 299.752 606.889 301.262 607.488C302.772 608.074 304.127 608.979 305.324 610.203C306.535 611.414 307.492 612.944 308.196 614.793C308.899 616.629 309.25 618.803 309.25 621.316V623.035H285.813V619.969H305.696C305.696 618.042 305.305 616.31 304.524 614.773C303.755 613.224 302.681 612 301.301 611.102C299.934 610.203 298.352 609.754 296.555 609.754C294.654 609.754 292.981 610.262 291.535 611.277C290.09 612.293 288.957 613.634 288.137 615.301C287.33 616.967 286.919 618.79 286.906 620.77V622.605C286.906 624.988 287.317 627.072 288.137 628.855C288.97 630.626 290.149 632 291.672 632.977C293.196 633.953 294.999 634.441 297.082 634.441C298.502 634.441 299.745 634.22 300.813 633.777C301.893 633.335 302.798 632.742 303.528 632C304.27 631.245 304.83 630.418 305.207 629.52L308.508 630.594C308.052 631.857 307.304 633.022 306.262 634.09C305.233 635.158 303.944 636.017 302.395 636.668C300.858 637.306 299.087 637.625 297.082 637.625ZM318.507 637.293C317.738 637.293 317.074 637.02 316.514 636.473C315.968 635.913 315.694 635.249 315.694 634.48C315.694 633.699 315.968 633.035 316.514 632.488C317.074 631.941 317.738 631.668 318.507 631.668C319.288 631.668 319.952 631.941 320.499 632.488C321.046 633.035 321.319 633.699 321.319 634.48C321.319 634.988 321.189 635.457 320.929 635.887C320.681 636.316 320.343 636.661 319.913 636.922C319.496 637.169 319.027 637.293 318.507 637.293ZM333.917 637.293C333.149 637.293 332.485 637.02 331.925 636.473C331.378 635.913 331.104 635.249 331.104 634.48C331.104 633.699 331.378 633.035 331.925 632.488C332.485 631.941 333.149 631.668 333.917 631.668C334.698 631.668 335.362 631.941 335.909 632.488C336.456 633.035 336.729 633.699 336.729 634.48C336.729 634.988 336.599 635.457 336.339 635.887C336.091 636.316 335.753 636.661 335.323 636.922C334.906 637.169 334.438 637.293 333.917 637.293ZM349.346 637.293C348.578 637.293 347.914 637.02 347.354 636.473C346.807 635.913 346.534 635.249 346.534 634.48C346.534 633.699 346.807 633.035 347.354 632.488C347.914 631.941 348.578 631.668 349.346 631.668C350.128 631.668 350.792 631.941 351.339 632.488C351.886 633.035 352.159 633.699 352.159 634.48C352.159 634.988 352.029 635.457 351.768 635.887C351.521 636.316 351.182 636.661 350.753 636.922C350.336 637.169 349.867 637.293 349.346 637.293Z" fill="url(#paint1_linear_76_2)"/>
<path d="M807.484 588.909V642H802.766L771.399 597.542H770.984V642H766.136V588.909H770.828L802.299 633.419H802.714V588.909H807.484ZM836.738 642.83C833.023 642.83 829.808 641.965 827.095 640.237C824.381 638.492 822.282 636.081 820.795 633.005C819.326 629.911 818.592 626.351 818.592 622.324C818.592 618.315 819.326 614.755 820.795 611.644C822.282 608.516 824.33 606.07 826.939 604.308C829.566 602.527 832.599 601.637 836.038 601.637C838.199 601.637 840.281 602.035 842.286 602.83C844.291 603.608 846.088 604.809 847.678 606.433C849.285 608.04 850.555 610.071 851.489 612.525C852.422 614.962 852.888 617.848 852.888 621.184V623.465H821.78V619.395H848.17C848.17 616.837 847.652 614.539 846.615 612.499C845.595 610.443 844.17 608.818 842.338 607.626C840.523 606.433 838.423 605.837 836.038 605.837C833.515 605.837 831.294 606.511 829.376 607.859C827.458 609.207 825.954 610.987 824.865 613.199C823.794 615.411 823.249 617.831 823.232 620.458V622.895C823.232 626.057 823.777 628.822 824.865 631.19C825.971 633.54 827.535 635.364 829.557 636.66C831.579 637.956 833.973 638.604 836.738 638.604C838.622 638.604 840.272 638.31 841.69 637.723C843.124 637.135 844.325 636.349 845.293 635.364C846.278 634.361 847.021 633.264 847.522 632.071L851.903 633.497C851.298 635.174 850.305 636.72 848.922 638.137C847.557 639.555 845.846 640.695 843.789 641.559C841.75 642.406 839.4 642.83 836.738 642.83ZM871.897 642L859.868 602.182H864.742L874.178 635.027H874.515L883.925 602.182H888.825L898.157 634.949H898.52L907.956 602.182H912.83L900.801 642H896.031L886.595 609.363H886.103L876.667 642H871.897ZM943.289 642V588.909H960.425C964.192 588.909 967.338 589.592 969.861 590.957C972.401 592.305 974.311 594.18 975.59 596.582C976.886 598.967 977.534 601.707 977.534 604.8C977.534 607.894 976.886 610.624 975.59 612.992C974.311 615.359 972.41 617.209 969.887 618.539C967.364 619.87 964.235 620.536 960.502 620.536H945.908V616.103H960.373C963.138 616.103 965.437 615.645 967.268 614.729C969.118 613.813 970.492 612.508 971.39 610.814C972.306 609.121 972.764 607.116 972.764 604.8C972.764 602.484 972.306 600.462 971.39 598.734C970.474 596.989 969.092 595.641 967.243 594.69C965.411 593.739 963.095 593.264 960.295 593.264H948.137V642H943.289ZM966.698 618.047L979.763 642H974.164L961.228 618.047H966.698ZM1004.05 642.83C1000.34 642.83 997.123 641.965 994.41 640.237C991.697 638.492 989.597 636.081 988.111 633.005C986.642 629.911 985.907 626.351 985.907 622.324C985.907 618.315 986.642 614.755 988.111 611.644C989.597 608.516 991.645 606.07 994.255 604.308C996.882 602.527 999.915 601.637 1003.35 601.637C1005.51 601.637 1007.6 602.035 1009.6 602.83C1011.61 603.608 1013.4 604.809 1014.99 606.433C1016.6 608.04 1017.87 610.071 1018.8 612.525C1019.74 614.962 1020.2 617.848 1020.2 621.184V623.465H989.096V619.395H1015.49C1015.49 616.837 1014.97 614.539 1013.93 612.499C1012.91 610.443 1011.48 608.818 1009.65 607.626C1007.84 606.433 1005.74 605.837 1003.35 605.837C1000.83 605.837 998.61 606.511 996.691 607.859C994.773 609.207 993.27 610.987 992.181 613.199C991.109 615.411 990.565 617.831 990.548 620.458V622.895C990.548 626.057 991.092 628.822 992.181 631.19C993.287 633.54 994.851 635.364 996.873 636.66C998.895 637.956 1001.29 638.604 1004.05 638.604C1005.94 638.604 1007.59 638.31 1009 637.723C1010.44 637.135 1011.64 636.349 1012.61 635.364C1013.59 634.361 1014.34 633.264 1014.84 632.071L1019.22 633.497C1018.61 635.174 1017.62 636.72 1016.24 638.137C1014.87 639.555 1013.16 640.695 1011.1 641.559C1009.07 642.406 1006.72 642.83 1004.05 642.83ZM1034.99 588.909V642H1030.37V588.909H1034.99ZM1063.29 642.83C1059.58 642.83 1056.36 641.965 1053.65 640.237C1050.94 638.492 1048.84 636.081 1047.35 633.005C1045.88 629.911 1045.15 626.351 1045.15 622.324C1045.15 618.315 1045.88 614.755 1047.35 611.644C1048.84 608.516 1050.89 606.07 1053.5 604.308C1056.12 602.527 1059.16 601.637 1062.59 601.637C1064.76 601.637 1066.84 602.035 1068.84 602.83C1070.85 603.608 1072.64 604.809 1074.23 606.433C1075.84 608.04 1077.11 610.071 1078.05 612.525C1078.98 614.962 1079.45 617.848 1079.45 621.184V623.465H1048.34V619.395H1074.73C1074.73 616.837 1074.21 614.539 1073.17 612.499C1072.15 610.443 1070.73 608.818 1068.89 607.626C1067.08 606.433 1064.98 605.837 1062.59 605.837C1060.07 605.837 1057.85 606.511 1055.93 607.859C1054.01 609.207 1052.51 610.987 1051.42 613.199C1050.35 615.411 1049.81 617.831 1049.79 620.458V622.895C1049.79 626.057 1050.33 628.822 1051.42 631.19C1052.53 633.54 1054.09 635.364 1056.11 636.66C1058.14 637.956 1060.53 638.604 1063.29 638.604C1065.18 638.604 1066.83 638.31 1068.25 637.723C1069.68 637.135 1070.88 636.349 1071.85 635.364C1072.83 634.361 1073.58 633.264 1074.08 632.071L1078.46 633.497C1077.86 635.174 1076.86 636.72 1075.48 638.137C1074.11 639.555 1072.4 640.695 1070.35 641.559C1068.31 642.406 1065.96 642.83 1063.29 642.83ZM1100.73 642.907C1098.33 642.907 1096.14 642.441 1094.15 641.507C1092.16 640.557 1090.58 639.192 1089.41 637.412C1088.23 635.614 1087.64 633.437 1087.64 630.879C1087.64 628.909 1088.01 627.25 1088.76 625.902C1089.5 624.554 1090.56 623.448 1091.92 622.583C1093.29 621.719 1094.9 621.037 1096.77 620.536C1098.63 620.034 1100.69 619.645 1102.94 619.369C1105.17 619.092 1107.05 618.85 1108.59 618.643C1110.14 618.436 1111.33 618.107 1112.14 617.658C1112.95 617.209 1113.36 616.483 1113.36 615.48V614.547C1113.36 611.834 1112.55 609.7 1110.92 608.144C1109.32 606.571 1107 605.785 1103.97 605.785C1101.11 605.785 1098.76 606.416 1096.95 607.678C1095.15 608.939 1093.89 610.425 1093.16 612.136L1088.78 610.555C1089.68 608.377 1090.93 606.641 1092.52 605.344C1094.11 604.031 1095.89 603.089 1097.86 602.519C1099.83 601.931 1101.82 601.637 1103.85 601.637C1105.37 601.637 1106.95 601.836 1108.59 602.234C1110.25 602.631 1111.79 603.322 1113.2 604.308C1114.62 605.275 1115.77 606.632 1116.65 608.377C1117.53 610.106 1117.97 612.301 1117.97 614.962V642H1113.36V635.701H1113.07C1112.52 636.876 1111.7 638.016 1110.61 639.123C1109.52 640.229 1108.16 641.136 1106.52 641.844C1104.87 642.553 1102.95 642.907 1100.73 642.907ZM1101.36 638.682C1103.81 638.682 1105.94 638.137 1107.73 637.049C1109.53 635.96 1110.91 634.517 1111.88 632.719C1112.87 630.905 1113.36 628.909 1113.36 626.731V620.976C1113.01 621.305 1112.43 621.598 1111.62 621.858C1110.83 622.117 1109.9 622.35 1108.85 622.558C1107.81 622.748 1106.77 622.912 1105.74 623.05C1104.7 623.188 1103.77 623.309 1102.94 623.413C1100.69 623.69 1098.77 624.122 1097.18 624.709C1095.59 625.297 1094.37 626.109 1093.53 627.146C1092.68 628.166 1092.26 629.479 1092.26 631.086C1092.26 633.506 1093.12 635.381 1094.85 636.712C1096.58 638.025 1098.75 638.682 1101.36 638.682ZM1157 610.918L1152.78 612.11C1152.36 610.918 1151.77 609.838 1151.01 608.87C1150.25 607.902 1149.26 607.133 1148.03 606.563C1146.82 605.993 1145.32 605.707 1143.52 605.707C1140.82 605.707 1138.61 606.347 1136.88 607.626C1135.16 608.905 1134.29 610.555 1134.29 612.577C1134.29 614.288 1134.88 615.679 1136.06 616.751C1137.25 617.805 1139.08 618.643 1141.55 619.265L1147.56 620.743C1150.9 621.555 1153.4 622.843 1155.06 624.605C1156.73 626.368 1157.57 628.58 1157.57 631.242C1157.57 633.489 1156.95 635.485 1155.7 637.23C1154.46 638.976 1152.72 640.35 1150.49 641.352C1148.28 642.337 1145.72 642.83 1142.8 642.83C1138.91 642.83 1135.7 641.957 1133.18 640.211C1130.65 638.449 1129.04 635.908 1128.33 632.59L1132.76 631.501C1133.33 633.869 1134.45 635.657 1136.11 636.867C1137.78 638.077 1139.99 638.682 1142.72 638.682C1145.78 638.682 1148.22 637.999 1150.05 636.634C1151.89 635.251 1152.8 633.523 1152.8 631.449C1152.8 629.842 1152.27 628.494 1151.19 627.405C1150.12 626.299 1148.5 625.487 1146.32 624.968L1139.81 623.413C1136.36 622.583 1133.8 621.27 1132.14 619.473C1130.48 617.675 1129.65 615.446 1129.65 612.784C1129.65 610.59 1130.25 608.663 1131.44 607.004C1132.63 605.327 1134.27 604.014 1136.37 603.063C1138.46 602.113 1140.84 601.637 1143.52 601.637C1147.17 601.637 1150.08 602.467 1152.26 604.126C1154.45 605.768 1156.03 608.032 1157 610.918ZM1183.77 642.83C1180.06 642.83 1176.84 641.965 1174.13 640.237C1171.42 638.492 1169.32 636.081 1167.83 633.005C1166.36 629.911 1165.63 626.351 1165.63 622.324C1165.63 618.315 1166.36 614.755 1167.83 611.644C1169.32 608.516 1171.36 606.07 1173.97 604.308C1176.6 602.527 1179.63 601.637 1183.07 601.637C1185.23 601.637 1187.32 602.035 1189.32 602.83C1191.33 603.608 1193.12 604.809 1194.71 606.433C1196.32 608.04 1197.59 610.071 1198.52 612.525C1199.46 614.962 1199.92 617.848 1199.92 621.184V623.465H1168.82V619.395H1195.21C1195.21 616.837 1194.69 614.539 1193.65 612.499C1192.63 610.443 1191.2 608.818 1189.37 607.626C1187.56 606.433 1185.46 605.837 1183.07 605.837C1180.55 605.837 1178.33 606.511 1176.41 607.859C1174.49 609.207 1172.99 610.987 1171.9 613.199C1170.83 615.411 1170.28 617.831 1170.27 620.458V622.895C1170.27 626.057 1170.81 628.822 1171.9 631.19C1173.01 633.54 1174.57 635.364 1176.59 636.66C1178.61 637.956 1181.01 638.604 1183.77 638.604C1185.66 638.604 1187.31 638.31 1188.72 637.723C1190.16 637.135 1191.36 636.349 1192.33 635.364C1193.31 634.361 1194.06 633.264 1194.56 632.071L1198.94 633.497C1198.33 635.174 1197.34 636.72 1195.96 638.137C1194.59 639.555 1192.88 640.695 1190.82 641.559C1188.79 642.406 1186.43 642.83 1183.77 642.83Z" fill="white" fill-opacity="0.65"/>
<path d="M854.529 526.46C838.958 526.46 825.034 523.659 812.759 518.057C800.483 512.372 790.762 504.504 783.594 494.453C776.426 484.402 772.637 472.827 772.225 459.727H795.581C795.993 468.955 798.835 477.028 804.108 483.949C809.381 490.787 816.384 496.142 825.117 500.014C833.85 503.804 843.571 505.699 854.281 505.699C865.98 505.699 876.279 503.516 885.176 499.149C894.156 494.783 901.159 488.81 906.185 481.23C911.293 473.568 913.847 464.918 913.847 455.278C913.847 445.062 911.252 436.041 906.061 428.214C900.871 420.388 893.415 414.291 883.693 409.925C874.054 405.558 862.52 403.375 849.091 403.375H834.262V382.614H849.091C860.048 382.614 869.729 380.636 878.132 376.682C886.618 372.645 893.291 367.001 898.152 359.751C903.013 352.501 905.443 343.974 905.443 334.17C905.443 324.861 903.342 316.663 899.141 309.578C894.939 302.493 889.007 296.932 881.345 292.895C873.766 288.858 864.909 286.839 854.776 286.839C844.972 286.839 835.992 288.734 827.835 292.524C819.679 296.314 813.088 301.669 808.063 308.589C803.119 315.51 800.483 323.707 800.154 333.182H777.786C778.115 320 781.74 308.425 788.661 298.456C795.664 288.405 804.932 280.578 816.466 274.976C828.083 269.291 840.935 266.449 855.023 266.449C869.935 266.449 882.828 269.497 893.703 275.594C904.578 281.69 912.982 289.805 918.914 299.939C924.928 309.99 927.935 321.071 927.935 333.182C927.935 347.599 924.021 359.957 916.195 370.256C908.368 380.472 897.823 387.557 884.558 391.511V393.118C900.706 396.331 913.394 403.499 922.621 414.621C931.931 425.661 936.585 439.213 936.585 455.278C936.585 468.79 933.043 480.942 925.958 491.734C918.872 502.445 909.151 510.93 896.793 517.192C884.517 523.371 870.429 526.46 854.529 526.46ZM986.525 524.854C981.664 524.854 977.463 523.124 973.92 519.663C970.46 516.121 968.73 511.919 968.73 507.058C968.73 502.115 970.46 497.913 973.92 494.453C977.463 490.993 981.664 489.263 986.525 489.263C991.468 489.263 995.67 490.993 999.13 494.453C1002.59 497.913 1004.32 502.115 1004.32 507.058C1004.32 510.271 1003.5 513.237 1001.85 515.956C1000.28 518.675 998.142 520.858 995.423 522.506C992.786 524.071 989.821 524.854 986.525 524.854ZM1116.82 526.46C1106.36 526.378 1096.14 524.277 1086.17 520.158C1076.21 515.956 1067.23 509.241 1059.23 500.014C1051.24 490.705 1044.9 478.429 1040.2 463.188C1035.51 447.946 1033.16 429.203 1033.16 406.959C1033.16 386.362 1034.97 367.496 1038.6 350.359C1042.22 333.223 1047.66 318.393 1054.91 305.871C1062.16 293.348 1071.22 283.668 1082.1 276.83C1092.97 269.909 1105.7 266.449 1120.28 266.449C1133.96 266.449 1146.03 269.291 1156.49 274.976C1166.95 280.578 1175.44 288.405 1181.95 298.456C1188.46 308.507 1192.54 320.082 1194.18 333.182H1171.44C1169.14 319.835 1163.66 308.837 1155.01 300.186C1146.36 291.536 1134.78 287.21 1120.28 287.21C1099.52 287.21 1083.46 296.849 1072.09 316.128C1060.72 335.324 1054.99 362.594 1054.91 397.938H1056.52C1060.55 390.44 1065.74 383.973 1072.09 378.536C1078.51 373.016 1085.8 368.732 1093.96 365.683C1102.12 362.553 1110.68 360.987 1119.66 360.987C1133.75 360.987 1146.65 364.571 1158.35 371.739C1170.04 378.824 1179.39 388.587 1186.4 401.027C1193.4 413.385 1196.9 427.514 1196.9 443.415C1196.9 458.491 1193.57 472.374 1186.89 485.061C1180.3 497.749 1170.99 507.841 1158.96 515.338C1147.02 522.835 1132.97 526.543 1116.82 526.46ZM1116.82 505.699C1127.86 505.699 1137.71 502.898 1146.36 497.295C1155.09 491.693 1161.97 484.196 1167 474.804C1172.02 465.33 1174.53 454.866 1174.53 443.415C1174.53 431.963 1172.02 421.582 1167 412.273C1161.97 402.963 1155.09 395.548 1146.36 390.028C1137.71 384.509 1127.86 381.749 1116.82 381.749C1108.42 381.749 1100.59 383.479 1093.34 386.939C1086.09 390.317 1079.79 394.972 1074.43 400.903C1069.16 406.753 1065.12 413.467 1062.32 421.047C1059.61 428.626 1058.58 436.577 1059.23 444.898C1060.14 456.514 1063.15 466.936 1068.26 476.163C1073.45 485.308 1080.2 492.517 1088.52 497.79C1096.93 503.062 1106.36 505.699 1116.82 505.699Z" fill="white"/>
<defs>
<linearGradient id="paint0_linear_76_2" x1="640" y1="0" x2="640" y2="720" gradientUnits="userSpaceOnUse">
<stop stop-color="#050549"/>
<stop offset="1" stop-color="#004BB6"/>
</linearGradient>
<linearGradient id="paint1_linear_76_2" x1="372" y1="230" x2="372" y2="726.19" gradientUnits="userSpaceOnUse">
<stop offset="0.9999" stop-color="white"/>
<stop offset="1" stop-color="white" stop-opacity="0.45"/>
</linearGradient>
<clipPath id="clip0_76_2">
<rect width="400" height="64" fill="white" transform="translate(78 91)"/>
</clipPath>
</defs>
</svg>
