<svg width="1280" height="720" viewBox="0 0 1280 720" fill="none" xmlns="http://www.w3.org/2000/svg">
<rect width="1280" height="720" rx="5" fill="#004BB6"/>
<g clip-path="url(#clip0_2041_16824)">
<path fill-rule="evenodd" clip-rule="evenodd" d="M103.247 111.151L140.837 90C140.837 90 137.293 93.1174 137.449 99.8655C137.615 107.057 140.837 109.731 140.837 109.731L136.42 107.719L101.842 121.255C101.842 121.255 101.002 118.903 100.989 117.13C100.953 112.756 103.247 111.151 103.247 111.151Z" fill="white"/>
<path fill-rule="evenodd" clip-rule="evenodd" d="M95.2473 124.978L136.317 109.955C136.317 109.955 132.773 113.072 132.929 119.821C133.095 127.012 136.317 129.686 136.317 129.686L130.579 127.478L93.7166 134.734C93.7166 134.734 93.0017 132.566 92.9887 130.957C92.9532 126.583 95.2473 124.978 95.2473 124.978Z" fill="white"/>
<path fill-rule="evenodd" clip-rule="evenodd" d="M87.259 137.161L130.591 129.388C130.591 129.388 127.047 132.505 127.203 139.253C127.369 146.445 130.591 149.119 130.591 149.119H87.5825C87.5825 149.119 85.0381 147.573 85.0004 142.916C84.9649 138.542 87.259 137.161 87.259 137.161Z" fill="white"/>
<path fill-rule="evenodd" clip-rule="evenodd" d="M168.832 124.272C168.832 136.788 178.233 144.993 189.789 144.993C196.735 144.993 202.303 142.119 206.255 137.747V122.775H187.334V128.944H199.249V135.171C197.453 136.848 193.861 138.764 189.789 138.764C181.885 138.764 176.017 132.656 176.017 124.272C176.017 115.888 181.885 109.84 189.789 109.84C191.815 109.838 193.813 110.322 195.614 111.249C197.416 112.176 198.97 113.52 200.147 115.169L205.895 111.936C202.662 107.325 197.573 103.612 189.789 103.612C178.233 103.613 168.832 111.757 168.832 124.272ZM211.577 144.214H217.864V124.512C219.122 122.476 222.654 120.679 225.289 120.679C225.952 120.669 226.614 120.729 227.265 120.859V114.631C223.493 114.631 220.02 116.787 217.864 119.542V115.29H211.577V144.214ZM243.607 144.933C252.888 144.933 258.516 138.046 258.516 129.722C258.516 121.458 252.888 114.571 243.607 114.571C234.446 114.571 228.758 121.458 228.758 129.722C228.758 138.046 234.446 144.933 243.607 144.933ZM243.607 139.364C238.278 139.364 235.284 134.874 235.284 129.723C235.284 124.633 238.278 120.141 243.607 120.141C248.996 120.141 251.99 124.632 251.99 129.723C251.99 134.872 248.996 139.363 243.607 139.363V139.364ZM288.27 144.214H294.856L303.838 115.29H297.312L291.205 136.309L284.318 115.29H278.81L271.925 136.309L265.817 115.29H259.29L268.271 144.214H274.859L281.565 123.015L288.27 144.214ZM315.088 144.933C318.022 144.933 319.878 144.154 321.016 143.076L319.518 138.345C319.039 138.883 317.902 139.363 316.704 139.363C314.908 139.363 313.95 137.926 313.95 135.95V120.799H319.818V115.29H313.95V107.386H307.663V115.291H302.873V120.8H307.663V137.507C307.663 142.298 310.238 144.933 315.088 144.933ZM343.286 144.214H349.573V123.734C349.573 117.806 346.459 114.571 340.232 114.571C335.682 114.571 331.91 116.967 329.994 119.242V104.271H323.707V144.214H329.994V124.033C331.491 122.057 334.245 120.141 337.418 120.141C340.951 120.141 343.286 121.518 343.286 126.009V144.214H343.286ZM356.094 144.214H376.273C383.757 144.214 387.889 139.602 387.889 133.435C387.889 128.524 384.415 124.272 380.165 123.614C383.876 122.835 387.109 119.482 387.109 114.452C387.109 108.822 383.039 104.271 375.734 104.271H356.095V144.214H356.094ZM363.1 120.799V110.439H374.297C377.889 110.439 379.925 112.655 379.925 115.648C379.925 118.642 377.889 120.798 374.297 120.798H363.1L363.1 120.799ZM363.1 138.046V126.967H374.596C378.608 126.967 380.703 129.482 380.703 132.477C380.703 135.95 378.428 138.045 374.596 138.045H363.1L363.1 138.046ZM405.966 144.933C415.246 144.933 420.875 138.046 420.875 129.722C420.875 121.458 415.246 114.571 405.966 114.571C396.805 114.571 391.115 121.458 391.115 129.722C391.115 138.046 396.805 144.933 405.966 144.933ZM405.966 139.364C400.638 139.364 397.642 134.874 397.642 129.723C397.642 124.633 400.638 120.141 405.966 120.141C411.354 120.141 414.347 124.632 414.347 129.723C414.347 134.872 411.354 139.363 405.966 139.363V139.364ZM438.474 144.933C447.754 144.933 453.383 138.046 453.383 129.722C453.383 121.458 447.754 114.571 438.474 114.571C429.313 114.571 423.623 121.458 423.623 129.722C423.623 138.046 429.313 144.933 438.474 144.933ZM438.474 139.364C433.143 139.364 430.15 134.874 430.15 129.723C430.15 124.633 433.143 120.141 438.474 120.141C443.862 120.141 446.855 124.632 446.855 129.723C446.855 134.872 443.862 139.363 438.474 139.363V139.364ZM477.089 144.214H484.992L472.717 128.405L484.752 115.29H476.97L464.214 129.243V104.271H457.927V144.214H464.214V136.429L468.226 132.298L477.089 144.214Z" fill="white"/>
</g>
<path d="M106.136 346.727V434H95.5682V346.727H106.136ZM136.019 394.625V434H125.962V368.545H135.678V378.773H136.531C138.065 375.449 140.394 372.778 143.519 370.761C146.644 368.716 150.678 367.693 155.621 367.693C160.053 367.693 163.931 368.602 167.255 370.42C170.579 372.21 173.164 374.938 175.011 378.602C176.857 382.239 177.781 386.841 177.781 392.409V434H167.724V393.091C167.724 387.949 166.388 383.943 163.718 381.074C161.048 378.176 157.383 376.727 152.724 376.727C149.513 376.727 146.644 377.423 144.116 378.815C141.616 380.207 139.641 382.239 138.192 384.909C136.744 387.58 136.019 390.818 136.019 394.625ZM224.624 368.545V377.068H190.703V368.545H224.624ZM200.589 352.864H210.646V415.25C210.646 418.091 211.058 420.222 211.882 421.642C212.734 423.034 213.814 423.972 215.121 424.455C216.456 424.909 217.862 425.136 219.339 425.136C220.447 425.136 221.357 425.08 222.067 424.966C222.777 424.824 223.345 424.71 223.771 424.625L225.817 433.659C225.135 433.915 224.183 434.17 222.962 434.426C221.74 434.71 220.192 434.852 218.317 434.852C215.476 434.852 212.692 434.241 209.964 433.02C207.266 431.798 205.021 429.938 203.232 427.438C201.47 424.938 200.589 421.784 200.589 417.977V352.864ZM239.751 434V368.545H249.467V378.432H250.149C251.342 375.193 253.501 372.565 256.626 370.548C259.751 368.531 263.274 367.523 267.195 367.523C267.933 367.523 268.857 367.537 269.964 367.565C271.072 367.594 271.911 367.636 272.479 367.693V377.92C272.138 377.835 271.357 377.707 270.135 377.537C268.942 377.338 267.678 377.239 266.342 377.239C263.161 377.239 260.32 377.906 257.82 379.241C255.348 380.548 253.388 382.366 251.939 384.696C250.518 386.997 249.808 389.625 249.808 392.58V434H239.751ZM308.999 435.364C303.089 435.364 297.905 433.957 293.445 431.145C289.013 428.332 285.547 424.398 283.047 419.341C280.575 414.284 279.339 408.375 279.339 401.614C279.339 394.795 280.575 388.844 283.047 383.759C285.547 378.673 289.013 374.724 293.445 371.912C297.905 369.099 303.089 367.693 308.999 367.693C314.908 367.693 320.078 369.099 324.51 371.912C328.97 374.724 332.436 378.673 334.908 383.759C337.408 388.844 338.658 394.795 338.658 401.614C338.658 408.375 337.408 414.284 334.908 419.341C332.436 424.398 328.97 428.332 324.51 431.145C320.078 433.957 314.908 435.364 308.999 435.364ZM308.999 426.33C313.487 426.33 317.18 425.179 320.078 422.878C322.976 420.577 325.121 417.551 326.513 413.801C327.905 410.051 328.601 405.989 328.601 401.614C328.601 397.239 327.905 393.162 326.513 389.384C325.121 385.605 322.976 382.551 320.078 380.222C317.18 377.892 313.487 376.727 308.999 376.727C304.51 376.727 300.817 377.892 297.919 380.222C295.021 382.551 292.876 385.605 291.484 389.384C290.092 393.162 289.396 397.239 289.396 401.614C289.396 405.989 290.092 410.051 291.484 413.801C292.876 417.551 295.021 420.577 297.919 422.878C300.817 425.179 304.51 426.33 308.999 426.33ZM416.225 368.545V377.068H382.305V368.545H416.225ZM392.191 352.864H402.248V415.25C402.248 418.091 402.66 420.222 403.484 421.642C404.336 423.034 405.415 423.972 406.722 424.455C408.058 424.909 409.464 425.136 410.941 425.136C412.049 425.136 412.958 425.08 413.668 424.966C414.379 424.824 414.947 424.71 415.373 424.625L417.418 433.659C416.737 433.915 415.785 434.17 414.563 434.426C413.342 434.71 411.793 434.852 409.918 434.852C407.077 434.852 404.293 434.241 401.566 433.02C398.867 431.798 396.623 429.938 394.833 427.438C393.072 424.938 392.191 421.784 392.191 417.977V352.864ZM457.241 435.364C451.332 435.364 446.147 433.957 441.687 431.145C437.255 428.332 433.789 424.398 431.289 419.341C428.817 414.284 427.582 408.375 427.582 401.614C427.582 394.795 428.817 388.844 431.289 383.759C433.789 378.673 437.255 374.724 441.687 371.912C446.147 369.099 451.332 367.693 457.241 367.693C463.15 367.693 468.32 369.099 472.752 371.912C477.212 374.724 480.678 378.673 483.15 383.759C485.65 388.844 486.9 394.795 486.9 401.614C486.9 408.375 485.65 414.284 483.15 419.341C480.678 424.398 477.212 428.332 472.752 431.145C468.32 433.957 463.15 435.364 457.241 435.364ZM457.241 426.33C461.729 426.33 465.423 425.179 468.32 422.878C471.218 420.577 473.363 417.551 474.755 413.801C476.147 410.051 476.843 405.989 476.843 401.614C476.843 397.239 476.147 393.162 474.755 389.384C473.363 385.605 471.218 382.551 468.32 380.222C465.423 377.892 461.729 376.727 457.241 376.727C452.752 376.727 449.059 377.892 446.161 380.222C443.263 382.551 441.119 385.605 439.727 389.384C438.335 393.162 437.638 397.239 437.638 401.614C437.638 405.989 438.335 410.051 439.727 413.801C441.119 417.551 443.263 420.577 446.161 422.878C449.059 425.179 452.752 426.33 457.241 426.33Z" fill="white" fill-opacity="0.65"/>
<path d="M155.227 506C154.29 503.131 153.054 500.56 151.52 498.287C150.014 495.986 148.21 494.026 146.108 492.406C144.034 490.787 141.676 489.551 139.034 488.699C136.392 487.847 133.494 487.42 130.341 487.42C125.17 487.42 120.469 488.756 116.236 491.426C112.003 494.097 108.636 498.031 106.136 503.23C103.636 508.429 102.386 514.807 102.386 522.364C102.386 529.92 103.651 536.298 106.179 541.497C108.707 546.696 112.131 550.631 116.449 553.301C120.767 555.972 125.625 557.307 131.023 557.307C136.023 557.307 140.426 556.241 144.233 554.111C148.068 551.952 151.051 548.912 153.182 544.991C155.341 541.043 156.42 536.398 156.42 531.057L159.659 531.739H133.409V522.364H166.648V531.739C166.648 538.926 165.114 545.176 162.045 550.489C159.006 555.801 154.801 559.92 149.432 562.847C144.091 565.744 137.955 567.193 131.023 567.193C123.295 567.193 116.506 565.375 110.653 561.739C104.83 558.102 100.284 552.932 97.017 546.227C93.7784 539.523 92.1591 531.568 92.1591 522.364C92.1591 515.46 93.0824 509.253 94.929 503.741C96.804 498.202 99.446 493.486 102.855 489.594C106.264 485.702 110.298 482.719 114.957 480.645C119.616 478.571 124.744 477.534 130.341 477.534C134.943 477.534 139.233 478.23 143.21 479.622C147.216 480.986 150.781 482.932 153.906 485.46C157.06 487.96 159.688 490.957 161.79 494.452C163.892 497.918 165.341 501.767 166.136 506H155.227ZM183.384 566V500.545H193.1V510.432H193.782C194.975 507.193 197.134 504.565 200.259 502.548C203.384 500.531 206.907 499.523 210.827 499.523C211.566 499.523 212.489 499.537 213.597 499.565C214.705 499.594 215.543 499.636 216.112 499.693V509.92C215.771 509.835 214.989 509.707 213.768 509.537C212.575 509.338 211.31 509.239 209.975 509.239C206.793 509.239 203.952 509.906 201.452 511.241C198.981 512.548 197.021 514.366 195.572 516.696C194.151 518.997 193.441 521.625 193.441 524.58V566H183.384ZM252.631 567.364C246.722 567.364 241.538 565.957 237.077 563.145C232.646 560.332 229.18 556.398 226.68 551.341C224.208 546.284 222.972 540.375 222.972 533.614C222.972 526.795 224.208 520.844 226.68 515.759C229.18 510.673 232.646 506.724 237.077 503.912C241.538 501.099 246.722 499.693 252.631 499.693C258.54 499.693 263.711 501.099 268.143 503.912C272.603 506.724 276.069 510.673 278.54 515.759C281.04 520.844 282.29 526.795 282.29 533.614C282.29 540.375 281.04 546.284 278.54 551.341C276.069 556.398 272.603 560.332 268.143 563.145C263.711 565.957 258.54 567.364 252.631 567.364ZM252.631 558.33C257.12 558.33 260.813 557.179 263.711 554.878C266.609 552.577 268.754 549.551 270.146 545.801C271.538 542.051 272.234 537.989 272.234 533.614C272.234 529.239 271.538 525.162 270.146 521.384C268.754 517.605 266.609 514.551 263.711 512.222C260.813 509.892 257.12 508.727 252.631 508.727C248.143 508.727 244.45 509.892 241.552 512.222C238.654 514.551 236.509 517.605 235.117 521.384C233.725 525.162 233.029 529.239 233.029 533.614C233.029 537.989 233.725 542.051 235.117 545.801C236.509 549.551 238.654 552.577 241.552 554.878C244.45 557.179 248.143 558.33 252.631 558.33ZM310.245 566L290.302 500.545H300.87L315.018 550.659H315.7L329.677 500.545H340.415L354.222 550.489H354.904L369.052 500.545H379.62L359.677 566H349.79L335.472 515.716H334.45L320.131 566H310.245ZM421.381 500.545V509.068H387.461V500.545H421.381ZM397.347 484.864H407.404V547.25C407.404 550.091 407.816 552.222 408.64 553.642C409.492 555.034 410.572 555.972 411.879 556.455C413.214 556.909 414.62 557.136 416.097 557.136C417.205 557.136 418.114 557.08 418.825 556.966C419.535 556.824 420.103 556.71 420.529 556.625L422.575 565.659C421.893 565.915 420.941 566.17 419.719 566.426C418.498 566.71 416.95 566.852 415.075 566.852C412.234 566.852 409.45 566.241 406.722 565.02C404.023 563.798 401.779 561.938 399.989 559.438C398.228 556.938 397.347 553.784 397.347 549.977V484.864ZM447.972 526.625V566H437.915V478.727H447.972V510.773H448.825C450.359 507.392 452.66 504.707 455.728 502.719C458.825 500.702 462.944 499.693 468.086 499.693C472.546 499.693 476.452 500.588 479.805 502.378C483.157 504.139 485.756 506.852 487.603 510.517C489.478 514.153 490.415 518.784 490.415 524.409V566H480.359V525.091C480.359 519.892 479.009 515.872 476.31 513.031C473.64 510.162 469.933 508.727 465.188 508.727C461.893 508.727 458.938 509.423 456.325 510.815C453.739 512.207 451.694 514.239 450.188 516.909C448.711 519.58 447.972 522.818 447.972 526.625ZM510.178 566V478.727H540.689C546.768 478.727 551.783 479.778 555.732 481.881C559.68 483.955 562.621 486.753 564.553 490.276C566.484 493.77 567.45 497.648 567.45 501.909C567.45 505.659 566.783 508.756 565.447 511.199C564.141 513.642 562.408 515.574 560.249 516.994C558.118 518.415 555.803 519.466 553.303 520.148V521C555.973 521.17 558.658 522.108 561.357 523.812C564.055 525.517 566.314 527.96 568.132 531.142C569.95 534.324 570.859 538.216 570.859 542.818C570.859 547.193 569.865 551.128 567.876 554.622C565.888 558.116 562.749 560.886 558.459 562.932C554.169 564.977 548.587 566 541.712 566H510.178ZM520.746 556.625H541.712C548.615 556.625 553.516 555.29 556.413 552.619C559.339 549.92 560.803 546.653 560.803 542.818C560.803 539.864 560.05 537.136 558.544 534.636C557.038 532.108 554.893 530.091 552.109 528.585C549.325 527.051 546.03 526.284 542.223 526.284H520.746V556.625ZM520.746 517.08H540.348C543.53 517.08 546.399 516.455 548.956 515.205C551.541 513.955 553.587 512.193 555.092 509.92C556.626 507.648 557.393 504.977 557.393 501.909C557.393 498.074 556.058 494.821 553.388 492.151C550.717 489.452 546.484 488.102 540.689 488.102H520.746V517.08ZM613.452 567.364C607.543 567.364 602.358 565.957 597.898 563.145C593.466 560.332 590 556.398 587.5 551.341C585.028 546.284 583.793 540.375 583.793 533.614C583.793 526.795 585.028 520.844 587.5 515.759C590 510.673 593.466 506.724 597.898 503.912C602.358 501.099 607.543 499.693 613.452 499.693C619.361 499.693 624.531 501.099 628.963 503.912C633.423 506.724 636.889 510.673 639.361 515.759C641.861 520.844 643.111 526.795 643.111 533.614C643.111 540.375 641.861 546.284 639.361 551.341C636.889 556.398 633.423 560.332 628.963 563.145C624.531 565.957 619.361 567.364 613.452 567.364ZM613.452 558.33C617.94 558.33 621.634 557.179 624.531 554.878C627.429 552.577 629.574 549.551 630.966 545.801C632.358 542.051 633.054 537.989 633.054 533.614C633.054 529.239 632.358 525.162 630.966 521.384C629.574 517.605 627.429 514.551 624.531 512.222C621.634 509.892 617.94 508.727 613.452 508.727C608.963 508.727 605.27 509.892 602.372 512.222C599.474 514.551 597.33 517.605 595.938 521.384C594.545 525.162 593.849 529.239 593.849 533.614C593.849 537.989 594.545 542.051 595.938 545.801C597.33 549.551 599.474 552.577 602.372 554.878C605.27 557.179 608.963 558.33 613.452 558.33ZM685.053 567.364C679.144 567.364 673.96 565.957 669.499 563.145C665.067 560.332 661.602 556.398 659.102 551.341C656.63 546.284 655.394 540.375 655.394 533.614C655.394 526.795 656.63 520.844 659.102 515.759C661.602 510.673 665.067 506.724 669.499 503.912C673.96 501.099 679.144 499.693 685.053 499.693C690.962 499.693 696.133 501.099 700.565 503.912C705.025 506.724 708.491 510.673 710.962 515.759C713.462 520.844 714.712 526.795 714.712 533.614C714.712 540.375 713.462 546.284 710.962 551.341C708.491 556.398 705.025 560.332 700.565 563.145C696.133 565.957 690.962 567.364 685.053 567.364ZM685.053 558.33C689.542 558.33 693.235 557.179 696.133 554.878C699.031 552.577 701.175 549.551 702.567 545.801C703.96 542.051 704.656 537.989 704.656 533.614C704.656 529.239 703.96 525.162 702.567 521.384C701.175 517.605 699.031 514.551 696.133 512.222C693.235 509.892 689.542 508.727 685.053 508.727C680.565 508.727 676.871 509.892 673.974 512.222C671.076 514.551 668.931 517.605 667.539 521.384C666.147 525.162 665.451 529.239 665.451 533.614C665.451 537.989 666.147 542.051 667.539 545.801C668.931 549.551 671.076 552.577 673.974 554.878C676.871 557.179 680.565 558.33 685.053 558.33ZM739.439 542.136L739.268 529.693H741.314L769.95 500.545H782.393L751.882 531.398H751.03L739.439 542.136ZM730.064 566V478.727H740.121V566H730.064ZM771.655 566L746.087 533.614L753.246 526.625L784.439 566H771.655Z" fill="white"/>
<path d="M90.1932 619.495V616.182H107.601V619.495H100.857V638H96.9368V619.495H90.1932ZM114.643 628.412V638H110.786V616.182H114.558V624.417H114.749C115.133 623.494 115.726 622.766 116.528 622.233C117.338 621.693 118.368 621.423 119.618 621.423C120.754 621.423 121.745 621.661 122.59 622.137C123.435 622.613 124.089 623.309 124.55 624.225C125.019 625.141 125.254 626.26 125.254 627.581V638H121.397V628.178C121.397 627.077 121.113 626.221 120.545 625.61C119.984 624.992 119.195 624.683 118.18 624.683C117.498 624.683 116.887 624.832 116.347 625.131C115.815 625.422 115.396 625.844 115.09 626.398C114.792 626.952 114.643 627.624 114.643 628.412ZM136.429 638.32C134.788 638.32 133.371 637.979 132.178 637.297C130.992 636.608 130.08 635.635 129.44 634.378C128.801 633.114 128.482 631.626 128.482 629.914C128.482 628.231 128.801 626.754 129.44 625.482C130.087 624.204 130.989 623.21 132.146 622.499C133.304 621.782 134.664 621.423 136.227 621.423C137.235 621.423 138.187 621.587 139.082 621.913C139.984 622.233 140.779 622.73 141.468 623.405C142.164 624.08 142.711 624.939 143.109 625.983C143.506 627.02 143.705 628.256 143.705 629.69V630.873H130.293V628.273H140.009C140.001 627.535 139.842 626.878 139.529 626.303C139.217 625.72 138.78 625.262 138.219 624.928C137.665 624.594 137.018 624.428 136.28 624.428C135.491 624.428 134.799 624.619 134.202 625.003C133.606 625.379 133.141 625.876 132.807 626.494C132.48 627.105 132.313 627.776 132.306 628.508V630.777C132.306 631.729 132.48 632.545 132.828 633.227C133.176 633.902 133.663 634.42 134.288 634.783C134.913 635.138 135.644 635.315 136.482 635.315C137.043 635.315 137.551 635.237 138.006 635.081C138.46 634.918 138.854 634.68 139.188 634.367C139.522 634.055 139.774 633.668 139.945 633.206L143.545 633.611C143.318 634.562 142.885 635.393 142.246 636.104C141.614 636.807 140.804 637.354 139.817 637.744C138.83 638.128 137.7 638.32 136.429 638.32ZM162.634 638L166.213 616.182H169.196L165.617 638H162.634ZM152.801 632.375L153.301 629.392H170.091L169.59 632.375H152.801ZM154.963 638L158.543 616.182H161.526L157.946 638H154.963ZM154.068 624.79L154.558 621.807H171.348L170.858 624.79H154.068ZM182.548 616.182V638H178.595V620.028H178.467L173.364 623.288V619.665L178.787 616.182H182.548ZM215.238 627.091C215.238 629.442 214.797 631.455 213.917 633.131C213.043 634.8 211.85 636.079 210.337 636.967C208.831 637.854 207.123 638.298 205.213 638.298C203.302 638.298 201.591 637.854 200.078 636.967C198.572 636.072 197.379 634.79 196.498 633.121C195.625 631.445 195.188 629.435 195.188 627.091C195.188 624.74 195.625 622.73 196.498 621.061C197.379 619.385 198.572 618.103 200.078 617.215C201.591 616.327 203.302 615.884 205.213 615.884C207.123 615.884 208.831 616.327 210.337 617.215C211.85 618.103 213.043 619.385 213.917 621.061C214.797 622.73 215.238 624.74 215.238 627.091ZM211.264 627.091C211.264 625.436 211.005 624.04 210.486 622.904C209.975 621.761 209.265 620.898 208.355 620.315C207.446 619.726 206.399 619.431 205.213 619.431C204.027 619.431 202.979 619.726 202.07 620.315C201.161 620.898 200.447 621.761 199.929 622.904C199.417 624.04 199.162 625.436 199.162 627.091C199.162 628.746 199.417 630.145 199.929 631.288C200.447 632.425 201.161 633.288 202.07 633.877C202.979 634.46 204.027 634.751 205.213 634.751C206.399 634.751 207.446 634.46 208.355 633.877C209.265 633.288 209.975 632.425 210.486 631.288C211.005 630.145 211.264 628.746 211.264 627.091ZM218.804 644.136V621.636H222.596V624.342H222.82C223.019 623.945 223.3 623.522 223.662 623.075C224.024 622.62 224.514 622.233 225.132 621.913C225.75 621.587 226.538 621.423 227.497 621.423C228.761 621.423 229.901 621.746 230.917 622.393C231.939 623.032 232.749 623.98 233.346 625.237C233.949 626.487 234.251 628.021 234.251 629.839C234.251 631.636 233.956 633.163 233.367 634.42C232.778 635.678 231.975 636.636 230.959 637.297C229.944 637.957 228.793 638.288 227.508 638.288C226.57 638.288 225.792 638.131 225.175 637.819C224.557 637.506 224.059 637.13 223.683 636.69C223.314 636.242 223.026 635.82 222.82 635.422H222.66V644.136H218.804ZM222.586 629.818C222.586 630.876 222.735 631.803 223.033 632.599C223.339 633.394 223.775 634.016 224.344 634.463C224.919 634.903 225.615 635.124 226.432 635.124C227.284 635.124 227.998 634.896 228.573 634.442C229.148 633.98 229.581 633.352 229.873 632.556C230.171 631.754 230.32 630.841 230.32 629.818C230.32 628.803 230.175 627.901 229.883 627.112C229.592 626.324 229.159 625.706 228.584 625.259C228.008 624.811 227.291 624.587 226.432 624.587C225.608 624.587 224.908 624.804 224.333 625.237C223.758 625.67 223.321 626.278 223.023 627.059C222.731 627.84 222.586 628.76 222.586 629.818ZM244.798 638.32C243.157 638.32 241.741 637.979 240.547 637.297C239.361 636.608 238.449 635.635 237.809 634.378C237.17 633.114 236.851 631.626 236.851 629.914C236.851 628.231 237.17 626.754 237.809 625.482C238.456 624.204 239.358 623.21 240.515 622.499C241.673 621.782 243.033 621.423 244.596 621.423C245.604 621.423 246.556 621.587 247.451 621.913C248.353 622.233 249.148 622.73 249.837 623.405C250.533 624.08 251.08 624.939 251.478 625.983C251.876 627.02 252.074 628.256 252.074 629.69V630.873H238.662V628.273H248.378C248.371 627.535 248.211 626.878 247.898 626.303C247.586 625.72 247.149 625.262 246.588 624.928C246.034 624.594 245.388 624.428 244.649 624.428C243.861 624.428 243.168 624.619 242.572 625.003C241.975 625.379 241.51 625.876 241.176 626.494C240.849 627.105 240.682 627.776 240.675 628.508V630.777C240.675 631.729 240.849 632.545 241.197 633.227C241.545 633.902 242.032 634.42 242.657 634.783C243.282 635.138 244.013 635.315 244.851 635.315C245.412 635.315 245.92 635.237 246.375 635.081C246.829 634.918 247.224 634.68 247.557 634.367C247.891 634.055 248.143 633.668 248.314 633.206L251.915 633.611C251.687 634.562 251.254 635.393 250.615 636.104C249.983 636.807 249.173 637.354 248.186 637.744C247.199 638.128 246.069 638.32 244.798 638.32ZM259.194 628.412V638H255.337V621.636H259.023V624.417H259.215C259.591 623.501 260.191 622.773 261.015 622.233C261.846 621.693 262.873 621.423 264.094 621.423C265.223 621.423 266.207 621.665 267.045 622.148C267.89 622.631 268.544 623.33 269.005 624.246C269.474 625.163 269.705 626.274 269.698 627.581V638H265.841V628.178C265.841 627.084 265.557 626.228 264.989 625.61C264.428 624.992 263.65 624.683 262.656 624.683C261.981 624.683 261.381 624.832 260.855 625.131C260.337 625.422 259.929 625.844 259.63 626.398C259.339 626.952 259.194 627.624 259.194 628.412ZM283.537 627.325V630.5H273.714V627.325H283.537ZM299.621 622.18C299.521 621.249 299.102 620.525 298.363 620.006C297.632 619.488 296.68 619.229 295.508 619.229C294.684 619.229 293.978 619.353 293.388 619.602C292.799 619.85 292.348 620.187 292.035 620.614C291.723 621.04 291.563 621.526 291.556 622.073C291.556 622.528 291.659 622.922 291.865 623.256C292.078 623.589 292.366 623.874 292.728 624.108C293.09 624.335 293.491 624.527 293.932 624.683C294.372 624.839 294.816 624.971 295.263 625.077L297.309 625.589C298.133 625.781 298.925 626.04 299.684 626.366C300.452 626.693 301.137 627.105 301.741 627.602C302.351 628.099 302.834 628.7 303.189 629.403C303.545 630.106 303.722 630.93 303.722 631.874C303.722 633.153 303.395 634.278 302.742 635.251C302.089 636.217 301.144 636.974 299.908 637.521C298.68 638.06 297.192 638.33 295.444 638.33C293.747 638.33 292.273 638.067 291.023 637.542C289.78 637.016 288.807 636.249 288.104 635.241C287.408 634.232 287.032 633.004 286.975 631.555H290.863C290.92 632.315 291.155 632.947 291.567 633.451C291.979 633.955 292.515 634.332 293.175 634.58C293.843 634.829 294.589 634.953 295.412 634.953C296.272 634.953 297.025 634.825 297.671 634.57C298.324 634.307 298.836 633.945 299.205 633.483C299.574 633.014 299.763 632.467 299.77 631.842C299.763 631.274 299.596 630.805 299.269 630.436C298.942 630.06 298.484 629.747 297.895 629.499C297.312 629.243 296.631 629.016 295.849 628.817L293.367 628.178C291.57 627.716 290.15 627.016 289.106 626.079C288.069 625.134 287.55 623.881 287.55 622.318C287.55 621.033 287.898 619.907 288.594 618.941C289.297 617.975 290.253 617.226 291.46 616.693C292.667 616.153 294.035 615.884 295.562 615.884C297.11 615.884 298.466 616.153 299.631 616.693C300.803 617.226 301.723 617.968 302.39 618.92C303.058 619.864 303.403 620.951 303.424 622.18H299.621ZM314.213 638.32C312.615 638.32 311.23 637.968 310.058 637.265C308.886 636.562 307.977 635.578 307.331 634.314C306.692 633.05 306.372 631.572 306.372 629.882C306.372 628.192 306.692 626.711 307.331 625.44C307.977 624.168 308.886 623.181 310.058 622.478C311.23 621.775 312.615 621.423 314.213 621.423C315.811 621.423 317.196 621.775 318.368 622.478C319.54 623.181 320.445 624.168 321.085 625.44C321.731 626.711 322.054 628.192 322.054 629.882C322.054 631.572 321.731 633.05 321.085 634.314C320.445 635.578 319.54 636.562 318.368 637.265C317.196 637.968 315.811 638.32 314.213 638.32ZM314.234 635.23C315.101 635.23 315.825 634.992 316.408 634.516C316.99 634.033 317.423 633.387 317.707 632.577C317.999 631.768 318.144 630.866 318.144 629.871C318.144 628.87 317.999 627.964 317.707 627.155C317.423 626.338 316.99 625.688 316.408 625.205C315.825 624.722 315.101 624.481 314.234 624.481C313.347 624.481 312.608 624.722 312.018 625.205C311.436 625.688 310.999 626.338 310.708 627.155C310.424 627.964 310.282 628.87 310.282 629.871C310.282 630.866 310.424 631.768 310.708 632.577C310.999 633.387 311.436 634.033 312.018 634.516C312.608 634.992 313.347 635.23 314.234 635.23ZM335.757 631.118V621.636H339.613V638H335.874V635.092H335.704C335.334 636.008 334.727 636.757 333.882 637.339C333.044 637.922 332.01 638.213 330.782 638.213C329.709 638.213 328.761 637.975 327.937 637.499C327.121 637.016 326.481 636.317 326.02 635.401C325.558 634.477 325.327 633.362 325.327 632.055V621.636H329.184V631.459C329.184 632.496 329.468 633.32 330.036 633.93C330.604 634.541 331.35 634.847 332.273 634.847C332.841 634.847 333.392 634.708 333.925 634.431C334.457 634.154 334.894 633.742 335.235 633.195C335.583 632.641 335.757 631.949 335.757 631.118ZM343.579 638V621.636H347.319V624.364H347.489C347.787 623.419 348.299 622.691 349.023 622.18C349.755 621.661 350.589 621.402 351.527 621.402C351.74 621.402 351.978 621.413 352.24 621.434C352.51 621.448 352.734 621.473 352.912 621.509V625.056C352.748 624.999 352.489 624.95 352.134 624.907C351.786 624.857 351.449 624.832 351.122 624.832C350.419 624.832 349.787 624.985 349.225 625.29C348.672 625.589 348.235 626.004 347.915 626.537C347.596 627.07 347.436 627.684 347.436 628.38V638H343.579ZM361.938 638.32C360.304 638.32 358.901 637.961 357.73 637.244C356.565 636.526 355.666 635.536 355.034 634.271C354.409 633 354.097 631.537 354.097 629.882C354.097 628.22 354.416 626.754 355.056 625.482C355.695 624.204 356.597 623.21 357.762 622.499C358.933 621.782 360.318 621.423 361.916 621.423C363.244 621.423 364.42 621.668 365.443 622.158C366.472 622.641 367.293 623.327 367.904 624.214C368.514 625.095 368.862 626.125 368.948 627.304H365.262C365.112 626.516 364.757 625.859 364.196 625.333C363.642 624.8 362.9 624.534 361.97 624.534C361.181 624.534 360.489 624.747 359.892 625.173C359.296 625.592 358.83 626.196 358.497 626.984C358.17 627.773 358.007 628.717 358.007 629.818C358.007 630.933 358.17 631.892 358.497 632.695C358.823 633.49 359.281 634.104 359.871 634.538C360.468 634.964 361.167 635.177 361.97 635.177C362.538 635.177 363.046 635.07 363.493 634.857C363.948 634.637 364.328 634.321 364.633 633.909C364.938 633.497 365.148 632.996 365.262 632.407H368.948C368.855 633.565 368.514 634.591 367.925 635.486C367.335 636.374 366.533 637.07 365.517 637.574C364.502 638.071 363.308 638.32 361.938 638.32ZM379.359 638.32C377.718 638.32 376.301 637.979 375.108 637.297C373.922 636.608 373.009 635.635 372.37 634.378C371.731 633.114 371.411 631.626 371.411 629.914C371.411 628.231 371.731 626.754 372.37 625.482C373.016 624.204 373.918 623.21 375.076 622.499C376.234 621.782 377.594 621.423 379.156 621.423C380.165 621.423 381.116 621.587 382.011 621.913C382.913 622.233 383.709 622.73 384.398 623.405C385.094 624.08 385.641 624.939 386.038 625.983C386.436 627.02 386.635 628.256 386.635 629.69V630.873H373.222V628.273H382.938C382.931 627.535 382.771 626.878 382.459 626.303C382.146 625.72 381.71 625.262 381.148 624.928C380.594 624.594 379.948 624.428 379.21 624.428C378.421 624.428 377.729 624.619 377.132 625.003C376.536 625.379 376.07 625.876 375.737 626.494C375.41 627.105 375.243 627.776 375.236 628.508V630.777C375.236 631.729 375.41 632.545 375.758 633.227C376.106 633.902 376.592 634.42 377.217 634.783C377.842 635.138 378.574 635.315 379.412 635.315C379.973 635.315 380.481 635.237 380.935 635.081C381.39 634.918 381.784 634.68 382.118 634.367C382.452 634.055 382.704 633.668 382.874 633.206L386.475 633.611C386.248 634.562 385.815 635.393 385.175 636.104C384.543 636.807 383.734 637.354 382.746 637.744C381.759 638.128 380.63 638.32 379.359 638.32ZM397.509 638V616.182H411.487V619.495H401.462V625.418H410.528V628.732H401.462V638H397.509ZM420.96 638.32C419.32 638.32 417.903 637.979 416.71 637.297C415.523 636.608 414.611 635.635 413.972 634.378C413.332 633.114 413.013 631.626 413.013 629.914C413.013 628.231 413.332 626.754 413.972 625.482C414.618 624.204 415.52 623.21 416.678 622.499C417.835 621.782 419.195 621.423 420.758 621.423C421.766 621.423 422.718 621.587 423.613 621.913C424.515 622.233 425.31 622.73 425.999 623.405C426.695 624.08 427.242 624.939 427.64 625.983C428.038 627.02 428.237 628.256 428.237 629.69V630.873H414.824V628.273H424.54C424.533 627.535 424.373 626.878 424.06 626.303C423.748 625.72 423.311 625.262 422.75 624.928C422.196 624.594 421.55 624.428 420.811 624.428C420.023 624.428 419.33 624.619 418.734 625.003C418.137 625.379 417.672 625.876 417.338 626.494C417.011 627.105 416.844 627.776 416.837 628.508V630.777C416.837 631.729 417.011 632.545 417.359 633.227C417.707 633.902 418.194 634.42 418.819 634.783C419.444 635.138 420.175 635.315 421.013 635.315C421.575 635.315 422.082 635.237 422.537 635.081C422.991 634.918 423.386 634.68 423.719 634.367C424.053 634.055 424.305 633.668 424.476 633.206L428.077 633.611C427.849 634.562 427.416 635.393 426.777 636.104C426.145 636.807 425.335 637.354 424.348 637.744C423.361 638.128 422.232 638.32 420.96 638.32ZM436.208 638.33C435.171 638.33 434.237 638.146 433.406 637.776C432.582 637.4 431.929 636.846 431.446 636.114C430.97 635.383 430.732 634.481 430.732 633.408C430.732 632.485 430.903 631.722 431.243 631.118C431.584 630.514 432.05 630.031 432.639 629.669C433.229 629.307 433.893 629.033 434.631 628.849C435.377 628.657 436.148 628.518 436.943 628.433C437.902 628.334 438.68 628.245 439.276 628.167C439.873 628.082 440.306 627.954 440.576 627.783C440.853 627.606 440.991 627.332 440.991 626.963V626.899C440.991 626.097 440.753 625.475 440.278 625.035C439.802 624.594 439.116 624.374 438.221 624.374C437.277 624.374 436.528 624.58 435.974 624.992C435.427 625.404 435.057 625.891 434.866 626.452L431.265 625.94C431.549 624.946 432.018 624.115 432.671 623.447C433.324 622.773 434.123 622.268 435.068 621.935C436.013 621.594 437.057 621.423 438.2 621.423C438.988 621.423 439.773 621.516 440.555 621.7C441.336 621.885 442.05 622.19 442.696 622.616C443.342 623.036 443.861 623.607 444.251 624.332C444.649 625.056 444.848 625.962 444.848 627.048V638H441.14V635.752H441.013C440.778 636.207 440.448 636.633 440.022 637.031C439.603 637.421 439.074 637.737 438.434 637.979C437.802 638.213 437.06 638.33 436.208 638.33ZM437.209 635.496C437.983 635.496 438.655 635.344 439.223 635.038C439.791 634.726 440.228 634.314 440.533 633.803C440.846 633.291 441.002 632.734 441.002 632.13V630.202C440.881 630.301 440.675 630.393 440.384 630.479C440.1 630.564 439.78 630.638 439.425 630.702C439.07 630.766 438.719 630.823 438.371 630.873C438.023 630.923 437.721 630.965 437.465 631.001C436.89 631.079 436.375 631.207 435.92 631.384C435.466 631.562 435.107 631.81 434.844 632.13C434.581 632.442 434.45 632.847 434.45 633.344C434.45 634.055 434.709 634.591 435.228 634.953C435.746 635.315 436.407 635.496 437.209 635.496ZM456.897 621.636V624.619H447.49V621.636H456.897ZM449.812 617.716H453.669V633.078C453.669 633.597 453.747 633.994 453.903 634.271C454.067 634.541 454.28 634.726 454.542 634.825C454.805 634.925 455.096 634.974 455.416 634.974C455.657 634.974 455.878 634.957 456.077 634.921C456.282 634.886 456.439 634.854 456.545 634.825L457.195 637.84C456.989 637.911 456.694 637.989 456.311 638.075C455.934 638.16 455.473 638.21 454.926 638.224C453.96 638.252 453.09 638.107 452.316 637.787C451.542 637.46 450.927 636.956 450.473 636.274C450.025 635.592 449.805 634.74 449.812 633.717V617.716ZM470.552 631.118V621.636H474.408V638H470.669V635.092H470.499C470.129 636.008 469.522 636.757 468.677 637.339C467.839 637.922 466.805 638.213 465.577 638.213C464.504 638.213 463.556 637.975 462.732 637.499C461.915 637.016 461.276 636.317 460.815 635.401C460.353 634.477 460.122 633.362 460.122 632.055V621.636H463.979V631.459C463.979 632.496 464.263 633.32 464.831 633.93C465.399 634.541 466.145 634.847 467.068 634.847C467.636 634.847 468.187 634.708 468.719 634.431C469.252 634.154 469.689 633.742 470.03 633.195C470.378 632.641 470.552 631.949 470.552 631.118ZM478.374 638V621.636H482.113V624.364H482.284C482.582 623.419 483.094 622.691 483.818 622.18C484.55 621.661 485.384 621.402 486.322 621.402C486.535 621.402 486.773 621.413 487.035 621.434C487.305 621.448 487.529 621.473 487.706 621.509V625.056C487.543 624.999 487.284 624.95 486.929 624.907C486.581 624.857 486.243 624.832 485.917 624.832C485.214 624.832 484.581 624.985 484.02 625.29C483.466 625.589 483.03 626.004 482.71 626.537C482.39 627.07 482.231 627.684 482.231 628.38V638H478.374ZM496.839 638.32C495.199 638.32 493.782 637.979 492.588 637.297C491.402 636.608 490.49 635.635 489.85 634.378C489.211 633.114 488.892 631.626 488.892 629.914C488.892 628.231 489.211 626.754 489.85 625.482C490.497 624.204 491.399 623.21 492.556 622.499C493.714 621.782 495.074 621.423 496.637 621.423C497.645 621.423 498.597 621.587 499.492 621.913C500.394 622.233 501.189 622.73 501.878 623.405C502.574 624.08 503.121 624.939 503.519 625.983C503.917 627.02 504.115 628.256 504.115 629.69V630.873H490.703V628.273H500.419C500.412 627.535 500.252 626.878 499.939 626.303C499.627 625.72 499.19 625.262 498.629 624.928C498.075 624.594 497.429 624.428 496.69 624.428C495.902 624.428 495.209 624.619 494.613 625.003C494.016 625.379 493.551 625.876 493.217 626.494C492.89 627.105 492.723 627.776 492.716 628.508V630.777C492.716 631.729 492.89 632.545 493.238 633.227C493.586 633.902 494.073 634.42 494.698 634.783C495.323 635.138 496.054 635.315 496.892 635.315C497.453 635.315 497.961 635.237 498.416 635.081C498.87 634.918 499.265 634.68 499.598 634.367C499.932 634.055 500.184 633.668 500.355 633.206L503.956 633.611C503.728 634.562 503.295 635.393 502.656 636.104C502.024 636.807 501.214 637.354 500.227 637.744C499.24 638.128 498.11 638.32 496.839 638.32ZM514.99 638V616.182H528.967V619.495H518.942V625.418H528.008V628.732H518.942V638H514.99ZM536.254 616.182V638H532.398V616.182H536.254ZM544.929 638.33C543.892 638.33 542.958 638.146 542.127 637.776C541.303 637.4 540.65 636.846 540.167 636.114C539.691 635.383 539.453 634.481 539.453 633.408C539.453 632.485 539.623 631.722 539.964 631.118C540.305 630.514 540.77 630.031 541.36 629.669C541.949 629.307 542.613 629.033 543.352 628.849C544.098 628.657 544.868 628.518 545.664 628.433C546.623 628.334 547.4 628.245 547.997 628.167C548.593 628.082 549.027 627.954 549.297 627.783C549.574 627.606 549.712 627.332 549.712 626.963V626.899C549.712 626.097 549.474 625.475 548.998 625.035C548.522 624.594 547.837 624.374 546.942 624.374C545.998 624.374 545.248 624.58 544.694 624.992C544.147 625.404 543.778 625.891 543.586 626.452L539.985 625.94C540.27 624.946 540.738 624.115 541.392 623.447C542.045 622.773 542.844 622.268 543.789 621.935C544.733 621.594 545.777 621.423 546.921 621.423C547.709 621.423 548.494 621.516 549.275 621.7C550.056 621.885 550.77 622.19 551.417 622.616C552.063 623.036 552.581 623.607 552.972 624.332C553.37 625.056 553.569 625.962 553.569 627.048V638H549.861V635.752H549.733C549.499 636.207 549.169 636.633 548.743 637.031C548.324 637.421 547.794 637.737 547.155 637.979C546.523 638.213 545.781 638.33 544.929 638.33ZM545.93 635.496C546.704 635.496 547.375 635.344 547.944 635.038C548.512 634.726 548.949 634.314 549.254 633.803C549.566 633.291 549.723 632.734 549.723 632.13V630.202C549.602 630.301 549.396 630.393 549.105 630.479C548.821 630.564 548.501 630.638 548.146 630.702C547.791 630.766 547.439 630.823 547.091 630.873C546.743 630.923 546.441 630.965 546.186 631.001C545.61 631.079 545.096 631.207 544.641 631.384C544.186 631.562 543.828 631.81 543.565 632.13C543.302 632.442 543.171 632.847 543.171 633.344C543.171 634.055 543.43 634.591 543.949 634.953C544.467 635.315 545.127 635.496 545.93 635.496ZM564.563 644.477C563.178 644.477 561.988 644.289 560.994 643.913C560 643.543 559.201 643.046 558.597 642.421C557.993 641.796 557.574 641.104 557.34 640.344L560.813 639.502C560.969 639.822 561.196 640.138 561.495 640.45C561.793 640.77 562.194 641.033 562.699 641.239C563.21 641.452 563.853 641.558 564.627 641.558C565.721 641.558 566.626 641.292 567.343 640.759C568.061 640.234 568.419 639.367 568.419 638.16V635.06H568.228C568.029 635.457 567.738 635.866 567.354 636.285C566.978 636.704 566.477 637.055 565.852 637.339C565.234 637.624 564.456 637.766 563.519 637.766C562.262 637.766 561.122 637.471 560.099 636.881C559.083 636.285 558.274 635.397 557.67 634.218C557.074 633.032 556.775 631.548 556.775 629.765C556.775 627.968 557.074 626.452 557.67 625.216C558.274 623.973 559.087 623.032 560.11 622.393C561.132 621.746 562.272 621.423 563.529 621.423C564.488 621.423 565.277 621.587 565.895 621.913C566.52 622.233 567.017 622.62 567.386 623.075C567.755 623.522 568.036 623.945 568.228 624.342H568.441V621.636H572.244V638.266C572.244 639.665 571.91 640.823 571.243 641.739C570.575 642.656 569.662 643.341 568.505 643.795C567.347 644.25 566.033 644.477 564.563 644.477ZM564.595 634.74C565.412 634.74 566.108 634.541 566.683 634.143C567.258 633.746 567.695 633.174 567.993 632.428C568.292 631.683 568.441 630.788 568.441 629.744C568.441 628.714 568.292 627.812 567.993 627.038C567.702 626.263 567.269 625.663 566.694 625.237C566.125 624.804 565.426 624.587 564.595 624.587C563.735 624.587 563.018 624.811 562.443 625.259C561.868 625.706 561.434 626.32 561.143 627.102C560.852 627.876 560.706 628.756 560.706 629.744C560.706 630.745 560.852 631.622 561.143 632.375C561.441 633.121 561.878 633.703 562.453 634.122C563.036 634.534 563.75 634.74 564.595 634.74ZM590.158 638.32C588.666 638.32 587.384 638.05 586.312 637.51C585.239 636.97 584.412 636.242 583.83 635.326C583.254 634.403 582.967 633.362 582.967 632.205C582.967 631.331 583.144 630.557 583.499 629.882C583.862 629.207 584.359 628.582 584.991 628.007C585.63 627.432 586.369 626.86 587.207 626.292L591.074 623.661C591.642 623.291 592.072 622.901 592.363 622.489C592.661 622.077 592.81 621.594 592.81 621.04C592.81 620.571 592.612 620.127 592.214 619.708C591.823 619.289 591.283 619.08 590.594 619.08C590.133 619.08 589.724 619.19 589.369 619.41C589.021 619.623 588.748 619.903 588.549 620.251C588.357 620.599 588.261 620.969 588.261 621.359C588.261 621.835 588.393 622.318 588.656 622.808C588.925 623.298 589.273 623.806 589.7 624.332C590.133 624.857 590.594 625.415 591.085 626.004L601.322 638H597.146L588.645 628.263C588.013 627.524 587.402 626.796 586.812 626.079C586.23 625.362 585.751 624.616 585.374 623.842C585.005 623.06 584.82 622.215 584.82 621.306C584.82 620.276 585.058 619.357 585.534 618.547C586.01 617.73 586.674 617.087 587.526 616.619C588.386 616.15 589.391 615.915 590.541 615.915C591.692 615.915 592.679 616.143 593.503 616.597C594.327 617.052 594.962 617.656 595.41 618.408C595.857 619.161 596.081 619.982 596.081 620.869C596.081 621.899 595.825 622.822 595.314 623.639C594.803 624.449 594.092 625.184 593.183 625.844L588.773 629.072C588.048 629.598 587.53 630.131 587.217 630.67C586.905 631.203 586.749 631.658 586.749 632.034C586.749 632.609 586.894 633.131 587.185 633.6C587.477 634.069 587.885 634.445 588.411 634.729C588.943 635.006 589.565 635.145 590.275 635.145C591.056 635.145 591.827 634.971 592.587 634.623C593.347 634.268 594.039 633.763 594.664 633.11C595.289 632.457 595.786 631.675 596.156 630.766C596.525 629.85 596.71 628.835 596.71 627.719H600.023C600.023 629.097 599.87 630.298 599.565 631.32C599.259 632.336 598.865 633.195 598.382 633.898C597.899 634.594 597.388 635.152 596.848 635.571C596.678 635.692 596.514 635.812 596.358 635.933C596.202 636.054 596.038 636.175 595.868 636.295C595.101 636.991 594.202 637.503 593.173 637.83C592.15 638.156 591.145 638.32 590.158 638.32ZM611.142 638V616.182H625.333V619.495H615.095V625.418H624.597V628.732H615.095V634.687H625.418V638H611.142ZM632.348 621.636L635.65 627.677L639.006 621.636H643.086L638.154 629.818L643.172 638H639.113L635.65 632.109L632.22 638H628.129L633.115 629.818L628.257 621.636H632.348ZM646.069 644.136V621.636H649.862V624.342H650.086C650.285 623.945 650.565 623.522 650.927 623.075C651.29 622.62 651.78 622.233 652.398 621.913C653.015 621.587 653.804 621.423 654.763 621.423C656.027 621.423 657.167 621.746 658.182 622.393C659.205 623.032 660.015 623.98 660.611 625.237C661.215 626.487 661.517 628.021 661.517 629.839C661.517 631.636 661.222 633.163 660.633 634.42C660.043 635.678 659.241 636.636 658.225 637.297C657.209 637.957 656.059 638.288 654.773 638.288C653.836 638.288 653.058 638.131 652.44 637.819C651.822 637.506 651.325 637.13 650.949 636.69C650.579 636.242 650.292 635.82 650.086 635.422H649.926V644.136H646.069ZM649.851 629.818C649.851 630.876 650.001 631.803 650.299 632.599C650.604 633.394 651.041 634.016 651.609 634.463C652.184 634.903 652.881 635.124 653.697 635.124C654.55 635.124 655.263 634.896 655.839 634.442C656.414 633.98 656.847 633.352 657.138 632.556C657.437 631.754 657.586 630.841 657.586 629.818C657.586 628.803 657.44 627.901 657.149 627.112C656.858 626.324 656.425 625.706 655.849 625.259C655.274 624.811 654.557 624.587 653.697 624.587C652.873 624.587 652.174 624.804 651.599 625.237C651.023 625.67 650.586 626.278 650.288 627.059C649.997 627.84 649.851 628.76 649.851 629.818ZM672.064 638.32C670.423 638.32 669.006 637.979 667.813 637.297C666.627 636.608 665.714 635.635 665.075 634.378C664.436 633.114 664.116 631.626 664.116 629.914C664.116 628.231 664.436 626.754 665.075 625.482C665.721 624.204 666.623 623.21 667.781 622.499C668.939 621.782 670.299 621.423 671.861 621.423C672.87 621.423 673.822 621.587 674.716 621.913C675.618 622.233 676.414 622.73 677.103 623.405C677.799 624.08 678.346 624.939 678.743 625.983C679.141 627.02 679.34 628.256 679.34 629.69V630.873H665.927V628.273H675.643C675.636 627.535 675.476 626.878 675.164 626.303C674.851 625.72 674.415 625.262 673.854 624.928C673.3 624.594 672.653 624.428 671.915 624.428C671.126 624.428 670.434 624.619 669.837 625.003C669.241 625.379 668.775 625.876 668.442 626.494C668.115 627.105 667.948 627.776 667.941 628.508V630.777C667.941 631.729 668.115 632.545 668.463 633.227C668.811 633.902 669.297 634.42 669.922 634.783C670.547 635.138 671.279 635.315 672.117 635.315C672.678 635.315 673.186 635.237 673.64 635.081C674.095 634.918 674.489 634.68 674.823 634.367C675.157 634.055 675.409 633.668 675.579 633.206L679.18 633.611C678.953 634.562 678.52 635.393 677.881 636.104C677.248 636.807 676.439 637.354 675.452 637.744C674.464 638.128 673.335 638.32 672.064 638.32ZM682.603 638V621.636H686.342V624.364H686.512C686.811 623.419 687.322 622.691 688.047 622.18C688.778 621.661 689.613 621.402 690.55 621.402C690.763 621.402 691.001 621.413 691.264 621.434C691.534 621.448 691.757 621.473 691.935 621.509V625.056C691.772 624.999 691.512 624.95 691.157 624.907C690.809 624.857 690.472 624.832 690.145 624.832C689.442 624.832 688.81 624.985 688.249 625.29C687.695 625.589 687.258 626.004 686.939 626.537C686.619 627.07 686.459 627.684 686.459 628.38V638H682.603ZM694.497 638V621.636H698.354V638H694.497ZM696.436 619.314C695.825 619.314 695.3 619.112 694.859 618.707C694.419 618.295 694.199 617.801 694.199 617.226C694.199 616.643 694.419 616.15 694.859 615.745C695.3 615.333 695.825 615.127 696.436 615.127C697.054 615.127 697.58 615.333 698.013 615.745C698.453 616.15 698.673 616.643 698.673 617.226C698.673 617.801 698.453 618.295 698.013 618.707C697.58 619.112 697.054 619.314 696.436 619.314ZM702.319 638V621.636H706.006V624.417H706.197C706.538 623.479 707.103 622.748 707.891 622.222C708.68 621.69 709.621 621.423 710.714 621.423C711.822 621.423 712.756 621.693 713.516 622.233C714.283 622.766 714.823 623.494 715.135 624.417H715.306C715.668 623.508 716.279 622.783 717.138 622.244C718.005 621.697 719.031 621.423 720.217 621.423C721.723 621.423 722.952 621.899 723.903 622.851C724.855 623.803 725.331 625.191 725.331 627.016V638H721.464V627.613C721.464 626.597 721.194 625.855 720.654 625.386C720.114 624.911 719.454 624.673 718.672 624.673C717.742 624.673 717.014 624.964 716.488 625.546C715.97 626.121 715.711 626.871 715.711 627.794V638H711.929V627.453C711.929 626.608 711.673 625.933 711.162 625.429C710.657 624.925 709.997 624.673 709.18 624.673C708.626 624.673 708.122 624.815 707.667 625.099C707.213 625.376 706.851 625.77 706.581 626.281C706.311 626.786 706.176 627.375 706.176 628.05V638H702.319ZM736.488 638.32C734.847 638.32 733.43 637.979 732.237 637.297C731.051 636.608 730.138 635.635 729.499 634.378C728.86 633.114 728.54 631.626 728.54 629.914C728.54 628.231 728.86 626.754 729.499 625.482C730.145 624.204 731.047 623.21 732.205 622.499C733.363 621.782 734.723 621.423 736.285 621.423C737.294 621.423 738.245 621.587 739.14 621.913C740.042 622.233 740.838 622.73 741.527 623.405C742.223 624.08 742.77 624.939 743.167 625.983C743.565 627.02 743.764 628.256 743.764 629.69V630.873H730.351V628.273H740.067C740.06 627.535 739.9 626.878 739.588 626.303C739.275 625.72 738.838 625.262 738.277 624.928C737.723 624.594 737.077 624.428 736.338 624.428C735.55 624.428 734.858 624.619 734.261 625.003C733.664 625.379 733.199 625.876 732.865 626.494C732.539 627.105 732.372 627.776 732.365 628.508V630.777C732.365 631.729 732.539 632.545 732.887 633.227C733.235 633.902 733.721 634.42 734.346 634.783C734.971 635.138 735.703 635.315 736.541 635.315C737.102 635.315 737.61 635.237 738.064 635.081C738.519 634.918 738.913 634.68 739.247 634.367C739.581 634.055 739.833 633.668 740.003 633.206L743.604 633.611C743.377 634.562 742.944 635.393 742.304 636.104C741.672 636.807 740.863 637.354 739.875 637.744C738.888 638.128 737.759 638.32 736.488 638.32ZM750.883 628.412V638H747.026V621.636H750.713V624.417H750.904C751.281 623.501 751.881 622.773 752.705 622.233C753.536 621.693 754.562 621.423 755.784 621.423C756.913 621.423 757.896 621.665 758.735 622.148C759.58 622.631 760.233 623.33 760.695 624.246C761.164 625.163 761.394 626.274 761.387 627.581V638H757.531V628.178C757.531 627.084 757.247 626.228 756.678 625.61C756.117 624.992 755.34 624.683 754.345 624.683C753.671 624.683 753.07 624.832 752.545 625.131C752.026 625.422 751.618 625.844 751.32 626.398C751.029 626.952 750.883 627.624 750.883 628.412ZM773.479 621.636V624.619H764.072V621.636H773.479ZM766.394 617.716H770.251V633.078C770.251 633.597 770.329 633.994 770.485 634.271C770.649 634.541 770.862 634.726 771.124 634.825C771.387 634.925 771.678 634.974 771.998 634.974C772.24 634.974 772.46 634.957 772.659 634.921C772.865 634.886 773.021 634.854 773.127 634.825L773.777 637.84C773.571 637.911 773.276 637.989 772.893 638.075C772.517 638.16 772.055 638.21 771.508 638.224C770.542 638.252 769.672 638.107 768.898 637.787C768.124 637.46 767.509 636.956 767.055 636.274C766.607 635.592 766.387 634.74 766.394 633.717V617.716ZM781.413 638.33C780.376 638.33 779.442 638.146 778.611 637.776C777.787 637.4 777.134 636.846 776.651 636.114C776.175 635.383 775.937 634.481 775.937 633.408C775.937 632.485 776.108 631.722 776.449 631.118C776.789 630.514 777.255 630.031 777.844 629.669C778.434 629.307 779.098 629.033 779.836 628.849C780.582 628.657 781.353 628.518 782.148 628.433C783.107 628.334 783.885 628.245 784.481 628.167C785.078 628.082 785.511 627.954 785.781 627.783C786.058 627.606 786.196 627.332 786.196 626.963V626.899C786.196 626.097 785.958 625.475 785.483 625.035C785.007 624.594 784.321 624.374 783.426 624.374C782.482 624.374 781.733 624.58 781.179 624.992C780.632 625.404 780.262 625.891 780.071 626.452L776.47 625.94C776.754 624.946 777.223 624.115 777.876 623.447C778.529 622.773 779.328 622.268 780.273 621.935C781.218 621.594 782.262 621.423 783.405 621.423C784.194 621.423 784.978 621.516 785.76 621.7C786.541 621.885 787.255 622.19 787.901 622.616C788.547 623.036 789.066 623.607 789.456 624.332C789.854 625.056 790.053 625.962 790.053 627.048V638H786.346V635.752H786.218C785.983 636.207 785.653 636.633 785.227 637.031C784.808 637.421 784.279 637.737 783.64 637.979C783.007 638.213 782.265 638.33 781.413 638.33ZM782.414 635.496C783.189 635.496 783.86 635.344 784.428 635.038C784.996 634.726 785.433 634.314 785.738 633.803C786.051 633.291 786.207 632.734 786.207 632.13V630.202C786.086 630.301 785.88 630.393 785.589 630.479C785.305 630.564 784.985 630.638 784.63 630.702C784.275 630.766 783.924 630.823 783.576 630.873C783.228 630.923 782.926 630.965 782.67 631.001C782.095 631.079 781.58 631.207 781.125 631.384C780.671 631.562 780.312 631.81 780.049 632.13C779.787 632.442 779.655 632.847 779.655 633.344C779.655 634.055 779.914 634.591 780.433 634.953C780.951 635.315 781.612 635.496 782.414 635.496ZM802.102 621.636V624.619H792.695V621.636H802.102ZM795.017 617.716H798.874V633.078C798.874 633.597 798.952 633.994 799.108 634.271C799.272 634.541 799.485 634.726 799.748 634.825C800.01 634.925 800.301 634.974 800.621 634.974C800.863 634.974 801.083 634.957 801.282 634.921C801.488 634.886 801.644 634.854 801.75 634.825L802.4 637.84C802.194 637.911 801.9 637.989 801.516 638.075C801.14 638.16 800.678 638.21 800.131 638.224C799.165 638.252 798.295 638.107 797.521 637.787C796.747 637.46 796.132 636.956 795.678 636.274C795.23 635.592 795.01 634.74 795.017 633.717V617.716ZM805.327 638V621.636H809.184V638H805.327ZM807.266 619.314C806.655 619.314 806.13 619.112 805.689 618.707C805.249 618.295 805.029 617.801 805.029 617.226C805.029 616.643 805.249 616.15 805.689 615.745C806.13 615.333 806.655 615.127 807.266 615.127C807.884 615.127 808.41 615.333 808.843 615.745C809.283 616.15 809.503 616.643 809.503 617.226C809.503 617.801 809.283 618.295 808.843 618.707C808.41 619.112 807.884 619.314 807.266 619.314ZM820.287 638.32C818.689 638.32 817.304 637.968 816.132 637.265C814.961 636.562 814.051 635.578 813.405 634.314C812.766 633.05 812.446 631.572 812.446 629.882C812.446 628.192 812.766 626.711 813.405 625.44C814.051 624.168 814.961 623.181 816.132 622.478C817.304 621.775 818.689 621.423 820.287 621.423C821.885 621.423 823.27 621.775 824.442 622.478C825.614 623.181 826.52 624.168 827.159 625.44C827.805 626.711 828.128 628.192 828.128 629.882C828.128 631.572 827.805 633.05 827.159 634.314C826.52 635.578 825.614 636.562 824.442 637.265C823.27 637.968 821.885 638.32 820.287 638.32ZM820.309 635.23C821.175 635.23 821.9 634.992 822.482 634.516C823.064 634.033 823.498 633.387 823.782 632.577C824.073 631.768 824.218 630.866 824.218 629.871C824.218 628.87 824.073 627.964 823.782 627.155C823.498 626.338 823.064 625.688 822.482 625.205C821.9 624.722 821.175 624.481 820.309 624.481C819.421 624.481 818.682 624.722 818.093 625.205C817.51 625.688 817.074 626.338 816.782 627.155C816.498 627.964 816.356 628.87 816.356 629.871C816.356 630.866 816.498 631.768 816.782 632.577C817.074 633.387 817.51 634.033 818.093 634.516C818.682 634.992 819.421 635.23 820.309 635.23ZM835.258 628.412V638H831.401V621.636H835.088V624.417H835.279C835.656 623.501 836.256 622.773 837.08 622.233C837.911 621.693 838.937 621.423 840.159 621.423C841.288 621.423 842.271 621.665 843.11 622.148C843.955 622.631 844.608 623.33 845.07 624.246C845.539 625.163 845.769 626.274 845.762 627.581V638H841.906V628.178C841.906 627.084 841.622 626.228 841.053 625.61C840.492 624.992 839.715 624.683 838.72 624.683C838.046 624.683 837.445 624.832 836.92 625.131C836.401 625.422 835.993 625.844 835.695 626.398C835.404 626.952 835.258 627.624 835.258 628.412ZM857.295 638V616.182H865.476C867.153 616.182 868.559 616.494 869.695 617.119C870.839 617.744 871.702 618.604 872.284 619.697C872.873 620.784 873.168 622.02 873.168 623.405C873.168 624.804 872.873 626.047 872.284 627.134C871.694 628.22 870.824 629.076 869.674 629.701C868.523 630.319 867.106 630.628 865.423 630.628H860.001V627.379H864.89C865.871 627.379 866.673 627.208 867.298 626.867C867.923 626.526 868.385 626.058 868.683 625.461C868.988 624.864 869.141 624.179 869.141 623.405C869.141 622.631 868.988 621.949 868.683 621.359C868.385 620.77 867.92 620.312 867.287 619.985C866.662 619.651 865.856 619.484 864.869 619.484H861.247V638H857.295ZM880.287 616.182V638H876.431V616.182H880.287ZM888.962 638.33C887.925 638.33 886.991 638.146 886.16 637.776C885.336 637.4 884.683 636.846 884.2 636.114C883.724 635.383 883.486 634.481 883.486 633.408C883.486 632.485 883.656 631.722 883.997 631.118C884.338 630.514 884.803 630.031 885.393 629.669C885.982 629.307 886.646 629.033 887.385 628.849C888.131 628.657 888.901 628.518 889.697 628.433C890.656 628.334 891.433 628.245 892.03 628.167C892.627 628.082 893.06 627.954 893.33 627.783C893.607 627.606 893.745 627.332 893.745 626.963V626.899C893.745 626.097 893.507 625.475 893.031 625.035C892.556 624.594 891.87 624.374 890.975 624.374C890.031 624.374 889.281 624.58 888.727 624.992C888.181 625.404 887.811 625.891 887.619 626.452L884.019 625.94C884.303 624.946 884.771 624.115 885.425 623.447C886.078 622.773 886.877 622.268 887.822 621.935C888.767 621.594 889.811 621.423 890.954 621.423C891.742 621.423 892.527 621.516 893.308 621.7C894.09 621.885 894.803 622.19 895.45 622.616C896.096 623.036 896.615 623.607 897.005 624.332C897.403 625.056 897.602 625.962 897.602 627.048V638H893.894V635.752H893.767C893.532 636.207 893.202 636.633 892.776 637.031C892.357 637.421 891.828 637.737 891.188 637.979C890.556 638.213 889.814 638.33 888.962 638.33ZM889.963 635.496C890.737 635.496 891.409 635.344 891.977 635.038C892.545 634.726 892.982 634.314 893.287 633.803C893.6 633.291 893.756 632.734 893.756 632.13V630.202C893.635 630.301 893.429 630.393 893.138 630.479C892.854 630.564 892.534 630.638 892.179 630.702C891.824 630.766 891.472 630.823 891.124 630.873C890.776 630.923 890.475 630.965 890.219 631.001C889.644 631.079 889.129 631.207 888.674 631.384C888.22 631.562 887.861 631.81 887.598 632.13C887.335 632.442 887.204 632.847 887.204 633.344C887.204 634.055 887.463 634.591 887.982 634.953C888.5 635.315 889.161 635.496 889.963 635.496ZM909.651 621.636V624.619H900.244V621.636H909.651ZM902.566 617.716H906.423V633.078C906.423 633.597 906.501 633.994 906.657 634.271C906.82 634.541 907.034 634.726 907.296 634.825C907.559 634.925 907.85 634.974 908.17 634.974C908.411 634.974 908.632 634.957 908.83 634.921C909.036 634.886 909.193 634.854 909.299 634.825L909.949 637.84C909.743 637.911 909.448 637.989 909.065 638.075C908.688 638.16 908.227 638.21 907.68 638.224C906.714 638.252 905.844 638.107 905.07 637.787C904.296 637.46 903.681 636.956 903.227 636.274C902.779 635.592 902.559 634.74 902.566 633.717V617.716ZM921.164 621.636V624.619H911.491V621.636H921.164ZM913.909 638V620.092C913.909 618.991 914.137 618.075 914.591 617.343C915.053 616.612 915.671 616.065 916.445 615.702C917.219 615.34 918.078 615.159 919.023 615.159C919.691 615.159 920.284 615.212 920.802 615.319C921.321 615.425 921.704 615.521 921.953 615.607L921.186 618.589C921.022 618.54 920.816 618.49 920.568 618.44C920.319 618.384 920.042 618.355 919.737 618.355C919.02 618.355 918.512 618.529 918.213 618.877C917.922 619.218 917.777 619.708 917.777 620.347V638H913.909ZM930.707 638.32C929.109 638.32 927.724 637.968 926.552 637.265C925.381 636.562 924.471 635.578 923.825 634.314C923.186 633.05 922.866 631.572 922.866 629.882C922.866 628.192 923.186 626.711 923.825 625.44C924.471 624.168 925.381 623.181 926.552 622.478C927.724 621.775 929.109 621.423 930.707 621.423C932.305 621.423 933.69 621.775 934.862 622.478C936.034 623.181 936.939 624.168 937.579 625.44C938.225 626.711 938.548 628.192 938.548 629.882C938.548 631.572 938.225 633.05 937.579 634.314C936.939 635.578 936.034 636.562 934.862 637.265C933.69 637.968 932.305 638.32 930.707 638.32ZM930.729 635.23C931.595 635.23 932.319 634.992 932.902 634.516C933.484 634.033 933.917 633.387 934.202 632.577C934.493 631.768 934.638 630.866 934.638 629.871C934.638 628.87 934.493 627.964 934.202 627.155C933.917 626.338 933.484 625.688 932.902 625.205C932.319 624.722 931.595 624.481 930.729 624.481C929.841 624.481 929.102 624.722 928.513 625.205C927.93 625.688 927.493 626.338 927.202 627.155C926.918 627.964 926.776 628.87 926.776 629.871C926.776 630.866 926.918 631.768 927.202 632.577C927.493 633.387 927.93 634.033 928.513 634.516C929.102 634.992 929.841 635.23 930.729 635.23ZM941.821 638V621.636H945.561V624.364H945.731C946.029 623.419 946.541 622.691 947.265 622.18C947.997 621.661 948.831 621.402 949.769 621.402C949.982 621.402 950.22 621.413 950.483 621.434C950.752 621.448 950.976 621.473 951.154 621.509V625.056C950.99 624.999 950.731 624.95 950.376 624.907C950.028 624.857 949.691 624.832 949.364 624.832C948.661 624.832 948.029 624.985 947.468 625.29C946.914 625.589 946.477 626.004 946.157 626.537C945.838 627.07 945.678 627.684 945.678 628.38V638H941.821ZM953.716 638V621.636H957.402V624.417H957.594C957.935 623.479 958.499 622.748 959.288 622.222C960.076 621.69 961.017 621.423 962.111 621.423C963.219 621.423 964.153 621.693 964.913 622.233C965.68 622.766 966.219 623.494 966.532 624.417H966.702C967.065 623.508 967.675 622.783 968.535 622.244C969.401 621.697 970.428 621.423 971.614 621.423C973.119 621.423 974.348 621.899 975.3 622.851C976.251 623.803 976.727 625.191 976.727 627.016V638H972.86V627.613C972.86 626.597 972.59 625.855 972.05 625.386C971.511 624.911 970.85 624.673 970.069 624.673C969.138 624.673 968.411 624.964 967.885 625.546C967.366 626.121 967.107 626.871 967.107 627.794V638H963.325V627.453C963.325 626.608 963.07 625.933 962.558 625.429C962.054 624.925 961.393 624.673 960.577 624.673C960.023 624.673 959.518 624.815 959.064 625.099C958.609 625.376 958.247 625.77 957.977 626.281C957.707 626.786 957.572 627.375 957.572 628.05V638H953.716Z" fill="white" fill-opacity="0.85"/>
<defs>
<clipPath id="clip0_2041_16824">
<rect width="400" height="64" fill="white" transform="translate(85 90)"/>
</clipPath>
</defs>
</svg>
