<svg xmlns="http://www.w3.org/2000/svg" xml:space="preserve" style="enable-background:new 0 0 800.5 907.77" viewBox="0 0 800.5 907.77"><path d="M303.36 238.61c31.36-21.37 71.76-12.97 65-6.53-12.89 12.28 4.26 8.65 6.11 31.31 1.36 16.69-4.09 25.88-8.78 31.11-9.79 1.28-21.69 3.67-36.02 8.33-8.48 2.76-15.85 5.82-22.31 8.9-1.7-1.11-3.55-2.47-5.74-4.36-22.12-19.18-21.38-53 1.74-68.76m187.32 132.11c5.69-4.41 31.55-12.72 55.49-15.55 12.57-1.48 30.49-2.34 34.31-.2 7.59 4.19 7.59 17.16 2.39 29.14-7.57 17.4-18.27 36.63-30.39 38.21-19.77 2.61-38.46-8.09-59.8-24.03-7.62-5.73-12.3-19.61-2-27.57m36.07-169.45c29.19 13.58 25.37 39.42 26.18 54.6.22 4.36.15 7.3-.22 9.32-4.04-2.19-10.43-3.8-20.56-3.35-2.96.12-5.84.47-8.63.91-10.77-5.77-17.21-17.06-23.1-29.06-.54-1.11-.96-2.1-1.36-3.06-.17-.44-.35-.91-.52-1.31-.07-.22-.12-.39-.2-.59-3.23-10.25-1.06-12.3.3-15.46 1.41-3.23 6.68-5.89-1.11-8.58-.67-.25-1.5-.39-2.44-.57 5.16-6.4 20.61-7.95 31.66-2.85M367.62 510.22c-31.45-20.19-63.99-49.15-78.22-65.18-2.39-1.8-2-9.79-2-9.79 12.84 9.98 66.11 48.04 122.44 65.42 19.87 6.14 50.36 8.46 76.81-6.53 20.21-11.46 44.54-31.43 59.06-52.01l2.66 4.61c-.1 3.06-6.78 17.97-10.18 23.96 6.14 3.53 10.72 4.49 17.55 6.36l46.64-7.27c16.74-27.04 28.74-70.65 15.95-112.16-7.3-23.81-45.36-71.22-48.09-73.83-9.56-9.19 1.6-44.69-17.35-83.42-20.03-40.97-72.22-83.69-94.89-102.28 6.68 4.88 47.82 21.47 67 44.62 1.8-2.39 2.54-14.82 4.19-17.97-16.47-21.57-17.75-59.95-17.75-70.21 0-18.81-9.56-40.13-9.56-40.13s16.47 13.04 20.73 35.5c5.03 26.6 15.75 47.55 29.93 65.28 26.84 33.43 51.08 50.58 63.33 38.23C630.53 138.58 601 72.2 563.28 35.15 519.25-8.09 507.74-2.52 481.91 6.7c-20.61 7.35-31.75 65.87-85.47 64.71-9.1-1.06-32.54-1.63-44.13-1.53 6.04-8.43 11.22-14.94 11.22-14.94s-18.02 7.25-33.38 16.44l-1.18-1.77c5.18-10.92 10.75-17.82 10.75-17.82s-14.4 8.65-27.54 19.01c2.39-13.02 11.44-21.27 11.44-21.27s-18.19 3.28-41.36 28.77c-26.33 7.2-32.66 11.93-53.64 21.22-34.12-7.44-50.21-19.45-65.55-41.56-11.68-16.89-32.47-19.45-53.71-10.72-30.97 12.8-70.14 30.33-70.14 30.33s12.77-.52 26.08.05c-18.22 6.9-35.72 16.39-35.72 16.39s8.53-.3 19.06-.12c-7.27 6.04-11.29 8.92-18.22 13.51C13.76 119.5.25 133.48.25 133.48s11.31-5.15 21.47-8.04c-7.1 16.27-21.18 28.25-18.59 48.17 2.49 18.19 24.82 55.66 53.64 78.66 2.49 2 41.86 38.43 71.56 23.47 29.68-14.94 41.39-28.25 46.27-48.66 5.74-23.44 2.47-41.17-9.79-92.05-4.04-16.79-14.57-51.37-19.65-67.91l1.13-.81c9.71 20.49 34.56 74.5 44.57 110.78 15.63 56.57 10.75 85.27 3.6 95.79-21.57 31.73-76.84 35.92-101.98 18.34-3.85 60.91 9.76 87.73 14.37 101.24-2.29 15.53 7.77 44.37 7.77 44.37s1.13-13.11 5.74-20.02c1.23 15.41 9 33.72 9 33.72s-.47-11.31 3.06-21.08c4.98 8.43 8.63 10.43 13.34 16.76 4.71 16.47 14.15 28.5 14.15 28.5s-1.53-8.83-.69-18.02c23.05 22.14 27.02 54.45 29.31 79.28 6.46 68.26-107.63 122.54-129.74 165.24-16.76 25.29-26.8 65.3 1.58 88.89 68.6 56.97 42.25 72.65 76.59 97.69 47.11 34.34 106.05 18.96 126.11-8.97 27.93-38.92 20.76-75.63 10.38-109.97-8.11-26.85-30.15-71.46-57.41-88.72-27.86-17.65-54.95-20.95-77.9-18.59l2.12-2.44c33.01-6.56 67.52-2.96 92.49 13.14 28.35 18.22 54.28 49.47 67.84 97.37 15.38-2.19 17.55-3.18 31.63-5.18l-31.7-246.76 67.1-7.45zm18.32 309.3-3.65-34.22 71.29-108.74 80.93 23.64 69.59-116.23L687.52 639l63.38-132.92 22.53 242.07-387.49 71.37zm388.33-363.01-254.72 46.17c-6.31 8.13-21.91 22.41-29.41 26.13-32.17 16.2-53.91 11.51-72.7 6.63-12.08-3.06-19.08-4.78-29.11-9.29l-62.17 8.53 37.74 314.87 436.35-78.66-25.98-314.38z" style="fill:#fff"/></svg>