<svg xmlns="http://www.w3.org/2000/svg" width="656" height="482.18757" viewBox="0 0 656 482.18757" xmlns:xlink="http://www.w3.org/1999/xlink"><g><path d="M129.9714,390.22785c-.35419-1.08385-3.03868-.60669-3.29642-1.57612-.25685-.96594,2.31912-1.77589,4.29475-4.49802,.3563-.49089,2.60143-3.5844,1.74035-4.88552-1.63216-2.46625-12.98817,3.67622-15.71401,.22927-.59824-.75646-.84437-2.05513-2.62649-4.47199-.70898-.96147-1.16382-1.42564-1.70728-1.4119-.77113,.01948-1.04704,.98418-2.25903,2.73166-1.81761,2.6207-2.47353,2.29167-3.67091,4.43894-.88887,1.59402-.9942,2.61253-1.63519,2.67256-.90705,.08497-1.28185-1.89965-2.3902-1.97665-1.13101-.07854-2.26276,1.88246-2.8238,3.41457-1.05285,2.8751-.40089,5.07265-.25634,7.26272,.15706,2.38005-.21174,5.86405-2.79775,10.33581l-24.39164,38.86187c5.23835-7.92231,20.10799-29.52575,26.09893-37.44997,1.72948-2.28755,3.58802-4.58456,6.44861-5.0167,2.75409-.41608,6.10513,.9465,10.78244,.86718,.54625-.00924,2.06647-.0544,2.43625-.86016,.30573-.66614-.45336-1.24533-.17722-1.8715,.37038-.83991,2.03679-.47957,4.30777-1.03737,1.60136-.39336,2.6893-1.04324,3.62486-1.60214,.28206-.1685,4.48389-2.71375,4.01237-4.15656h-.00004Z" fill="#f2f2f2"/><path d="M66.0852,399.3012c-.63416-.1389-1.17451,1.31635-1.72468,1.16314-.54821-.15264-.20248-1.65064-.96847-3.40572-.13813-.3165-1.00865-2.31103-1.89572-2.2638-1.68137,.08948-1.94319,7.43538-4.42147,7.77869-.54387,.07536-1.25231-.17855-2.9527-.00121-.67646,.07056-1.03551,.15987-1.18558,.43056-.21293,.38409,.18092,.79788,.68891,1.8969,.76182,1.64824,.41106,1.87525,1.11947,3.08248,.52589,.89619,.99539,1.24177,.8399,1.57368-.22,.4697-1.30221,.08104-1.65979,.60279-.36488,.53245,.27105,1.65372,.86113,2.37114,1.10735,1.34631,2.37402,1.66038,3.49063,2.22135,1.21346,.60963,2.81703,1.7959,4.26564,4.35538l12.03589,23.18446c-2.3769-4.85686-8.68964-18.38826-10.85031-23.61505-.62375-1.50886-1.21488-3.08381-.60158-4.61251,.59043-1.47178,2.22607-2.72333,3.5367-5.04187,.15308-.27078,.56954-1.02994,.28078-1.44392-.23873-.34225-.74203-.13679-.96968-.453-.30536-.42414,.35231-1.13805,.73376-2.4136,.26898-.89945,.26391-1.62093,.25955-2.24138-.00132-.18705-.03819-2.98371-.88236-3.1686v.00006Z" fill="#f2f2f2"/><path d="M78.09282,404.95804l.37832-3.49289,.23204-.21944c1.07353-1.01459,1.74511-2.08947,1.99703-3.19576,.04009-.17587,.07113-.35379,.1029-.53496,.12563-.71817,.28159-1.61095,.97206-2.53825,.38642-.51664,1.40861-1.68432,2.46285-1.27646,.28454,.10665,.47659,.29111,.61001,.48669,.03349-.03397,.06781-.06778,.1045-.10451,.45539-.44254,.77396-.60465,1.08083-.76077,.2358-.12014,.47929-.24373,.89134-.5733,.18077-.1445,.32552-.27458,.44749-.38383,.36992-.33031,.84308-.71708,1.4912-.56388,.68704,.18779,.9226,.84315,1.07888,1.27702,.27909,.77389,.36506,1.30609,.42193,1.65905,.02048,.12894,.04423,.27414,.0622,.32134,.15038,.379,2.03808,.47702,2.74835,.51798,1.59658,.08663,2.97812,.1616,3.31036,1.25481,.2384,.78209-.25846,1.63511-1.51932,2.60275-.39275,.30105-.78541,.50883-1.12749,.664,.21041,.19894,.37804,.4695,.3883,.83799h0c.0231,.87225-.87152,1.54156-2.65888,1.99276-.44416,.11339-1.04159,.26343-1.82338,.22552-.36818-.01821-.6907-.07459-.96567-.12728-.041,.15667-.11618,.31955-.25171,.47414-.39781,.45538-1.04027,.57117-1.91232,.31448-.96274-.26828-1.72342-.63312-2.39463-.95383-.5863-.27931-1.09182-.51816-1.516-.58341-.78894-.11033-1.52462,.37678-2.40503,1.02507l-2.20612,1.65499h-.00002Z" fill="#f2f2f2"/><path d="M84.38908,385.0633l-3.47462,.52002-.27111-.16879c-1.25371-.78108-2.46376-1.15805-3.59778-1.12111-.1803,.00584-.36025,.02093-.54357,.03616-.72655,.06063-1.6297,.13624-2.7018-.29644-.59778-.24273-1.98653-.93531-1.85941-2.05852,.03099-.30227,.16071-.53484,.31606-.7135-.04138-.02377-.08278-.04838-.1276-.07456-.54357-.32826-.7812-.59529-1.01005-.85253-.17602-.19762-.35734-.40179-.78064-.71678-.18563-.13821-.34817-.24522-.48479-.33548-.41335-.27401-.90747-.63364-.92367-1.29942,.00738-.7122,.58157-1.10629,.9616-1.36752,.6778-.46625,1.17077-.68442,1.49777-.82896,.11952-.0525,.25396-.11232,.29506-.14167,.32846-.24159-.05553-2.09241-.19606-2.78985-.32117-1.56633-.5991-2.9217,.37411-3.52036,.69605-.42897,1.6472-.16474,2.903,.80945,.39082,.30354,.69141,.63066,.92828,.9222,.13906-.25398,.35825-.48479,.7121-.58814h0c.83787-.24358,1.7122,.452,2.60201,2.06645,.22234,.40087,.51902,.94071,.68064,1.70654,.07577,.36075,.10303,.68702,.12182,.96639,.16196-.00009,.33856,.03133,.52248,.12321,.54138,.26929,.81637,.86137,.78926,1.77001-.0153,.9993-.17526,1.82765-.31524,2.55826-.12147,.63798-.22429,1.18755-.17979,1.6144,.0934,.79113,.75118,1.37918,1.60159,2.06637l2.16045,1.71418h-.00009Z" fill="#f2f2f2"/><path d="M84.8574,374.62902l.37832-3.49289,.23204-.21944c1.07353-1.01459,1.74511-2.08947,1.99703-3.19576,.04009-.17587,.07113-.35379,.1029-.53496,.12563-.71817,.28159-1.61095,.97206-2.53825,.38642-.51664,1.40861-1.68432,2.46285-1.27646,.28454,.10665,.47659,.29111,.61001,.48669,.03349-.03397,.06781-.06778,.1045-.10451,.45539-.44254,.77396-.60465,1.08083-.76077,.2358-.12014,.47929-.24373,.89134-.5733,.18077-.1445,.32552-.27458,.44749-.38383,.36992-.33031,.84308-.71708,1.4912-.56388,.68704,.18779,.9226,.84315,1.07888,1.27702,.27909,.77389,.36506,1.30609,.42193,1.65905,.02048,.12894,.04423,.27414,.0622,.32134,.15038,.379,2.03808,.47702,2.74835,.51798,1.59658,.08663,2.97812,.1616,3.31036,1.25481,.2384,.78209-.25846,1.63511-1.51932,2.60275-.39275,.30105-.78541,.50883-1.12749,.664,.21041,.19894,.37804,.4695,.3883,.83799h0c.0231,.87225-.87152,1.54156-2.65888,1.99276-.44416,.11339-1.04159,.26343-1.82338,.22552-.36818-.01821-.6907-.07459-.96567-.12728-.041,.15667-.11618,.31955-.25171,.47414-.39781,.45538-1.04027,.57117-1.91232,.31448-.96274-.26828-1.72342-.63312-2.39463-.95383-.5863-.27931-1.09182-.51816-1.516-.58341-.78894-.11033-1.52462,.37678-2.40503,1.02507l-2.20612,1.65499h-.00002Z" fill="#f2f2f2"/><path d="M73.59064,441.55397l-.61431-.60685,.01109-.8629-.01109,.8629-.85388-.09027c.00408-.08028-.00153-.26809-.00778-.56139-.03285-1.60682-.13482-6.49713,.54614-14.01104,.47549-5.24516,1.27005-10.56941,2.36162-15.82744,1.0934-5.26624,2.22818-9.18461,3.13963-12.33401,.68784-2.37536,1.38211-4.62838,2.05984-6.82293,1.80866-5.86329,3.51641-11.40187,4.57396-17.71941,.23682-1.41021,.72832-4.34583-.27798-7.81072-.58387-2.00954-1.58355-3.90108-2.97231-5.62031l1.34413-1.0855c1.53244,1.89982,2.63793,3.99462,3.28636,6.22585,1.11574,3.84165,.58022,7.04039,.32292,8.5773-1.07639,6.42907-2.80118,12.02087-4.62763,17.94063-.67427,2.18666-1.36631,4.42981-2.05113,6.79549-.90321,3.12018-2.02779,7.00451-3.10696,12.20312-1.07926,5.19512-1.86364,10.45429-2.33386,15.63327-.67194,7.4192-.571,12.23674-.53795,13.81941,.01708,.84502,.02077,1.02202-.2508,1.29483v-.00002Z" fill="#f2f2f2"/><path d="M77.85829,362.13754c-.06911-.01541-.13867-.03265-.20832-.05338-1.41759-.39736-2.55471-1.55264-3.38069-3.43309-.3866-.88425-.47786-1.81489-.65983-3.67089-.02857-.2862-.15473-1.73418,.00037-3.65318,.10091-1.25399,.23571-1.75764,.57696-2.15309,.37896-.44058,.88952-.69289,1.42905-.81956,.01459-.16603,.06891-.32837,.17666-.48226,.44384-.63856,1.18677-.37612,1.58988-.23958,.2031,.07294,.45619,.16566,.74088,.2136,.44739,.07734,.71454-.00128,1.11892-.11836,.38693-.11234,.86804-.25204,1.53301-.24018,1.31219,.01803,2.28353,.60778,2.60385,.80185,1.68691,1.01362,2.26934,2.63075,2.94336,4.5032,.13393,.37533,.57841,1.73194,.68191,3.47889,.07472,1.26033-.09043,1.77624-.2798,2.1451-.38679,.75839-.97906,1.10993-2.44902,1.84956-1.53571,.77504-2.30622,1.16285-2.93798,1.36221-1.47009,.4615-2.39322,.75133-3.47921,.50911v.00004Z" fill="#f2f2f2"/></g><g><path d="M272.89334,256.00726c4.58404-3.8726,3.36694-12.85136-2.71866-20.05499-2.66386-3.1533-5.81911-5.44332-8.90944-6.69713l-3.55195-4.09919-45.86697-57.47021s-25.40049-57.17084-32.89866-63.34725c-7.49803-6.17638-16.31982-2.9607-16.31982-2.9607l-6.88312,8.51577,42.89202,79.82433,43.89713,44.17702,5.92589,6.17831c.71997,3.25633,2.45066,6.7498,5.11471,9.90286,6.08547,7.2036,14.73482,9.90377,19.31886,6.03117Z" fill="#ffb6b6"/><polygon points="186.3126 114.96848 197.80691 131.82581 214.30816 156.24765 184.65838 166.50444 158.47981 121.58457 186.3126 114.96848" fill="#e6e6e6"/></g><rect y="440" width="656" height="2" fill="#3f3d56"/><path d="M412.11221,231.462h52.3007v17.75972c0,28.5682-23.19375,51.76195-51.76195,51.76195h-.53876v-69.52167h0Z" transform="translate(876.52512 532.44567) rotate(-180)" fill="#2f2e41"/><polygon points="423.76747 291.68351 432.4361 263.31122 454.67448 262.19772 464.41291 300.98367 423.76747 291.68351" fill="#a0616a"/><polygon points="423.76747 291.68351 432.4361 263.31122 454.67448 262.19772 464.41291 300.98367 423.76747 291.68351" opacity=".1"/><circle cx="444.00288" cy="253.78547" r="26.15035" fill="#a0616a"/><path d="M388.57707,399.95212l-6.92153,6.92153s-36.98417-24.80659-51.16869-15.55519c-14.18452,9.2514-14.80225,27.16565,1.87653,37.04937,16.67878,9.88372,59.30234,33.9753,59.30234,33.9753,0,0,56.83141,9.88372,95.13084-20.38518s45.40336-28.72457,38.6083-44.78562-21.62065-12.35465-21.62065-12.35465l-28.41571,16.67878-11.73692-2.47093-75.05453,.9266Z" fill="#2f2e41"/><polyline points="390.12141 407.67378 419.77258 420.64617 408.65339 447.20868 364.79436 436.70722" fill="#2f2e41"/><polyline points="465.9104 407.67378 425.94991 426.20576 441.39322 458.32787 485.86998 439.17815" fill="#2f2e41"/><polygon points="425.94991 286.54709 387.34161 303.58581 399.69626 371.53642 388.57707 399.95212 447.87942 409.21811 478.28965 399.78188 475.67739 386.362 478.28965 336.27701 488.64978 306.67448 460.85181 287.52476 425.94991 286.54709" fill="#e6e6e6"/><polygon points="416.06618 423.1171 435.2159 428.67669 425.94991 451.37959 400.62286 441.64908 416.06618 423.1171" fill="#a0616a"/><polygon points="442.67976 423.1171 419.15485 434.85402 419.15485 452.78043 445.71735 449.67961 442.67976 423.1171" fill="#a0616a"/><path d="M408.65339,457.0924s40.77036,27.18024,56.21368,16.06105c15.44332-11.11919,24.09158-25.32704,21.00291-27.18024-3.08866-1.8532-12.35465-4.94186-12.35465-4.94186l-51.88955,10.50146-12.97239,5.55959Z" fill="#2f2e41"/><path d="M356.76384,436.70722s-21.00291,32.1221-1.23547,37.06396c19.76745,4.94186,69.58249-15.44332,69.58249-15.44332l-3.48508-26.56251-9.26599,9.26599-55.59595-4.32413Z" fill="#2f2e41"/><g><path id="uuid-f90347b5-01d3-4a65-adde-e3fff0e81842-398" d="M487.66313,214.36689c-5.77817-5.3412-7.70593-12.65205-4.30616-16.32876,3.39977-3.6767,10.83858-2.32671,16.6181,3.01717,2.33796,2.10299,4.1383,4.7353,5.25037,7.6767l24.19653,22.94004-11.00711,11.12526-22.68488-23.79597c-3.02049-.87841-5.78663-2.46756-8.06685-4.63444Z" fill="#a0616a"/><path d="M481.08154,285.49907l43.78296-21.36685-22.64874-38.95294,7.0903-14.40452s55.11928,30.72553,49.63411,53.08311c-5.48517,22.35758-60.1566,63.43074-77.61741,56.86428-5.3006-1.99339-8.37146-5.55096-10.07787-9.53934-4.16658-9.73849,.31735-21.03815,9.83665-25.68373Z" fill="#e6e6e6"/></g><path d="M393.93853,274.94138c1.33017-4.04449,3.95597-7.58536,5.13081-11.6777,1.55993-5.4336,4.88104,6.62062,5.20505,.97685,.61586-10.72717,16.98786-38.32097,26.33441-43.62136,9.34655-5.30042,14.71471-3.70231,24.23691,1.27563,0,0,4.62224,.29395,10.37669,3.13496,5.75445,2.841,10.93423,7.39099,13.17242,13.40557,1.77407,4.76741,1.57772,10.0029,2.17049,15.05499,1.65137,14.07491,9.5412,27.46086,7.84774,41.53075-.52831,4.38972-2.1968,8.92904-5.78598,11.51101-3.58918,2.58193-9.38774,2.30106-11.75026-1.43621-.80618-1.27532-1.14712-2.78837-1.838-4.12967-.69091-1.3413-1.93929-2.5917-3.44752-2.54997-2.26696,.06275-3.42085,3.10459-2.52692,5.18881s2.99462,3.3426,4.967,4.46193c-4.69749,2.11326-10.5247,1.45521-14.63257-1.6525-4.10783-3.10771-6.32613-8.53624-5.5702-13.63139,1.06522-7.18007,11.52522-5.69396,12.75744-12.84725,.89696-5.20734,4.0471-13.92052,3.18907-19.1344-.85804-5.21392-4.97891,1.09916-.63781-1.91344-4.77597,2.30238-14.99173-13.44835-19.99158-15.21254-4.99981-1.76419-9.23911-5.58422-11.5126-10.37401-5.30307,7.6874-9.9679,5.59979-11.86713,14.74371-1.89923,9.14393,1.25398,37.34917,9.07424,42.45428-3.12966,2.13534-7.0217-2.24229-8.49015,1.25026-.83191,1.97857-1.37124,4.14349-2.75201,5.78676-2.63709,3.1385-7.50642,3.32941-11.38756,2.00979-4.81245-1.63627-8.92709-5.23012-11.1958-9.77878-2.26871-4.54866-2.66419-9.99748-1.07615-14.82609Z" fill="#2f2e41"/><g><path id="uuid-bae71f6d-0a8e-4bcd-ae8c-7ec40a5eb615-399" d="M327.0461,268.81246c-1.41336-7.74067-6.55299-13.28586-11.47905-12.38558-4.92606,.90028-7.77237,7.90435-6.35747,15.64759,.52277,3.10086,1.78053,6.03144,3.66807,8.54654l6.40267,32.72191,15.29139-3.33188-7.93536-31.90426c.8769-3.02093,1.01741-6.20796,.40976-9.29431Z" fill="#a0616a"/><path d="M390.63048,301.37212l-41.50158,25.51684-20.7519-39.9957-15.96126-1.73233s-3.59409,63.00219,18.22189,70.35144c21.81598,7.34925,85.79043-16.80111,89.60277-35.06211,1.15732-5.54352-.20084-10.04262-2.65387-13.62055-5.98962-8.7363-17.93277-11.00546-26.95605-5.45759Z" fill="#e6e6e6"/></g><polygon points="617.05087 349.01241 468.38961 395.99861 468.38961 214.9862 617.05087 168 617.05087 349.01241" fill="#fff"/><path d="M467.38965,397.36426V214.25391l150.66113-47.61865v183.10986l-150.66113,47.61914Zm2-181.64551v178.91504l146.66113-46.35352V169.36475l-146.66113,46.354Z" fill="#3f3d56"/><polygon points="253 389.16719 372.22242 426.84889 372.22242 281.6817 253 244 253 389.16719" fill="#fff"/><path d="M373.22266,428.21387l-1.30176-.41211-119.9209-37.90234V242.63477l1.30176,.41211,119.9209,37.90234v147.26465Zm-119.22266-39.7793l117.22266,37.04883v-143.06934l-117.22266-37.04883v143.06934Z" fill="#3f3d56"/><path d="M504.52123,226.17339c-1.69862,8.85611,1.40108,18.48559,7.94693,24.68783,6.54585,6.20224,16.32832,8.77872,25.08007,6.60551,8.30923-2.06332,16.0803-10.84909,12.56478-18.6556-2.50634-5.56554-10.15012-7.67099-15.63598-4.99475s-8.53655,9.10946-8.2198,15.20508,3.5603,11.76218,7.88779,16.0668c11.28757,11.22792,29.36749,14.13932,39.31637,26.56893,8.68789,10.85421,8.42057,27.88999-.6036,38.46627-9.02417,10.57628-25.80556,13.52149-37.89186,6.6502-4.98157-2.83212-9.2677-7.37561-10.5054-12.97071s1.25602-12.1574,6.49117-14.48769c9.87296-4.3947,19.81456,7.40977,30.62006,7.58262,6.18911,.09901,12.20007-4.18172,14.13032-10.06296,1.93025-5.88125-.375-12.89138-5.41908-16.47916" fill="#8452ff"/><path d="M295.31129,352.82492c1.91086,5.60944-2.04963,12.45001-7.86576,13.58574s-12.05911-3.71238-12.3989-9.62861c-.33979-5.91623,5.30709-11.44721,11.215-10.98483,9.51865,.74498,15.13935,13.77337,24.66767,13.16441,6.51948-.41667,10.63758-7.085,13.04413-13.15836,2.77094-6.99296,4.79745-14.28061,6.03427-21.70017,1.03172-6.18919,1.50533-12.59742,.0169-18.69292s-5.17563-11.88312-10.76672-14.73098c-8.49274-4.32584-20.11775-.10589-24.17316,8.51926s-.14885,20.02076,8.17725,24.65926c10.41248,5.80083,24.75391,1.62332,34.21398,8.87428,7.58156,5.81111,8.88467,16.52801,9.57681,26.05534,.44147,6.07684,.8773,12.24762-.36693,18.21208-1.24423,5.96446-4.41251,11.80171-9.6676,14.88504-3.9802,2.33531-9.29388,2.79788-13.1245,.22454s-5.26832-8.52829-2.28969-12.05298c2.43812-2.88509,6.87743-3.345,10.4457-2.10584s6.47301,3.83594,9.27418,6.37002" fill="#8452ff"/><path d="M197.98272,57.59688l-8.32481,31.73834-31.73834-6.24361s12.48721-22.89323,9.36541-33.29924l30.69773,7.80451Z" fill="#ffb6b6"/><g><polygon points="164.47883 470.73161 183.5914 470.72975 192.68337 397.00899 164.475 397.01097 164.47883 470.73161" fill="#ffb6b6"/><path d="M229.96091,470.29805h0c.5951,1.00226,.9091,4.23709,.9091,5.40263h0c0,3.58257-2.9042,6.48688-6.48688,6.48688h-59.18941c-2.44401,0-4.42538-1.98126-4.42538-4.42538v-2.46424s-2.92804-7.40634,3.10028-16.53505c0,0,7.4924,7.14792,18.68796-4.04764l3.30147-5.98087,23.89813,17.47788,13.24637,1.6305c2.89804,.35669,5.46741-.05536,6.95812,2.45529h.00023Z" fill="#2f2e41"/></g><path d="M217.54779,257.38223l-26.33639,179.21589h-33.04253l4.3937-102.3008,2.31245-53.79045-6.70614-25.6041s-3.0576-5.69126-5.63343-12.5901c-2.9034-7.78529-5.1966-17.11863-1.79214-21.54443,1.25259-1.6316,4.50932-2.83922,8.93508-3.73849,2.70431-.55241,5.85185-.98282,9.24987-1.31681,19.5403-1.93348,47.33484-.72586,47.33484-.72586l.70657,23.31733,.39186,13.02046,.18627,6.05736Z" fill="#2f2e41"/><g><polygon points="130.81138 461.96687 149.72095 464.74508 169.43942 393.13087 141.53077 389.02972 130.81138 461.96687" fill="#ffb6b6"/><path d="M195.66009,471.06275h0c.44298,1.07816,.28312,4.32427,.11358,5.47741h0c-.52111,3.54447-3.81687,5.99546-7.36146,5.47433l-58.5599-8.60951c-2.41801-.3555-4.09013-2.60389-3.73461-5.02202l.35844-2.43804s-1.8196-7.75347,5.47244-15.90824c0,0,6.373,8.16172,19.07797-1.2863l4.13632-5.43704,21.10168,20.76815,12.86832,3.53994c2.81533,.77443,5.41732,.7405,6.52698,3.44128l.00023,.00003Z" fill="#2f2e41"/></g><path d="M217.96229,227.49402l-3.61227,31.10896-19.69956,65.55494-32.42875,107.92594-32.68747-4.8037,29.33664-153.45465-2.90478-26.31331s-.94599-2.61557-2.03037-6.44477c-2.15241-7.57549-4.85202-19.9122-1.88201-26.20507,.40103-.85543,.90447-1.59763,1.52728-2.19861,1.16816-1.13288,3.54237-1.82081,6.72328-2.18572,13.29559-1.50266,40.67703,2.79521,52.86106,4.90503l4.79696,12.11095Z" fill="#2f2e41"/><path d="M192.77971,79.96981l35.90074,45.26615-6.44435,47.1937-5.52256,48.0213-65.03757-9.88571s14.04812-33.81954,15.60902-35.38044,5.48159,2.2942,2.7408-2.75515-5.8626-5.04936-3.2611-7.65086-20.29172-36.42104-20.29172-54.63156,10.92631-32.77894,10.92631-32.77894l35.38044,2.6015Z" fill="#e6e6e6"/><circle cx="184.40352" cy="39.40612" r="24.18452" fill="#ffb6b6"/><path d="M183.27331,85.64613s3.6189-28.63475,4.25945-36.96193c.64055-8.32718,12.39491-21.32831,12.39491-21.32831l8.32718,6.7258s7.04607,0,2.24193-10.24883c-4.80414-10.24883-13.77187-11.85021-13.77187-11.85021,0,0-.96083-13.4516-17.61518-11.85021-16.65436,1.60138-24.02071,15.05298-24.02071,15.05298,0,0-.96083-16.97463-11.52994-4.48387s-16.65436,17.61518-5.44469,21.77877c11.20966,4.16359,19.53684,.96083,19.53684,.96083,0,0-10.88939,2.24193-8.96773,9.92856s-25.30181,42.59672-12.81104,46.44003c12.49077,3.84331,40.35479,13.13132,43.55755,7.04607,3.20276-6.08525,3.84331-11.20966,3.84331-11.20966Z" fill="#2f2e41"/><path d="M282.96703,258.40562c4.61634-3.83404,3.47453-12.82269-2.55048-20.07708-2.63733-3.17551-5.77328-5.4919-8.853-6.77157l-3.51747-4.12881-45.38369-57.85261s-24.92044-57.38172-32.36658-63.62076c-7.44601-6.23901-16.29443-3.09737-16.29443-3.09737l-6.95425,8.45779,42.22149,80.18101,43.52533,44.54338,5.8739,6.22776c.69265,3.26225,2.394,6.7701,5.03153,9.94538,6.02488,7.25435,14.6513,10.02692,19.26763,6.19287Z" fill="#ffb6b6"/><path d="M164.41249,98.40979s11.11013,57.6544,23.75258,66.15377l25.19302-19.64431s2.20459-.09476-1.8986-4.72964c-4.10319-4.63488-3.05263-14.58777-3.05263-14.58777,0,0,1.84628,2.38882-2.17123-.92737-4.0175-3.31619-.27745-26.12251-.27745-26.12251l-41.54568-.14218Z" fill="#e6e6e6"/></svg>