<svg width="202" height="172" viewBox="0 0 202 172" fill="none" xmlns="http://www.w3.org/2000/svg">
<path d="M41.1758 83.883V33.5889H179.882V103.471H109.47" stroke="#F7CC6A" stroke-miterlimit="10"/>
<path d="M72.0935 105.588H59.5994C58.6465 105.588 57.9053 104.953 57.6935 104L56.4229 96.4823C56.2112 95.4235 56.9523 94.4706 58.0112 94.2588C58.1171 94.2588 58.2229 94.2588 58.3288 94.2588H70.8229C71.7759 94.2588 72.517 94.8941 72.7288 95.847L74.1053 103.365C74.3171 104.423 73.5759 105.376 72.517 105.588C72.4112 105.588 72.1994 105.588 72.0935 105.588Z" fill="#E57BB2"/>
<path d="M63.9396 96.5882C65.3431 96.5882 66.4808 95.4505 66.4808 94.047C66.4808 92.6436 65.3431 91.5059 63.9396 91.5059C62.5362 91.5059 61.3984 92.6436 61.3984 94.047C61.3984 95.4505 62.5362 96.5882 63.9396 96.5882Z" fill="#E57BB2"/>
<path d="M141.235 25.6475H166.647C168.447 25.6475 169.823 27.0239 169.823 28.8239V64.8239C169.823 66.6239 168.447 68.0004 166.647 68.0004H141.235C139.435 68.0004 138.059 66.6239 138.059 64.8239V28.8239C138.059 27.0239 139.435 25.6475 141.235 25.6475Z" fill="#85AEE8"/>
<path d="M82.8935 35.7061C85.4347 42.1649 87.5524 48.7296 89.2465 55.5061C90.7288 61.1178 87.6582 66.9414 82.1524 68.9531C80.3524 69.5884 78.5524 70.1178 76.6465 70.5414" stroke="black" stroke-linecap="round" stroke-linejoin="round"/>
<path d="M63.3058 60.1648C62.9881 60.4825 62.5646 60.8001 62.1411 61.0119C60.0234 62.1766 57.4823 61.4354 56.3176 59.3178C55.1529 57.2001 55.894 54.659 58.0117 53.4943C58.1176 53.4943 58.2234 53.3884 58.3293 53.3884C58.7529 53.1766 59.2823 52.9648 59.8117 52.9648" stroke="black" stroke-linecap="round" stroke-linejoin="round"/>
<path d="M81.5176 74.0356V69.165" stroke="black" stroke-linecap="round" stroke-linejoin="round"/>
<path d="M62.3516 61.1182V73.824" stroke="black" stroke-linecap="round" stroke-linejoin="round"/>
<path d="M76.4336 70.859C77.4924 72.659 79.1865 73.9296 81.1983 74.3532V69.6943L76.4336 70.859Z" fill="black"/>
<path d="M80.458 54.4478C81.7286 53.9183 82.4698 52.6477 82.0462 51.6948C81.6227 50.7419 80.2462 50.5301 78.9757 51.0595L77.7051 46.8242" stroke="black" stroke-linecap="round" stroke-linejoin="round"/>
<path d="M82.3366 47.7531C82.742 47.6967 82.9856 47.0405 82.8807 46.2876C82.7758 45.5347 82.3621 44.9701 81.9567 45.0266C81.5513 45.0831 81.3077 45.7393 81.4126 46.4922C81.5175 47.2451 81.9312 47.8096 82.3366 47.7531Z" fill="black"/>
<path d="M72.7398 50.3421C73.1272 50.2097 73.242 49.5193 72.9962 48.7999C72.7504 48.0805 72.2372 47.6046 71.8498 47.7369C71.4625 47.8693 71.3477 48.5597 71.5934 49.2791C71.8392 49.9985 72.3525 50.4744 72.7398 50.3421Z" fill="black"/>
<path d="M82.8932 35.706C79.6109 37.2942 71.7756 40.0472 66.3756 41.8472C62.7756 43.0119 60.8697 46.9295 62.0344 50.4237C62.458 51.8001 62.9874 53.0707 63.7285 54.2354L59.705 52.9648C58.9638 53.0707 58.1168 53.3884 57.4815 53.8119L55.1521 48.9413C51.4462 41.6354 54.4109 32.6354 61.8227 29.0354C62.8815 28.506 64.0462 28.0825 65.3168 27.7648C70.0815 26.706 75.1638 25.5413 79.505 24.5884C82.6815 23.8472 85.7521 25.7531 86.4932 28.9295C86.4932 29.1413 86.5991 29.3531 86.5991 29.5648C86.9168 32.106 85.4344 34.5413 83.105 35.6001L82.8932 35.706Z" fill="black" stroke="black" stroke-linecap="round" stroke-linejoin="round"/>
<path d="M76.9634 64.0821C74.8457 64.0821 72.9399 63.2351 71.5634 61.6469C70.6104 60.588 70.7163 58.8939 71.7751 57.941C72.5163 57.3057 73.4693 57.0939 74.4222 57.4116C76.0104 58.0469 77.8104 58.1527 79.5046 57.7292C80.4575 57.5174 81.4104 57.8351 82.0457 58.5763C82.9987 59.6351 82.8928 61.3292 81.834 62.2821C80.3516 63.4469 78.7634 64.0821 76.9634 64.0821Z" stroke="black" stroke-linecap="round" stroke-linejoin="round"/>
<path d="M71.1406 58.5771C72.0936 59.4242 73.2583 60.0595 74.5289 60.3772" stroke="black" stroke-linecap="round" stroke-linejoin="round"/>
<path d="M134.352 55.8239V32.5298C134.352 31.3651 135.305 30.4121 136.469 30.4121H162.94C164.105 30.4121 165.057 31.3651 165.057 32.5298V70.6474C165.057 71.8121 164.105 72.7651 162.94 72.7651H136.787" stroke="black" stroke-linecap="round" stroke-linejoin="round"/>
<path d="M94.6463 118.294C92.7404 122.847 89.8816 130.682 86.4933 134.494C78.5522 143.282 68.1757 147.412 57.3757 148.153C36.411 149.635 22.6463 137.882 21.058 120.518C19.1522 99.8704 40.5404 77.8469 62.0345 74.0352" stroke="black" stroke-linecap="round" stroke-linejoin="round"/>
<path d="M69.1289 125.177C71.8818 123.695 76.1171 126.236 78.5524 130.789C80.9877 135.342 80.6701 140.318 77.9171 141.801" stroke="black" stroke-linecap="round" stroke-linejoin="round"/>
<path d="M142.399 91.1882C142.082 92.8823 137.741 93.5176 132.552 92.6705C127.364 91.8235 123.446 89.7058 123.764 88.0117" stroke="black" stroke-linecap="round" stroke-linejoin="round"/>
<path d="M103.857 128.247C107.246 131.953 112.01 134.282 116.987 134.494C129.587 135.553 139.01 123.059 140.281 111.094L143.669 78.7999C144.728 76.8941 145.575 74.8823 146.316 72.7646" stroke="black" stroke-linecap="round" stroke-linejoin="round"/>
<path d="M81.1992 73.2942C98.3522 72.4471 106.082 81.3412 107.67 92.0354C107.67 92.0354 109.258 112.153 116.035 112.153C119.317 112.153 121.117 110.247 122.176 104.106C123.552 96.0589 123.023 90.553 124.823 76.7883" stroke="black" stroke-linecap="round" stroke-linejoin="round"/>
<path d="M48.4821 147.941C48.3762 150.588 48.2704 151.859 48.0586 154.612" stroke="black" stroke-linecap="round" stroke-linejoin="round"/>
<path d="M47.1055 108.235C47.4231 110.988 48.1643 118.4 48.4819 126.977" stroke="black" stroke-linecap="round" stroke-linejoin="round"/>
<path d="M51.7647 105.165C51.7647 105.165 52.2941 111.094 47.5294 112.894C47.5294 112.894 47.1059 109.083 47 108.236C48.5882 107.071 50.1765 106.012 51.7647 105.165Z" fill="black" stroke="black" stroke-linecap="round" stroke-linejoin="round"/>
<path d="M104.071 103.577C104.388 114.483 103.647 138.624 102.482 155.989" stroke="black" stroke-linecap="round" stroke-linejoin="round"/>
<path d="M104.071 117.553L104.177 115.224C103.859 119.141 105.871 129.412 110.635 133.012C108.094 131.847 105.871 130.259 103.965 128.247L104.071 117.553Z" fill="black" stroke="black" stroke-linecap="round" stroke-linejoin="round"/>
<path d="M124.822 76.7885C125.458 71.6003 126.834 66.4121 128.74 61.5415C130.434 57.7297 139.01 53.1768 139.01 53.1768C139.01 53.1768 142.399 55.6121 134.034 62.3885C134.034 62.3885 138.375 67.365 135.516 76.5768" stroke="black" stroke-linecap="round" stroke-linejoin="round"/>
<path d="M148.222 48.4121H152.245C154.045 48.4121 155.528 49.8945 155.528 51.6945V55.718C155.528 57.518 154.045 59.0003 152.245 59.0003H148.222C146.422 59.0003 144.939 57.518 144.939 55.718V51.6945C144.939 49.8945 146.422 48.4121 148.222 48.4121Z" stroke="black" stroke-linecap="round" stroke-linejoin="round"/>
<path d="M147.164 43.2234C147.799 42.5882 148.752 42.2705 149.599 42.2705C151.611 42.2705 153.305 43.9646 153.305 45.9764V47.9882" stroke="black" stroke-linecap="round" stroke-linejoin="round"/>
<path d="M51.7629 105.165C40.9629 109.506 40.7512 119.141 44.4571 123.906C47.21 127.506 52.0806 129.2 57.2688 129.2C66.2688 129.2 76.9629 121.153 79.5041 110.459C79.9276 108.871 80.9865 101.141 89.0335 101.353C89.0335 101.353 101.528 101.036 101.634 103.047C101.634 104.318 98.9865 105.377 94.6453 105.377" stroke="black" stroke-linecap="round" stroke-linejoin="round"/>
<path d="M92.6353 123.589C92.6353 123.589 100.365 117.977 101.318 115.648C102.271 113.318 100.471 112.789 92 113.53" stroke="black" stroke-linecap="round" stroke-linejoin="round"/>
<path d="M91.1523 109.612C91.1523 109.612 98.7759 108.553 100.47 109.929C102.376 111.517 99.9406 113.317 99.9406 113.317" stroke="black" stroke-linecap="round" stroke-linejoin="round"/>
<path d="M99.5171 109.506C100.152 107.495 100.047 106.118 97.6112 105.589C95.4936 105.165 89.1406 105.589 89.1406 105.589" stroke="black" stroke-linecap="round" stroke-linejoin="round"/>
<path d="M66.4818 147.412C66.2701 149.847 65.9524 152.283 65.6348 154.824" stroke="black" stroke-linecap="round" stroke-linejoin="round"/>
<path d="M56.1055 75.624C58.2231 79.1181 67.1172 94.4711 67.329 126.236" stroke="black" stroke-linecap="round" stroke-linejoin="round"/>
<path d="M96.3407 120.729C96.1289 129.835 95.3878 144.341 94.1172 155.882" stroke="black" stroke-linecap="round" stroke-linejoin="round"/>
<path d="M85.6465 73.2939C88.5053 76.8939 92.9524 85.8939 95.1759 101.353" stroke="black" stroke-linecap="round" stroke-linejoin="round"/>
<path d="M81.4116 73.9297C82.5763 79.3297 79.0822 83.6709 73.7881 83.6709C68.1763 83.4591 63.3057 79.4356 62.0352 73.9297" stroke="black" stroke-linecap="round" stroke-linejoin="round"/>
<path d="M80.7754 40.2589C81.4107 39.7295 82.3636 39.8354 82.7872 40.4707" stroke="black" stroke-linecap="round" stroke-linejoin="round"/>
<path d="M68.916 44.2828C69.1278 43.5417 69.9748 43.1181 70.716 43.3299" stroke="black" stroke-linecap="round" stroke-linejoin="round"/>
<path d="M135.729 75.8352L146.317 72.7646H136.681C136.681 72.7646 136.046 74.7764 135.729 75.8352Z" fill="black" stroke="black" stroke-linecap="round" stroke-linejoin="round"/>
<path d="M126.518 21.5176L131.176 25.5411" stroke="black" stroke-linecap="round" stroke-linejoin="round"/>
<path d="M126.94 42.0596H122.705" stroke="#E57BB2" stroke-linecap="round" stroke-linejoin="round"/>
<path d="M162.729 23.1062L164.423 19.9297" stroke="black" stroke-linecap="round" stroke-linejoin="round"/>
<path d="M171.623 40.5771H172.682" stroke="black" stroke-linecap="round" stroke-linejoin="round"/>
<path d="M167.916 21.2003L171.198 16.4355" stroke="#F7CC6A" stroke-linecap="round" stroke-linejoin="round"/>
</svg>
