<svg width="202" height="172" viewBox="0 0 202 172" fill="none" xmlns="http://www.w3.org/2000/svg">
<path d="M117.412 51.0596V28.2949H183.059V95.5302" stroke="#F7CC6A" stroke-miterlimit="10"/>
<path d="M162.412 58.4715C165.92 58.4715 168.764 55.6272 168.764 52.1186C168.764 48.6099 165.92 45.7656 162.412 45.7656C158.903 45.7656 156.059 48.6099 156.059 52.1186C156.059 55.6272 158.903 58.4715 162.412 58.4715Z" fill="#E57BB2"/>
<path d="M162.943 54.7655C166.451 54.7655 169.296 51.9211 169.296 48.4125C169.296 44.9039 166.451 42.0596 162.943 42.0596C159.434 42.0596 156.59 44.9039 156.59 48.4125C156.59 51.9211 159.434 54.7655 162.943 54.7655Z" stroke="black" stroke-linecap="round" stroke-linejoin="round"/>
<path d="M138.589 78.0594C142.098 78.0594 144.942 75.2151 144.942 71.7065C144.942 68.1978 142.098 65.3535 138.589 65.3535C135.081 65.3535 132.236 68.1978 132.236 71.7065C132.236 75.2151 135.081 78.0594 138.589 78.0594Z" stroke="black" stroke-linecap="round" stroke-linejoin="round"/>
<path d="M169.295 65.3535H157.648V77.0006H169.295V65.3535Z" stroke="black" stroke-linecap="round" stroke-linejoin="round"/>
<path d="M144.413 42.5889H132.766V54.2359H144.413V42.5889Z" fill="#85AEE8"/>
<path d="M28.0477 104.847C36.1761 104.847 42.7654 98.2581 42.7654 90.1298C42.7654 82.0014 36.1761 75.4121 28.0477 75.4121C19.9194 75.4121 13.3301 82.0014 13.3301 90.1298C13.3301 98.2581 19.9194 104.847 28.0477 104.847Z" fill="#E57BB2"/>
<path d="M87.5544 55.6123C87.8721 57.3064 95.1779 54.024 100.366 51.4829C100.366 51.4829 102.696 47.0358 97.2956 47.2476C95.6015 47.3534 87.1309 53.2829 87.5544 55.6123Z" stroke="black" stroke-linecap="round" stroke-linejoin="round"/>
<path d="M83.8473 53.3887C80.9884 52.6475 91.5767 44.4946 91.5767 44.4946C91.5767 44.4946 93.9061 43.1181 95.3884 44.4946C96.3414 45.4475 97.1884 46.9299 94.2237 48.8358C91.259 50.7416 85.2237 53.7063 83.8473 53.3887Z" stroke="black" stroke-linecap="round" stroke-linejoin="round"/>
<path d="M86.389 43.4355C86.389 43.4355 80.2478 47.0355 80.6713 49.0473C81.0949 51.0591 89.5654 46.0826 89.5654 46.0826" stroke="black" stroke-linecap="round" stroke-linejoin="round"/>
<path d="M72.6251 128.566C49.1193 128.566 23.0722 112.683 26.2487 79.3303C28.3663 56.8832 47.6369 39.942 70.1898 39.942H85.6487C85.6487 39.942 93.2722 39.7303 91.684 44.1773" stroke="black" stroke-linecap="round" stroke-linejoin="round"/>
<path d="M93.0601 101.354H69.8719C59.8131 101.354 50.919 94.0478 49.5425 84.0949C47.8484 71.389 58.6484 62.2831 72.6248 60.9067C79.1896 60.589 80.7778 61.6478 82.4719 65.8831C84.166 70.1184 86.0719 76.2596 87.9778 76.0478C89.8837 75.8361 89.3543 74.5655 89.2484 69.6949C89.2484 68.2125 89.2484 66.5184 89.2484 64.8243C89.3543 60.4831 92.8484 57.0949 97.0837 56.989C99.0954 56.989 101.637 56.8831 104.495 56.7773C114.766 56.3537 113.707 52.8596 113.707 52.8596C108.943 52.2243 104.178 51.9067 99.3072 51.8008" stroke="black" stroke-linecap="round" stroke-linejoin="round"/>
<path d="M137.319 135.13H163.366C177.343 135.13 188.566 123.8 188.672 109.824C188.672 99.2357 180.413 89.4945 164.637 87.271C156.272 86.1063 141.766 84.5181 129.59 81.3416C124.084 79.8593 123.343 74.7769 121.648 70.6475C119.954 66.5181 118.048 60.271 116.143 60.4828C114.237 60.6945 114.766 61.9651 114.872 66.8357C114.872 68.3181 114.872 70.0122 114.872 71.7063C114.766 75.9416 111.272 79.4357 107.037 79.5416C98.5661 79.9651 92.2131 78.271 91.472 79.6475C90.0955 82.1887 100.048 85.5769 109.472 85.5769" stroke="black" stroke-linecap="round" stroke-linejoin="round"/>
<path d="M99.8359 84.5186C99.8359 84.5186 97.2948 88.3303 103.648 89.2833C110.001 90.2362 110.742 90.2362 110.742 90.2362" stroke="black" stroke-linecap="round" stroke-linejoin="round"/>
<path d="M102.377 89.3887C102.377 89.3887 99.8358 93.3063 106.189 94.2593C112.542 95.2122 113.283 95.2122 113.283 95.2122" stroke="black" stroke-linecap="round" stroke-linejoin="round"/>
<path d="M106.082 94.3652C106.082 94.3652 104.282 97.0123 108.941 98.2829C114.976 99.8711 127.788 101.353 127.788 101.353C137.529 102.942 162.094 106.648 163.894 112.259" stroke="black" stroke-linecap="round" stroke-linejoin="round"/>
<path d="M83.7422 69.0596L84.1657 78.6949C84.3775 85.0478 89.6716 90.1302 96.0245 90.236C96.8716 90.236 97.8245 90.2361 98.7775 90.1302" stroke="black" stroke-linecap="round" stroke-linejoin="round"/>
<path d="M98.8823 90.1299C98.3529 92.5652 96.447 94.3652 94.0117 94.6828L94.4352 90.1299C95.9176 90.3416 97.3999 90.3416 98.8823 90.1299Z" fill="black" stroke="black" stroke-linecap="round" stroke-linejoin="round"/>
<path d="M94.2243 73.0826C92.636 72.8708 91.5772 71.812 91.6831 70.6473C91.7889 69.4826 93.1654 68.8473 94.7537 69.0591L94.8596 64.1885" stroke="black" stroke-linecap="round" stroke-linejoin="round"/>
<path d="M100.514 65.7516C100.603 64.9378 100.299 64.2367 99.8337 64.1856C99.3687 64.1345 98.9192 64.7528 98.8298 65.5666C98.7404 66.3803 99.0449 67.0815 99.5099 67.1325C99.975 67.1836 100.424 66.5653 100.514 65.7516Z" fill="black"/>
<path d="M98.8828 59.7421C99.5181 59.1068 100.683 59.1068 101.318 59.7421" stroke="black" stroke-linecap="round" stroke-linejoin="round"/>
<path d="M102.377 74.459C102.06 75.9413 100.683 76.8943 99.3066 76.5766" stroke="black" stroke-linecap="round" stroke-linejoin="round"/>
<path d="M106.4 56.6715C106.4 56.6715 106.93 67.4715 114.765 69.4833C114.765 69.4833 114.236 61.5421 114.977 60.9068C115.4 60.4833 116.459 59.7421 117.412 61.4362C118.471 63.3421 119.424 65.3539 120.271 67.4715C123.024 67.3657 125.247 69.4833 125.353 72.2362C125.353 73.7186 124.718 75.201 123.659 76.1539C124.4 77.7421 125.565 79.2245 127.047 80.2833C128.847 74.9892 128.742 61.7539 128.742 61.7539C128.742 48.8362 118.259 38.3539 105.342 38.4598C100.471 38.4598 95.8122 39.9421 91.8945 42.6951C91.8945 43.2245 91.8945 43.7539 91.8945 44.2833C92.8475 43.7539 93.9063 43.7539 94.9651 44.0715C96.0239 44.601 96.5534 45.8715 96.0239 47.0362C95.9181 47.1421 95.9181 47.248 95.8122 47.4598C96.7651 47.248 97.7181 47.1421 98.671 47.3539C100.047 47.6715 101.636 48.7304 100.259 51.6951C100.259 51.6951 105.13 52.0127 108.412 52.3304C111.695 52.648 113.812 52.8598 113.812 52.8598C113.812 52.8598 114.659 55.9304 106.4 56.6715Z" fill="black" stroke="black" stroke-linecap="round" stroke-linejoin="round"/>
<path d="M94.3303 90.1299L93.2715 101.883L99.2009 109.4L118.048 99.9769" stroke="black" stroke-linecap="round" stroke-linejoin="round"/>
<path d="M93.6954 96.9062C87.5542 96.8003 81.6248 94.4709 77.1777 90.2356L82.1542 64.9297L84.0601 69.8003L84.166 78.8003C84.166 78.8003 84.3777 88.4356 94.3307 90.2356L93.6954 96.9062Z" fill="black" stroke="black" stroke-linecap="round" stroke-linejoin="round"/>
<path d="M98.2467 134.177H79.082L81.0938 123.906H100.258L98.2467 134.177Z" stroke="black" stroke-linecap="round" stroke-linejoin="round"/>
<path d="M91.3652 120.412C89.8829 120.518 88.6123 121.471 88.1887 122.847L87.8711 123.906H92.8476L93.1652 122.847C93.5887 122 93.1652 120.941 92.2123 120.518C91.8946 120.412 91.577 120.306 91.3652 120.412Z" stroke="black" stroke-linecap="round" stroke-linejoin="round"/>
<path d="M84.4821 123.906L84.0586 126.236H95.9174L96.3409 123.906H84.4821Z" fill="black" stroke="black" stroke-linecap="round" stroke-linejoin="round"/>
<path d="M75.4836 118.612L68.1777 146.353" stroke="black" stroke-linecap="round" stroke-linejoin="round"/>
<path d="M145.154 135.13L143.143 146.353" stroke="black" stroke-linecap="round" stroke-linejoin="round"/>
<path d="M145.154 135.13L143.989 141.483C141.024 140.318 138.589 138.095 137.318 135.13H145.154Z" fill="black" stroke="black" stroke-linecap="round" stroke-linejoin="round"/>
<path d="M140.283 83.6709C142.295 84.0944 143.142 88.6474 142.189 93.8356C141.236 99.0238 138.801 103.047 136.789 102.624" stroke="black" stroke-linecap="round" stroke-linejoin="round"/>
<path d="M145.789 84.7295C147.801 85.153 148.648 89.706 147.695 95.0001C146.742 100.294 144.307 104.318 142.295 103.894" stroke="black" stroke-linecap="round" stroke-linejoin="round"/>
<path d="M66.5897 62.0714C62.1426 63.2361 57.272 59.4244 55.6838 53.4949C54.0955 47.5655 57.1661 41.9538 61.6132 40.7891" stroke="black" stroke-linecap="round" stroke-linejoin="round"/>
<path d="M58.9658 65.3532C55.5775 66.412 51.3423 62.3885 49.5423 56.3532C47.7423 50.3179 49.4364 44.9179 52.8246 43.4355" stroke="black" stroke-linecap="round" stroke-linejoin="round"/>
<path d="M74.8486 121.048C74.8486 121.048 72.3075 126.236 63.0957 127.401C66.2722 127.93 69.4486 128.248 72.6251 128.248L74.8486 121.048Z" fill="black" stroke="black" stroke-linecap="round" stroke-linejoin="round"/>
<path d="M69.0234 31.0479L71.8823 33.6949" stroke="#85AEE8" stroke-linecap="round" stroke-linejoin="round"/>
<path d="M119.953 110.354L121.224 113.954" stroke="#85AEE8" stroke-linecap="round" stroke-linejoin="round"/>
<path d="M116.777 111.307L116.989 116.813" stroke="#F7CC6A" stroke-linecap="round" stroke-linejoin="round"/>
<path d="M105.553 29.4593L109.47 24.377" stroke="#85AEE8" stroke-linecap="round" stroke-linejoin="round"/>
<path d="M100.789 28.824V24.377" stroke="black" stroke-linecap="round" stroke-linejoin="round"/>
</svg>
