<svg width="116" height="105" viewBox="0 0 116 105" fill="none" xmlns="http://www.w3.org/2000/svg">
<path d="M33.7996 105H0.0996094C0.999609 101.5 4.09961 99.0001 7.79961 99.0001C7.79961 99.0001 10.5996 89.8001 19.6996 92.2001C23.4996 86.3001 30.2996 83.3001 37.1996 84.4001C37.1996 84.3001 33.6996 104.4 33.7996 105Z" fill="#E57BB2"/>
<path d="M104.899 70.0996C98.6988 70.0996 92.8988 73.5996 90.0988 79.1996C84.2988 79.4996 79.1988 82.7996 76.3988 87.8996C75.4988 87.6996 74.4988 87.5996 73.4988 87.5996C68.8988 87.5996 64.6988 90.1996 62.5988 94.3996C62.4988 94.5996 62.4988 94.6996 62.3988 94.8996C61.5988 94.6996 60.6988 94.5996 59.8988 94.5996C54.8988 94.5996 50.7988 97.7996 50.7988 101.8C50.7988 103 51.0988 104.1 51.7988 105.1H115.999V74.4996C112.999 71.6996 108.999 70.0996 104.899 70.0996Z" fill="#E57BB2"/>
<path d="M42.6995 23.0002C38.7995 22.0002 34.7996 24.3002 33.7996 28.2002C33.7996 28.3002 33.6995 28.4002 33.6995 28.5002C32.8995 31.6002 34.4996 34.8002 37.3996 36.1002L56.9996 44.3002" stroke="black" stroke-linecap="round" stroke-linejoin="round"/>
<path d="M34.6992 5.59961C37.3992 5.09961 40.0992 4.99961 42.7992 5.29961C45.3992 5.59961 47.7992 6.89961 49.4992 8.79961" stroke="black" stroke-linecap="round" stroke-linejoin="round"/>
<path d="M44.6989 61.5996C44.6989 61.5996 6.79888 52.9996 15.5989 22.5996C16.3989 19.8996 17.6989 17.3996 19.3989 15.0996" stroke="black" stroke-linecap="round" stroke-linejoin="round"/>
<path d="M56.2989 27.5C55.5989 29.8 54.9989 32.2 54.3989 34.3C52.9989 39.4 55.7989 44.7 60.7989 46.5C62.3989 47.1 64.0989 47.6 65.6989 48" stroke="black" stroke-linejoin="round"/>
<path d="M79 37.3998C80.2 37.7998 81.5 37.5998 82.5 36.7998" stroke="black" stroke-linecap="round" stroke-linejoin="round"/>
<path d="M79 37.3994V51.0994" stroke="black" stroke-linecap="round" stroke-linejoin="round"/>
<path d="M65.7004 48.0002C65.0004 49.8002 63.3004 51.0002 61.4004 51.1002L62.9004 47.2002L65.7004 48.0002Z" fill="black" stroke="black" stroke-linecap="round" stroke-linejoin="round"/>
<path d="M62.2988 31.6998C61.0988 31.1998 60.4988 30.0998 60.8988 29.1998C61.2988 28.2998 62.4988 28.0998 63.6988 28.5998L64.8988 24.7998" stroke="black" stroke-linecap="round" stroke-linejoin="round"/>
<path d="M62.0092 24.033C62.1006 23.3767 61.8644 22.8013 61.4815 22.748C61.0986 22.6946 60.7141 23.1835 60.6226 23.8398C60.5312 24.4962 60.7674 25.0716 61.1503 25.1249C61.5332 25.1783 61.9177 24.6894 62.0092 24.033Z" fill="black"/>
<path d="M71.4247 26.0831C71.6362 25.455 71.5107 24.8458 71.1443 24.7224C70.7779 24.599 70.3094 25.0081 70.0979 25.6362C69.8863 26.2643 70.0119 26.8735 70.3782 26.9969C70.7446 27.1203 71.2131 26.7112 71.4247 26.0831Z" fill="black"/>
<path d="M65.6992 36.9998C66.7992 37.6998 68.2992 37.3998 69.0992 36.2998" stroke="black" stroke-linecap="round" stroke-linejoin="round"/>
<path d="M74.2 23.5996L72.5 22.5996" stroke="black" stroke-linecap="round" stroke-linejoin="round"/>
<path d="M62.7988 15.0996C67.0988 15.4996 71.1988 16.9996 74.6988 19.4996C74.6988 19.4996 74.3988 28.4996 78.8988 30.6996" stroke="black" stroke-linecap="round" stroke-linejoin="round"/>
<path d="M58.0996 12.9994C58.0996 8.79941 61.4996 5.39941 65.7996 5.39941C67.1996 5.39941 68.5996 5.79941 69.7996 6.49941" stroke="black" stroke-linecap="round" stroke-linejoin="round"/>
<path d="M69.6992 6.39979C72.4992 3.19979 77.2992 2.89979 80.4992 5.69979C81.4992 6.59979 82.2992 7.69979 82.6992 8.99979" stroke="black" stroke-linecap="round" stroke-linejoin="round"/>
<path d="M82.5996 9.1C82.9996 9 83.3996 9 83.7996 9C87.9996 9 91.3996 12.5 91.3996 16.7C91.3996 17.5 91.2996 18.4 90.9996 19.2" stroke="black" stroke-linecap="round" stroke-linejoin="round"/>
<path d="M91 19.2002C91 19.2002 90.4 20.3002 89.5 22.2002" stroke="black" stroke-linecap="round" stroke-linejoin="round"/>
<path d="M69.6992 6.39941C70.5992 6.99941 71.3992 7.89941 71.7992 8.99941" stroke="black" stroke-linecap="round" stroke-linejoin="round"/>
<path d="M23.5996 19.7998L24.8996 19.9998C24.4996 19.9998 23.9996 19.8998 23.5996 19.7998Z" fill="black" stroke="black" stroke-linecap="round" stroke-linejoin="round"/>
<path d="M28.2988 2.7002C28.6988 2.8002 29.0988 3.0002 29.4988 3.2002L28.2988 2.7002Z" fill="black" stroke="black" stroke-linecap="round" stroke-linejoin="round"/>
<path d="M34.2988 20.0002C33.6988 20.5002 33.0988 20.9002 32.3988 21.1002L24.7988 20.4002C28.0988 20.5002 31.4988 17.2002 32.6988 13.1002C33.8988 9.00019 32.5988 4.3002 29.6988 2.7002L36.3988 6.00019C37.9988 7.90019 38.4988 11.2002 37.5988 14.5002C37.0988 16.6002 35.8988 18.6002 34.2988 20.0002Z" fill="black"/>
<path d="M42.1992 15.7002C41.4992 18.0002 41.6992 20.5002 42.6992 22.7002L34.1992 21.4002C34.4992 21.2002 34.6992 21.0002 34.9992 20.8002C36.7992 19.2002 38.0992 17.1002 38.5992 14.8002C39.3992 12.1002 39.1992 9.2002 37.9992 6.7002L46.1992 10.0002C44.1992 11.4002 42.7992 13.4002 42.1992 15.7002Z" fill="black"/>
<path d="M32.7747 13.0975C34.0778 8.35814 32.1555 3.69717 28.4811 2.68693C24.8068 1.6767 20.7718 4.69976 19.4688 9.43913C18.1657 14.1785 20.088 18.8395 23.7624 19.8497C27.4367 20.8599 31.4717 17.8369 32.7747 13.0975Z" stroke="black" stroke-linecap="round" stroke-linejoin="round"/>
<path d="M46.5 26.0996L47.8 26.2996C47.4 26.2996 46.9 26.1996 46.5 26.0996Z" fill="black" stroke="black" stroke-linecap="round" stroke-linejoin="round"/>
<path d="M51.1992 9C51.5992 9.1 51.9992 9.3 52.3992 9.5L51.1992 9Z" fill="black" stroke="black" stroke-linecap="round" stroke-linejoin="round"/>
<path d="M55 27.3994L47.5 26.6994C50.8 26.7994 54.4 23.4994 55.5 19.3994C56.6 15.2994 55.2 10.4994 52.3 8.89941L59.2 12.2994C60.8 14.1994 61.3 17.3994 60.4 20.7994C59.5 24.1994 57.3 26.5994 55 27.3994Z" fill="black"/>
<path d="M74.4988 24.6C73.5988 27.9 70.6988 30.1 68.0988 29.4L56.7988 27.7C59.0988 26.1 60.6988 23.8 61.3988 21.1C62.1988 18.4 61.9988 15.6 60.7988 13L71.3988 17.3C73.9988 17.9 75.3988 21.2 74.4988 24.6Z" fill="black"/>
<path d="M55.5052 19.3133C56.8083 14.574 54.8859 9.91299 51.2116 8.90276C47.5373 7.89252 43.5023 10.9156 42.1992 15.6549C40.8962 20.3943 42.8185 25.0553 46.4928 26.0655C50.1672 27.0758 54.2021 24.0527 55.5052 19.3133Z" stroke="black" stroke-linecap="round" stroke-linejoin="round"/>
<path d="M26.8613 12.2809C27.1005 11.4302 26.9065 10.6315 26.428 10.497C25.9495 10.3624 25.3676 10.943 25.1284 11.7937C24.8892 12.6444 25.0832 13.4431 25.5617 13.5776C26.0403 13.7122 26.6221 13.1316 26.8613 12.2809Z" fill="black"/>
<path d="M49.6949 18.0878C49.9291 17.2358 49.7305 16.4382 49.2513 16.3065C48.772 16.1747 48.1936 16.7586 47.9593 17.6106C47.7251 18.4626 47.9237 19.2601 48.4029 19.3919C48.8822 19.5237 49.4606 18.9398 49.6949 18.0878Z" fill="black"/>
<path d="M49.4004 13.6001C50.0004 13.3001 50.6004 13.6001 50.9004 14.2001" stroke="black" stroke-linecap="round" stroke-linejoin="round"/>
<path d="M26.2988 7.30031C26.8988 7.00031 27.4988 7.30031 27.7988 7.90031" stroke="black" stroke-linecap="round" stroke-linejoin="round"/>
<path d="M115.6 77.5C112 79.5 108 80.5 104 80.4C100.7 80.4 86 78.3 86 78.3" stroke="black" stroke-linecap="round" stroke-linejoin="round"/>
<path d="M78.9996 51.0996L96.9996 57.4996C99.8996 58.4996 103 57.0996 104.2 54.2996C105.4 51.5996 104.3 48.3996 101.7 46.8996L77.3996 33.8996C77.3996 33.8996 64.2996 34.5996 63.5996 28.5996C63.5996 28.5996 68.9996 30.5996 71.3996 28.6996C75.0996 25.7996 75.3996 21.9996 73.7996 19.0996C72.4996 16.6996 66.8996 15.2996 65.1996 14.5996C67.1996 13.7996 69.2996 13.6996 71.2996 14.0996C73.7996 14.5996 77.5996 17.1996 81.8996 19.0996L114 32.0996C114.5 32.2996 115 32.5996 115.5 32.7996" stroke="black" stroke-linecap="round" stroke-linejoin="round"/>
<path d="M61.4 51.0996C59.2 55.4996 60.8 58.8996 65.6 59.8996C71.7 61.0996 79 55.9996 79 51.0996" stroke="black" stroke-linecap="round" stroke-linejoin="round"/>
<path d="M58.2996 49.3994C54.9996 56.3994 57.4996 61.8994 64.3996 63.3994C71.9996 65.0994 80.9996 59.1994 83.2996 52.5994" stroke="black" stroke-linecap="round" stroke-linejoin="round"/>
<path d="M48.8 54.3994C48.8 54.3994 37.8 68.6994 34 103.999" stroke="black" stroke-linecap="round" stroke-linejoin="round"/>
<path d="M91 79.2002V104" stroke="black" stroke-linecap="round" stroke-linejoin="round"/>
<path d="M37.2988 59.1994C37.2988 59.1994 43.3988 61.1994 47.4988 56.3994L44.6988 61.5994L37.2988 59.1994Z" fill="black" stroke="black" stroke-linecap="round" stroke-linejoin="round"/>
<path d="M86 78.2998C86.4 81.2998 88.3 83.7998 91 85.0998V79.2998L86 78.2998Z" fill="black" stroke="black" stroke-linecap="round" stroke-linejoin="round"/>
<path d="M102.599 80.3002C98.9988 80.5002 95.7988 75.7002 95.2988 69.4002C94.8988 63.7002 96.8988 58.8002 99.9988 57.7002" stroke="black" stroke-linecap="round" stroke-linejoin="round"/>
<path d="M24.6004 51.8002C22.5004 50.2002 23.4004 45.3002 26.7004 40.8002C30.0004 36.3002 34.4004 34.0002 36.5004 35.5002" stroke="black" stroke-linecap="round" stroke-linejoin="round"/>
</svg>
