<svg width="202" height="172" viewBox="0 0 202 172" fill="none" xmlns="http://www.w3.org/2000/svg">
<path d="M163.894 140.741C170.736 140.741 176.282 135.195 176.282 128.353C176.282 121.511 170.736 115.965 163.894 115.965C157.052 115.965 151.506 121.511 151.506 128.353C151.506 135.195 157.052 140.741 163.894 140.741Z" fill="#85AEE8"/>
<path d="M87.0234 46.7177C90.4117 28.9295 107.459 17.1766 125.353 20.4589C143.247 23.7413 154.894 40.8942 151.612 58.7883C148.329 76.5766 131.176 88.3295 113.282 85.0472C107.459 83.9883 102.059 81.3413 97.7176 77.4236" stroke="#F7CC6A" stroke-miterlimit="10"/>
<path d="M187.294 140.529H129.059V149H187.294V140.529Z" stroke="black" stroke-linecap="round" stroke-linejoin="round"/>
<path d="M66.6937 140.529H58.1172V149H65.9525L66.6937 140.529Z" stroke="black" stroke-linecap="round" stroke-linejoin="round"/>
<path d="M128.741 33.5879L108.094 47.9879L130.858 58.682L128.741 33.5879Z" fill="#E57BB2"/>
<path d="M78.342 87.1652L73.7891 84.624" stroke="black" stroke-linecap="round" stroke-linejoin="round"/>
<path d="M90.3066 54.9766C92.6361 59.0001 94.7537 66.5177 96.8713 72.4472C98.0361 75.6236 97.8243 79.1177 96.3419 82.1883" stroke="black" stroke-linecap="round" stroke-linejoin="round"/>
<path d="M73.048 81.0234C72.7303 81.3411 72.4127 81.5528 72.0951 81.7646C70.2951 82.7175 68.0715 81.9764 67.1186 80.1764C66.1656 78.3764 66.9068 76.1528 68.7068 75.1999C69.1303 74.9881 69.5539 74.8822 69.9774 74.7764" stroke="black" stroke-linecap="round" stroke-linejoin="round"/>
<path d="M73.0469 81.0234L74.741 88.8587" stroke="black" stroke-linecap="round" stroke-linejoin="round"/>
<path d="M90.798 66.0664C91.1978 65.9783 91.3995 65.3513 91.2484 64.666C91.0974 63.9807 90.6509 63.4965 90.2512 63.5846C89.8514 63.6727 89.6498 64.2997 89.8008 64.985C89.9518 65.6703 90.3983 66.1544 90.798 66.0664Z" fill="black"/>
<path d="M88.082 59.9531L89.9879 60.2708" stroke="black" stroke-linecap="round" stroke-linejoin="round"/>
<path d="M77.9176 77C78.0235 77.4235 78.1294 77.9529 78.1294 78.4824C78.2353 81.5529 76.4353 84.0941 74 84.4118" stroke="black" stroke-linecap="round" stroke-linejoin="round"/>
<path d="M85.8594 71.8122C89.3535 71.071 92.4241 68.8475 94.33 65.8828" stroke="black" stroke-linecap="round" stroke-linejoin="round"/>
<path d="M63.8359 74.2471C65.0006 75.0941 66.2712 75.6235 67.5418 76.0471C68.1771 75.3059 69.0242 74.8824 69.9771 74.7765" stroke="black" stroke-linecap="round" stroke-linejoin="round"/>
<path d="M74.8472 55.5059C77.2825 54.0236 80.0354 53.3883 82.7884 53.7059C85.0119 54.8706 87.5531 55.1883 89.9884 54.553L93.059 61.1177C94.5413 53.6001 89.5648 46.4001 82.0472 44.8118C78.7648 44.1765 75.3766 44.8118 72.4119 46.5059C71.7766 46.4001 71.2472 46.2942 70.6119 46.2942C67.1178 38.9883 58.3295 35.8118 51.0237 39.3059C43.7178 42.8001 40.5413 51.5883 44.0354 58.8942C44.5648 59.953 45.2001 61.0118 46.0472 61.9648" stroke="black" stroke-linecap="round" stroke-linejoin="round"/>
<path d="M72.5174 46.5059C72.5174 46.5059 64.1527 47.353 58.7527 59.3177C55.6821 54.1295 64.1527 43.6471 72.5174 46.5059Z" fill="black" stroke="black" stroke-linecap="round" stroke-linejoin="round"/>
<path d="M80.1526 76.595C85.5588 74.8792 88.4645 68.8344 86.6425 63.0938C84.8205 57.3531 78.9608 54.0904 73.5545 55.8062C68.1483 57.5221 65.2427 63.5668 67.0647 69.3075C68.8867 75.0481 74.7463 78.3109 80.1526 76.595Z" stroke="black" stroke-linecap="round" stroke-linejoin="round"/>
<path d="M79.5492 69.9747C80.1811 69.6695 80.2398 68.483 79.6803 67.3245C79.1208 66.166 78.155 65.4743 77.5231 65.7795C76.8912 66.0846 76.8325 67.2712 77.392 68.4297C77.9515 69.5882 78.9173 70.2799 79.5492 69.9747Z" fill="black"/>
<path d="M74 63.5526C74.4235 62.1762 75.8 61.3291 77.2823 61.6468" stroke="black" stroke-linecap="round" stroke-linejoin="round"/>
<path d="M51.2349 63.765C51.0231 65.3532 49.5408 66.2003 49.1172 67.6827L38.1055 66.2003L39.5878 59.4238L50.2819 61.965C50.9172 62.2827 51.3408 63.0238 51.2349 63.765Z" fill="black"/>
<path d="M67.4355 70.2233L64.1532 69.7997L63.9414 69.588C64.8943 68.635 65.4238 67.4703 65.5296 66.0939C65.5296 65.8821 65.5296 65.7762 65.5296 65.5645L66.4826 65.7762L67.4355 70.2233Z" fill="black"/>
<path d="M72.2002 131.212L62.459 135.554C53.1413 139.577 33.3413 138.942 21.1649 123.695C12.3766 112.577 13.0119 96.8006 21.906 85.6829C28.6825 77.2123 36.8355 71.3888 43.506 65.3535" stroke="black" stroke-linecap="round" stroke-linejoin="round"/>
<path d="M126.623 125.494C136.576 134.071 151.611 132.906 160.082 122.953C165.482 116.706 167.176 108.13 164.635 100.188C160.823 88.7531 156.27 77.5296 151.082 66.6237C150.023 64.2943 148.752 61.9649 147.27 59.7413C146.635 58.7884 145.364 58.4707 144.305 59.0002L140.388 61.0119C139.541 61.4354 139.011 62.3884 139.117 63.3413L139.541 69.4825C139.541 69.4825 142.717 69.8002 143.352 64.8237C143.882 65.2472 144.411 65.6707 145.152 65.8825" stroke="black" stroke-linecap="round" stroke-linejoin="round"/>
<path d="M145.365 58.6828C145.259 56.8828 144.2 55.4004 143.141 55.5063C142.083 55.6122 136.471 58.2593 135.941 60.0593C135.412 61.8593 134.459 66.2004 134.459 66.2004C134.459 66.2004 137.106 67.471 139.118 64.4004" stroke="black" stroke-linecap="round" stroke-linejoin="round"/>
<path d="M127.576 54.1296C129.906 51.906 132.659 50.106 135.729 48.7296C139.541 47.0354 140.176 53.6001 140.176 53.6001" stroke="black" stroke-linecap="round" stroke-linejoin="round"/>
<path d="M128.211 54.9762C128.211 54.9762 130.011 56.4586 135.093 53.8115L135.411 55.5056" stroke="black" stroke-linecap="round" stroke-linejoin="round"/>
<path d="M131.494 63.7652C131.494 63.7652 132.129 59.1064 133.188 57.9417C134.247 56.7769 137.635 53.7064 139.753 53.8122C140.918 53.8122 141.976 54.5534 142.4 55.7181" stroke="black" stroke-linecap="round" stroke-linejoin="round"/>
<path d="M162.2 93.2002C162.729 94.7884 158.282 97.6472 152.353 99.5531C146.423 101.459 141.129 101.671 140.6 99.9767" stroke="black" stroke-linecap="round" stroke-linejoin="round"/>
<path d="M41.7066 98.1767C39.3772 101.883 33.1301 101.988 27.6242 98.6003C22.1184 95.212 19.5772 89.3885 21.9066 85.6826" stroke="black" stroke-linecap="round" stroke-linejoin="round"/>
<path d="M57.4819 80.9175C57.4819 80.9175 63.8348 74.9881 64.8937 72.5528C65.9525 70.1175 60.4466 66.6234 58.7525 64.2939C58.7525 64.2939 55.7878 65.8822 60.0231 71.4939C60.0231 71.4939 52.0819 71.8116 49.1172 76.5763" stroke="black" stroke-linecap="round" stroke-linejoin="round"/>
<path d="M49.4359 61.6474C50.6006 61.8591 51.3418 62.9179 51.1301 64.0827C51.0242 64.5062 50.9183 64.8238 50.6006 65.1415C49.2242 67.2591 47.3183 70.1179 50.0712 70.965C50.0712 70.965 55.1536 66.0944 55.8948 64.0827C56.2124 62.9179 56.1065 61.7532 55.683 60.5885C55.1536 58.8944 53.5653 57.8356 51.7653 58.0474C50.1771 58.365 48.0595 59.4238 45.8359 62.2827" stroke="black" stroke-linecap="round" stroke-linejoin="round"/>
<path d="M57.7998 67.0469C56.5292 68.741 55.0469 70.2233 53.3527 71.4939C52.3998 71.2822 51.6586 70.541 51.5527 69.5881" stroke="black" stroke-linecap="round" stroke-linejoin="round"/>
<path d="M54.8359 59.2116C54.8359 59.2116 57.8006 57.5175 59.4948 61.2234C60.0242 62.494 59.9183 63.8705 59.3889 65.0352" stroke="black" stroke-linecap="round" stroke-linejoin="round"/>
<path d="M58.7539 59.9531C58.7539 59.9531 65.7421 60.4825 61.6127 67.1531" stroke="black" stroke-linecap="round" stroke-linejoin="round"/>
<path d="M63.8362 69.3765C63.8362 69.3765 68.3891 65.8823 62.7773 61.7529" stroke="black" stroke-linecap="round" stroke-linejoin="round"/>
<path d="M54.4121 70.541C54.6239 71.1763 55.1533 71.5998 55.7886 71.8116L58.8592 69.7998" stroke="black" stroke-linecap="round" stroke-linejoin="round"/>
<path d="M72.2006 101.777L70.083 93.9416C69.7653 92.671 70.2947 91.2946 71.4594 90.6593C79.6124 86.0004 88.6124 83.1416 97.93 82.1887C99.3065 81.9769 100.577 82.824 101.107 84.0946L103.436 90.1299" stroke="black" stroke-linecap="round" stroke-linejoin="round"/>
<path d="M57.482 80.9179C51.6584 86.0002 46.4702 91.7179 41.8114 97.9649C39.2702 101.565 38.6349 105.483 40.9643 108.659C43.2937 111.836 47.529 113 51.129 111.412L92.2114 93.0943C110.105 85.1532 123.976 92.6708 136.788 107.494C139.435 110.565 142.929 108.447 142.294 106.118C140.07 97.8591 137.317 89.812 134.035 81.9767C132.447 78.0591 129.905 74.5649 126.729 71.7061C124.294 69.4826 122.07 66.9414 122.07 64.612C122.07 61.012 126.305 53.7061 126.305 53.7061C126.305 53.7061 130.223 53.6002 127.364 62.2826C131.811 63.3414 135.411 66.5179 137.105 70.6473" stroke="black" stroke-linecap="round" stroke-linejoin="round"/>
<path d="M120.693 110.776C120.693 110.776 130.011 124.118 129.058 151.859" stroke="black" stroke-linecap="round" stroke-linejoin="round"/>
<path d="M66.6936 133.647C66.9054 139.683 66.5877 145.824 65.6348 151.859" stroke="black" stroke-linecap="round" stroke-linejoin="round"/>
<path d="M66.6934 140.741C66.6934 140.741 72.1992 137.247 72.1992 131.212L66.6934 133.647V140.741Z" fill="black" stroke="black" stroke-linecap="round" stroke-linejoin="round"/>
<path d="M124.082 117.659C124.082 117.659 128.211 126.765 135.517 130.259C135.517 130.259 128.529 127.824 126.623 125.494C126.623 125.494 124.929 118.506 124.082 117.659Z" fill="black" stroke="black" stroke-linecap="round" stroke-linejoin="round"/>
<path d="M92.3184 93.0938C92.3184 93.0938 107.142 105.376 99.836 151.858" stroke="black" stroke-linecap="round" stroke-linejoin="round"/>
<path d="M74.742 88.8593L73.7891 84.624L78.342 87.1652L74.742 88.8593Z" fill="black" stroke="black" stroke-linecap="round" stroke-linejoin="round"/>
<path d="M52.6113 50.2118C55.2584 49.0471 58.4349 50.3177 59.5996 52.9648" stroke="black" stroke-linecap="round" stroke-linejoin="round"/>
<path d="M58.3301 47.9883C60.0242 49.0471 61.2948 50.7412 61.7183 52.6471" stroke="black" stroke-linecap="round" stroke-linejoin="round"/>
<path d="M130.647 140.741L136.47 149H129.059V140.741H130.647Z" fill="black" stroke="black" stroke-linecap="round" stroke-linejoin="round"/>
<path d="M154.26 127.824C154.577 135.13 160.719 140.848 168.024 140.53C175.119 140.212 180.836 134.389 180.836 127.189C180.942 121.259 177.024 115.965 171.307 114.377V101.354H165.06" stroke="black" stroke-linecap="round" stroke-linejoin="round"/>
<path d="M168.871 114.271C170.142 114.271 171.306 114.376 172.471 114.906" stroke="black" stroke-linecap="round" stroke-linejoin="round"/>
<path d="M168.023 86.1065L168.341 83.3535" stroke="black" stroke-linecap="round" stroke-linejoin="round"/>
<path d="M170.141 91.3999L171.411 87.2705" stroke="#E57BB2" stroke-linecap="round" stroke-linejoin="round"/>
</svg>
