<svg xmlns="http://www.w3.org/2000/svg" data-name="Layer 1" width="1028" height="648.5" viewBox="0 0 1028 648.5" xmlns:xlink="http://www.w3.org/1999/xlink"><title>doll play</title><path d="M402.13,476l-6.29-3.91c-.6-.37-1.19-.77-1.79-1.15a59.86,59.86,0,0,0,6.05-116.62l.31,24.66-13.55-26.83h-.17a59.87,59.87,0,0,0-62.58,57c-.06,1.15,0,2.27,0,3.4-4.71-5.38-9-11.15-11.83-17.47-5.73-12.79-5.84-27.28-5.39-44.9.9-34.9,2.41-70.08,4.37-105.14a59.85,59.85,0,0,0,53.16-56.64c.08-1.83.05-3.63,0-5.43,0-.45,0-.89-.07-1.34-.12-1.74-.28-3.46-.55-5.16,0-.28-.1-.55-.15-.82-.24-1.44-.54-2.86-.88-4.26-.13-.53-.26-1-.4-1.57-.42-1.53-.88-3-1.42-4.52-.18-.49-.39-1-.58-1.46-.42-1.09-.88-2.17-1.37-3.23-.26-.56-.51-1.12-.78-1.67-.08-.14-.13-.29-.21-.43l0,0a59.84,59.84,0,0,0-70.28-30.36l.4,32.1-13.4-26.52a59.57,59.57,0,0,0-28.55,64.51h-.06c.09.43.22.84.32,1.26.19.79.39,1.57.61,2.35.28,1,.6,2,.93,3,.25.74.49,1.47.77,2.2.41,1.06.87,2.09,1.33,3.12.27.6.51,1.22.8,1.81q1.14,2.33,2.48,4.53c.31.52.66,1,1,1.51.64,1,1.28,2,2,2.93.43.59.89,1.16,1.34,1.73.66.83,1.33,1.65,2,2.44.49.57,1,1.12,1.51,1.66.74.78,1.49,1.53,2.27,2.26.52.49,1,1,1.57,1.46.88.79,1.8,1.53,2.73,2.26.47.37.93.75,1.41,1.11,1.42,1,2.88,2,4.39,3,.28.17.59.31.87.48,1.27.74,2.55,1.45,3.87,2.09.57.28,1.15.53,1.73.79,1.08.48,2.17.95,3.29,1.38l2,.7c1.1.37,2.22.72,3.35,1,.66.18,1.33.37,2,.53,1.22.29,2.47.53,3.73.75l.24.05q-1.23,22.19-2.2,44.39a59.83,59.83,0,0,0-83.07-26l10.58,29-21.77-20.9a59.66,59.66,0,0,0-19.34,41.34A58.5,58.5,0,0,0,180.3,329a59.84,59.84,0,0,0,110.06,16.3c0,1.5-.1,3-.14,4.51-.4,15.54-.9,34.88,6.85,52.15,5.25,11.7,13.69,21.21,22,29.73,5.43,5.54,11.06,10.91,16.83,16.1a60.09,60.09,0,0,0,21.62,18C367,473,376.86,479.9,387,486.24l6.34,3.94c5.7,3.53,11.54,7.16,17.26,10.93-1-.1-2-.21-3-.26a59.89,59.89,0,0,0-58.94,39l37.4,30.43-41.14-9.54a59.89,59.89,0,0,0,85.82,53.92L428,618.08q-2.76,3.43-5.45,6.82c-24.34,30.83-31.11,60.09-19.06,82.4l14.66-7.91c-11.73-21.72,5.91-49.52,17.47-64.16q2.64-3.33,5.36-6.7c15.55-19.32,33.17-41.22,32.74-68.08C473,520,433.71,495.6,402.13,476Z" transform="translate(-86 -125.75)" fill="#f2f2f2"/><path d="M801.89,561.51l3.8-2.37,1.08-.7a36.19,36.19,0,0,1-3.66-70.52l-.19,14.91,8.2-16.22h.1a36.21,36.21,0,0,1,37.85,34.48c0,.69,0,1.37,0,2a43.14,43.14,0,0,0,7.15-10.56c3.47-7.74,3.54-16.5,3.26-27.15C859,464.31,858,443,856.85,421.83a36.18,36.18,0,0,1-32.15-34.25c-.05-1.1,0-2.2,0-3.28,0-.27,0-.54,0-.82.07-1.05.17-2.09.33-3.11,0-.17.06-.33.09-.5.15-.87.33-1.73.53-2.58l.24-1c.26-.92.54-1.83.86-2.73.11-.3.24-.59.35-.88.26-.66.54-1.31.83-2,.16-.34.31-.67.48-1,0-.08.07-.17.12-.26h0a36.17,36.17,0,0,1,42.51-18.35l-.25,19.41,8.11-16a36,36,0,0,1,17.26,39h0c-.06.26-.14.5-.2.76-.11.48-.23.95-.37,1.42s-.36,1.2-.56,1.79-.3.89-.46,1.33c-.25.64-.53,1.27-.81,1.89-.16.36-.31.73-.48,1.09-.46.94-1,1.85-1.5,2.74-.19.31-.4.61-.6.92q-.57.9-1.2,1.77c-.26.35-.54.7-.81,1-.4.51-.8,1-1.22,1.48s-.61.67-.92,1-.9.92-1.37,1.37c-.31.3-.62.6-.95.88-.53.48-1.09.93-1.65,1.37l-.85.67c-.86.63-1.74,1.23-2.66,1.79l-.53.29c-.76.45-1.54.87-2.34,1.27l-1,.47c-.66.29-1.32.58-2,.83l-1.19.43c-.67.23-1.34.43-2,.62l-1.21.32c-.74.18-1.5.32-2.26.46l-.15,0q.75,13.41,1.34,26.84a36.16,36.16,0,0,1,50.23-15.7l-6.39,17.53,13.16-12.64a36.12,36.12,0,0,1,11.7,25,35.38,35.38,0,0,1-.92,10,36.19,36.19,0,0,1-66.56,9.86c0,.9.06,1.82.08,2.73.25,9.39.55,21.09-4.14,31.53-3.17,7.08-8.28,12.83-13.33,18q-4.94,5-10.18,9.74a36.3,36.3,0,0,1-13.07,10.87q-8.61,6.63-17.81,12.41l-3.84,2.38c-3.44,2.13-7,4.33-10.44,6.61.61-.06,1.22-.13,1.83-.16a36.23,36.23,0,0,1,35.65,23.57l-22.62,18.4,24.88-5.77a36.22,36.22,0,0,1-51.9,32.61l1.68,2.09c1.11,1.38,2.22,2.75,3.3,4.12,14.72,18.64,18.81,36.34,11.52,49.83l-8.86-4.79c7.09-13.13-3.58-29.94-10.57-38.8-1.06-1.34-2.15-2.69-3.24-4-9.4-11.68-20.06-24.92-19.8-41.17C759,588.08,782.79,573.34,801.89,561.51Z" transform="translate(-86 -125.75)" fill="#f2f2f2"/><ellipse cx="514" cy="603.5" rx="514" ry="45" fill="#f2f2f2"/><path d="M195.4,725.42c-3-5.51.4-12.27,4.29-17.18s8.61-10,8.51-16.29c-.15-9-9.7-14.31-17.33-19.09a84,84,0,0,1-15.56-12.51,22.8,22.8,0,0,1-4.78-6.4c-1.58-3.52-1.54-7.52-1.44-11.37q.51-19.26,1.91-38.49" transform="translate(-86 -125.75)" fill="none" stroke="#3f3d56" stroke-miterlimit="10" stroke-width="4"/><path d="M156.49,603.39a14,14,0,0,1,7-11.5l3.14,6.22-.1-7.53a14.22,14.22,0,0,1,4.63-.56,14,14,0,1,1-14.68,13.37Z" transform="translate(-86 -125.75)" fill="#57b894"/><path d="M181.52,698.38a14,14,0,1,0-.68-11.3l8.77,7.13L180,692A14,14,0,0,0,181.52,698.38Z" transform="translate(-86 -125.75)" fill="#57b894"/><path d="M188.45,671.13a14,14,0,0,0,4.45-27.53l.08,5.78-3.18-6.29h0a14,14,0,0,0-14.67,13.36,13.84,13.84,0,0,0,.6,4.79A14,14,0,0,0,188.45,671.13Z" transform="translate(-86 -125.75)" fill="#57b894"/><path d="M154.38,648.46a14,14,0,1,0-6.21-26.27l2.48,6.8-5.1-4.9a14,14,0,0,0-4.53,9.69,13.79,13.79,0,0,0,.35,3.87A14,14,0,0,0,154.38,648.46Z" transform="translate(-86 -125.75)" fill="#57b894"/><path d="M158.38,607.13c3.24.35,6.39,1.36,9.64,1.56s6.82-.57,8.88-3.1c1.1-1.36,1.66-3.08,2.59-4.57a10,10,0,0,1,3.54-3.33A14,14,0,1,1,156.79,607Q157.58,607,158.38,607.13Z" transform="translate(-86 -125.75)" opacity="0.1"/><path d="M154.38,648.46a14,14,0,0,0,13.35-20,10.37,10.37,0,0,0-2.82,2.82c-1,1.51-1.61,3.26-2.78,4.64-2.19,2.57-5.92,3.41-9.31,3.26s-6.66-1.12-10-1.43c-.47,0-.94-.07-1.42-.08A14,14,0,0,0,154.38,648.46Z" transform="translate(-86 -125.75)" opacity="0.1"/><path d="M188.45,671.13a14,14,0,0,0,13.46-19.76,11.48,11.48,0,0,0-3,2.85c-1.09,1.54-1.77,3.32-3,4.74-2.37,2.63-6.35,3.56-9.93,3.48s-6.83-.93-10.28-1.2A14,14,0,0,0,188.45,671.13Z" transform="translate(-86 -125.75)" opacity="0.1"/><path d="M181.52,698.38a14,14,0,0,0,25.59-11.45,13.84,13.84,0,0,0-3.08,2.75c-1.34,1.62-2.22,3.47-3.76,5-2.87,2.82-7.5,4-11.63,4.09A60,60,0,0,1,181.52,698.38Z" transform="translate(-86 -125.75)" opacity="0.1"/><path d="M216.57,719.07s-11.08-.34-14.42-2.72-17-5.21-17.86-1.4-16.65,19-4.15,19.06,29.06-1.94,32.4-4S216.57,719.07,216.57,719.07Z" transform="translate(-86 -125.75)" fill="#656380"/><path d="M179.92,732.69c12.51.1,29.06-2,32.39-4,2.54-1.55,3.55-7.09,3.89-9.65h.37s-.7,8.94-4,11-19.89,4.07-32.4,4c-3.61,0-4.85-1.31-4.78-3.21C175.86,732,177.23,732.66,179.92,732.69Z" transform="translate(-86 -125.75)" opacity="0.2"/><path d="M710.32,354.32c11.06,8.46,17.56,21.91,19.73,35.66.64,4,.94,8.16,1.59,12.22A71.18,71.18,0,0,0,755.91,445a13,13,0,0,1-12.14-.33,82.72,82.72,0,0,0,15.28,31.24,63.76,63.76,0,0,1-21.35-17.52,53.74,53.74,0,0,0,10.86,41.09,42.94,42.94,0,0,1-22.9-27.14l9.54,25.16c-6-1.71-10.3-6.8-13.75-12a97.42,97.42,0,0,1-15.57-65.4c1.18-9.63,3.81-19.09,4.24-28.78s-1.74-20.1-8.68-26.89c-5.24-5.14-12.56-7.5-19.75-8-4.52-.32-16.23,3.29-11.8-4.85C676.67,339.15,702.43,348.29,710.32,354.32Z" transform="translate(-86 -125.75)" fill="#3f3d56"/><path d="M674.06,346.78l5.72,13.68c2.5,2,3.8-1.92,4.68-1.07a23.27,23.27,0,0,1,3,3.73l.31-.17-8.39-18.74C676.49,341.68,675.06,345.27,674.06,346.78Z" transform="translate(-86 -125.75)" fill="#8452ff"/><ellipse cx="556.55" cy="270.97" rx="61.47" ry="59.16" fill="#3f3d56"/><path d="M544,712.21c-12.33-.91-25-1.79-36.78,2.08-4.37,1.44-8.82,3.55-13.36,2.78-4.8-.81-8.44-4.65-11.7-8.27-3.54-3.93-7.21-8.1-8.41-13.26a18.22,18.22,0,0,1,1.48-11.81,4.86,4.86,0,0,1,1.11-1.64c1-.88,2.49-.9,3.83-.85,11.56.49,23.19,3.34,34.58,1.32,6.66-1.18,19.8-6.08,23.69,2.34C540.08,688.39,537.33,711.72,544,712.21Z" transform="translate(-86 -125.75)" fill="#575a89"/><path d="M422.12,633.07c-15.38,4.19-30.09,10.51-44.74,16.81l-32.58,14,9.63,23.84c.83,2-.74,1.88,1.26,2.78,2.22,1,7.34,2.38,9.62,1.51,21.95-8.39,47.2-3.59,69.28-11.64,8.13-3,15.73-7.65,24.28-9,10-1.61,20.59,1.48,30.27-1.57a5,5,0,0,0,2.68-1.63,5.06,5.06,0,0,0,.56-3.22c-.5-8.23-3.61-16-7.65-23.07-2.65-4.68-6.88-14-12.15-16.28-5.95-2.55-17.57,1.18-23.77,2.1A228.87,228.87,0,0,0,422.12,633.07Z" transform="translate(-86 -125.75)" fill="#ffc1c7"/><path d="M368.88,691.59c-12.1,2.51-24.56,5.18-34.78,12.13-3.81,2.59-7.5,5.84-12.08,6.35-4.84.54-9.39-2.14-13.52-4.73-4.49-2.8-9.17-5.8-11.74-10.43a18.27,18.27,0,0,1-1.83-11.77,4.91,4.91,0,0,1,.61-1.87A5.36,5.36,0,0,1,299,679.4c11.25-2.72,26.47-7.6,36.86-12.68,6.08-3,14.1-6.88,20.16.14C358.53,669.77,362.31,693,368.88,691.59Z" transform="translate(-86 -125.75)" fill="#575a89"/><path d="M622,470a19.09,19.09,0,0,0-.95,7.3l0,18.46a23.08,23.08,0,0,0,.93,7.86c1.17,3.23,3.71,5.75,6.3,8A86.51,86.51,0,0,0,656.69,528c5.8,2,12.15,3.42,18.06,1.71a30.94,30.94,0,0,0,9.37-5.08,105.93,105.93,0,0,0,20.73-19.95c6-7.67,11.21-17.57,8.21-26.86A32.66,32.66,0,0,1,688.76,456c-1.15-3.66-1.71-7.68-4.12-10.66-5.16-6.38-15.16-4.59-23-2.2-7.61,2.31-20.83,3.65-26.47,9.45-2.23,2.29-3.08,6.05-5.26,8.55C627.29,464.19,623.6,466.09,622,470Z" transform="translate(-86 -125.75)" fill="#ffc1c7"/><path d="M622,470a19.09,19.09,0,0,0-.95,7.3l0,18.46a23.08,23.08,0,0,0,.93,7.86c1.17,3.23,3.71,5.75,6.3,8A86.51,86.51,0,0,0,656.69,528c5.8,2,12.15,3.42,18.06,1.71a30.94,30.94,0,0,0,9.37-5.08,105.93,105.93,0,0,0,20.73-19.95c6-7.67,11.21-17.57,8.21-26.86A32.66,32.66,0,0,1,688.76,456c-1.15-3.66-1.71-7.68-4.12-10.66-5.16-6.38-15.16-4.59-23-2.2-7.61,2.31-20.83,3.65-26.47,9.45-2.23,2.29-3.08,6.05-5.26,8.55C627.29,464.19,623.6,466.09,622,470Z" transform="translate(-86 -125.75)" opacity="0.1"/><circle cx="572.08" cy="294.1" r="49.57" fill="#ffc1c7"/><path d="M788.79,597.15c2.58,3.68,4.82,7.59,7.51,11.19,5.53,7.39,12.83,13.25,20,19l40.92,32.76c11.42,9.15,23.48,18.6,37.87,21.25,4.91.91,10.72.65,13.87-3.21,3.68-4.53,1.51-11.67-2.78-15.62s-10.07-5.72-15.36-8.17c-22.36-10.39-35.9-33-51.64-52-13.83-16.67-30.08-31.15-45.16-46.69-16-16.52-28.66-35.69-43.93-52.6-7.3,6.08-15.62,18.42-17.26,28-1.47,8.56,3.43,14.83,9,20.78C756.63,567.81,776.17,579.19,788.79,597.15Z" transform="translate(-86 -125.75)" fill="#ffc1c7"/><path d="M762.45,480.2c-.18,14.13-12.19,25.37-15.28,39.15a46.33,46.33,0,0,1-1.62,6.72c-1.27,3.21-3.73,5.8-6.26,8.15-4.18,3.89-8.94,7.52-14.54,8.63-.67.13,2-46.33,2.94-50.64C730.6,478.25,750.81,481.45,762.45,480.2Z" transform="translate(-86 -125.75)" fill="#ff6584"/><path d="M631.66,473.25c-.11,8.33.62,16.84,3.91,24.49S645,512.13,653,514.49c4.22,1.25,8.69,1.24,13.09,1.18,3.55-.06,7.17-.15,10.52-1.31,6.73-2.32,11.38-8.58,14.08-15.16s3.85-13.68,6.07-20.43c1.16-3.55,3.31-7.53,7-7.86,2.35-.2,4.51,1.18,6.46,2.5l20,13.55c4,22.85-.1,46.62-8.39,68.28-2.49,6.49-5.52,12.86-6.66,19.71-2.33,14.1,3.58,28.08,8.35,41.56,3.48,9.82,6.4,19.83,9.33,29.83l7.37,25.21c1.71,5.87,3.44,12,2.18,18s-6.61,11.59-12.68,10.89c-1.69-.19-3.52-.82-5,0-3.61,2,.41,7.43.08,11.56-.42,5.34-7.65,6.49-13,6.37-26.58-.59-52.82,5.14-79.17,8.63s-53.9,4.62-78.78-4.73c-10.65-4-20.51-9.84-30.31-15.63-18.55-11-38.16-23.08-47.27-42.62-4-8.55-5.73-18.14-10.83-26.07-2.8-4.38-6.67-8.37-7.51-13.5-1.18-7.22,4.36-14.15,11-17.19s14.23-3.15,21.54-3.52,15-1.19,21-5.34C518,593.93,522,586,529.26,582.84c3.1-1.33,6.53-1.64,9.8-2.47a46.54,46.54,0,0,0,12.59-5.65c30.27-18.44,47.74-55.88,42.42-90.92a72.48,72.48,0,0,1-1-10.6,3.19,3.19,0,0,1,.34-1.76,2.8,2.8,0,0,1,1.44-.95c4.62-1.7,9.86-.79,14.54-2.32,3.54-1.16,6.5-3.63,9.91-5.13s7.9-1.79,10.41,1C632,466.53,631.71,469.82,631.66,473.25Z" transform="translate(-86 -125.75)" fill="#ff6584"/><path d="M625.76,425.74c-3.53-12.6-19.56-20.1-21.92-32.91-1.24-6.76,1.83-13.62,6.59-18.66s11.08-8.51,17.41-11.69c9.28-4.67,19.41-9,30-8.05,10.92,1,24.87,2.93,33.35,9.64,6,4.74,7.66,14.6,9.51,21.68a17.81,17.81,0,0,1-7.41,19c-7,4.66-16.46,4.32-25.17,4.35s-18.43,1.1-23.8,7.41c-2.94,3.45-4.07,7.94-6.2,11.88s-6.06,7.66-10.81,7.27Z" transform="translate(-86 -125.75)" fill="#3f3d56"/><path d="M544.12,552.37c-3.19,5.12-6.44,10.34-8,16.18-2.44,9.28-.2,19.47,5.11,27.46s13.5,13.84,22.46,17.26c3.56,1.36,7.25,2.36,10.77,3.82,15.64,6.49,27.25,21.79,43.91,24.87a12.43,12.43,0,0,0,7.08-.34c5.32-2.26,6.27-9.26,6.43-15,.08-2.88.14-5.89-1.14-8.47a15.09,15.09,0,0,0-4.59-5c-11.92-9.13-27.17-12.6-40.23-20-6.13-3.46-12.24-8.59-13.06-15.58-.89-7.65,4.77-14.28,9.27-20.54,11.06-15.39,20.46-40.29,15.15-59.45-7.48-27-25.9,11.12-30.82,19Q555.31,534.46,544.12,552.37Z" transform="translate(-86 -125.75)" fill="#ffc1c7"/><path d="M580.67,478.42c-2.85,3.28-4.77,7.25-7.2,10.86a45.41,45.41,0,0,1-13,12.76c5.76-.6,12.27-1,16.56,2.91,3.63,3.27,4.47,8.56,6.83,12.84a15.8,15.8,0,0,0,8.27,7.39,11.48,11.48,0,0,0,10.78-1.46c4.63-3.6,5.14-10.29,5.26-16.16l.21-10.56c.08-3.93,0-8.24-2.52-11.23-1.57-1.84-3.86-2.87-5.92-4.14C592,476.74,589.6,468.17,580.67,478.42Z" transform="translate(-86 -125.75)" fill="#ff6584"/><path d="M615,444.18c1.35-5.58-2.43-11.38-1.42-17a10.42,10.42,0,0,1,4.75-6.93c1.39-.85,3-1.36,4.41-2.14a13.28,13.28,0,0,0,5.6-16.35c-2.06-4.73-6.7-7.75-11.27-10.12-4.85-2.53-10.76-4.64-15.6-2.1-5.88,3.09-6.71,11-6.79,17.68-.07,5.46-.12,11,1.47,16.24a43.63,43.63,0,0,0,8.7,15.26C605.54,439.45,614.09,448,615,444.18Z" transform="translate(-86 -125.75)" fill="#3f3d56"/><path d="M615.68,514.18c-4.51,13.64-20,19.31-30.84,29a14.17,14.17,0,0,0,.81-4.81c0-4-1-8,.14-11.84a45.3,45.3,0,0,1-23,14.72l-4.38-44.13a51.13,51.13,0,0,1-28.61,31.49C542.22,506.36,546,480.5,550,455.34a182.09,182.09,0,0,1,4.16-21,94.5,94.5,0,0,1,11.29-25.3,60.67,60.67,0,0,1,11-13c4.29-3.6,9.14-6.1,13.88-5.22h0c8.18,1.54,4.89,5.55,0,9.23-3.88,2.9-8.78,5.61-9.94,6.77a11.8,11.8,0,0,0-2.87,4.72c-1.88,5.73.14,13,2.6,18.92A271.94,271.94,0,0,0,603,474.08c4,6.1,8.18,12.1,11,18.83S618,507.28,615.68,514.18Z" transform="translate(-86 -125.75)" fill="#3f3d56"/><path d="M582.4,392.85l1.32,14.77c-1.29,2.9-4.25.07-4.63,1.24a22.9,22.9,0,0,0-1,4.71h-.35l-1.33-20.49C577.88,389.47,580.82,392,582.4,392.85Z" transform="translate(-86 -125.75)" fill="#8452ff"/><circle cx="804.54" cy="478.34" r="9.72" fill="#3f3d56"/><path d="M884.9,679.71c1,7-.22,14.22-2.13,21.07a15.59,15.59,0,0,1-1.4,3.7,39.16,39.16,0,0,1-2.38,3.21,28,28,0,0,0-3.48,7.52,211.36,211.36,0,0,0-6.21,22.11,1.51,1.51,0,0,0,0,.94c.23.54,1,.62,1.54.61l7.63,0c.28-.52-.23-1.09-.55-1.59-1.1-1.69,0-3.88.91-5.65a60.12,60.12,0,0,0,5.38-13.6,36.65,36.65,0,0,1,1.8-5.91,59,59,0,0,1,3.93-6.37,53.94,53.94,0,0,0,3.73-7.87,50.7,50.7,0,0,0,3.68-11.54,46,46,0,0,0-.08-11.37,1,1,0,0,0-.24-.65,1,1,0,0,0-.59-.17l-10.24-.52c-2.11-.11-2.61-.57-2.29,1.5C884.15,676.64,884.68,678.15,884.9,679.71Z" transform="translate(-86 -125.75)" fill="#575a89"/><path d="M884.9,679.71c1,7-.22,14.22-2.13,21.07a15.59,15.59,0,0,1-1.4,3.7,39.16,39.16,0,0,1-2.38,3.21,28,28,0,0,0-3.48,7.52,211.36,211.36,0,0,0-6.21,22.11,1.51,1.51,0,0,0,0,.94c.23.54,1,.62,1.54.61l7.63,0c.28-.52-.23-1.09-.55-1.59-1.1-1.69,0-3.88.91-5.65a60.12,60.12,0,0,0,5.38-13.6,36.65,36.65,0,0,1,1.8-5.91,59,59,0,0,1,3.93-6.37,53.94,53.94,0,0,0,3.73-7.87,50.7,50.7,0,0,0,3.68-11.54,46,46,0,0,0-.08-11.37,1,1,0,0,0-.24-.65,1,1,0,0,0-.59-.17l-10.24-.52c-2.11-.11-2.61-.57-2.29,1.5C884.15,676.64,884.68,678.15,884.9,679.71Z" transform="translate(-86 -125.75)" opacity="0.1"/><path d="M886.92,662.59c-2.08,3-4.27,6.44-3.57,10,.52,2.71,2.59,4.82,4.55,6.79,7.81,7.84,15.5,16.56,18.16,27.31.68,2.78,1,5.64,1.6,8.44a92.31,92.31,0,0,0,4.9,14.77l5.1,12.89a7.71,7.71,0,0,0,7.36-4.88,3.19,3.19,0,0,1-1.93-1.25c-2.17-3-2.62-6.88-3.18-10.55-.61-4.06-1.44-8.08-2.27-12.1L914,696.24c-.42-2.06-.84-4.11-1.39-6.14-2.13-7.83-6.16-15.23-6.78-23.33a5.44,5.44,0,0,0-1-3.38,5,5,0,0,0-3.5-1.16C896.27,661.89,891.87,661.4,886.92,662.59Z" transform="translate(-86 -125.75)" fill="#575a89"/><path d="M873.17,737.14a7.46,7.46,0,0,0-1.69-.22,3.51,3.51,0,0,0-2.76,1.51,6.75,6.75,0,0,0-.74,1.64l-.74,2.11a2.33,2.33,0,0,0-.1,1.91,2,2,0,0,0,1,.77,18.48,18.48,0,0,0,5.74,1c1.89.19,3.76.52,5.62.87.64.12,1.28.24,1.93.31a23.66,23.66,0,0,0,4.37-.13l1.5-.15a5.23,5.23,0,0,0,1.47-.27,1.89,1.89,0,0,0,1.09-1,1.76,1.76,0,0,0-1.39-2.19c-.4-.08-.81,0-1.21-.09a5.51,5.51,0,0,1-1.31-.4,25.38,25.38,0,0,1-5.54-2.7c-.47-.33-1-.79-.91-1.36a3.05,3.05,0,0,1,.24-.7,2.59,2.59,0,0,0,0-1.82c-.1-.25-.27-.51-.53-.54-.72-.09-.63.95-.74,1.36s-.4.6-.91.55C876.1,737.49,874.63,737.41,873.17,737.14Z" transform="translate(-86 -125.75)" fill="#3f3d56"/><path d="M916.1,744.43a4.82,4.82,0,0,0,1,2.93,2.36,2.36,0,0,0,.74.59,2.91,2.91,0,0,0,1.34.21,10.62,10.62,0,0,0,3.78-.76,12.8,12.8,0,0,1,1.3-.49,16.59,16.59,0,0,1,1.7-.25c2.25-.32,4.22-1.65,6.4-2.32a15.47,15.47,0,0,0,1.89-.62,8.81,8.81,0,0,0,2.24-1.75,5.76,5.76,0,0,0,1-1.23,5.47,5.47,0,0,0,.44-2.48.7.7,0,0,0-.07-.38.5.5,0,0,0-.24-.19,3.49,3.49,0,0,0-2.17,0,38.46,38.46,0,0,1-8,.3,1.64,1.64,0,0,1-.76-.15,1.69,1.69,0,0,1-.48-.55l-1-1.63c-.29-.47-.75-1-1.28-.85a1,1,0,0,0-.57,1.09,5.78,5.78,0,0,1,.06,1.31,1.76,1.76,0,0,1-.87,1.13,5.34,5.34,0,0,1-1.36.53,10.33,10.33,0,0,0-4.41,2C916,741.63,916.05,743.38,916.1,744.43Z" transform="translate(-86 -125.75)" fill="#3f3d56"/><path d="M915.57,636.56a6.17,6.17,0,0,0,1.49-1.61,6.63,6.63,0,0,0,.63-2.23l.43-2.7a8.11,8.11,0,0,1,1.5-4.2c1-1.13,3-1.54,4-.42a3.54,3.54,0,0,1,.73,1.81,13.12,13.12,0,0,1-3.22,10.88c-1.22,1.34-2.71,2.4-4,3.67-1.13,1.09-2.1,2.33-3.14,3.52a43.48,43.48,0,0,1-8.55,7.47,38.89,38.89,0,0,0,0-6.2c-.22-1.46-.81-2.24.59-3.19A105.05,105.05,0,0,0,915.57,636.56Z" transform="translate(-86 -125.75)" fill="#fbbebe"/><path d="M888.15,616.66a5,5,0,0,1-1.89,3.77q5.09,1.77,10,3.92a3.5,3.5,0,0,1-.86-2.43,12.28,12.28,0,0,1,1.88-6.56,1.56,1.56,0,0,0,.31-.86c0-.64-.8-.94-1.43-1.08a35.75,35.75,0,0,0-6.5-.94c-.94,0-2-.33-1.84.87A13.18,13.18,0,0,1,888.15,616.66Z" transform="translate(-86 -125.75)" fill="#fbbebe"/><circle cx="808.71" cy="483.74" r="7.95" fill="#fbbebe"/><path d="M902.57,631a9.63,9.63,0,0,0-1-1.69,34.93,34.93,0,0,0-4.77-5.85,30.11,30.11,0,0,0-4.53-3.32,10.07,10.07,0,0,0-2.84-1.37,11,11,0,0,0-1.81-.25l-2.07-.16a1.69,1.69,0,0,0-.55,0,1.16,1.16,0,0,0-.69,1.4,3.39,3.39,0,0,0,.92,1.45c.09,4.21-1.78,8.37-2,12.57-.44,7.36,4,14.2,4.41,21.56a2.54,2.54,0,0,1-.1,1c-.06.15-.15.29-.22.44a4.17,4.17,0,0,0-.25,1.49A7.56,7.56,0,0,1,884.8,663a3.34,3.34,0,0,0,1.26,1,22.25,22.25,0,0,0,2.82.67,22,22,0,0,0,7.37,1.26,6.59,6.59,0,0,0,.57-2.14c.35-.22.76.25.81.66s0,.9.26,1.2a1.22,1.22,0,0,0,1,.2,43.43,43.43,0,0,0,4.48-1.05,8.47,8.47,0,0,1,4.55,0,1.2,1.2,0,0,0-.07-1.33,6,6,0,0,1-.71-1.22,2.69,2.69,0,0,1-.09-.8c0-2.33.48-4.68,0-7-.14-.67-.35-1.32-.49-2a17.57,17.57,0,0,1-.19-4c0-1.35-.13-2.77-.15-4.12a15.44,15.44,0,0,0-.11-1.67c-.09-.58-.27-1.14-.32-1.73-.15-1.48.45-3,.36-4.44C906.08,634.28,903.46,633.05,902.57,631Z" transform="translate(-86 -125.75)" fill="#8452ff"/><path d="M884.64,629.89c-1.93,5.11-2.87,10.53-3.8,15.91l-2.18,12.63a60.33,60.33,0,0,0-1.21,10.78,11.45,11.45,0,0,1-.21,3,15.84,15.84,0,0,1-1.86,3.52,11.66,11.66,0,0,0-1.26,7.87c.23,1.13.84,2.41,2,2.54a2.75,2.75,0,0,0,2.31-1.42,18,18,0,0,0,2.43-6,135.45,135.45,0,0,0,3.78-21,19.79,19.79,0,0,1,.37-2.66,19,19,0,0,1,.92-2.66l2.5-6.19a98.9,98.9,0,0,1,6.5-14c-2.61-.75-5.33-1.63-7.94-2.38A7.58,7.58,0,0,0,884.64,629.89Z" transform="translate(-86 -125.75)" fill="#fbbebe"/><path d="M889.16,633.77a29.67,29.67,0,0,0-5.58-.32,1.2,1.2,0,0,1-.75-.2c-.38-.32-.22-.93,0-1.39l.9-2.17a3.13,3.13,0,0,1,.73-1.2,3,3,0,0,1,1.71-.58,15.26,15.26,0,0,1,6,.23,7.1,7.1,0,0,1,4.59,3.55,2.43,2.43,0,0,1,.05,2.38c-.71,1-2.3,2.15-3.48,1.59C891.83,635,890.75,634.11,889.16,633.77Z" transform="translate(-86 -125.75)" fill="#8452ff"/><path d="M898.87,597.15a8.12,8.12,0,0,0-4.43,1.27,9.72,9.72,0,0,0-9.54-2.23,5.56,5.56,0,1,0-6.43,6.43,9.61,9.61,0,0,0-.43,2.86,9.72,9.72,0,0,0,19.09,2.6,8.28,8.28,0,0,0,1.74.18c3.84,0,7-2.49,7-5.56S902.71,597.15,898.87,597.15Z" transform="translate(-86 -125.75)" fill="#3f3d56"/><path d="M900.26,605.48a8.21,8.21,0,0,1-1.74-.18,9.65,9.65,0,0,1-1.29,2.8,8.85,8.85,0,0,0,1.64.16c3.58,0,6.53-2.17,6.9-5A7.63,7.63,0,0,1,900.26,605.48Z" transform="translate(-86 -125.75)" opacity="0.1"/><path d="M889.15,612.42a9.72,9.72,0,0,1-9.29-12.58,5.56,5.56,0,0,1-4.6-5.47,6.64,6.64,0,0,1,.09-1,5.56,5.56,0,0,0,3.12,9.25,9.61,9.61,0,0,0-.43,2.86,9.72,9.72,0,0,0,19,2.9A9.71,9.71,0,0,1,889.15,612.42Z" transform="translate(-86 -125.75)" opacity="0.1"/></svg>